<?xml version="1.0" encoding="UTF-8" standalone="no"?>
<!DOCTYPE svg PUBLIC "-//W3C//DTD SVG 1.1//EN"
 "http://www.w3.org/Graphics/SVG/1.1/DTD/svg11.dtd">
<!-- Generated by graphviz version 2.40.1 (20161225.0304)
 -->
<!-- Title: orphans Pages: 1 -->
<svg width="296pt" height="304pt"
 viewBox="0.00 0.00 296.00 304.00" xmlns="http://www.w3.org/2000/svg" xmlns:xlink="http://www.w3.org/1999/xlink">
<g id="graph0" class="graph" transform="scale(1 1) rotate(0) translate(4 300)">
<title>orphans</title>
<polygon fill="#ffffff" stroke="transparent" points="-4,4 -4,-300 292,-300 292,4 -4,4"/>
<!-- django_migrations -->
<g id="node1" class="node">
<title>django_migrations</title>
<g id="a_node1"><a xlink:href="../../tables/django_migrations.html" xlink:title="django_migrations" target="_top">
<polygon fill="#ffffff" stroke="transparent" points="8,-4 8,-138 260,-138 260,-4 8,-4"/>
<polygon fill="#f5f5f5" stroke="transparent" points="10,-113 10,-136 258,-136 258,-113 10,-113"/>
<polygon fill="none" stroke="#000000" points="10,-113 10,-136 258,-136 258,-113 10,-113"/>
<text text-anchor="start" x="15" y="-121.6" font-family="Helvetica,sans-Serif" font-weight="bold" font-size="11.00" fill="#000000">django_migrations</text>
<text text-anchor="start" x="223.0437" y="-121.1" font-family="Helvetica,sans-Serif" font-size="11.00" fill="#000000">[table]</text>
<polygon fill="none" stroke="#000000" points="10,-91 10,-113 166,-113 166,-91 10,-91"/>
<image xlink:href="../../images/primaryKeys.png" width="11px" height="12px" preserveAspectRatio="xMinYMin meet" x="15" y="-108"/>
<text text-anchor="start" x="30" y="-98.1" font-family="Helvetica,sans-Serif" font-size="11.00" fill="#000000">id</text>
<polygon fill="none" stroke="#000000" points="166,-91 166,-113 258,-113 258,-91 166,-91"/>
<text text-anchor="start" x="169" y="-98.7" font-family="Helvetica,sans-Serif" font-size="11.00" fill="#000000">int8[19]</text>
<polygon fill="none" stroke="#000000" points="10,-69 10,-91 166,-91 166,-69 10,-69"/>
<text text-anchor="start" x="30" y="-76.1" font-family="Helvetica,sans-Serif" font-size="11.00" fill="#000000">app</text>
<polygon fill="none" stroke="#000000" points="166,-69 166,-91 258,-91 258,-69 166,-69"/>
<text text-anchor="start" x="169" y="-76.7" font-family="Helvetica,sans-Serif" font-size="11.00" fill="#000000">varchar[255]</text>
<polygon fill="none" stroke="#000000" points="10,-47 10,-69 166,-69 166,-47 10,-47"/>
<text text-anchor="start" x="30" y="-54.1" font-family="Helvetica,sans-Serif" font-size="11.00" fill="#000000">name</text>
<polygon fill="none" stroke="#000000" points="166,-47 166,-69 258,-69 258,-47 166,-47"/>
<text text-anchor="start" x="169" y="-54.7" font-family="Helvetica,sans-Serif" font-size="11.00" fill="#000000">varchar[255]</text>
<polygon fill="none" stroke="#000000" points="10,-25 10,-47 166,-47 166,-25 10,-25"/>
<text text-anchor="start" x="30" y="-32.1" font-family="Helvetica,sans-Serif" font-size="11.00" fill="#000000">applied</text>
<polygon fill="none" stroke="#000000" points="166,-25 166,-47 258,-47 258,-25 166,-25"/>
<text text-anchor="start" x="168.6023" y="-32.7" font-family="Helvetica,sans-Serif" font-size="11.00" fill="#000000">timestamptz[35,6]</text>
<polygon fill="#ffffff" stroke="transparent" points="10,-6 10,-25 258,-25 258,-6 10,-6"/>
<polygon fill="none" stroke="#000000" points="10,-6 10,-25 258,-25 258,-6 10,-6"/>
<polygon fill="#ffffff" stroke="transparent" points="11,-7 11,-24 96,-24 96,-7 11,-7"/>
<text text-anchor="start" x="13" y="-12.1" font-family="Helvetica,sans-Serif" font-size="11.00" fill="#000000">&lt; 0</text>
<polygon fill="#ffffff" stroke="transparent" points="96,-7 96,-24 172,-24 172,-7 96,-7"/>
<text text-anchor="start" x="130.9431" y="-12.1" font-family="Helvetica,sans-Serif" font-size="11.00" fill="#000000"> &#160;</text>
<polygon fill="#ffffff" stroke="transparent" points="172,-7 172,-24 257,-24 257,-7 172,-7"/>
<text text-anchor="start" x="239.4053" y="-12.1" font-family="Helvetica,sans-Serif" font-size="11.00" fill="#000000">0 &gt;</text>
<polygon fill="#000000" stroke="#000000" points="96,-7 96,-24 96,-24 96,-7 96,-7"/>
<polygon fill="#000000" stroke="#000000" points="172,-7 172,-24 172,-24 172,-7 172,-7"/>
<polygon fill="none" stroke="#000000" stroke-width="2" points="9,-5 9,-137 259,-137 259,-5 9,-5"/>
</a>
</g>
</g>
<!-- django_session -->
<g id="node2" class="node">
<title>django_session</title>
<g id="a_node2"><a xlink:href="../../tables/django_session.html" xlink:title="django_session" target="_top">
<polygon fill="#ffffff" stroke="transparent" points="52,-180 52,-292 280,-292 280,-180 52,-180"/>
<polygon fill="#f5f5f5" stroke="transparent" points="54,-267 54,-290 278,-290 278,-267 54,-267"/>
<polygon fill="none" stroke="#000000" points="54,-267 54,-290 278,-290 278,-267 54,-267"/>
<text text-anchor="start" x="59" y="-275.6" font-family="Helvetica,sans-Serif" font-weight="bold" font-size="11.00" fill="#000000">django_session</text>
<text text-anchor="start" x="243.0437" y="-275.1" font-family="Helvetica,sans-Serif" font-size="11.00" fill="#000000">[table]</text>
<polygon fill="none" stroke="#000000" points="54,-245 54,-267 186,-267 186,-245 54,-245"/>
<image xlink:href="../../images/primaryKeys.png" width="11px" height="12px" preserveAspectRatio="xMinYMin meet" x="59" y="-262"/>
<text text-anchor="start" x="74" y="-252.1" font-family="Helvetica,sans-Serif" font-size="11.00" fill="#000000">session_key</text>
<polygon fill="none" stroke="#000000" points="186,-245 186,-267 278,-267 278,-245 186,-245"/>
<text text-anchor="start" x="189" y="-252.7" font-family="Helvetica,sans-Serif" font-size="11.00" fill="#000000">varchar[40]</text>
<polygon fill="none" stroke="#000000" points="54,-223 54,-245 186,-245 186,-223 54,-223"/>
<text text-anchor="start" x="74" y="-230.1" font-family="Helvetica,sans-Serif" font-size="11.00" fill="#000000">session_data</text>
<polygon fill="none" stroke="#000000" points="186,-223 186,-245 278,-245 278,-223 186,-223"/>
<text text-anchor="start" x="189" y="-230.7" font-family="Helvetica,sans-Serif" font-size="11.00" fill="#000000">text[2147483647]</text>
<polygon fill="#ffffff" stroke="transparent" points="54,-201 54,-223 186,-223 186,-201 54,-201"/>
<polygon fill="none" stroke="#000000" points="54,-201 54,-223 186,-223 186,-201 54,-201"/>
<text text-anchor="start" x="74" y="-208.1" font-family="Helvetica,sans-Serif" font-size="11.00" fill="#000000">expire_date</text>
<polygon fill="none" stroke="#000000" points="186,-201 186,-223 278,-223 278,-201 186,-201"/>
<text text-anchor="start" x="188.6023" y="-208.7" font-family="Helvetica,sans-Serif" font-size="11.00" fill="#000000">timestamptz[35,6]</text>
<polygon fill="#ffffff" stroke="transparent" points="54,-182 54,-201 278,-201 278,-182 54,-182"/>
<polygon fill="none" stroke="#000000" points="54,-182 54,-201 278,-201 278,-182 54,-182"/>
<polygon fill="#ffffff" stroke="transparent" points="55,-183 55,-200 132,-200 132,-183 55,-183"/>
<text text-anchor="start" x="57" y="-188.1" font-family="Helvetica,sans-Serif" font-size="11.00" fill="#000000">&lt; 0</text>
<polygon fill="#ffffff" stroke="transparent" points="132,-183 132,-200 200,-200 200,-183 132,-183"/>
<text text-anchor="start" x="162.9431" y="-188.1" font-family="Helvetica,sans-Serif" font-size="11.00" fill="#000000"> &#160;</text>
<polygon fill="#ffffff" stroke="transparent" points="200,-183 200,-200 277,-200 277,-183 200,-183"/>
<text text-anchor="start" x="259.4053" y="-188.1" font-family="Helvetica,sans-Serif" font-size="11.00" fill="#000000">0 &gt;</text>
<polygon fill="#000000" stroke="#000000" points="132,-183 132,-200 132,-200 132,-183 132,-183"/>
<polygon fill="#000000" stroke="#000000" points="200,-183 200,-200 200,-200 200,-183 200,-183"/>
<polygon fill="none" stroke="#000000" stroke-width="2" points="53,-181 53,-291 279,-291 279,-181 53,-181"/>
</a>
</g>
</g>
</g>
</svg>
