<?xml version="1.0" encoding="UTF-8" standalone="no"?>
<!DOCTYPE svg PUBLIC "-//W3C//DTD SVG 1.1//EN"
 "http://www.w3.org/Graphics/SVG/1.1/DTD/svg11.dtd">
<!-- Generated by graphviz version 2.40.1 (20161225.0304)
 -->
<!-- Title: twoDegreesRelationshipsDiagram Pages: 1 -->
<svg width="758pt" height="573pt"
 viewBox="0.00 0.00 758.00 573.20" xmlns="http://www.w3.org/2000/svg" xmlns:xlink="http://www.w3.org/1999/xlink">
<g id="graph0" class="graph" transform="scale(1 1) rotate(0) translate(4 569.2)">
<title>twoDegreesRelationshipsDiagram</title>
<polygon fill="#ffffff" stroke="transparent" points="-4,4 -4,-569.2 754,-569.2 754,4 -4,4"/>
<text text-anchor="middle" x="72.4936" y="-7.3" font-family="Helvetica,sans-Serif" font-size="11.00" fill="#000000">Generated by SchemaSpy</text>
<!-- auth_group_permissions -->
<g id="node1" class="node">
<title>auth_group_permissions</title>
<g id="a_node1"><a xlink:href="../../tables/auth_group_permissions.html" xlink:title="auth_group_permissions" target="_top">
<polygon fill="#ffffff" stroke="transparent" points="490.5,-500.2 490.5,-561.2 707.5,-561.2 707.5,-500.2 490.5,-500.2"/>
<polygon fill="#f5f5f5" stroke="transparent" points="491,-537.7 491,-560.7 708,-560.7 708,-537.7 491,-537.7"/>
<polygon fill="none" stroke="#000000" points="491,-537.7 491,-560.7 708,-560.7 708,-537.7 491,-537.7"/>
<text text-anchor="start" x="496" y="-546.3" font-family="Helvetica,sans-Serif" font-weight="bold" font-size="11.00" fill="#000000">auth_group_permissions</text>
<text text-anchor="start" x="673.5219" y="-545.8" font-family="Helvetica,sans-Serif" font-size="11.00" fill="#000000">[table]</text>
<polygon fill="none" stroke="#000000" points="491,-518.7 491,-537.7 708,-537.7 708,-518.7 491,-518.7"/>
<text text-anchor="start" x="494" y="-524.8" font-family="Helvetica,sans-Serif" font-size="11.00" fill="#000000">...</text>
<polygon fill="#ffffff" stroke="transparent" points="491,-499.7 491,-518.7 708,-518.7 708,-499.7 491,-499.7"/>
<polygon fill="none" stroke="#000000" points="491,-499.7 491,-518.7 708,-518.7 708,-499.7 491,-499.7"/>
<polygon fill="#ffffff" stroke="transparent" points="492,-500.7 492,-517.7 570,-517.7 570,-500.7 492,-500.7"/>
<text text-anchor="start" x="494" y="-505.8" font-family="Helvetica,sans-Serif" font-size="11.00" fill="#000000">&lt; 2</text>
<polygon fill="#ffffff" stroke="transparent" points="570,-500.7 570,-517.7 639,-517.7 639,-500.7 570,-500.7"/>
<text text-anchor="start" x="601.4431" y="-505.8" font-family="Helvetica,sans-Serif" font-size="11.00" fill="#000000"> &#160;</text>
<polygon fill="#ffffff" stroke="transparent" points="639,-500.7 639,-517.7 707,-517.7 707,-500.7 639,-500.7"/>
<text text-anchor="start" x="698.8862" y="-505.8" font-family="Helvetica,sans-Serif" font-size="11.00" fill="#000000"> &#160;</text>
<polygon fill="#000000" stroke="#000000" points="570,-500.7 570,-517.7 570,-517.7 570,-500.7 570,-500.7"/>
<polygon fill="#000000" stroke="#000000" points="639,-500.7 639,-517.7 639,-517.7 639,-500.7 639,-500.7"/>
</a>
</g>
</g>
<!-- auth_permission -->
<g id="node2" class="node">
<title>auth_permission</title>
<g id="a_node2"><a xlink:href="../../tables/auth_permission.html" xlink:title="auth_permission" target="_top">
<polygon fill="#ffffff" stroke="transparent" points="248,-336.2 248,-463.2 407,-463.2 407,-336.2 248,-336.2"/>
<polygon fill="#f5f5f5" stroke="transparent" points="248.5,-439.7 248.5,-462.7 407.5,-462.7 407.5,-439.7 248.5,-439.7"/>
<polygon fill="none" stroke="#000000" points="248.5,-439.7 248.5,-462.7 407.5,-462.7 407.5,-439.7 248.5,-439.7"/>
<text text-anchor="start" x="253.5" y="-448.3" font-family="Helvetica,sans-Serif" font-weight="bold" font-size="11.00" fill="#000000">auth_permission</text>
<text text-anchor="start" x="373.0219" y="-447.8" font-family="Helvetica,sans-Serif" font-size="11.00" fill="#000000">[table]</text>
<polygon fill="none" stroke="#000000" points="248.5,-417.7 248.5,-439.7 407.5,-439.7 407.5,-417.7 248.5,-417.7"/>
<image xlink:href="../../images/primaryKeys.png" width="11px" height="12px" preserveAspectRatio="xMinYMin meet" x="253.5" y="-434.7"/>
<text text-anchor="start" x="277.5" y="-424.8" font-family="Helvetica,sans-Serif" font-size="11.00" fill="#000000">id</text>
<polygon fill="#ffffff" stroke="transparent" points="248.5,-395.7 248.5,-417.7 407.5,-417.7 407.5,-395.7 248.5,-395.7"/>
<polygon fill="none" stroke="#000000" points="248.5,-395.7 248.5,-417.7 407.5,-417.7 407.5,-395.7 248.5,-395.7"/>
<image xlink:href="../../images/foreignKeys.png" width="11px" height="12px" preserveAspectRatio="xMinYMin meet" x="253.5" y="-412.7"/>
<text text-anchor="start" x="277.5" y="-402.8" font-family="Helvetica,sans-Serif" font-size="11.00" fill="#000000">content_type_id</text>
<polygon fill="#ffffff" stroke="transparent" points="248.5,-373.7 248.5,-395.7 407.5,-395.7 407.5,-373.7 248.5,-373.7"/>
<polygon fill="none" stroke="#000000" points="248.5,-373.7 248.5,-395.7 407.5,-395.7 407.5,-373.7 248.5,-373.7"/>
<text text-anchor="start" x="277.5" y="-380.8" font-family="Helvetica,sans-Serif" font-size="11.00" fill="#000000">codename</text>
<polygon fill="none" stroke="#000000" points="248.5,-354.7 248.5,-373.7 407.5,-373.7 407.5,-354.7 248.5,-354.7"/>
<text text-anchor="start" x="251.5" y="-360.8" font-family="Helvetica,sans-Serif" font-size="11.00" fill="#000000">...</text>
<polygon fill="#ffffff" stroke="transparent" points="248.5,-335.7 248.5,-354.7 407.5,-354.7 407.5,-335.7 248.5,-335.7"/>
<polygon fill="none" stroke="#000000" points="248.5,-335.7 248.5,-354.7 407.5,-354.7 407.5,-335.7 248.5,-335.7"/>
<polygon fill="#ffffff" stroke="transparent" points="249.5,-336.7 249.5,-353.7 305.5,-353.7 305.5,-336.7 249.5,-336.7"/>
<text text-anchor="start" x="251.5" y="-341.8" font-family="Helvetica,sans-Serif" font-size="11.00" fill="#000000">&lt; 1</text>
<polygon fill="#ffffff" stroke="transparent" points="305.5,-336.7 305.5,-353.7 351.5,-353.7 351.5,-336.7 305.5,-336.7"/>
<text text-anchor="start" x="325.4431" y="-341.8" font-family="Helvetica,sans-Serif" font-size="11.00" fill="#000000"> &#160;</text>
<polygon fill="#ffffff" stroke="transparent" points="351.5,-336.7 351.5,-353.7 406.5,-353.7 406.5,-336.7 351.5,-336.7"/>
<text text-anchor="start" x="388.9053" y="-341.8" font-family="Helvetica,sans-Serif" font-size="11.00" fill="#000000">2 &gt;</text>
<polygon fill="#000000" stroke="#000000" points="305.5,-336.7 305.5,-353.7 305.5,-353.7 305.5,-336.7 305.5,-336.7"/>
<polygon fill="#000000" stroke="#000000" points="351.5,-336.7 351.5,-353.7 351.5,-353.7 351.5,-336.7 351.5,-336.7"/>
</a>
</g>
</g>
<!-- auth_group_permissions&#45;&gt;auth_permission -->
<g id="edge1" class="edge">
<title>auth_group_permissions:w&#45;&gt;auth_permission:e</title>
<path fill="none" stroke="#000000" d="M476.6228,-524.8427C464.2675,-518.8769 460.8253,-504.4243 448,-489.7 426.6258,-465.1611 440.0425,-428.7 407.5,-428.7"/>
<polygon fill="#000000" stroke="#000000" points="483.1534,-526.1406 490.2983,-531.2309 487.0767,-526.9203 491,-527.7 491,-527.7 491,-527.7 487.0767,-526.9203 491.7017,-524.1691 483.1534,-526.1406 483.1534,-526.1406"/>
<ellipse fill="none" stroke="#000000" cx="480.0148" cy="-525.5168" rx="3.2" ry="3.2"/>
</g>
<!-- django_content_type -->
<g id="node3" class="node">
<title>django_content_type</title>
<g id="a_node3"><a xlink:href="../../tables/django_content_type.html" xlink:title="django_content_type" target="_top">
<polygon fill="#ffffff" stroke="transparent" points="8,-331.2 8,-392.2 199,-392.2 199,-331.2 8,-331.2"/>
<polygon fill="#f5f5f5" stroke="transparent" points="8.5,-368.7 8.5,-391.7 199.5,-391.7 199.5,-368.7 8.5,-368.7"/>
<polygon fill="none" stroke="#000000" points="8.5,-368.7 8.5,-391.7 199.5,-391.7 199.5,-368.7 8.5,-368.7"/>
<text text-anchor="start" x="13.5" y="-377.3" font-family="Helvetica,sans-Serif" font-weight="bold" font-size="11.00" fill="#000000">django_content_type</text>
<text text-anchor="start" x="165.0219" y="-376.8" font-family="Helvetica,sans-Serif" font-size="11.00" fill="#000000">[table]</text>
<polygon fill="none" stroke="#000000" points="8.5,-349.7 8.5,-368.7 199.5,-368.7 199.5,-349.7 8.5,-349.7"/>
<text text-anchor="start" x="11.5" y="-355.8" font-family="Helvetica,sans-Serif" font-size="11.00" fill="#000000">...</text>
<polygon fill="#ffffff" stroke="transparent" points="8.5,-330.7 8.5,-349.7 199.5,-349.7 199.5,-330.7 8.5,-330.7"/>
<polygon fill="none" stroke="#000000" points="8.5,-330.7 8.5,-349.7 199.5,-349.7 199.5,-330.7 8.5,-330.7"/>
<polygon fill="#ffffff" stroke="transparent" points="9.5,-331.7 9.5,-348.7 69.5,-348.7 69.5,-331.7 9.5,-331.7"/>
<text text-anchor="start" x="11.5" y="-336.8" font-family="Helvetica,sans-Serif" font-size="11.00" fill="#000000"> &#160;</text>
<polygon fill="#ffffff" stroke="transparent" points="69.5,-331.7 69.5,-348.7 129.5,-348.7 129.5,-331.7 69.5,-331.7"/>
<text text-anchor="start" x="96.4431" y="-336.8" font-family="Helvetica,sans-Serif" font-size="11.00" fill="#000000"> &#160;</text>
<polygon fill="#ffffff" stroke="transparent" points="129.5,-331.7 129.5,-348.7 198.5,-348.7 198.5,-331.7 129.5,-331.7"/>
<text text-anchor="start" x="180.9053" y="-336.8" font-family="Helvetica,sans-Serif" font-size="11.00" fill="#000000">2 &gt;</text>
<polygon fill="#000000" stroke="#000000" points="69.5,-331.7 69.5,-348.7 69.5,-348.7 69.5,-331.7 69.5,-331.7"/>
<polygon fill="#000000" stroke="#000000" points="129.5,-331.7 129.5,-348.7 129.5,-348.7 129.5,-331.7 129.5,-331.7"/>
</a>
</g>
</g>
<!-- auth_permission&#45;&gt;django_content_type -->
<g id="edge2" class="edge">
<title>auth_permission:w&#45;&gt;django_content_type:e</title>
<path fill="none" stroke="#000000" d="M234.8634,-401.9221C221.071,-389.7811 224.0315,-358.7 199.5,-358.7"/>
<polygon fill="#000000" stroke="#000000" points="240.95,-404.0546 247.3096,-410.0975 244.725,-405.3773 248.5,-406.7 248.5,-406.7 248.5,-406.7 244.725,-405.3773 249.6904,-403.3025 240.95,-404.0546 240.95,-404.0546"/>
<ellipse fill="none" stroke="#000000" cx="237.93" cy="-402.9965" rx="3.2" ry="3.2"/>
</g>
<!-- auth_user_groups -->
<g id="node4" class="node">
<title>auth_user_groups</title>
<g id="a_node4"><a xlink:href="../../tables/auth_user_groups.html" xlink:title="auth_user_groups" target="_top">
<polygon fill="#ffffff" stroke="transparent" points="515,-202.2 515,-263.2 683,-263.2 683,-202.2 515,-202.2"/>
<polygon fill="#f5f5f5" stroke="transparent" points="515,-239.7 515,-262.7 683,-262.7 683,-239.7 515,-239.7"/>
<polygon fill="none" stroke="#000000" points="515,-239.7 515,-262.7 683,-262.7 683,-239.7 515,-239.7"/>
<text text-anchor="start" x="520" y="-248.3" font-family="Helvetica,sans-Serif" font-weight="bold" font-size="11.00" fill="#000000">auth_user_groups</text>
<text text-anchor="start" x="648.5219" y="-247.8" font-family="Helvetica,sans-Serif" font-size="11.00" fill="#000000">[table]</text>
<polygon fill="none" stroke="#000000" points="515,-220.7 515,-239.7 683,-239.7 683,-220.7 515,-220.7"/>
<text text-anchor="start" x="518" y="-226.8" font-family="Helvetica,sans-Serif" font-size="11.00" fill="#000000">...</text>
<polygon fill="#ffffff" stroke="transparent" points="515,-201.7 515,-220.7 683,-220.7 683,-201.7 515,-201.7"/>
<polygon fill="none" stroke="#000000" points="515,-201.7 515,-220.7 683,-220.7 683,-201.7 515,-201.7"/>
<polygon fill="#ffffff" stroke="transparent" points="516,-202.7 516,-219.7 578,-219.7 578,-202.7 516,-202.7"/>
<text text-anchor="start" x="518" y="-207.8" font-family="Helvetica,sans-Serif" font-size="11.00" fill="#000000">&lt; 2</text>
<polygon fill="#ffffff" stroke="transparent" points="578,-202.7 578,-219.7 630,-219.7 630,-202.7 578,-202.7"/>
<text text-anchor="start" x="600.9431" y="-207.8" font-family="Helvetica,sans-Serif" font-size="11.00" fill="#000000"> &#160;</text>
<polygon fill="#ffffff" stroke="transparent" points="630,-202.7 630,-219.7 682,-219.7 682,-202.7 630,-202.7"/>
<text text-anchor="start" x="673.8862" y="-207.8" font-family="Helvetica,sans-Serif" font-size="11.00" fill="#000000"> &#160;</text>
<polygon fill="#000000" stroke="#000000" points="578,-202.7 578,-219.7 578,-219.7 578,-202.7 578,-202.7"/>
<polygon fill="#000000" stroke="#000000" points="630,-202.7 630,-219.7 630,-219.7 630,-202.7 630,-202.7"/>
</a>
</g>
</g>
<!-- auth_user -->
<g id="node5" class="node">
<title>auth_user</title>
<g id="a_node5"><a xlink:href="../../tables/auth_user.html" xlink:title="auth_user" target="_top">
<polygon fill="#ffffff" stroke="transparent" points="271,-159.2 271,-264.2 384,-264.2 384,-159.2 271,-159.2"/>
<polygon fill="#f5f5f5" stroke="transparent" points="271.5,-240.7 271.5,-263.7 384.5,-263.7 384.5,-240.7 271.5,-240.7"/>
<polygon fill="none" stroke="#000000" points="271.5,-240.7 271.5,-263.7 384.5,-263.7 384.5,-240.7 271.5,-240.7"/>
<text text-anchor="start" x="276.5" y="-249.3" font-family="Helvetica,sans-Serif" font-weight="bold" font-size="11.00" fill="#000000">auth_user</text>
<text text-anchor="start" x="349.5437" y="-248.8" font-family="Helvetica,sans-Serif" font-size="11.00" fill="#000000">[table]</text>
<polygon fill="none" stroke="#000000" points="271.5,-218.7 271.5,-240.7 384.5,-240.7 384.5,-218.7 271.5,-218.7"/>
<image xlink:href="../../images/primaryKeys.png" width="11px" height="12px" preserveAspectRatio="xMinYMin meet" x="276.5" y="-235.7"/>
<text text-anchor="start" x="291.5" y="-225.8" font-family="Helvetica,sans-Serif" font-size="11.00" fill="#000000">id</text>
<polygon fill="#ffffff" stroke="transparent" points="271.5,-196.7 271.5,-218.7 384.5,-218.7 384.5,-196.7 271.5,-196.7"/>
<polygon fill="none" stroke="#000000" points="271.5,-196.7 271.5,-218.7 384.5,-218.7 384.5,-196.7 271.5,-196.7"/>
<text text-anchor="start" x="291.5" y="-203.8" font-family="Helvetica,sans-Serif" font-size="11.00" fill="#000000">username</text>
<polygon fill="none" stroke="#000000" points="271.5,-177.7 271.5,-196.7 384.5,-196.7 384.5,-177.7 271.5,-177.7"/>
<text text-anchor="start" x="274.5" y="-183.8" font-family="Helvetica,sans-Serif" font-size="11.00" fill="#000000">...</text>
<polygon fill="#ffffff" stroke="transparent" points="271.5,-158.7 271.5,-177.7 384.5,-177.7 384.5,-158.7 271.5,-158.7"/>
<polygon fill="none" stroke="#000000" points="271.5,-158.7 271.5,-177.7 384.5,-177.7 384.5,-158.7 271.5,-158.7"/>
<polygon fill="#ffffff" stroke="transparent" points="272.5,-159.7 272.5,-176.7 306.5,-176.7 306.5,-159.7 272.5,-159.7"/>
<text text-anchor="start" x="274.5" y="-164.8" font-family="Helvetica,sans-Serif" font-size="11.00" fill="#000000"> &#160;</text>
<polygon fill="#ffffff" stroke="transparent" points="306.5,-159.7 306.5,-176.7 340.5,-176.7 340.5,-159.7 306.5,-159.7"/>
<text text-anchor="start" x="320.4431" y="-164.8" font-family="Helvetica,sans-Serif" font-size="11.00" fill="#000000"> &#160;</text>
<polygon fill="#ffffff" stroke="transparent" points="340.5,-159.7 340.5,-176.7 383.5,-176.7 383.5,-159.7 340.5,-159.7"/>
<text text-anchor="start" x="365.9053" y="-164.8" font-family="Helvetica,sans-Serif" font-size="11.00" fill="#000000">5 &gt;</text>
<polygon fill="#000000" stroke="#000000" points="306.5,-159.7 306.5,-176.7 306.5,-176.7 306.5,-159.7 306.5,-159.7"/>
<polygon fill="#000000" stroke="#000000" points="340.5,-159.7 340.5,-176.7 340.5,-176.7 340.5,-159.7 340.5,-159.7"/>
</a>
</g>
</g>
<!-- auth_user_groups&#45;&gt;auth_user -->
<g id="edge3" class="edge">
<title>auth_user_groups:w&#45;&gt;auth_user:e</title>
<path fill="none" stroke="#000000" d="M500.3575,-229.7C454.0434,-229.7 437.2891,-229.7 384.5,-229.7"/>
<polygon fill="#000000" stroke="#000000" points="507,-229.7001 515,-233.3 511,-229.7 515,-229.7 515,-229.7 515,-229.7 511,-229.7 515,-226.1 507,-229.7001 507,-229.7001"/>
<ellipse fill="none" stroke="#000000" cx="503.8" cy="-229.7001" rx="3.2" ry="3.2"/>
</g>
<!-- auth_user_user_permissions -->
<g id="node6" class="node">
<title>auth_user_user_permissions</title>
<g id="a_node6"><a xlink:href="../../tables/auth_user_user_permissions.html" xlink:title="auth_user_user_permissions" target="_top">
<polygon fill="#ffffff" stroke="transparent" points="463,-366.7 463,-478.7 735,-478.7 735,-366.7 463,-366.7"/>
<polygon fill="#f5f5f5" stroke="transparent" points="465,-453.7 465,-476.7 733,-476.7 733,-453.7 465,-453.7"/>
<polygon fill="none" stroke="#000000" points="465,-453.7 465,-476.7 733,-476.7 733,-453.7 465,-453.7"/>
<text text-anchor="start" x="470" y="-462.3" font-family="Helvetica,sans-Serif" font-weight="bold" font-size="11.00" fill="#000000">auth_user_user_permissions</text>
<text text-anchor="start" x="698.0437" y="-461.8" font-family="Helvetica,sans-Serif" font-size="11.00" fill="#000000">[table]</text>
<polygon fill="none" stroke="#000000" points="465,-431.7 465,-453.7 691,-453.7 691,-431.7 465,-431.7"/>
<image xlink:href="../../images/primaryKeys.png" width="11px" height="12px" preserveAspectRatio="xMinYMin meet" x="470" y="-448.7"/>
<text text-anchor="start" x="485" y="-438.8" font-family="Helvetica,sans-Serif" font-size="11.00" fill="#000000">id</text>
<polygon fill="none" stroke="#000000" points="691,-431.7 691,-453.7 733,-453.7 733,-431.7 691,-431.7"/>
<text text-anchor="start" x="693.9644" y="-439.4" font-family="Helvetica,sans-Serif" font-size="11.00" fill="#000000">int8[19]</text>
<polygon fill="#ffffff" stroke="transparent" points="465,-409.7 465,-431.7 691,-431.7 691,-409.7 465,-409.7"/>
<polygon fill="none" stroke="#000000" points="465,-409.7 465,-431.7 691,-431.7 691,-409.7 465,-409.7"/>
<image xlink:href="../../images/foreignKeys.png" width="11px" height="12px" preserveAspectRatio="xMinYMin meet" x="470" y="-426.7"/>
<text text-anchor="start" x="485" y="-416.8" font-family="Helvetica,sans-Serif" font-size="11.00" fill="#000000">user_id</text>
<polygon fill="none" stroke="#000000" points="691,-409.7 691,-431.7 733,-431.7 733,-409.7 691,-409.7"/>
<text text-anchor="start" x="693.9644" y="-417.4" font-family="Helvetica,sans-Serif" font-size="11.00" fill="#000000">int4[10]</text>
<polygon fill="#ffffff" stroke="transparent" points="465,-387.7 465,-409.7 691,-409.7 691,-387.7 465,-387.7"/>
<polygon fill="none" stroke="#000000" points="465,-387.7 465,-409.7 691,-409.7 691,-387.7 465,-387.7"/>
<image xlink:href="../../images/foreignKeys.png" width="11px" height="12px" preserveAspectRatio="xMinYMin meet" x="470" y="-404.7"/>
<text text-anchor="start" x="485" y="-394.8" font-family="Helvetica,sans-Serif" font-size="11.00" fill="#000000">permission_id</text>
<polygon fill="none" stroke="#000000" points="691,-387.7 691,-409.7 733,-409.7 733,-387.7 691,-387.7"/>
<text text-anchor="start" x="693.9644" y="-395.4" font-family="Helvetica,sans-Serif" font-size="11.00" fill="#000000">int4[10]</text>
<polygon fill="#ffffff" stroke="transparent" points="465,-368.7 465,-387.7 733,-387.7 733,-368.7 465,-368.7"/>
<polygon fill="none" stroke="#000000" points="465,-368.7 465,-387.7 733,-387.7 733,-368.7 465,-368.7"/>
<polygon fill="#ffffff" stroke="transparent" points="466,-369.7 466,-386.7 558,-386.7 558,-369.7 466,-369.7"/>
<text text-anchor="start" x="468" y="-374.8" font-family="Helvetica,sans-Serif" font-size="11.00" fill="#000000">&lt; 2</text>
<polygon fill="#ffffff" stroke="transparent" points="558,-369.7 558,-386.7 641,-386.7 641,-369.7 558,-369.7"/>
<text text-anchor="start" x="596.4431" y="-374.8" font-family="Helvetica,sans-Serif" font-size="11.00" fill="#000000"> &#160;</text>
<polygon fill="#ffffff" stroke="transparent" points="641,-369.7 641,-386.7 732,-386.7 732,-369.7 641,-369.7"/>
<text text-anchor="start" x="714.4053" y="-374.8" font-family="Helvetica,sans-Serif" font-size="11.00" fill="#000000">0 &gt;</text>
<polygon fill="#000000" stroke="#000000" points="558,-369.7 558,-386.7 558,-386.7 558,-369.7 558,-369.7"/>
<polygon fill="#000000" stroke="#000000" points="641,-369.7 641,-386.7 641,-386.7 641,-369.7 641,-369.7"/>
<polygon fill="none" stroke="#000000" stroke-width="2" points="464,-367.7 464,-477.7 734,-477.7 734,-367.7 464,-367.7"/>
</a>
</g>
</g>
<!-- auth_user_user_permissions&#45;&gt;auth_permission -->
<g id="edge4" class="edge">
<title>auth_user_user_permissions:w&#45;&gt;auth_permission:e</title>
<path fill="none" stroke="#000000" d="M450.5357,-401.9105C435.0405,-409.6497 430.4697,-428.7 407.5,-428.7"/>
<polygon fill="#000000" stroke="#000000" points="457.1901,-400.4335 465.7801,-402.2145 461.095,-399.5668 465,-398.7 465,-398.7 465,-398.7 461.095,-399.5668 464.2199,-395.1855 457.1901,-400.4335 457.1901,-400.4335"/>
<ellipse fill="none" stroke="#000000" cx="454.0661" cy="-401.127" rx="3.2" ry="3.2"/>
</g>
<!-- auth_user_user_permissions&#45;&gt;auth_user -->
<g id="edge5" class="edge">
<title>auth_user_user_permissions:w&#45;&gt;auth_user:e</title>
<path fill="none" stroke="#000000" d="M450.3343,-418.6842C384.7239,-398.2713 471.0428,-229.7 384.5,-229.7"/>
<polygon fill="#000000" stroke="#000000" points="457.0745,-419.6106 464.5098,-424.2665 461.0373,-420.1553 465,-420.7 465,-420.7 465,-420.7 461.0373,-420.1553 465.4902,-417.1335 457.0745,-419.6106 457.0745,-419.6106"/>
<ellipse fill="none" stroke="#000000" cx="453.9043" cy="-419.1748" rx="3.2" ry="3.2"/>
</g>
<!-- django_admin_log -->
<g id="node7" class="node">
<title>django_admin_log</title>
<g id="a_node7"><a xlink:href="../../tables/django_admin_log.html" xlink:title="django_admin_log" target="_top">
<polygon fill="#ffffff" stroke="transparent" points="514,-284.2 514,-345.2 684,-345.2 684,-284.2 514,-284.2"/>
<polygon fill="#f5f5f5" stroke="transparent" points="514,-321.7 514,-344.7 684,-344.7 684,-321.7 514,-321.7"/>
<polygon fill="none" stroke="#000000" points="514,-321.7 514,-344.7 684,-344.7 684,-321.7 514,-321.7"/>
<text text-anchor="start" x="519" y="-330.3" font-family="Helvetica,sans-Serif" font-weight="bold" font-size="11.00" fill="#000000">django_admin_log</text>
<text text-anchor="start" x="649.5219" y="-329.8" font-family="Helvetica,sans-Serif" font-size="11.00" fill="#000000">[table]</text>
<polygon fill="none" stroke="#000000" points="514,-302.7 514,-321.7 684,-321.7 684,-302.7 514,-302.7"/>
<text text-anchor="start" x="517" y="-308.8" font-family="Helvetica,sans-Serif" font-size="11.00" fill="#000000">...</text>
<polygon fill="#ffffff" stroke="transparent" points="514,-283.7 514,-302.7 684,-302.7 684,-283.7 514,-283.7"/>
<polygon fill="none" stroke="#000000" points="514,-283.7 514,-302.7 684,-302.7 684,-283.7 514,-283.7"/>
<polygon fill="#ffffff" stroke="transparent" points="515,-284.7 515,-301.7 577,-301.7 577,-284.7 515,-284.7"/>
<text text-anchor="start" x="517" y="-289.8" font-family="Helvetica,sans-Serif" font-size="11.00" fill="#000000">&lt; 2</text>
<polygon fill="#ffffff" stroke="transparent" points="577,-284.7 577,-301.7 630,-301.7 630,-284.7 577,-284.7"/>
<text text-anchor="start" x="600.4431" y="-289.8" font-family="Helvetica,sans-Serif" font-size="11.00" fill="#000000"> &#160;</text>
<polygon fill="#ffffff" stroke="transparent" points="630,-284.7 630,-301.7 683,-301.7 683,-284.7 630,-284.7"/>
<text text-anchor="start" x="674.8862" y="-289.8" font-family="Helvetica,sans-Serif" font-size="11.00" fill="#000000"> &#160;</text>
<polygon fill="#000000" stroke="#000000" points="577,-284.7 577,-301.7 577,-301.7 577,-284.7 577,-284.7"/>
<polygon fill="#000000" stroke="#000000" points="630,-284.7 630,-301.7 630,-301.7 630,-284.7 630,-284.7"/>
</a>
</g>
</g>
<!-- django_admin_log&#45;&gt;django_content_type -->
<g id="edge6" class="edge">
<title>django_admin_log:w&#45;&gt;django_content_type:e</title>
<path fill="none" stroke="#000000" d="M499.4074,-311.5568C388.7975,-309.3796 349.1324,-283.7002 240,-325.7 218.3306,-334.0395 222.7188,-358.7 199.5,-358.7"/>
<polygon fill="#000000" stroke="#000000" points="506.0004,-311.6214 513.9646,-315.2998 510.0002,-311.6607 514,-311.7 514,-311.7 514,-311.7 510.0002,-311.6607 514.0354,-308.1002 506.0004,-311.6214 506.0004,-311.6214"/>
<ellipse fill="none" stroke="#000000" cx="502.8005" cy="-311.59" rx="3.2" ry="3.2"/>
</g>
<!-- django_admin_log&#45;&gt;auth_user -->
<g id="edge7" class="edge">
<title>django_admin_log:w&#45;&gt;auth_user:e</title>
<path fill="none" stroke="#000000" d="M499.5426,-310.1889C478.313,-305.2185 471.9098,-288.8298 448,-273.7 418.9857,-255.3402 418.8353,-229.7 384.5,-229.7"/>
<polygon fill="#000000" stroke="#000000" points="506.0433,-310.8683 513.6257,-315.2805 510.0217,-311.2841 514,-311.7 514,-311.7 514,-311.7 510.0217,-311.2841 514.3743,-308.1195 506.0433,-310.8683 506.0433,-310.8683"/>
<ellipse fill="none" stroke="#000000" cx="502.8607" cy="-310.5356" rx="3.2" ry="3.2"/>
</g>
<!-- showcase_ownerprofile -->
<g id="node8" class="node">
<title>showcase_ownerprofile</title>
<g id="a_node8"><a xlink:href="../../tables/showcase_ownerprofile.html" xlink:title="showcase_ownerprofile" target="_top">
<polygon fill="#ffffff" stroke="transparent" points="494.5,-120.2 494.5,-181.2 703.5,-181.2 703.5,-120.2 494.5,-120.2"/>
<polygon fill="#f5f5f5" stroke="transparent" points="495,-157.7 495,-180.7 704,-180.7 704,-157.7 495,-157.7"/>
<polygon fill="none" stroke="#000000" points="495,-157.7 495,-180.7 704,-180.7 704,-157.7 495,-157.7"/>
<text text-anchor="start" x="500" y="-166.3" font-family="Helvetica,sans-Serif" font-weight="bold" font-size="11.00" fill="#000000">showcase_ownerprofile</text>
<text text-anchor="start" x="669.5219" y="-165.8" font-family="Helvetica,sans-Serif" font-size="11.00" fill="#000000">[table]</text>
<polygon fill="none" stroke="#000000" points="495,-138.7 495,-157.7 704,-157.7 704,-138.7 495,-138.7"/>
<text text-anchor="start" x="498" y="-144.8" font-family="Helvetica,sans-Serif" font-size="11.00" fill="#000000">...</text>
<polygon fill="#ffffff" stroke="transparent" points="495,-119.7 495,-138.7 704,-138.7 704,-119.7 495,-119.7"/>
<polygon fill="none" stroke="#000000" points="495,-119.7 495,-138.7 704,-138.7 704,-119.7 495,-119.7"/>
<polygon fill="#ffffff" stroke="transparent" points="496,-120.7 496,-137.7 562,-137.7 562,-120.7 496,-120.7"/>
<text text-anchor="start" x="498" y="-125.8" font-family="Helvetica,sans-Serif" font-size="11.00" fill="#000000">&lt; 1</text>
<polygon fill="#ffffff" stroke="transparent" points="562,-120.7 562,-137.7 638,-137.7 638,-120.7 562,-120.7"/>
<text text-anchor="start" x="586.5553" y="-125.8" font-family="Helvetica,sans-Serif" font-size="11.00" fill="#000000">1 row</text>
<polygon fill="#ffffff" stroke="transparent" points="638,-120.7 638,-137.7 703,-137.7 703,-120.7 638,-120.7"/>
<text text-anchor="start" x="685.4053" y="-125.8" font-family="Helvetica,sans-Serif" font-size="11.00" fill="#000000">1 &gt;</text>
<polygon fill="#000000" stroke="#000000" points="562,-120.7 562,-137.7 562,-137.7 562,-120.7 562,-120.7"/>
<polygon fill="#000000" stroke="#000000" points="638,-120.7 638,-137.7 638,-137.7 638,-120.7 638,-120.7"/>
</a>
</g>
</g>
<!-- showcase_ownerprofile&#45;&gt;auth_user -->
<g id="edge8" class="edge">
<title>showcase_ownerprofile:w&#45;&gt;auth_user:e</title>
<path fill="none" stroke="#000000" d="M484.3527,-148.6209C435.0352,-157.6297 441.8341,-229.7 384.5,-229.7"/>
<polygon fill="#000000" stroke="#000000" points="493.8583,-143.7838 494.5477,-151.7541 492.9536,-151.8919 492.2642,-143.9217 493.8583,-143.7838"/>
<polyline fill="none" stroke="#000000" points="495,-147.7 491.0149,-148.0447 "/>
<ellipse fill="none" stroke="#000000" cx="487.8268" cy="-148.3205" rx="3.2" ry="3.2"/>
</g>
<!-- token_blacklist_outstandingtoken -->
<g id="node9" class="node">
<title>token_blacklist_outstandingtoken</title>
<g id="a_node9"><a xlink:href="../../tables/token_blacklist_outstandingtoken.html" xlink:title="token_blacklist_outstandingtoken" target="_top">
<polygon fill="#ffffff" stroke="transparent" points="456,-38.2 456,-99.2 742,-99.2 742,-38.2 456,-38.2"/>
<polygon fill="#f5f5f5" stroke="transparent" points="456,-75.7 456,-98.7 742,-98.7 742,-75.7 456,-75.7"/>
<polygon fill="none" stroke="#000000" points="456,-75.7 456,-98.7 742,-98.7 742,-75.7 456,-75.7"/>
<text text-anchor="start" x="461" y="-84.3" font-family="Helvetica,sans-Serif" font-weight="bold" font-size="11.00" fill="#000000">token_blacklist_outstandingtoken</text>
<text text-anchor="start" x="707.5219" y="-83.8" font-family="Helvetica,sans-Serif" font-size="11.00" fill="#000000">[table]</text>
<polygon fill="none" stroke="#000000" points="456,-56.7 456,-75.7 742,-75.7 742,-56.7 456,-56.7"/>
<text text-anchor="start" x="459" y="-62.8" font-family="Helvetica,sans-Serif" font-size="11.00" fill="#000000">...</text>
<polygon fill="#ffffff" stroke="transparent" points="456,-37.7 456,-56.7 742,-56.7 742,-37.7 456,-37.7"/>
<polygon fill="none" stroke="#000000" points="456,-37.7 456,-56.7 742,-56.7 742,-37.7 456,-37.7"/>
<polygon fill="#ffffff" stroke="transparent" points="457,-38.7 457,-55.7 555,-55.7 555,-38.7 457,-38.7"/>
<text text-anchor="start" x="459" y="-43.8" font-family="Helvetica,sans-Serif" font-size="11.00" fill="#000000">&lt; 1</text>
<polygon fill="#ffffff" stroke="transparent" points="555,-38.7 555,-55.7 644,-55.7 644,-38.7 555,-38.7"/>
<text text-anchor="start" x="596.4431" y="-43.8" font-family="Helvetica,sans-Serif" font-size="11.00" fill="#000000"> &#160;</text>
<polygon fill="#ffffff" stroke="transparent" points="644,-38.7 644,-55.7 741,-55.7 741,-38.7 644,-38.7"/>
<text text-anchor="start" x="723.4053" y="-43.8" font-family="Helvetica,sans-Serif" font-size="11.00" fill="#000000">1 &gt;</text>
<polygon fill="#000000" stroke="#000000" points="555,-38.7 555,-55.7 555,-55.7 555,-38.7 555,-38.7"/>
<polygon fill="#000000" stroke="#000000" points="644,-38.7 644,-55.7 644,-55.7 644,-38.7 644,-38.7"/>
</a>
</g>
</g>
<!-- token_blacklist_outstandingtoken&#45;&gt;auth_user -->
<g id="edge9" class="edge">
<title>token_blacklist_outstandingtoken:w&#45;&gt;auth_user:e</title>
<path fill="none" stroke="#000000" d="M441.5887,-68.0184C387.9681,-87.9517 458.424,-229.7 384.5,-229.7"/>
<polygon fill="#000000" stroke="#000000" points="448.1016,-66.9707 456.5718,-69.2543 452.0508,-66.3353 456,-65.7 456,-65.7 456,-65.7 452.0508,-66.3353 455.4282,-62.1457 448.1016,-66.9707 448.1016,-66.9707"/>
<ellipse fill="none" stroke="#000000" cx="444.9422" cy="-67.4789" rx="3.2" ry="3.2"/>
</g>
</g>
</svg>
