<?xml version="1.0" encoding="UTF-8" standalone="no"?>
<!DOCTYPE svg PUBLIC "-//W3C//DTD SVG 1.1//EN"
 "http://www.w3.org/Graphics/SVG/1.1/DTD/svg11.dtd">
<!-- Generated by graphviz version 2.40.1 (20161225.0304)
 -->
<!-- Title: twoDegreesRelationshipsDiagram Pages: 1 -->
<svg width="481pt" height="573pt"
 viewBox="0.00 0.00 481.00 573.20" xmlns="http://www.w3.org/2000/svg" xmlns:xlink="http://www.w3.org/1999/xlink">
<g id="graph0" class="graph" transform="scale(1 1) rotate(0) translate(4 569.2)">
<title>twoDegreesRelationshipsDiagram</title>
<polygon fill="#ffffff" stroke="transparent" points="-4,4 -4,-569.2 477,-569.2 477,4 -4,4"/>
<text text-anchor="middle" x="72.4936" y="-7.3" font-family="Helvetica,sans-Serif" font-size="11.00" fill="#000000">Generated by SchemaSpy</text>
<!-- auth_group_permissions -->
<g id="node1" class="node">
<title>auth_group_permissions</title>
<g id="a_node1"><a xlink:href="../../tables/auth_group_permissions.html" xlink:title="auth_group_permissions" target="_top">
<polygon fill="#ffffff" stroke="transparent" points="213.5,-500.2 213.5,-561.2 430.5,-561.2 430.5,-500.2 213.5,-500.2"/>
<polygon fill="#f5f5f5" stroke="transparent" points="214,-537.7 214,-560.7 431,-560.7 431,-537.7 214,-537.7"/>
<polygon fill="none" stroke="#000000" points="214,-537.7 214,-560.7 431,-560.7 431,-537.7 214,-537.7"/>
<text text-anchor="start" x="219" y="-546.3" font-family="Helvetica,sans-Serif" font-weight="bold" font-size="11.00" fill="#000000">auth_group_permissions</text>
<text text-anchor="start" x="396.5219" y="-545.8" font-family="Helvetica,sans-Serif" font-size="11.00" fill="#000000">[table]</text>
<polygon fill="none" stroke="#000000" points="214,-518.7 214,-537.7 431,-537.7 431,-518.7 214,-518.7"/>
<text text-anchor="start" x="217" y="-524.8" font-family="Helvetica,sans-Serif" font-size="11.00" fill="#000000">...</text>
<polygon fill="#ffffff" stroke="transparent" points="214,-499.7 214,-518.7 431,-518.7 431,-499.7 214,-499.7"/>
<polygon fill="none" stroke="#000000" points="214,-499.7 214,-518.7 431,-518.7 431,-499.7 214,-499.7"/>
<polygon fill="#ffffff" stroke="transparent" points="215,-500.7 215,-517.7 293,-517.7 293,-500.7 215,-500.7"/>
<text text-anchor="start" x="217" y="-505.8" font-family="Helvetica,sans-Serif" font-size="11.00" fill="#000000">&lt; 2</text>
<polygon fill="#ffffff" stroke="transparent" points="293,-500.7 293,-517.7 362,-517.7 362,-500.7 293,-500.7"/>
<text text-anchor="start" x="324.4431" y="-505.8" font-family="Helvetica,sans-Serif" font-size="11.00" fill="#000000"> &#160;</text>
<polygon fill="#ffffff" stroke="transparent" points="362,-500.7 362,-517.7 430,-517.7 430,-500.7 362,-500.7"/>
<text text-anchor="start" x="421.8862" y="-505.8" font-family="Helvetica,sans-Serif" font-size="11.00" fill="#000000"> &#160;</text>
<polygon fill="#000000" stroke="#000000" points="293,-500.7 293,-517.7 293,-517.7 293,-500.7 293,-500.7"/>
<polygon fill="#000000" stroke="#000000" points="362,-500.7 362,-517.7 362,-517.7 362,-500.7 362,-500.7"/>
</a>
</g>
</g>
<!-- auth_group -->
<g id="node2" class="node">
<title>auth_group</title>
<g id="a_node2"><a xlink:href="../../tables/auth_group.html" xlink:title="auth_group" target="_top">
<polygon fill="#ffffff" stroke="transparent" points="8,-410.7 8,-496.7 130,-496.7 130,-410.7 8,-410.7"/>
<polygon fill="#f5f5f5" stroke="transparent" points="8,-473.7 8,-496.7 130,-496.7 130,-473.7 8,-473.7"/>
<polygon fill="none" stroke="#000000" points="8,-473.7 8,-496.7 130,-496.7 130,-473.7 8,-473.7"/>
<text text-anchor="start" x="13" y="-482.3" font-family="Helvetica,sans-Serif" font-weight="bold" font-size="11.00" fill="#000000">auth_group</text>
<text text-anchor="start" x="95.5219" y="-481.8" font-family="Helvetica,sans-Serif" font-size="11.00" fill="#000000">[table]</text>
<polygon fill="none" stroke="#000000" points="8,-451.7 8,-473.7 130,-473.7 130,-451.7 8,-451.7"/>
<image xlink:href="../../images/primaryKeys.png" width="11px" height="12px" preserveAspectRatio="xMinYMin meet" x="13" y="-468.7"/>
<text text-anchor="start" x="37" y="-458.8" font-family="Helvetica,sans-Serif" font-size="11.00" fill="#000000">id</text>
<polygon fill="#ffffff" stroke="transparent" points="8,-429.7 8,-451.7 130,-451.7 130,-429.7 8,-429.7"/>
<polygon fill="none" stroke="#000000" points="8,-429.7 8,-451.7 130,-451.7 130,-429.7 8,-429.7"/>
<text text-anchor="start" x="37" y="-436.8" font-family="Helvetica,sans-Serif" font-size="11.00" fill="#000000">name</text>
<polygon fill="#ffffff" stroke="transparent" points="8,-410.7 8,-429.7 130,-429.7 130,-410.7 8,-410.7"/>
<polygon fill="none" stroke="#000000" points="8,-410.7 8,-429.7 130,-429.7 130,-410.7 8,-410.7"/>
<polygon fill="#ffffff" stroke="transparent" points="9,-411.7 9,-428.7 46,-428.7 46,-411.7 9,-411.7"/>
<text text-anchor="start" x="11" y="-416.8" font-family="Helvetica,sans-Serif" font-size="11.00" fill="#000000"> &#160;</text>
<polygon fill="#ffffff" stroke="transparent" points="46,-411.7 46,-428.7 83,-428.7 83,-411.7 46,-411.7"/>
<text text-anchor="start" x="61.4431" y="-416.8" font-family="Helvetica,sans-Serif" font-size="11.00" fill="#000000"> &#160;</text>
<polygon fill="#ffffff" stroke="transparent" points="83,-411.7 83,-428.7 129,-428.7 129,-411.7 83,-411.7"/>
<text text-anchor="start" x="111.4053" y="-416.8" font-family="Helvetica,sans-Serif" font-size="11.00" fill="#000000">2 &gt;</text>
<polygon fill="#000000" stroke="#000000" points="46,-411.7 46,-428.7 46,-428.7 46,-411.7 46,-411.7"/>
<polygon fill="#000000" stroke="#000000" points="83,-411.7 83,-428.7 83,-428.7 83,-411.7 83,-411.7"/>
</a>
</g>
</g>
<!-- auth_group_permissions&#45;&gt;auth_group -->
<g id="edge1" class="edge">
<title>auth_group_permissions:w&#45;&gt;auth_group:e</title>
<path fill="none" stroke="#000000" d="M199.5926,-525.2313C168.4434,-513.3583 171.6735,-462.7 130,-462.7"/>
<polygon fill="#000000" stroke="#000000" points="206.1149,-526.3488 213.392,-531.2483 210.0575,-527.0244 214,-527.7 214,-527.7 214,-527.7 210.0575,-527.0244 214.608,-524.1517 206.1149,-526.3488 206.1149,-526.3488"/>
<ellipse fill="none" stroke="#000000" cx="202.9609" cy="-525.8084" rx="3.2" ry="3.2"/>
</g>
<!-- auth_user_groups -->
<g id="node3" class="node">
<title>auth_user_groups</title>
<g id="a_node3"><a xlink:href="../../tables/auth_user_groups.html" xlink:title="auth_user_groups" target="_top">
<polygon fill="#ffffff" stroke="transparent" points="224,-366.7 224,-478.7 420,-478.7 420,-366.7 224,-366.7"/>
<polygon fill="#f5f5f5" stroke="transparent" points="226,-453.7 226,-476.7 418,-476.7 418,-453.7 226,-453.7"/>
<polygon fill="none" stroke="#000000" points="226,-453.7 226,-476.7 418,-476.7 418,-453.7 226,-453.7"/>
<text text-anchor="start" x="231" y="-462.3" font-family="Helvetica,sans-Serif" font-weight="bold" font-size="11.00" fill="#000000">auth_user_groups</text>
<text text-anchor="start" x="383.0437" y="-461.8" font-family="Helvetica,sans-Serif" font-size="11.00" fill="#000000">[table]</text>
<polygon fill="none" stroke="#000000" points="226,-431.7 226,-453.7 376,-453.7 376,-431.7 226,-431.7"/>
<image xlink:href="../../images/primaryKeys.png" width="11px" height="12px" preserveAspectRatio="xMinYMin meet" x="231" y="-448.7"/>
<text text-anchor="start" x="246" y="-438.8" font-family="Helvetica,sans-Serif" font-size="11.00" fill="#000000">id</text>
<polygon fill="none" stroke="#000000" points="376,-431.7 376,-453.7 418,-453.7 418,-431.7 376,-431.7"/>
<text text-anchor="start" x="378.9644" y="-439.4" font-family="Helvetica,sans-Serif" font-size="11.00" fill="#000000">int8[19]</text>
<polygon fill="#ffffff" stroke="transparent" points="226,-409.7 226,-431.7 376,-431.7 376,-409.7 226,-409.7"/>
<polygon fill="none" stroke="#000000" points="226,-409.7 226,-431.7 376,-431.7 376,-409.7 226,-409.7"/>
<image xlink:href="../../images/foreignKeys.png" width="11px" height="12px" preserveAspectRatio="xMinYMin meet" x="231" y="-426.7"/>
<text text-anchor="start" x="246" y="-416.8" font-family="Helvetica,sans-Serif" font-size="11.00" fill="#000000">user_id</text>
<polygon fill="none" stroke="#000000" points="376,-409.7 376,-431.7 418,-431.7 418,-409.7 376,-409.7"/>
<text text-anchor="start" x="378.9644" y="-417.4" font-family="Helvetica,sans-Serif" font-size="11.00" fill="#000000">int4[10]</text>
<polygon fill="#ffffff" stroke="transparent" points="226,-387.7 226,-409.7 376,-409.7 376,-387.7 226,-387.7"/>
<polygon fill="none" stroke="#000000" points="226,-387.7 226,-409.7 376,-409.7 376,-387.7 226,-387.7"/>
<image xlink:href="../../images/foreignKeys.png" width="11px" height="12px" preserveAspectRatio="xMinYMin meet" x="231" y="-404.7"/>
<text text-anchor="start" x="246" y="-394.8" font-family="Helvetica,sans-Serif" font-size="11.00" fill="#000000">group_id</text>
<polygon fill="none" stroke="#000000" points="376,-387.7 376,-409.7 418,-409.7 418,-387.7 376,-387.7"/>
<text text-anchor="start" x="378.9644" y="-395.4" font-family="Helvetica,sans-Serif" font-size="11.00" fill="#000000">int4[10]</text>
<polygon fill="#ffffff" stroke="transparent" points="226,-368.7 226,-387.7 418,-387.7 418,-368.7 226,-368.7"/>
<polygon fill="none" stroke="#000000" points="226,-368.7 226,-387.7 418,-387.7 418,-368.7 226,-368.7"/>
<polygon fill="#ffffff" stroke="transparent" points="227,-369.7 227,-386.7 294,-386.7 294,-369.7 227,-369.7"/>
<text text-anchor="start" x="229" y="-374.8" font-family="Helvetica,sans-Serif" font-size="11.00" fill="#000000">&lt; 2</text>
<polygon fill="#ffffff" stroke="transparent" points="294,-369.7 294,-386.7 351,-386.7 351,-369.7 294,-369.7"/>
<text text-anchor="start" x="319.4431" y="-374.8" font-family="Helvetica,sans-Serif" font-size="11.00" fill="#000000"> &#160;</text>
<polygon fill="#ffffff" stroke="transparent" points="351,-369.7 351,-386.7 417,-386.7 417,-369.7 351,-369.7"/>
<text text-anchor="start" x="399.4053" y="-374.8" font-family="Helvetica,sans-Serif" font-size="11.00" fill="#000000">0 &gt;</text>
<polygon fill="#000000" stroke="#000000" points="294,-369.7 294,-386.7 294,-386.7 294,-369.7 294,-369.7"/>
<polygon fill="#000000" stroke="#000000" points="351,-369.7 351,-386.7 351,-386.7 351,-369.7 351,-369.7"/>
<polygon fill="none" stroke="#000000" stroke-width="2" points="225,-367.7 225,-477.7 419,-477.7 419,-367.7 225,-367.7"/>
</a>
</g>
</g>
<!-- auth_user_groups&#45;&gt;auth_group -->
<g id="edge2" class="edge">
<title>auth_user_groups:w&#45;&gt;auth_group:e</title>
<path fill="none" stroke="#000000" d="M211.5694,-400.6856C175.461,-411.4881 175.8706,-462.7 130,-462.7"/>
<polygon fill="#000000" stroke="#000000" points="218.0747,-399.7905 226.4907,-402.2664 222.0373,-399.2453 226,-398.7 226,-398.7 226,-398.7 222.0373,-399.2453 225.5093,-395.1336 218.0747,-399.7905 218.0747,-399.7905"/>
<ellipse fill="none" stroke="#000000" cx="214.9045" cy="-400.2267" rx="3.2" ry="3.2"/>
</g>
<!-- auth_user -->
<g id="node4" class="node">
<title>auth_user</title>
<g id="a_node4"><a xlink:href="../../tables/auth_user.html" xlink:title="auth_user" target="_top">
<polygon fill="#ffffff" stroke="transparent" points="12.5,-159.2 12.5,-264.2 125.5,-264.2 125.5,-159.2 12.5,-159.2"/>
<polygon fill="#f5f5f5" stroke="transparent" points="13,-240.7 13,-263.7 126,-263.7 126,-240.7 13,-240.7"/>
<polygon fill="none" stroke="#000000" points="13,-240.7 13,-263.7 126,-263.7 126,-240.7 13,-240.7"/>
<text text-anchor="start" x="18" y="-249.3" font-family="Helvetica,sans-Serif" font-weight="bold" font-size="11.00" fill="#000000">auth_user</text>
<text text-anchor="start" x="91.0437" y="-248.8" font-family="Helvetica,sans-Serif" font-size="11.00" fill="#000000">[table]</text>
<polygon fill="none" stroke="#000000" points="13,-218.7 13,-240.7 126,-240.7 126,-218.7 13,-218.7"/>
<image xlink:href="../../images/primaryKeys.png" width="11px" height="12px" preserveAspectRatio="xMinYMin meet" x="18" y="-235.7"/>
<text text-anchor="start" x="33" y="-225.8" font-family="Helvetica,sans-Serif" font-size="11.00" fill="#000000">id</text>
<polygon fill="#ffffff" stroke="transparent" points="13,-196.7 13,-218.7 126,-218.7 126,-196.7 13,-196.7"/>
<polygon fill="none" stroke="#000000" points="13,-196.7 13,-218.7 126,-218.7 126,-196.7 13,-196.7"/>
<text text-anchor="start" x="33" y="-203.8" font-family="Helvetica,sans-Serif" font-size="11.00" fill="#000000">username</text>
<polygon fill="none" stroke="#000000" points="13,-177.7 13,-196.7 126,-196.7 126,-177.7 13,-177.7"/>
<text text-anchor="start" x="16" y="-183.8" font-family="Helvetica,sans-Serif" font-size="11.00" fill="#000000">...</text>
<polygon fill="#ffffff" stroke="transparent" points="13,-158.7 13,-177.7 126,-177.7 126,-158.7 13,-158.7"/>
<polygon fill="none" stroke="#000000" points="13,-158.7 13,-177.7 126,-177.7 126,-158.7 13,-158.7"/>
<polygon fill="#ffffff" stroke="transparent" points="14,-159.7 14,-176.7 48,-176.7 48,-159.7 14,-159.7"/>
<text text-anchor="start" x="16" y="-164.8" font-family="Helvetica,sans-Serif" font-size="11.00" fill="#000000"> &#160;</text>
<polygon fill="#ffffff" stroke="transparent" points="48,-159.7 48,-176.7 82,-176.7 82,-159.7 48,-159.7"/>
<text text-anchor="start" x="61.9431" y="-164.8" font-family="Helvetica,sans-Serif" font-size="11.00" fill="#000000"> &#160;</text>
<polygon fill="#ffffff" stroke="transparent" points="82,-159.7 82,-176.7 125,-176.7 125,-159.7 82,-159.7"/>
<text text-anchor="start" x="107.4053" y="-164.8" font-family="Helvetica,sans-Serif" font-size="11.00" fill="#000000">5 &gt;</text>
<polygon fill="#000000" stroke="#000000" points="48,-159.7 48,-176.7 48,-176.7 48,-159.7 48,-159.7"/>
<polygon fill="#000000" stroke="#000000" points="82,-159.7 82,-176.7 82,-176.7 82,-159.7 82,-159.7"/>
</a>
</g>
</g>
<!-- auth_user_groups&#45;&gt;auth_user -->
<g id="edge3" class="edge">
<title>auth_user_groups:w&#45;&gt;auth_user:e</title>
<path fill="none" stroke="#000000" d="M211.5671,-418.6744C188.2171,-411.1252 187.0861,-383.6237 171,-355.7 141.3172,-304.174 185.4643,-229.7 126,-229.7"/>
<polygon fill="#000000" stroke="#000000" points="218.0776,-419.5881 225.4996,-424.2651 222.0388,-420.144 226,-420.7 226,-420.7 226,-420.7 222.0388,-420.144 226.5004,-417.1349 218.0776,-419.5881 218.0776,-419.5881"/>
<ellipse fill="none" stroke="#000000" cx="214.9087" cy="-419.1433" rx="3.2" ry="3.2"/>
</g>
<!-- auth_user_user_permissions -->
<g id="node5" class="node">
<title>auth_user_user_permissions</title>
<g id="a_node5"><a xlink:href="../../tables/auth_user_user_permissions.html" xlink:title="auth_user_user_permissions" target="_top">
<polygon fill="#ffffff" stroke="transparent" points="200,-120.2 200,-181.2 444,-181.2 444,-120.2 200,-120.2"/>
<polygon fill="#f5f5f5" stroke="transparent" points="200,-157.7 200,-180.7 444,-180.7 444,-157.7 200,-157.7"/>
<polygon fill="none" stroke="#000000" points="200,-157.7 200,-180.7 444,-180.7 444,-157.7 200,-157.7"/>
<text text-anchor="start" x="205" y="-166.3" font-family="Helvetica,sans-Serif" font-weight="bold" font-size="11.00" fill="#000000">auth_user_user_permissions</text>
<text text-anchor="start" x="409.5219" y="-165.8" font-family="Helvetica,sans-Serif" font-size="11.00" fill="#000000">[table]</text>
<polygon fill="none" stroke="#000000" points="200,-138.7 200,-157.7 444,-157.7 444,-138.7 200,-138.7"/>
<text text-anchor="start" x="203" y="-144.8" font-family="Helvetica,sans-Serif" font-size="11.00" fill="#000000">...</text>
<polygon fill="#ffffff" stroke="transparent" points="200,-119.7 200,-138.7 444,-138.7 444,-119.7 200,-119.7"/>
<polygon fill="none" stroke="#000000" points="200,-119.7 200,-138.7 444,-138.7 444,-119.7 200,-119.7"/>
<polygon fill="#ffffff" stroke="transparent" points="201,-120.7 201,-137.7 288,-137.7 288,-120.7 201,-120.7"/>
<text text-anchor="start" x="203" y="-125.8" font-family="Helvetica,sans-Serif" font-size="11.00" fill="#000000">&lt; 2</text>
<polygon fill="#ffffff" stroke="transparent" points="288,-120.7 288,-137.7 366,-137.7 366,-120.7 288,-120.7"/>
<text text-anchor="start" x="323.9431" y="-125.8" font-family="Helvetica,sans-Serif" font-size="11.00" fill="#000000"> &#160;</text>
<polygon fill="#ffffff" stroke="transparent" points="366,-120.7 366,-137.7 443,-137.7 443,-120.7 366,-120.7"/>
<text text-anchor="start" x="434.8862" y="-125.8" font-family="Helvetica,sans-Serif" font-size="11.00" fill="#000000"> &#160;</text>
<polygon fill="#000000" stroke="#000000" points="288,-120.7 288,-137.7 288,-137.7 288,-120.7 288,-120.7"/>
<polygon fill="#000000" stroke="#000000" points="366,-120.7 366,-137.7 366,-137.7 366,-120.7 366,-120.7"/>
</a>
</g>
</g>
<!-- auth_user_user_permissions&#45;&gt;auth_user -->
<g id="edge4" class="edge">
<title>auth_user_user_permissions:w&#45;&gt;auth_user:e</title>
<path fill="none" stroke="#000000" d="M185.5245,-150.8144C155.5707,-165.7927 169.3377,-229.7 126,-229.7"/>
<polygon fill="#000000" stroke="#000000" points="192.179,-149.3827 200.7572,-151.2195 196.0895,-148.5414 200,-147.7 200,-147.7 200,-147.7 196.0895,-148.5414 199.2428,-144.1805 192.179,-149.3827 192.179,-149.3827"/>
<ellipse fill="none" stroke="#000000" cx="189.0505" cy="-150.0558" rx="3.2" ry="3.2"/>
</g>
<!-- django_admin_log -->
<g id="node6" class="node">
<title>django_admin_log</title>
<g id="a_node6"><a xlink:href="../../tables/django_admin_log.html" xlink:title="django_admin_log" target="_top">
<polygon fill="#ffffff" stroke="transparent" points="237,-38.2 237,-99.2 407,-99.2 407,-38.2 237,-38.2"/>
<polygon fill="#f5f5f5" stroke="transparent" points="237,-75.7 237,-98.7 407,-98.7 407,-75.7 237,-75.7"/>
<polygon fill="none" stroke="#000000" points="237,-75.7 237,-98.7 407,-98.7 407,-75.7 237,-75.7"/>
<text text-anchor="start" x="242" y="-84.3" font-family="Helvetica,sans-Serif" font-weight="bold" font-size="11.00" fill="#000000">django_admin_log</text>
<text text-anchor="start" x="372.5219" y="-83.8" font-family="Helvetica,sans-Serif" font-size="11.00" fill="#000000">[table]</text>
<polygon fill="none" stroke="#000000" points="237,-56.7 237,-75.7 407,-75.7 407,-56.7 237,-56.7"/>
<text text-anchor="start" x="240" y="-62.8" font-family="Helvetica,sans-Serif" font-size="11.00" fill="#000000">...</text>
<polygon fill="#ffffff" stroke="transparent" points="237,-37.7 237,-56.7 407,-56.7 407,-37.7 237,-37.7"/>
<polygon fill="none" stroke="#000000" points="237,-37.7 237,-56.7 407,-56.7 407,-37.7 237,-37.7"/>
<polygon fill="#ffffff" stroke="transparent" points="238,-38.7 238,-55.7 300,-55.7 300,-38.7 238,-38.7"/>
<text text-anchor="start" x="240" y="-43.8" font-family="Helvetica,sans-Serif" font-size="11.00" fill="#000000">&lt; 2</text>
<polygon fill="#ffffff" stroke="transparent" points="300,-38.7 300,-55.7 353,-55.7 353,-38.7 300,-38.7"/>
<text text-anchor="start" x="323.4431" y="-43.8" font-family="Helvetica,sans-Serif" font-size="11.00" fill="#000000"> &#160;</text>
<polygon fill="#ffffff" stroke="transparent" points="353,-38.7 353,-55.7 406,-55.7 406,-38.7 353,-38.7"/>
<text text-anchor="start" x="397.8862" y="-43.8" font-family="Helvetica,sans-Serif" font-size="11.00" fill="#000000"> &#160;</text>
<polygon fill="#000000" stroke="#000000" points="300,-38.7 300,-55.7 300,-55.7 300,-38.7 300,-38.7"/>
<polygon fill="#000000" stroke="#000000" points="353,-38.7 353,-55.7 353,-55.7 353,-38.7 353,-38.7"/>
</a>
</g>
</g>
<!-- django_admin_log&#45;&gt;auth_user -->
<g id="edge5" class="edge">
<title>django_admin_log:w&#45;&gt;auth_user:e</title>
<path fill="none" stroke="#000000" d="M222.5877,-66.8225C198.7512,-70.9527 189.5756,-86.2912 171,-109.7 135.5937,-154.3188 182.96,-229.7 126,-229.7"/>
<polygon fill="#000000" stroke="#000000" points="229.0242,-66.3213 237.2796,-69.2891 233.0121,-66.0106 237,-65.7 237,-65.7 237,-65.7 233.0121,-66.0106 236.7204,-62.1109 229.0242,-66.3213 229.0242,-66.3213"/>
<ellipse fill="none" stroke="#000000" cx="225.8338" cy="-66.5698" rx="3.2" ry="3.2"/>
</g>
<!-- showcase_ownerprofile -->
<g id="node7" class="node">
<title>showcase_ownerprofile</title>
<g id="a_node7"><a xlink:href="../../tables/showcase_ownerprofile.html" xlink:title="showcase_ownerprofile" target="_top">
<polygon fill="#ffffff" stroke="transparent" points="217.5,-284.2 217.5,-345.2 426.5,-345.2 426.5,-284.2 217.5,-284.2"/>
<polygon fill="#f5f5f5" stroke="transparent" points="218,-321.7 218,-344.7 427,-344.7 427,-321.7 218,-321.7"/>
<polygon fill="none" stroke="#000000" points="218,-321.7 218,-344.7 427,-344.7 427,-321.7 218,-321.7"/>
<text text-anchor="start" x="223" y="-330.3" font-family="Helvetica,sans-Serif" font-weight="bold" font-size="11.00" fill="#000000">showcase_ownerprofile</text>
<text text-anchor="start" x="392.5219" y="-329.8" font-family="Helvetica,sans-Serif" font-size="11.00" fill="#000000">[table]</text>
<polygon fill="none" stroke="#000000" points="218,-302.7 218,-321.7 427,-321.7 427,-302.7 218,-302.7"/>
<text text-anchor="start" x="221" y="-308.8" font-family="Helvetica,sans-Serif" font-size="11.00" fill="#000000">...</text>
<polygon fill="#ffffff" stroke="transparent" points="218,-283.7 218,-302.7 427,-302.7 427,-283.7 218,-283.7"/>
<polygon fill="none" stroke="#000000" points="218,-283.7 218,-302.7 427,-302.7 427,-283.7 218,-283.7"/>
<polygon fill="#ffffff" stroke="transparent" points="219,-284.7 219,-301.7 285,-301.7 285,-284.7 219,-284.7"/>
<text text-anchor="start" x="221" y="-289.8" font-family="Helvetica,sans-Serif" font-size="11.00" fill="#000000">&lt; 1</text>
<polygon fill="#ffffff" stroke="transparent" points="285,-284.7 285,-301.7 361,-301.7 361,-284.7 285,-284.7"/>
<text text-anchor="start" x="309.5553" y="-289.8" font-family="Helvetica,sans-Serif" font-size="11.00" fill="#000000">1 row</text>
<polygon fill="#ffffff" stroke="transparent" points="361,-284.7 361,-301.7 426,-301.7 426,-284.7 361,-284.7"/>
<text text-anchor="start" x="408.4053" y="-289.8" font-family="Helvetica,sans-Serif" font-size="11.00" fill="#000000">1 &gt;</text>
<polygon fill="#000000" stroke="#000000" points="285,-284.7 285,-301.7 285,-301.7 285,-284.7 285,-284.7"/>
<polygon fill="#000000" stroke="#000000" points="361,-284.7 361,-301.7 361,-301.7 361,-284.7 361,-284.7"/>
</a>
</g>
</g>
<!-- showcase_ownerprofile&#45;&gt;auth_user -->
<g id="edge6" class="edge">
<title>showcase_ownerprofile:w&#45;&gt;auth_user:e</title>
<path fill="none" stroke="#000000" d="M207.656,-310.4417C190.6769,-305.7697 188.0909,-288.904 171,-273.7 150.101,-255.1083 153.9718,-229.7 126,-229.7"/>
<polygon fill="#000000" stroke="#000000" points="217.6889,-307.6327 216.7228,-315.5741 215.1345,-315.3809 216.1006,-307.4394 217.6889,-307.6327"/>
<polyline fill="none" stroke="#000000" points="218,-311.7 214.0293,-311.217 "/>
<ellipse fill="none" stroke="#000000" cx="210.8527" cy="-310.8305" rx="3.2" ry="3.2"/>
</g>
<!-- token_blacklist_outstandingtoken -->
<g id="node8" class="node">
<title>token_blacklist_outstandingtoken</title>
<g id="a_node8"><a xlink:href="../../tables/token_blacklist_outstandingtoken.html" xlink:title="token_blacklist_outstandingtoken" target="_top">
<polygon fill="#ffffff" stroke="transparent" points="179,-202.2 179,-263.2 465,-263.2 465,-202.2 179,-202.2"/>
<polygon fill="#f5f5f5" stroke="transparent" points="179,-239.7 179,-262.7 465,-262.7 465,-239.7 179,-239.7"/>
<polygon fill="none" stroke="#000000" points="179,-239.7 179,-262.7 465,-262.7 465,-239.7 179,-239.7"/>
<text text-anchor="start" x="184" y="-248.3" font-family="Helvetica,sans-Serif" font-weight="bold" font-size="11.00" fill="#000000">token_blacklist_outstandingtoken</text>
<text text-anchor="start" x="430.5219" y="-247.8" font-family="Helvetica,sans-Serif" font-size="11.00" fill="#000000">[table]</text>
<polygon fill="none" stroke="#000000" points="179,-220.7 179,-239.7 465,-239.7 465,-220.7 179,-220.7"/>
<text text-anchor="start" x="182" y="-226.8" font-family="Helvetica,sans-Serif" font-size="11.00" fill="#000000">...</text>
<polygon fill="#ffffff" stroke="transparent" points="179,-201.7 179,-220.7 465,-220.7 465,-201.7 179,-201.7"/>
<polygon fill="none" stroke="#000000" points="179,-201.7 179,-220.7 465,-220.7 465,-201.7 179,-201.7"/>
<polygon fill="#ffffff" stroke="transparent" points="180,-202.7 180,-219.7 278,-219.7 278,-202.7 180,-202.7"/>
<text text-anchor="start" x="182" y="-207.8" font-family="Helvetica,sans-Serif" font-size="11.00" fill="#000000">&lt; 1</text>
<polygon fill="#ffffff" stroke="transparent" points="278,-202.7 278,-219.7 367,-219.7 367,-202.7 278,-202.7"/>
<text text-anchor="start" x="319.4431" y="-207.8" font-family="Helvetica,sans-Serif" font-size="11.00" fill="#000000"> &#160;</text>
<polygon fill="#ffffff" stroke="transparent" points="367,-202.7 367,-219.7 464,-219.7 464,-202.7 367,-202.7"/>
<text text-anchor="start" x="446.4053" y="-207.8" font-family="Helvetica,sans-Serif" font-size="11.00" fill="#000000">1 &gt;</text>
<polygon fill="#000000" stroke="#000000" points="278,-202.7 278,-219.7 278,-219.7 278,-202.7 278,-202.7"/>
<polygon fill="#000000" stroke="#000000" points="367,-202.7 367,-219.7 367,-219.7 367,-202.7 367,-202.7"/>
</a>
</g>
</g>
<!-- token_blacklist_outstandingtoken&#45;&gt;auth_user -->
<g id="edge7" class="edge">
<title>token_blacklist_outstandingtoken:w&#45;&gt;auth_user:e</title>
<path fill="none" stroke="#000000" d="M164.4922,-229.7C151.5558,-229.7 143.8507,-229.7 126,-229.7"/>
<polygon fill="#000000" stroke="#000000" points="171,-229.7001 179,-233.3 175,-229.7 179,-229.7 179,-229.7 179,-229.7 175,-229.7 179,-226.1 171,-229.7001 171,-229.7001"/>
<ellipse fill="none" stroke="#000000" cx="167.8" cy="-229.7001" rx="3.2" ry="3.2"/>
</g>
</g>
</svg>
