<?xml version="1.0" encoding="UTF-8" standalone="no"?>
<!DOCTYPE svg PUBLIC "-//W3C//DTD SVG 1.1//EN"
 "http://www.w3.org/Graphics/SVG/1.1/DTD/svg11.dtd">
<!-- Generated by graphviz version 2.40.1 (20161225.0304)
 -->
<!-- Title: oneDegreeRelationshipsDiagram Pages: 1 -->
<svg width="568pt" height="732pt"
 viewBox="0.00 0.00 568.00 731.70" xmlns="http://www.w3.org/2000/svg" xmlns:xlink="http://www.w3.org/1999/xlink">
<g id="graph0" class="graph" transform="scale(1 1) rotate(0) translate(4 727.7)">
<title>oneDegreeRelationshipsDiagram</title>
<polygon fill="#ffffff" stroke="transparent" points="-4,4 -4,-727.7 564,-727.7 564,4 -4,4"/>
<text text-anchor="middle" x="72.4936" y="-7.3" font-family="Helvetica,sans-Serif" font-size="11.00" fill="#000000">Generated by SchemaSpy</text>
<!-- auth_user_groups -->
<g id="node1" class="node">
<title>auth_user_groups</title>
<g id="a_node1"><a xlink:href="../../tables/auth_user_groups.html" xlink:title="auth_user_groups" target="_top">
<polygon fill="#ffffff" stroke="transparent" points="325,-611.7 325,-719.7 493,-719.7 493,-611.7 325,-611.7"/>
<polygon fill="#f5f5f5" stroke="transparent" points="325,-696.7 325,-719.7 493,-719.7 493,-696.7 325,-696.7"/>
<polygon fill="none" stroke="#000000" points="325,-696.7 325,-719.7 493,-719.7 493,-696.7 325,-696.7"/>
<text text-anchor="start" x="330" y="-705.3" font-family="Helvetica,sans-Serif" font-weight="bold" font-size="11.00" fill="#000000">auth_user_groups</text>
<text text-anchor="start" x="458.5219" y="-704.8" font-family="Helvetica,sans-Serif" font-size="11.00" fill="#000000">[table]</text>
<polygon fill="none" stroke="#000000" points="325,-674.7 325,-696.7 493,-696.7 493,-674.7 325,-674.7"/>
<image xlink:href="../../images/primaryKeys.png" width="11px" height="12px" preserveAspectRatio="xMinYMin meet" x="330" y="-691.7"/>
<text text-anchor="start" x="354" y="-681.8" font-family="Helvetica,sans-Serif" font-size="11.00" fill="#000000">id</text>
<polygon fill="#ffffff" stroke="transparent" points="325,-652.7 325,-674.7 493,-674.7 493,-652.7 325,-652.7"/>
<polygon fill="none" stroke="#000000" points="325,-652.7 325,-674.7 493,-674.7 493,-652.7 325,-652.7"/>
<image xlink:href="../../images/foreignKeys.png" width="11px" height="12px" preserveAspectRatio="xMinYMin meet" x="330" y="-669.7"/>
<text text-anchor="start" x="354" y="-659.8" font-family="Helvetica,sans-Serif" font-size="11.00" fill="#000000">user_id</text>
<polygon fill="#ffffff" stroke="transparent" points="325,-630.7 325,-652.7 493,-652.7 493,-630.7 325,-630.7"/>
<polygon fill="none" stroke="#000000" points="325,-630.7 325,-652.7 493,-652.7 493,-630.7 325,-630.7"/>
<image xlink:href="../../images/foreignKeys.png" width="11px" height="12px" preserveAspectRatio="xMinYMin meet" x="330" y="-647.7"/>
<text text-anchor="start" x="354" y="-637.8" font-family="Helvetica,sans-Serif" font-size="11.00" fill="#000000">group_id</text>
<polygon fill="#ffffff" stroke="transparent" points="325,-611.7 325,-630.7 493,-630.7 493,-611.7 325,-611.7"/>
<polygon fill="none" stroke="#000000" points="325,-611.7 325,-630.7 493,-630.7 493,-611.7 325,-611.7"/>
<polygon fill="#ffffff" stroke="transparent" points="326,-612.7 326,-629.7 388,-629.7 388,-612.7 326,-612.7"/>
<text text-anchor="start" x="328" y="-617.8" font-family="Helvetica,sans-Serif" font-size="11.00" fill="#000000">&lt; 2</text>
<polygon fill="#ffffff" stroke="transparent" points="388,-612.7 388,-629.7 440,-629.7 440,-612.7 388,-612.7"/>
<text text-anchor="start" x="410.9431" y="-617.8" font-family="Helvetica,sans-Serif" font-size="11.00" fill="#000000"> &#160;</text>
<polygon fill="#ffffff" stroke="transparent" points="440,-612.7 440,-629.7 492,-629.7 492,-612.7 440,-612.7"/>
<text text-anchor="start" x="483.8862" y="-617.8" font-family="Helvetica,sans-Serif" font-size="11.00" fill="#000000"> &#160;</text>
<polygon fill="#000000" stroke="#000000" points="388,-612.7 388,-629.7 388,-629.7 388,-612.7 388,-612.7"/>
<polygon fill="#000000" stroke="#000000" points="440,-612.7 440,-629.7 440,-629.7 440,-612.7 440,-612.7"/>
</a>
</g>
</g>
<!-- auth_user -->
<g id="node2" class="node">
<title>auth_user</title>
<g id="a_node2"><a xlink:href="../../tables/auth_user.html" xlink:title="auth_user" target="_top">
<polygon fill="#ffffff" stroke="transparent" points="8,-130.7 8,-418.7 217,-418.7 217,-130.7 8,-130.7"/>
<polygon fill="#f5f5f5" stroke="transparent" points="10.5,-393.7 10.5,-416.7 215.5,-416.7 215.5,-393.7 10.5,-393.7"/>
<polygon fill="none" stroke="#000000" points="10.5,-393.7 10.5,-416.7 215.5,-416.7 215.5,-393.7 10.5,-393.7"/>
<text text-anchor="start" x="15.5" y="-402.3" font-family="Helvetica,sans-Serif" font-weight="bold" font-size="11.00" fill="#000000">auth_user</text>
<text text-anchor="start" x="180.5437" y="-401.8" font-family="Helvetica,sans-Serif" font-size="11.00" fill="#000000">[table]</text>
<polygon fill="none" stroke="#000000" points="10.5,-371.7 10.5,-393.7 123.5,-393.7 123.5,-371.7 10.5,-371.7"/>
<image xlink:href="../../images/primaryKeys.png" width="11px" height="12px" preserveAspectRatio="xMinYMin meet" x="15.5" y="-388.7"/>
<text text-anchor="start" x="30.5" y="-378.8" font-family="Helvetica,sans-Serif" font-size="11.00" fill="#000000">id</text>
<polygon fill="none" stroke="#000000" points="123.5,-371.7 123.5,-393.7 215.5,-393.7 215.5,-371.7 123.5,-371.7"/>
<text text-anchor="start" x="126.5" y="-379.4" font-family="Helvetica,sans-Serif" font-size="11.00" fill="#000000">int4[10]</text>
<polygon fill="none" stroke="#000000" points="10.5,-349.7 10.5,-371.7 123.5,-371.7 123.5,-349.7 10.5,-349.7"/>
<text text-anchor="start" x="30.5" y="-356.8" font-family="Helvetica,sans-Serif" font-size="11.00" fill="#000000">password</text>
<polygon fill="none" stroke="#000000" points="123.5,-349.7 123.5,-371.7 215.5,-371.7 215.5,-349.7 123.5,-349.7"/>
<text text-anchor="start" x="126.5" y="-357.4" font-family="Helvetica,sans-Serif" font-size="11.00" fill="#000000">varchar[128]</text>
<polygon fill="none" stroke="#000000" points="10.5,-327.7 10.5,-349.7 123.5,-349.7 123.5,-327.7 10.5,-327.7"/>
<text text-anchor="start" x="30.5" y="-334.8" font-family="Helvetica,sans-Serif" font-size="11.00" fill="#000000">last_login</text>
<polygon fill="none" stroke="#000000" points="123.5,-327.7 123.5,-349.7 215.5,-349.7 215.5,-327.7 123.5,-327.7"/>
<text text-anchor="start" x="126.1023" y="-335.4" font-family="Helvetica,sans-Serif" font-size="11.00" fill="#000000">timestamptz[35,6]</text>
<polygon fill="none" stroke="#000000" points="10.5,-305.7 10.5,-327.7 123.5,-327.7 123.5,-305.7 10.5,-305.7"/>
<text text-anchor="start" x="30.5" y="-312.8" font-family="Helvetica,sans-Serif" font-size="11.00" fill="#000000">is_superuser</text>
<polygon fill="none" stroke="#000000" points="123.5,-305.7 123.5,-327.7 215.5,-327.7 215.5,-305.7 123.5,-305.7"/>
<text text-anchor="start" x="126.5" y="-313.4" font-family="Helvetica,sans-Serif" font-size="11.00" fill="#000000">bool[1]</text>
<polygon fill="#ffffff" stroke="transparent" points="10.5,-283.7 10.5,-305.7 123.5,-305.7 123.5,-283.7 10.5,-283.7"/>
<polygon fill="none" stroke="#000000" points="10.5,-283.7 10.5,-305.7 123.5,-305.7 123.5,-283.7 10.5,-283.7"/>
<text text-anchor="start" x="30.5" y="-290.8" font-family="Helvetica,sans-Serif" font-size="11.00" fill="#000000">username</text>
<polygon fill="none" stroke="#000000" points="123.5,-283.7 123.5,-305.7 215.5,-305.7 215.5,-283.7 123.5,-283.7"/>
<text text-anchor="start" x="126.5" y="-291.4" font-family="Helvetica,sans-Serif" font-size="11.00" fill="#000000">varchar[150]</text>
<polygon fill="none" stroke="#000000" points="10.5,-261.7 10.5,-283.7 123.5,-283.7 123.5,-261.7 10.5,-261.7"/>
<text text-anchor="start" x="30.5" y="-268.8" font-family="Helvetica,sans-Serif" font-size="11.00" fill="#000000">first_name</text>
<polygon fill="none" stroke="#000000" points="123.5,-261.7 123.5,-283.7 215.5,-283.7 215.5,-261.7 123.5,-261.7"/>
<text text-anchor="start" x="126.5" y="-269.4" font-family="Helvetica,sans-Serif" font-size="11.00" fill="#000000">varchar[150]</text>
<polygon fill="none" stroke="#000000" points="10.5,-239.7 10.5,-261.7 123.5,-261.7 123.5,-239.7 10.5,-239.7"/>
<text text-anchor="start" x="30.5" y="-246.8" font-family="Helvetica,sans-Serif" font-size="11.00" fill="#000000">last_name</text>
<polygon fill="none" stroke="#000000" points="123.5,-239.7 123.5,-261.7 215.5,-261.7 215.5,-239.7 123.5,-239.7"/>
<text text-anchor="start" x="126.5" y="-247.4" font-family="Helvetica,sans-Serif" font-size="11.00" fill="#000000">varchar[150]</text>
<polygon fill="none" stroke="#000000" points="10.5,-217.7 10.5,-239.7 123.5,-239.7 123.5,-217.7 10.5,-217.7"/>
<text text-anchor="start" x="30.5" y="-224.8" font-family="Helvetica,sans-Serif" font-size="11.00" fill="#000000">email</text>
<polygon fill="none" stroke="#000000" points="123.5,-217.7 123.5,-239.7 215.5,-239.7 215.5,-217.7 123.5,-217.7"/>
<text text-anchor="start" x="126.5" y="-225.4" font-family="Helvetica,sans-Serif" font-size="11.00" fill="#000000">varchar[254]</text>
<polygon fill="none" stroke="#000000" points="10.5,-195.7 10.5,-217.7 123.5,-217.7 123.5,-195.7 10.5,-195.7"/>
<text text-anchor="start" x="30.5" y="-202.8" font-family="Helvetica,sans-Serif" font-size="11.00" fill="#000000">is_staff</text>
<polygon fill="none" stroke="#000000" points="123.5,-195.7 123.5,-217.7 215.5,-217.7 215.5,-195.7 123.5,-195.7"/>
<text text-anchor="start" x="126.5" y="-203.4" font-family="Helvetica,sans-Serif" font-size="11.00" fill="#000000">bool[1]</text>
<polygon fill="none" stroke="#000000" points="10.5,-173.7 10.5,-195.7 123.5,-195.7 123.5,-173.7 10.5,-173.7"/>
<text text-anchor="start" x="30.5" y="-180.8" font-family="Helvetica,sans-Serif" font-size="11.00" fill="#000000">is_active</text>
<polygon fill="none" stroke="#000000" points="123.5,-173.7 123.5,-195.7 215.5,-195.7 215.5,-173.7 123.5,-173.7"/>
<text text-anchor="start" x="126.5" y="-181.4" font-family="Helvetica,sans-Serif" font-size="11.00" fill="#000000">bool[1]</text>
<polygon fill="none" stroke="#000000" points="10.5,-151.7 10.5,-173.7 123.5,-173.7 123.5,-151.7 10.5,-151.7"/>
<text text-anchor="start" x="30.5" y="-158.8" font-family="Helvetica,sans-Serif" font-size="11.00" fill="#000000">date_joined</text>
<polygon fill="none" stroke="#000000" points="123.5,-151.7 123.5,-173.7 215.5,-173.7 215.5,-151.7 123.5,-151.7"/>
<text text-anchor="start" x="126.1023" y="-159.4" font-family="Helvetica,sans-Serif" font-size="11.00" fill="#000000">timestamptz[35,6]</text>
<polygon fill="#ffffff" stroke="transparent" points="10.5,-132.7 10.5,-151.7 215.5,-151.7 215.5,-132.7 10.5,-132.7"/>
<polygon fill="none" stroke="#000000" points="10.5,-132.7 10.5,-151.7 215.5,-151.7 215.5,-132.7 10.5,-132.7"/>
<polygon fill="#ffffff" stroke="transparent" points="11.5,-133.7 11.5,-150.7 82.5,-150.7 82.5,-133.7 11.5,-133.7"/>
<text text-anchor="start" x="13.5" y="-138.8" font-family="Helvetica,sans-Serif" font-size="11.00" fill="#000000">&lt; 0</text>
<polygon fill="#ffffff" stroke="transparent" points="82.5,-133.7 82.5,-150.7 144.5,-150.7 144.5,-133.7 82.5,-133.7"/>
<text text-anchor="start" x="110.4431" y="-138.8" font-family="Helvetica,sans-Serif" font-size="11.00" fill="#000000"> &#160;</text>
<polygon fill="#ffffff" stroke="transparent" points="144.5,-133.7 144.5,-150.7 214.5,-150.7 214.5,-133.7 144.5,-133.7"/>
<text text-anchor="start" x="196.9053" y="-138.8" font-family="Helvetica,sans-Serif" font-size="11.00" fill="#000000">5 &gt;</text>
<polygon fill="#000000" stroke="#000000" points="82.5,-133.7 82.5,-150.7 82.5,-150.7 82.5,-133.7 82.5,-133.7"/>
<polygon fill="#000000" stroke="#000000" points="144.5,-133.7 144.5,-150.7 144.5,-150.7 144.5,-133.7 144.5,-133.7"/>
<polygon fill="none" stroke="#000000" stroke-width="2" points="9,-131.7 9,-417.7 216,-417.7 216,-131.7 9,-131.7"/>
</a>
</g>
</g>
<!-- auth_user_groups&#45;&gt;auth_user -->
<g id="edge1" class="edge">
<title>auth_user_groups:w&#45;&gt;auth_user:e</title>
<path fill="none" stroke="#000000" d="M310.5176,-662.3364C282.42,-656.4906 275.1113,-632.4415 258,-601.7 233.8893,-558.3835 265.0746,-382.7 215.5,-382.7"/>
<polygon fill="#000000" stroke="#000000" points="317.0352,-662.95 324.6625,-667.2841 321.0176,-663.325 325,-663.7 325,-663.7 325,-663.7 321.0176,-663.325 325.3375,-660.1159 317.0352,-662.95 317.0352,-662.95"/>
<ellipse fill="none" stroke="#000000" cx="313.8493" cy="-662.65" rx="3.2" ry="3.2"/>
</g>
<!-- auth_user_user_permissions -->
<g id="node3" class="node">
<title>auth_user_user_permissions</title>
<g id="a_node3"><a xlink:href="../../tables/auth_user_user_permissions.html" xlink:title="auth_user_user_permissions" target="_top">
<polygon fill="#ffffff" stroke="transparent" points="287,-482.7 287,-590.7 531,-590.7 531,-482.7 287,-482.7"/>
<polygon fill="#f5f5f5" stroke="transparent" points="287,-567.7 287,-590.7 531,-590.7 531,-567.7 287,-567.7"/>
<polygon fill="none" stroke="#000000" points="287,-567.7 287,-590.7 531,-590.7 531,-567.7 287,-567.7"/>
<text text-anchor="start" x="292" y="-576.3" font-family="Helvetica,sans-Serif" font-weight="bold" font-size="11.00" fill="#000000">auth_user_user_permissions</text>
<text text-anchor="start" x="496.5219" y="-575.8" font-family="Helvetica,sans-Serif" font-size="11.00" fill="#000000">[table]</text>
<polygon fill="none" stroke="#000000" points="287,-545.7 287,-567.7 531,-567.7 531,-545.7 287,-545.7"/>
<image xlink:href="../../images/primaryKeys.png" width="11px" height="12px" preserveAspectRatio="xMinYMin meet" x="292" y="-562.7"/>
<text text-anchor="start" x="316" y="-552.8" font-family="Helvetica,sans-Serif" font-size="11.00" fill="#000000">id</text>
<polygon fill="#ffffff" stroke="transparent" points="287,-523.7 287,-545.7 531,-545.7 531,-523.7 287,-523.7"/>
<polygon fill="none" stroke="#000000" points="287,-523.7 287,-545.7 531,-545.7 531,-523.7 287,-523.7"/>
<image xlink:href="../../images/foreignKeys.png" width="11px" height="12px" preserveAspectRatio="xMinYMin meet" x="292" y="-540.7"/>
<text text-anchor="start" x="316" y="-530.8" font-family="Helvetica,sans-Serif" font-size="11.00" fill="#000000">user_id</text>
<polygon fill="#ffffff" stroke="transparent" points="287,-501.7 287,-523.7 531,-523.7 531,-501.7 287,-501.7"/>
<polygon fill="none" stroke="#000000" points="287,-501.7 287,-523.7 531,-523.7 531,-501.7 287,-501.7"/>
<image xlink:href="../../images/foreignKeys.png" width="11px" height="12px" preserveAspectRatio="xMinYMin meet" x="292" y="-518.7"/>
<text text-anchor="start" x="316" y="-508.8" font-family="Helvetica,sans-Serif" font-size="11.00" fill="#000000">permission_id</text>
<polygon fill="#ffffff" stroke="transparent" points="287,-482.7 287,-501.7 531,-501.7 531,-482.7 287,-482.7"/>
<polygon fill="none" stroke="#000000" points="287,-482.7 287,-501.7 531,-501.7 531,-482.7 287,-482.7"/>
<polygon fill="#ffffff" stroke="transparent" points="288,-483.7 288,-500.7 375,-500.7 375,-483.7 288,-483.7"/>
<text text-anchor="start" x="290" y="-488.8" font-family="Helvetica,sans-Serif" font-size="11.00" fill="#000000">&lt; 2</text>
<polygon fill="#ffffff" stroke="transparent" points="375,-483.7 375,-500.7 453,-500.7 453,-483.7 375,-483.7"/>
<text text-anchor="start" x="410.9431" y="-488.8" font-family="Helvetica,sans-Serif" font-size="11.00" fill="#000000"> &#160;</text>
<polygon fill="#ffffff" stroke="transparent" points="453,-483.7 453,-500.7 530,-500.7 530,-483.7 453,-483.7"/>
<text text-anchor="start" x="521.8862" y="-488.8" font-family="Helvetica,sans-Serif" font-size="11.00" fill="#000000"> &#160;</text>
<polygon fill="#000000" stroke="#000000" points="375,-483.7 375,-500.7 375,-500.7 375,-483.7 375,-483.7"/>
<polygon fill="#000000" stroke="#000000" points="453,-483.7 453,-500.7 453,-500.7 453,-483.7 453,-483.7"/>
</a>
</g>
</g>
<!-- auth_user_user_permissions&#45;&gt;auth_user -->
<g id="edge2" class="edge">
<title>auth_user_user_permissions:w&#45;&gt;auth_user:e</title>
<path fill="none" stroke="#000000" d="M272.7722,-532.3124C223.0541,-512.9748 284.6155,-382.7 215.5,-382.7"/>
<polygon fill="#000000" stroke="#000000" points="279.1103,-533.376 286.4042,-538.2504 283.0552,-534.038 287,-534.7 287,-534.7 287,-534.7 283.0552,-534.038 287.5958,-531.1496 279.1103,-533.376 279.1103,-533.376"/>
<ellipse fill="none" stroke="#000000" cx="275.9544" cy="-532.8464" rx="3.2" ry="3.2"/>
</g>
<!-- django_admin_log -->
<g id="node4" class="node">
<title>django_admin_log</title>
<g id="a_node4"><a xlink:href="../../tables/django_admin_log.html" xlink:title="django_admin_log" target="_top">
<polygon fill="#ffffff" stroke="transparent" points="324,-334.2 324,-461.2 494,-461.2 494,-334.2 324,-334.2"/>
<polygon fill="#f5f5f5" stroke="transparent" points="324,-437.7 324,-460.7 494,-460.7 494,-437.7 324,-437.7"/>
<polygon fill="none" stroke="#000000" points="324,-437.7 324,-460.7 494,-460.7 494,-437.7 324,-437.7"/>
<text text-anchor="start" x="329" y="-446.3" font-family="Helvetica,sans-Serif" font-weight="bold" font-size="11.00" fill="#000000">django_admin_log</text>
<text text-anchor="start" x="459.5219" y="-445.8" font-family="Helvetica,sans-Serif" font-size="11.00" fill="#000000">[table]</text>
<polygon fill="none" stroke="#000000" points="324,-415.7 324,-437.7 494,-437.7 494,-415.7 324,-415.7"/>
<image xlink:href="../../images/primaryKeys.png" width="11px" height="12px" preserveAspectRatio="xMinYMin meet" x="329" y="-432.7"/>
<text text-anchor="start" x="353" y="-422.8" font-family="Helvetica,sans-Serif" font-size="11.00" fill="#000000">id</text>
<polygon fill="#ffffff" stroke="transparent" points="324,-393.7 324,-415.7 494,-415.7 494,-393.7 324,-393.7"/>
<polygon fill="none" stroke="#000000" points="324,-393.7 324,-415.7 494,-415.7 494,-393.7 324,-393.7"/>
<image xlink:href="../../images/foreignKeys.png" width="11px" height="12px" preserveAspectRatio="xMinYMin meet" x="329" y="-410.7"/>
<text text-anchor="start" x="353" y="-400.8" font-family="Helvetica,sans-Serif" font-size="11.00" fill="#000000">content_type_id</text>
<polygon fill="#ffffff" stroke="transparent" points="324,-371.7 324,-393.7 494,-393.7 494,-371.7 324,-371.7"/>
<polygon fill="none" stroke="#000000" points="324,-371.7 324,-393.7 494,-393.7 494,-371.7 324,-371.7"/>
<image xlink:href="../../images/foreignKeys.png" width="11px" height="12px" preserveAspectRatio="xMinYMin meet" x="329" y="-388.7"/>
<text text-anchor="start" x="353" y="-378.8" font-family="Helvetica,sans-Serif" font-size="11.00" fill="#000000">user_id</text>
<polygon fill="none" stroke="#000000" points="324,-352.7 324,-371.7 494,-371.7 494,-352.7 324,-352.7"/>
<text text-anchor="start" x="327" y="-358.8" font-family="Helvetica,sans-Serif" font-size="11.00" fill="#000000">...</text>
<polygon fill="#ffffff" stroke="transparent" points="324,-333.7 324,-352.7 494,-352.7 494,-333.7 324,-333.7"/>
<polygon fill="none" stroke="#000000" points="324,-333.7 324,-352.7 494,-352.7 494,-333.7 324,-333.7"/>
<polygon fill="#ffffff" stroke="transparent" points="325,-334.7 325,-351.7 387,-351.7 387,-334.7 325,-334.7"/>
<text text-anchor="start" x="327" y="-339.8" font-family="Helvetica,sans-Serif" font-size="11.00" fill="#000000">&lt; 2</text>
<polygon fill="#ffffff" stroke="transparent" points="387,-334.7 387,-351.7 440,-351.7 440,-334.7 387,-334.7"/>
<text text-anchor="start" x="410.4431" y="-339.8" font-family="Helvetica,sans-Serif" font-size="11.00" fill="#000000"> &#160;</text>
<polygon fill="#ffffff" stroke="transparent" points="440,-334.7 440,-351.7 493,-351.7 493,-334.7 440,-334.7"/>
<text text-anchor="start" x="484.8862" y="-339.8" font-family="Helvetica,sans-Serif" font-size="11.00" fill="#000000"> &#160;</text>
<polygon fill="#000000" stroke="#000000" points="387,-334.7 387,-351.7 387,-351.7 387,-334.7 387,-334.7"/>
<polygon fill="#000000" stroke="#000000" points="440,-334.7 440,-351.7 440,-351.7 440,-334.7 440,-334.7"/>
</a>
</g>
</g>
<!-- django_admin_log&#45;&gt;auth_user -->
<g id="edge3" class="edge">
<title>django_admin_log:w&#45;&gt;auth_user:e</title>
<path fill="none" stroke="#000000" d="M309.3804,-382.7C272.708,-382.7 258.4479,-382.7 215.5,-382.7"/>
<polygon fill="#000000" stroke="#000000" points="316,-382.7001 324,-386.3 320,-382.7 324,-382.7 324,-382.7 324,-382.7 320,-382.7 324,-379.1 316,-382.7001 316,-382.7001"/>
<ellipse fill="none" stroke="#000000" cx="312.8" cy="-382.7001" rx="3.2" ry="3.2"/>
</g>
<!-- showcase_ownerprofile -->
<g id="node5" class="node">
<title>showcase_ownerprofile</title>
<g id="a_node5"><a xlink:href="../../tables/showcase_ownerprofile.html" xlink:title="showcase_ownerprofile" target="_top">
<polygon fill="#ffffff" stroke="transparent" points="304.5,-186.2 304.5,-313.2 513.5,-313.2 513.5,-186.2 304.5,-186.2"/>
<polygon fill="#f5f5f5" stroke="transparent" points="305,-289.7 305,-312.7 514,-312.7 514,-289.7 305,-289.7"/>
<polygon fill="none" stroke="#000000" points="305,-289.7 305,-312.7 514,-312.7 514,-289.7 305,-289.7"/>
<text text-anchor="start" x="310" y="-298.3" font-family="Helvetica,sans-Serif" font-weight="bold" font-size="11.00" fill="#000000">showcase_ownerprofile</text>
<text text-anchor="start" x="479.5219" y="-297.8" font-family="Helvetica,sans-Serif" font-size="11.00" fill="#000000">[table]</text>
<polygon fill="none" stroke="#000000" points="305,-267.7 305,-289.7 514,-289.7 514,-267.7 305,-267.7"/>
<image xlink:href="../../images/primaryKeys.png" width="11px" height="12px" preserveAspectRatio="xMinYMin meet" x="310" y="-284.7"/>
<text text-anchor="start" x="334" y="-274.8" font-family="Helvetica,sans-Serif" font-size="11.00" fill="#000000">id</text>
<polygon fill="#ffffff" stroke="transparent" points="305,-245.7 305,-267.7 514,-267.7 514,-245.7 305,-245.7"/>
<polygon fill="none" stroke="#000000" points="305,-245.7 305,-267.7 514,-267.7 514,-245.7 305,-245.7"/>
<image xlink:href="../../images/foreignKeys.png" width="11px" height="12px" preserveAspectRatio="xMinYMin meet" x="310" y="-262.7"/>
<text text-anchor="start" x="334" y="-252.8" font-family="Helvetica,sans-Serif" font-size="11.00" fill="#000000">user_id</text>
<polygon fill="#ffffff" stroke="transparent" points="305,-223.7 305,-245.7 514,-245.7 514,-223.7 305,-223.7"/>
<polygon fill="none" stroke="#000000" points="305,-223.7 305,-245.7 514,-245.7 514,-223.7 305,-223.7"/>
<text text-anchor="start" x="334" y="-230.8" font-family="Helvetica,sans-Serif" font-size="11.00" fill="#000000">handle</text>
<polygon fill="none" stroke="#000000" points="305,-204.7 305,-223.7 514,-223.7 514,-204.7 305,-204.7"/>
<text text-anchor="start" x="308" y="-210.8" font-family="Helvetica,sans-Serif" font-size="11.00" fill="#000000">...</text>
<polygon fill="#ffffff" stroke="transparent" points="305,-185.7 305,-204.7 514,-204.7 514,-185.7 305,-185.7"/>
<polygon fill="none" stroke="#000000" points="305,-185.7 305,-204.7 514,-204.7 514,-185.7 305,-185.7"/>
<polygon fill="#ffffff" stroke="transparent" points="306,-186.7 306,-203.7 372,-203.7 372,-186.7 306,-186.7"/>
<text text-anchor="start" x="308" y="-191.8" font-family="Helvetica,sans-Serif" font-size="11.00" fill="#000000">&lt; 1</text>
<polygon fill="#ffffff" stroke="transparent" points="372,-186.7 372,-203.7 448,-203.7 448,-186.7 372,-186.7"/>
<text text-anchor="start" x="396.5553" y="-191.8" font-family="Helvetica,sans-Serif" font-size="11.00" fill="#000000">1 row</text>
<polygon fill="#ffffff" stroke="transparent" points="448,-186.7 448,-203.7 513,-203.7 513,-186.7 448,-186.7"/>
<text text-anchor="start" x="495.4053" y="-191.8" font-family="Helvetica,sans-Serif" font-size="11.00" fill="#000000">1 &gt;</text>
<polygon fill="#000000" stroke="#000000" points="372,-186.7 372,-203.7 372,-203.7 372,-186.7 372,-186.7"/>
<polygon fill="#000000" stroke="#000000" points="448,-186.7 448,-203.7 448,-203.7 448,-186.7 448,-186.7"/>
</a>
</g>
</g>
<!-- showcase_ownerprofile&#45;&gt;auth_user -->
<g id="edge4" class="edge">
<title>showcase_ownerprofile:w&#45;&gt;auth_user:e</title>
<path fill="none" stroke="#000000" d="M296.3259,-262.7772C273.847,-287.9462 230.3917,-382.7 215.5,-382.7"/>
<polygon fill="#000000" stroke="#000000" points="302.0496,-253.8831 306.64,-260.435 305.3296,-261.3531 300.7392,-254.8011 302.0496,-253.8831"/>
<polyline fill="none" stroke="#000000" points="305,-256.7 301.724,-258.9952 "/>
<ellipse fill="none" stroke="#000000" cx="299.1032" cy="-260.8314" rx="3.2" ry="3.2"/>
</g>
<!-- token_blacklist_outstandingtoken -->
<g id="node6" class="node">
<title>token_blacklist_outstandingtoken</title>
<g id="a_node6"><a xlink:href="../../tables/token_blacklist_outstandingtoken.html" xlink:title="token_blacklist_outstandingtoken" target="_top">
<polygon fill="#ffffff" stroke="transparent" points="266,-38.2 266,-165.2 552,-165.2 552,-38.2 266,-38.2"/>
<polygon fill="#f5f5f5" stroke="transparent" points="266,-141.7 266,-164.7 552,-164.7 552,-141.7 266,-141.7"/>
<polygon fill="none" stroke="#000000" points="266,-141.7 266,-164.7 552,-164.7 552,-141.7 266,-141.7"/>
<text text-anchor="start" x="271" y="-150.3" font-family="Helvetica,sans-Serif" font-weight="bold" font-size="11.00" fill="#000000">token_blacklist_outstandingtoken</text>
<text text-anchor="start" x="517.5219" y="-149.8" font-family="Helvetica,sans-Serif" font-size="11.00" fill="#000000">[table]</text>
<polygon fill="none" stroke="#000000" points="266,-119.7 266,-141.7 552,-141.7 552,-119.7 266,-119.7"/>
<image xlink:href="../../images/primaryKeys.png" width="11px" height="12px" preserveAspectRatio="xMinYMin meet" x="271" y="-136.7"/>
<text text-anchor="start" x="295" y="-126.8" font-family="Helvetica,sans-Serif" font-size="11.00" fill="#000000">id</text>
<polygon fill="#ffffff" stroke="transparent" points="266,-97.7 266,-119.7 552,-119.7 552,-97.7 266,-97.7"/>
<polygon fill="none" stroke="#000000" points="266,-97.7 266,-119.7 552,-119.7 552,-97.7 266,-97.7"/>
<image xlink:href="../../images/foreignKeys.png" width="11px" height="12px" preserveAspectRatio="xMinYMin meet" x="271" y="-114.7"/>
<text text-anchor="start" x="295" y="-104.8" font-family="Helvetica,sans-Serif" font-size="11.00" fill="#000000">user_id</text>
<polygon fill="#ffffff" stroke="transparent" points="266,-75.7 266,-97.7 552,-97.7 552,-75.7 266,-75.7"/>
<polygon fill="none" stroke="#000000" points="266,-75.7 266,-97.7 552,-97.7 552,-75.7 266,-75.7"/>
<text text-anchor="start" x="295" y="-82.8" font-family="Helvetica,sans-Serif" font-size="11.00" fill="#000000">jti</text>
<polygon fill="none" stroke="#000000" points="266,-56.7 266,-75.7 552,-75.7 552,-56.7 266,-56.7"/>
<text text-anchor="start" x="269" y="-62.8" font-family="Helvetica,sans-Serif" font-size="11.00" fill="#000000">...</text>
<polygon fill="#ffffff" stroke="transparent" points="266,-37.7 266,-56.7 552,-56.7 552,-37.7 266,-37.7"/>
<polygon fill="none" stroke="#000000" points="266,-37.7 266,-56.7 552,-56.7 552,-37.7 266,-37.7"/>
<polygon fill="#ffffff" stroke="transparent" points="267,-38.7 267,-55.7 365,-55.7 365,-38.7 267,-38.7"/>
<text text-anchor="start" x="269" y="-43.8" font-family="Helvetica,sans-Serif" font-size="11.00" fill="#000000">&lt; 1</text>
<polygon fill="#ffffff" stroke="transparent" points="365,-38.7 365,-55.7 454,-55.7 454,-38.7 365,-38.7"/>
<text text-anchor="start" x="406.4431" y="-43.8" font-family="Helvetica,sans-Serif" font-size="11.00" fill="#000000"> &#160;</text>
<polygon fill="#ffffff" stroke="transparent" points="454,-38.7 454,-55.7 551,-55.7 551,-38.7 454,-38.7"/>
<text text-anchor="start" x="533.4053" y="-43.8" font-family="Helvetica,sans-Serif" font-size="11.00" fill="#000000">1 &gt;</text>
<polygon fill="#000000" stroke="#000000" points="365,-38.7 365,-55.7 365,-55.7 365,-38.7 365,-38.7"/>
<polygon fill="#000000" stroke="#000000" points="454,-38.7 454,-55.7 454,-55.7 454,-38.7 454,-38.7"/>
</a>
</g>
</g>
<!-- token_blacklist_outstandingtoken&#45;&gt;auth_user -->
<g id="edge5" class="edge">
<title>token_blacklist_outstandingtoken:w&#45;&gt;auth_user:e</title>
<path fill="none" stroke="#000000" d="M252.6254,-114.6777C215.9307,-154.7475 271.9727,-382.7 215.5,-382.7"/>
<polygon fill="#000000" stroke="#000000" points="258.6963,-111.9644 267.469,-111.9867 262.3481,-110.3322 266,-108.7 266,-108.7 266,-108.7 262.3481,-110.3322 264.531,-105.4133 258.6963,-111.9644 258.6963,-111.9644"/>
<ellipse fill="none" stroke="#000000" cx="255.7748" cy="-113.2701" rx="3.2" ry="3.2"/>
</g>
</g>
</svg>
