<?xml version="1.0" encoding="UTF-8" standalone="no"?>
<!DOCTYPE svg PUBLIC "-//W3C//DTD SVG 1.1//EN"
 "http://www.w3.org/Graphics/SVG/1.1/DTD/svg11.dtd">
<!-- Generated by graphviz version 2.40.1 (20161225.0304)
 -->
<!-- Title: oneDegreeRelationshipsDiagram Pages: 1 -->
<svg width="465pt" height="287pt"
 viewBox="0.00 0.00 465.00 287.20" xmlns="http://www.w3.org/2000/svg" xmlns:xlink="http://www.w3.org/1999/xlink">
<g id="graph0" class="graph" transform="scale(1 1) rotate(0) translate(4 283.2)">
<title>oneDegreeRelationshipsDiagram</title>
<polygon fill="#ffffff" stroke="transparent" points="-4,4 -4,-283.2 461,-283.2 461,4 -4,4"/>
<text text-anchor="middle" x="72.4936" y="-7.3" font-family="Helvetica,sans-Serif" font-size="11.00" fill="#000000">Generated by SchemaSpy</text>
<!-- auth_group_permissions -->
<g id="node1" class="node">
<title>auth_group_permissions</title>
<g id="a_node1"><a xlink:href="../../tables/auth_group_permissions.html" xlink:title="auth_group_permissions" target="_top">
<polygon fill="#ffffff" stroke="transparent" points="232,-167.2 232,-275.2 449,-275.2 449,-167.2 232,-167.2"/>
<polygon fill="#f5f5f5" stroke="transparent" points="232.5,-252.2 232.5,-275.2 449.5,-275.2 449.5,-252.2 232.5,-252.2"/>
<polygon fill="none" stroke="#000000" points="232.5,-252.2 232.5,-275.2 449.5,-275.2 449.5,-252.2 232.5,-252.2"/>
<text text-anchor="start" x="237.5" y="-260.8" font-family="Helvetica,sans-Serif" font-weight="bold" font-size="11.00" fill="#000000">auth_group_permissions</text>
<text text-anchor="start" x="415.0219" y="-260.3" font-family="Helvetica,sans-Serif" font-size="11.00" fill="#000000">[table]</text>
<polygon fill="none" stroke="#000000" points="232.5,-230.2 232.5,-252.2 449.5,-252.2 449.5,-230.2 232.5,-230.2"/>
<image xlink:href="../../images/primaryKeys.png" width="11px" height="12px" preserveAspectRatio="xMinYMin meet" x="237.5" y="-247.2"/>
<text text-anchor="start" x="261.5" y="-237.3" font-family="Helvetica,sans-Serif" font-size="11.00" fill="#000000">id</text>
<polygon fill="#ffffff" stroke="transparent" points="232.5,-208.2 232.5,-230.2 449.5,-230.2 449.5,-208.2 232.5,-208.2"/>
<polygon fill="none" stroke="#000000" points="232.5,-208.2 232.5,-230.2 449.5,-230.2 449.5,-208.2 232.5,-208.2"/>
<image xlink:href="../../images/foreignKeys.png" width="11px" height="12px" preserveAspectRatio="xMinYMin meet" x="237.5" y="-225.2"/>
<text text-anchor="start" x="261.5" y="-215.3" font-family="Helvetica,sans-Serif" font-size="11.00" fill="#000000">group_id</text>
<polygon fill="#ffffff" stroke="transparent" points="232.5,-186.2 232.5,-208.2 449.5,-208.2 449.5,-186.2 232.5,-186.2"/>
<polygon fill="none" stroke="#000000" points="232.5,-186.2 232.5,-208.2 449.5,-208.2 449.5,-186.2 232.5,-186.2"/>
<image xlink:href="../../images/foreignKeys.png" width="11px" height="12px" preserveAspectRatio="xMinYMin meet" x="237.5" y="-203.2"/>
<text text-anchor="start" x="261.5" y="-193.3" font-family="Helvetica,sans-Serif" font-size="11.00" fill="#000000">permission_id</text>
<polygon fill="#ffffff" stroke="transparent" points="232.5,-167.2 232.5,-186.2 449.5,-186.2 449.5,-167.2 232.5,-167.2"/>
<polygon fill="none" stroke="#000000" points="232.5,-167.2 232.5,-186.2 449.5,-186.2 449.5,-167.2 232.5,-167.2"/>
<polygon fill="#ffffff" stroke="transparent" points="233.5,-168.2 233.5,-185.2 311.5,-185.2 311.5,-168.2 233.5,-168.2"/>
<text text-anchor="start" x="235.5" y="-173.3" font-family="Helvetica,sans-Serif" font-size="11.00" fill="#000000">&lt; 2</text>
<polygon fill="#ffffff" stroke="transparent" points="311.5,-168.2 311.5,-185.2 380.5,-185.2 380.5,-168.2 311.5,-168.2"/>
<text text-anchor="start" x="342.9431" y="-173.3" font-family="Helvetica,sans-Serif" font-size="11.00" fill="#000000"> &#160;</text>
<polygon fill="#ffffff" stroke="transparent" points="380.5,-168.2 380.5,-185.2 448.5,-185.2 448.5,-168.2 380.5,-168.2"/>
<text text-anchor="start" x="440.3862" y="-173.3" font-family="Helvetica,sans-Serif" font-size="11.00" fill="#000000"> &#160;</text>
<polygon fill="#000000" stroke="#000000" points="311.5,-168.2 311.5,-185.2 311.5,-185.2 311.5,-168.2 311.5,-168.2"/>
<polygon fill="#000000" stroke="#000000" points="380.5,-168.2 380.5,-185.2 380.5,-185.2 380.5,-168.2 380.5,-168.2"/>
</a>
</g>
</g>
<!-- auth_group -->
<g id="node2" class="node">
<title>auth_group</title>
<g id="a_node2"><a xlink:href="../../tables/auth_group.html" xlink:title="auth_group" target="_top">
<polygon fill="#ffffff" stroke="transparent" points="8,-89.2 8,-179.2 183,-179.2 183,-89.2 8,-89.2"/>
<polygon fill="#f5f5f5" stroke="transparent" points="10.5,-154.2 10.5,-177.2 181.5,-177.2 181.5,-154.2 10.5,-154.2"/>
<polygon fill="none" stroke="#000000" points="10.5,-154.2 10.5,-177.2 181.5,-177.2 181.5,-154.2 10.5,-154.2"/>
<text text-anchor="start" x="15.5" y="-162.8" font-family="Helvetica,sans-Serif" font-weight="bold" font-size="11.00" fill="#000000">auth_group</text>
<text text-anchor="start" x="146.5437" y="-162.3" font-family="Helvetica,sans-Serif" font-size="11.00" fill="#000000">[table]</text>
<polygon fill="none" stroke="#000000" points="10.5,-132.2 10.5,-154.2 114.5,-154.2 114.5,-132.2 10.5,-132.2"/>
<image xlink:href="../../images/primaryKeys.png" width="11px" height="12px" preserveAspectRatio="xMinYMin meet" x="15.5" y="-149.2"/>
<text text-anchor="start" x="30.5" y="-139.3" font-family="Helvetica,sans-Serif" font-size="11.00" fill="#000000">id</text>
<polygon fill="none" stroke="#000000" points="114.5,-132.2 114.5,-154.2 181.5,-154.2 181.5,-132.2 114.5,-132.2"/>
<text text-anchor="start" x="117.5" y="-139.9" font-family="Helvetica,sans-Serif" font-size="11.00" fill="#000000">int4[10]</text>
<polygon fill="#ffffff" stroke="transparent" points="10.5,-110.2 10.5,-132.2 114.5,-132.2 114.5,-110.2 10.5,-110.2"/>
<polygon fill="none" stroke="#000000" points="10.5,-110.2 10.5,-132.2 114.5,-132.2 114.5,-110.2 10.5,-110.2"/>
<text text-anchor="start" x="30.5" y="-117.3" font-family="Helvetica,sans-Serif" font-size="11.00" fill="#000000">name</text>
<polygon fill="none" stroke="#000000" points="114.5,-110.2 114.5,-132.2 181.5,-132.2 181.5,-110.2 114.5,-110.2"/>
<text text-anchor="start" x="117.4365" y="-117.9" font-family="Helvetica,sans-Serif" font-size="11.00" fill="#000000">varchar[150]</text>
<polygon fill="#ffffff" stroke="transparent" points="10.5,-91.2 10.5,-110.2 181.5,-110.2 181.5,-91.2 10.5,-91.2"/>
<polygon fill="none" stroke="#000000" points="10.5,-91.2 10.5,-110.2 181.5,-110.2 181.5,-91.2 10.5,-91.2"/>
<polygon fill="#ffffff" stroke="transparent" points="11.5,-92.2 11.5,-109.2 71.5,-109.2 71.5,-92.2 11.5,-92.2"/>
<text text-anchor="start" x="13.5" y="-97.3" font-family="Helvetica,sans-Serif" font-size="11.00" fill="#000000">&lt; 0</text>
<polygon fill="#ffffff" stroke="transparent" points="71.5,-92.2 71.5,-109.2 121.5,-109.2 121.5,-92.2 71.5,-92.2"/>
<text text-anchor="start" x="93.4431" y="-97.3" font-family="Helvetica,sans-Serif" font-size="11.00" fill="#000000"> &#160;</text>
<polygon fill="#ffffff" stroke="transparent" points="121.5,-92.2 121.5,-109.2 180.5,-109.2 180.5,-92.2 121.5,-92.2"/>
<text text-anchor="start" x="162.9053" y="-97.3" font-family="Helvetica,sans-Serif" font-size="11.00" fill="#000000">2 &gt;</text>
<polygon fill="#000000" stroke="#000000" points="71.5,-92.2 71.5,-109.2 71.5,-109.2 71.5,-92.2 71.5,-92.2"/>
<polygon fill="#000000" stroke="#000000" points="121.5,-92.2 121.5,-109.2 121.5,-109.2 121.5,-92.2 121.5,-92.2"/>
<polygon fill="none" stroke="#000000" stroke-width="2" points="9,-90.2 9,-178.2 182,-178.2 182,-90.2 9,-90.2"/>
</a>
</g>
</g>
<!-- auth_group_permissions&#45;&gt;auth_group -->
<g id="edge1" class="edge">
<title>auth_group_permissions:w&#45;&gt;auth_group:e</title>
<path fill="none" stroke="#000000" d="M218.6163,-214.6735C199.2687,-198.3121 216.14,-143.2 181.5,-143.2"/>
<polygon fill="#000000" stroke="#000000" points="224.894,-216.7202 231.3841,-222.6227 228.697,-217.9601 232.5,-219.2 232.5,-219.2 232.5,-219.2 228.697,-217.9601 233.6159,-215.7773 224.894,-216.7202 224.894,-216.7202"/>
<ellipse fill="none" stroke="#000000" cx="221.8517" cy="-215.7282" rx="3.2" ry="3.2"/>
</g>
<!-- auth_user_groups -->
<g id="node3" class="node">
<title>auth_user_groups</title>
<g id="a_node3"><a xlink:href="../../tables/auth_user_groups.html" xlink:title="auth_user_groups" target="_top">
<polygon fill="#ffffff" stroke="transparent" points="256.5,-38.2 256.5,-146.2 424.5,-146.2 424.5,-38.2 256.5,-38.2"/>
<polygon fill="#f5f5f5" stroke="transparent" points="256.5,-123.2 256.5,-146.2 424.5,-146.2 424.5,-123.2 256.5,-123.2"/>
<polygon fill="none" stroke="#000000" points="256.5,-123.2 256.5,-146.2 424.5,-146.2 424.5,-123.2 256.5,-123.2"/>
<text text-anchor="start" x="261.5" y="-131.8" font-family="Helvetica,sans-Serif" font-weight="bold" font-size="11.00" fill="#000000">auth_user_groups</text>
<text text-anchor="start" x="390.0219" y="-131.3" font-family="Helvetica,sans-Serif" font-size="11.00" fill="#000000">[table]</text>
<polygon fill="none" stroke="#000000" points="256.5,-101.2 256.5,-123.2 424.5,-123.2 424.5,-101.2 256.5,-101.2"/>
<image xlink:href="../../images/primaryKeys.png" width="11px" height="12px" preserveAspectRatio="xMinYMin meet" x="261.5" y="-118.2"/>
<text text-anchor="start" x="285.5" y="-108.3" font-family="Helvetica,sans-Serif" font-size="11.00" fill="#000000">id</text>
<polygon fill="#ffffff" stroke="transparent" points="256.5,-79.2 256.5,-101.2 424.5,-101.2 424.5,-79.2 256.5,-79.2"/>
<polygon fill="none" stroke="#000000" points="256.5,-79.2 256.5,-101.2 424.5,-101.2 424.5,-79.2 256.5,-79.2"/>
<image xlink:href="../../images/foreignKeys.png" width="11px" height="12px" preserveAspectRatio="xMinYMin meet" x="261.5" y="-96.2"/>
<text text-anchor="start" x="285.5" y="-86.3" font-family="Helvetica,sans-Serif" font-size="11.00" fill="#000000">user_id</text>
<polygon fill="#ffffff" stroke="transparent" points="256.5,-57.2 256.5,-79.2 424.5,-79.2 424.5,-57.2 256.5,-57.2"/>
<polygon fill="none" stroke="#000000" points="256.5,-57.2 256.5,-79.2 424.5,-79.2 424.5,-57.2 256.5,-57.2"/>
<image xlink:href="../../images/foreignKeys.png" width="11px" height="12px" preserveAspectRatio="xMinYMin meet" x="261.5" y="-74.2"/>
<text text-anchor="start" x="285.5" y="-64.3" font-family="Helvetica,sans-Serif" font-size="11.00" fill="#000000">group_id</text>
<polygon fill="#ffffff" stroke="transparent" points="256.5,-38.2 256.5,-57.2 424.5,-57.2 424.5,-38.2 256.5,-38.2"/>
<polygon fill="none" stroke="#000000" points="256.5,-38.2 256.5,-57.2 424.5,-57.2 424.5,-38.2 256.5,-38.2"/>
<polygon fill="#ffffff" stroke="transparent" points="257.5,-39.2 257.5,-56.2 319.5,-56.2 319.5,-39.2 257.5,-39.2"/>
<text text-anchor="start" x="259.5" y="-44.3" font-family="Helvetica,sans-Serif" font-size="11.00" fill="#000000">&lt; 2</text>
<polygon fill="#ffffff" stroke="transparent" points="319.5,-39.2 319.5,-56.2 371.5,-56.2 371.5,-39.2 319.5,-39.2"/>
<text text-anchor="start" x="342.4431" y="-44.3" font-family="Helvetica,sans-Serif" font-size="11.00" fill="#000000"> &#160;</text>
<polygon fill="#ffffff" stroke="transparent" points="371.5,-39.2 371.5,-56.2 423.5,-56.2 423.5,-39.2 371.5,-39.2"/>
<text text-anchor="start" x="415.3862" y="-44.3" font-family="Helvetica,sans-Serif" font-size="11.00" fill="#000000"> &#160;</text>
<polygon fill="#000000" stroke="#000000" points="319.5,-39.2 319.5,-56.2 319.5,-56.2 319.5,-39.2 319.5,-39.2"/>
<polygon fill="#000000" stroke="#000000" points="371.5,-39.2 371.5,-56.2 371.5,-56.2 371.5,-39.2 371.5,-39.2"/>
</a>
</g>
</g>
<!-- auth_user_groups&#45;&gt;auth_group -->
<g id="edge2" class="edge">
<title>auth_user_groups:w&#45;&gt;auth_group:e</title>
<path fill="none" stroke="#000000" d="M242.0608,-71.233C213.0552,-85.2643 222.932,-143.2 181.5,-143.2"/>
<polygon fill="#000000" stroke="#000000" points="248.6709,-69.8446 257.2401,-71.7231 252.5854,-69.0223 256.5,-68.2 256.5,-68.2 256.5,-68.2 252.5854,-69.0223 255.7599,-64.6769 248.6709,-69.8446 248.6709,-69.8446"/>
<ellipse fill="none" stroke="#000000" cx="245.5392" cy="-70.5024" rx="3.2" ry="3.2"/>
</g>
</g>
</svg>
