<?xml version="1.0" encoding="UTF-8" standalone="no"?>
<!DOCTYPE svg PUBLIC "-//W3C//DTD SVG 1.1//EN"
 "http://www.w3.org/Graphics/SVG/1.1/DTD/svg11.dtd">
<!-- Generated by graphviz version 2.40.1 (20161225.0304)
 -->
<!-- Title: twoDegreesRelationshipsDiagram Pages: 1 -->
<svg width="769pt" height="395pt"
 viewBox="0.00 0.00 769.00 395.15" xmlns="http://www.w3.org/2000/svg" xmlns:xlink="http://www.w3.org/1999/xlink">
<g id="graph0" class="graph" transform="scale(1 1) rotate(0) translate(4 391.1508)">
<title>twoDegreesRelationshipsDiagram</title>
<polygon fill="#ffffff" stroke="transparent" points="-4,4 -4,-391.1508 765,-391.1508 765,4 -4,4"/>
<text text-anchor="middle" x="72.4936" y="-7.3" font-family="Helvetica,sans-Serif" font-size="11.00" fill="#000000">Generated by SchemaSpy</text>
<!-- auth_group_permissions -->
<g id="node1" class="node">
<title>auth_group_permissions</title>
<g id="a_node1"><a xlink:href="../../tables/auth_group_permissions.html" xlink:title="auth_group_permissions" target="_top">
<polygon fill="#ffffff" stroke="transparent" points="522.5,-275.1508 522.5,-383.1508 739.5,-383.1508 739.5,-275.1508 522.5,-275.1508"/>
<polygon fill="#f5f5f5" stroke="transparent" points="523,-360.1508 523,-383.1508 740,-383.1508 740,-360.1508 523,-360.1508"/>
<polygon fill="none" stroke="#000000" points="523,-360.1508 523,-383.1508 740,-383.1508 740,-360.1508 523,-360.1508"/>
<text text-anchor="start" x="528" y="-368.7508" font-family="Helvetica,sans-Serif" font-weight="bold" font-size="11.00" fill="#000000">auth_group_permissions</text>
<text text-anchor="start" x="705.5219" y="-368.2508" font-family="Helvetica,sans-Serif" font-size="11.00" fill="#000000">[table]</text>
<polygon fill="none" stroke="#000000" points="523,-338.1508 523,-360.1508 740,-360.1508 740,-338.1508 523,-338.1508"/>
<image xlink:href="../../images/primaryKeys.png" width="11px" height="12px" preserveAspectRatio="xMinYMin meet" x="528" y="-355.151"/>
<text text-anchor="start" x="552" y="-345.2508" font-family="Helvetica,sans-Serif" font-size="11.00" fill="#000000">id</text>
<polygon fill="#ffffff" stroke="transparent" points="523,-316.1508 523,-338.1508 740,-338.1508 740,-316.1508 523,-316.1508"/>
<polygon fill="none" stroke="#000000" points="523,-316.1508 523,-338.1508 740,-338.1508 740,-316.1508 523,-316.1508"/>
<image xlink:href="../../images/foreignKeys.png" width="11px" height="12px" preserveAspectRatio="xMinYMin meet" x="528" y="-333.151"/>
<text text-anchor="start" x="552" y="-323.2508" font-family="Helvetica,sans-Serif" font-size="11.00" fill="#000000">group_id</text>
<polygon fill="#ffffff" stroke="transparent" points="523,-294.1508 523,-316.1508 740,-316.1508 740,-294.1508 523,-294.1508"/>
<polygon fill="none" stroke="#000000" points="523,-294.1508 523,-316.1508 740,-316.1508 740,-294.1508 523,-294.1508"/>
<image xlink:href="../../images/foreignKeys.png" width="11px" height="12px" preserveAspectRatio="xMinYMin meet" x="528" y="-311.151"/>
<text text-anchor="start" x="552" y="-301.2508" font-family="Helvetica,sans-Serif" font-size="11.00" fill="#000000">permission_id</text>
<polygon fill="#ffffff" stroke="transparent" points="523,-275.1508 523,-294.1508 740,-294.1508 740,-275.1508 523,-275.1508"/>
<polygon fill="none" stroke="#000000" points="523,-275.1508 523,-294.1508 740,-294.1508 740,-275.1508 523,-275.1508"/>
<polygon fill="#ffffff" stroke="transparent" points="524,-276.1508 524,-293.1508 602,-293.1508 602,-276.1508 524,-276.1508"/>
<text text-anchor="start" x="526" y="-281.2508" font-family="Helvetica,sans-Serif" font-size="11.00" fill="#000000">&lt; 2</text>
<polygon fill="#ffffff" stroke="transparent" points="602,-276.1508 602,-293.1508 671,-293.1508 671,-276.1508 602,-276.1508"/>
<text text-anchor="start" x="633.4431" y="-281.2508" font-family="Helvetica,sans-Serif" font-size="11.00" fill="#000000"> &#160;</text>
<polygon fill="#ffffff" stroke="transparent" points="671,-276.1508 671,-293.1508 739,-293.1508 739,-276.1508 671,-276.1508"/>
<text text-anchor="start" x="730.8862" y="-281.2508" font-family="Helvetica,sans-Serif" font-size="11.00" fill="#000000"> &#160;</text>
<polygon fill="#000000" stroke="#000000" points="602,-276.1508 602,-293.1508 602,-293.1508 602,-276.1508 602,-276.1508"/>
<polygon fill="#000000" stroke="#000000" points="671,-276.1508 671,-293.1508 671,-293.1508 671,-276.1508 671,-276.1508"/>
</a>
</g>
</g>
<!-- auth_group -->
<g id="node2" class="node">
<title>auth_group</title>
<g id="a_node2"><a xlink:href="../../tables/auth_group.html" xlink:title="auth_group" target="_top">
<polygon fill="#ffffff" stroke="transparent" points="293,-306.6508 293,-367.6508 415,-367.6508 415,-306.6508 293,-306.6508"/>
<polygon fill="#f5f5f5" stroke="transparent" points="293,-344.1508 293,-367.1508 415,-367.1508 415,-344.1508 293,-344.1508"/>
<polygon fill="none" stroke="#000000" points="293,-344.1508 293,-367.1508 415,-367.1508 415,-344.1508 293,-344.1508"/>
<text text-anchor="start" x="298" y="-352.7508" font-family="Helvetica,sans-Serif" font-weight="bold" font-size="11.00" fill="#000000">auth_group</text>
<text text-anchor="start" x="380.5219" y="-352.2508" font-family="Helvetica,sans-Serif" font-size="11.00" fill="#000000">[table]</text>
<polygon fill="none" stroke="#000000" points="293,-325.1508 293,-344.1508 415,-344.1508 415,-325.1508 293,-325.1508"/>
<text text-anchor="start" x="296" y="-331.2508" font-family="Helvetica,sans-Serif" font-size="11.00" fill="#000000">...</text>
<polygon fill="#ffffff" stroke="transparent" points="293,-306.1508 293,-325.1508 415,-325.1508 415,-306.1508 293,-306.1508"/>
<polygon fill="none" stroke="#000000" points="293,-306.1508 293,-325.1508 415,-325.1508 415,-306.1508 293,-306.1508"/>
<polygon fill="#ffffff" stroke="transparent" points="294,-307.1508 294,-324.1508 331,-324.1508 331,-307.1508 294,-307.1508"/>
<text text-anchor="start" x="296" y="-312.2508" font-family="Helvetica,sans-Serif" font-size="11.00" fill="#000000"> &#160;</text>
<polygon fill="#ffffff" stroke="transparent" points="331,-307.1508 331,-324.1508 368,-324.1508 368,-307.1508 331,-307.1508"/>
<text text-anchor="start" x="346.4431" y="-312.2508" font-family="Helvetica,sans-Serif" font-size="11.00" fill="#000000"> &#160;</text>
<polygon fill="#ffffff" stroke="transparent" points="368,-307.1508 368,-324.1508 414,-324.1508 414,-307.1508 368,-307.1508"/>
<text text-anchor="start" x="396.4053" y="-312.2508" font-family="Helvetica,sans-Serif" font-size="11.00" fill="#000000">2 &gt;</text>
<polygon fill="#000000" stroke="#000000" points="331,-307.1508 331,-324.1508 331,-324.1508 331,-307.1508 331,-307.1508"/>
<polygon fill="#000000" stroke="#000000" points="368,-307.1508 368,-324.1508 368,-324.1508 368,-307.1508 368,-307.1508"/>
</a>
</g>
</g>
<!-- auth_group_permissions&#45;&gt;auth_group -->
<g id="edge1" class="edge">
<title>auth_group_permissions:w&#45;&gt;auth_group:e</title>
<path fill="none" stroke="#000000" d="M508.4248,-327.3837C471.8841,-328.5983 457.8397,-334.1508 415,-334.1508"/>
<polygon fill="#000000" stroke="#000000" points="515.001,-327.2787 523.0575,-330.7503 519.0005,-327.2147 523,-327.1508 523,-327.1508 523,-327.1508 519.0005,-327.2147 522.9425,-323.5512 515.001,-327.2787 515.001,-327.2787"/>
<ellipse fill="none" stroke="#000000" cx="511.8014" cy="-327.3298" rx="3.2" ry="3.2"/>
</g>
<!-- auth_permission -->
<g id="node3" class="node">
<title>auth_permission</title>
<g id="a_node3"><a xlink:href="../../tables/auth_permission.html" xlink:title="auth_permission" target="_top">
<polygon fill="#ffffff" stroke="transparent" points="248,-151.1508 248,-285.1508 460,-285.1508 460,-151.1508 248,-151.1508"/>
<polygon fill="#f5f5f5" stroke="transparent" points="250,-260.1508 250,-283.1508 458,-283.1508 458,-260.1508 250,-260.1508"/>
<polygon fill="none" stroke="#000000" points="250,-260.1508 250,-283.1508 458,-283.1508 458,-260.1508 250,-260.1508"/>
<text text-anchor="start" x="255" y="-268.7508" font-family="Helvetica,sans-Serif" font-weight="bold" font-size="11.00" fill="#000000">auth_permission</text>
<text text-anchor="start" x="423.0437" y="-268.2508" font-family="Helvetica,sans-Serif" font-size="11.00" fill="#000000">[table]</text>
<polygon fill="none" stroke="#000000" points="250,-238.1508 250,-260.1508 391,-260.1508 391,-238.1508 250,-238.1508"/>
<image xlink:href="../../images/primaryKeys.png" width="11px" height="12px" preserveAspectRatio="xMinYMin meet" x="255" y="-255.151"/>
<text text-anchor="start" x="270" y="-245.2508" font-family="Helvetica,sans-Serif" font-size="11.00" fill="#000000">id</text>
<polygon fill="none" stroke="#000000" points="391,-238.1508 391,-260.1508 458,-260.1508 458,-238.1508 391,-238.1508"/>
<text text-anchor="start" x="394" y="-245.8508" font-family="Helvetica,sans-Serif" font-size="11.00" fill="#000000">int4[10]</text>
<polygon fill="none" stroke="#000000" points="250,-216.1508 250,-238.1508 391,-238.1508 391,-216.1508 250,-216.1508"/>
<text text-anchor="start" x="270" y="-223.2508" font-family="Helvetica,sans-Serif" font-size="11.00" fill="#000000">name</text>
<polygon fill="none" stroke="#000000" points="391,-216.1508 391,-238.1508 458,-238.1508 458,-216.1508 391,-216.1508"/>
<text text-anchor="start" x="393.9365" y="-223.8508" font-family="Helvetica,sans-Serif" font-size="11.00" fill="#000000">varchar[255]</text>
<polygon fill="#ffffff" stroke="transparent" points="250,-194.1508 250,-216.1508 391,-216.1508 391,-194.1508 250,-194.1508"/>
<polygon fill="none" stroke="#000000" points="250,-194.1508 250,-216.1508 391,-216.1508 391,-194.1508 250,-194.1508"/>
<image xlink:href="../../images/foreignKeys.png" width="11px" height="12px" preserveAspectRatio="xMinYMin meet" x="255" y="-211.151"/>
<text text-anchor="start" x="270" y="-201.2508" font-family="Helvetica,sans-Serif" font-size="11.00" fill="#000000">content_type_id</text>
<polygon fill="none" stroke="#000000" points="391,-194.1508 391,-216.1508 458,-216.1508 458,-194.1508 391,-194.1508"/>
<text text-anchor="start" x="394" y="-201.8508" font-family="Helvetica,sans-Serif" font-size="11.00" fill="#000000">int4[10]</text>
<polygon fill="#ffffff" stroke="transparent" points="250,-172.1508 250,-194.1508 391,-194.1508 391,-172.1508 250,-172.1508"/>
<polygon fill="none" stroke="#000000" points="250,-172.1508 250,-194.1508 391,-194.1508 391,-172.1508 250,-172.1508"/>
<text text-anchor="start" x="270" y="-179.2508" font-family="Helvetica,sans-Serif" font-size="11.00" fill="#000000">codename</text>
<polygon fill="none" stroke="#000000" points="391,-172.1508 391,-194.1508 458,-194.1508 458,-172.1508 391,-172.1508"/>
<text text-anchor="start" x="393.9365" y="-179.8508" font-family="Helvetica,sans-Serif" font-size="11.00" fill="#000000">varchar[100]</text>
<polygon fill="#ffffff" stroke="transparent" points="250,-153.1508 250,-172.1508 458,-172.1508 458,-153.1508 250,-153.1508"/>
<polygon fill="none" stroke="#000000" points="250,-153.1508 250,-172.1508 458,-172.1508 458,-153.1508 250,-153.1508"/>
<polygon fill="#ffffff" stroke="transparent" points="251,-154.1508 251,-171.1508 323,-171.1508 323,-154.1508 251,-154.1508"/>
<text text-anchor="start" x="253" y="-159.2508" font-family="Helvetica,sans-Serif" font-size="11.00" fill="#000000">&lt; 1</text>
<polygon fill="#ffffff" stroke="transparent" points="323,-154.1508 323,-171.1508 386,-171.1508 386,-154.1508 323,-154.1508"/>
<text text-anchor="start" x="351.4431" y="-159.2508" font-family="Helvetica,sans-Serif" font-size="11.00" fill="#000000"> &#160;</text>
<polygon fill="#ffffff" stroke="transparent" points="386,-154.1508 386,-171.1508 457,-171.1508 457,-154.1508 386,-154.1508"/>
<text text-anchor="start" x="439.4053" y="-159.2508" font-family="Helvetica,sans-Serif" font-size="11.00" fill="#000000">2 &gt;</text>
<polygon fill="#000000" stroke="#000000" points="323,-154.1508 323,-171.1508 323,-171.1508 323,-154.1508 323,-154.1508"/>
<polygon fill="#000000" stroke="#000000" points="386,-154.1508 386,-171.1508 386,-171.1508 386,-154.1508 386,-154.1508"/>
<polygon fill="none" stroke="#000000" stroke-width="2" points="249,-152.1508 249,-284.1508 459,-284.1508 459,-152.1508 249,-152.1508"/>
</a>
</g>
</g>
<!-- auth_group_permissions&#45;&gt;auth_permission -->
<g id="edge2" class="edge">
<title>auth_group_permissions:w&#45;&gt;auth_permission:e</title>
<path fill="none" stroke="#000000" d="M508.9614,-301.8154C487.1238,-289.7597 490.4715,-249.1508 458,-249.1508"/>
<polygon fill="#000000" stroke="#000000" points="515.2167,-303.3015 522.1678,-308.6533 519.1083,-304.2262 523,-305.1508 523,-305.1508 523,-305.1508 519.1083,-304.2262 523.8322,-301.6483 515.2167,-303.3015 515.2167,-303.3015"/>
<ellipse fill="none" stroke="#000000" cx="512.1033" cy="-302.5618" rx="3.2" ry="3.2"/>
</g>
<!-- django_content_type -->
<g id="node4" class="node">
<title>django_content_type</title>
<g id="a_node4"><a xlink:href="../../tables/django_content_type.html" xlink:title="django_content_type" target="_top">
<polygon fill="#ffffff" stroke="transparent" points="8,-50.1508 8,-158.1508 199,-158.1508 199,-50.1508 8,-50.1508"/>
<polygon fill="#f5f5f5" stroke="transparent" points="8.5,-135.1508 8.5,-158.1508 199.5,-158.1508 199.5,-135.1508 8.5,-135.1508"/>
<polygon fill="none" stroke="#000000" points="8.5,-135.1508 8.5,-158.1508 199.5,-158.1508 199.5,-135.1508 8.5,-135.1508"/>
<text text-anchor="start" x="13.5" y="-143.7508" font-family="Helvetica,sans-Serif" font-weight="bold" font-size="11.00" fill="#000000">django_content_type</text>
<text text-anchor="start" x="165.0219" y="-143.2508" font-family="Helvetica,sans-Serif" font-size="11.00" fill="#000000">[table]</text>
<polygon fill="none" stroke="#000000" points="8.5,-113.1508 8.5,-135.1508 199.5,-135.1508 199.5,-113.1508 8.5,-113.1508"/>
<image xlink:href="../../images/primaryKeys.png" width="11px" height="12px" preserveAspectRatio="xMinYMin meet" x="13.5" y="-130.151"/>
<text text-anchor="start" x="37.5" y="-120.2508" font-family="Helvetica,sans-Serif" font-size="11.00" fill="#000000">id</text>
<polygon fill="#ffffff" stroke="transparent" points="8.5,-91.1508 8.5,-113.1508 199.5,-113.1508 199.5,-91.1508 8.5,-91.1508"/>
<polygon fill="none" stroke="#000000" points="8.5,-91.1508 8.5,-113.1508 199.5,-113.1508 199.5,-91.1508 8.5,-91.1508"/>
<text text-anchor="start" x="37.5" y="-98.2508" font-family="Helvetica,sans-Serif" font-size="11.00" fill="#000000">app_label</text>
<polygon fill="#ffffff" stroke="transparent" points="8.5,-69.1508 8.5,-91.1508 199.5,-91.1508 199.5,-69.1508 8.5,-69.1508"/>
<polygon fill="none" stroke="#000000" points="8.5,-69.1508 8.5,-91.1508 199.5,-91.1508 199.5,-69.1508 8.5,-69.1508"/>
<text text-anchor="start" x="37.5" y="-76.2508" font-family="Helvetica,sans-Serif" font-size="11.00" fill="#000000">model</text>
<polygon fill="#ffffff" stroke="transparent" points="8.5,-50.1508 8.5,-69.1508 199.5,-69.1508 199.5,-50.1508 8.5,-50.1508"/>
<polygon fill="none" stroke="#000000" points="8.5,-50.1508 8.5,-69.1508 199.5,-69.1508 199.5,-50.1508 8.5,-50.1508"/>
<polygon fill="#ffffff" stroke="transparent" points="9.5,-51.1508 9.5,-68.1508 69.5,-68.1508 69.5,-51.1508 9.5,-51.1508"/>
<text text-anchor="start" x="11.5" y="-56.2508" font-family="Helvetica,sans-Serif" font-size="11.00" fill="#000000"> &#160;</text>
<polygon fill="#ffffff" stroke="transparent" points="69.5,-51.1508 69.5,-68.1508 129.5,-68.1508 129.5,-51.1508 69.5,-51.1508"/>
<text text-anchor="start" x="96.4431" y="-56.2508" font-family="Helvetica,sans-Serif" font-size="11.00" fill="#000000"> &#160;</text>
<polygon fill="#ffffff" stroke="transparent" points="129.5,-51.1508 129.5,-68.1508 198.5,-68.1508 198.5,-51.1508 129.5,-51.1508"/>
<text text-anchor="start" x="180.9053" y="-56.2508" font-family="Helvetica,sans-Serif" font-size="11.00" fill="#000000">2 &gt;</text>
<polygon fill="#000000" stroke="#000000" points="69.5,-51.1508 69.5,-68.1508 69.5,-68.1508 69.5,-51.1508 69.5,-51.1508"/>
<polygon fill="#000000" stroke="#000000" points="129.5,-51.1508 129.5,-68.1508 129.5,-68.1508 129.5,-51.1508 129.5,-51.1508"/>
</a>
</g>
</g>
<!-- auth_permission&#45;&gt;django_content_type -->
<g id="edge3" class="edge">
<title>auth_permission:w&#45;&gt;django_content_type:e</title>
<path fill="none" stroke="#000000" d="M236.2301,-200.7959C215.7184,-183.9713 235.9577,-124.1508 199.5,-124.1508"/>
<polygon fill="#000000" stroke="#000000" points="242.3724,-202.7384 248.9144,-208.5832 246.1862,-203.9446 250,-205.1508 250,-205.1508 250,-205.1508 246.1862,-203.9446 251.0856,-201.7184 242.3724,-202.7384 242.3724,-202.7384"/>
<ellipse fill="none" stroke="#000000" cx="239.3213" cy="-201.7735" rx="3.2" ry="3.2"/>
</g>
<!-- auth_user_user_permissions -->
<g id="node5" class="node">
<title>auth_user_user_permissions</title>
<g id="a_node5"><a xlink:href="../../tables/auth_user_user_permissions.html" xlink:title="auth_user_user_permissions" target="_top">
<polygon fill="#ffffff" stroke="transparent" points="509,-139.1508 509,-247.1508 753,-247.1508 753,-139.1508 509,-139.1508"/>
<polygon fill="#f5f5f5" stroke="transparent" points="509,-224.1508 509,-247.1508 753,-247.1508 753,-224.1508 509,-224.1508"/>
<polygon fill="none" stroke="#000000" points="509,-224.1508 509,-247.1508 753,-247.1508 753,-224.1508 509,-224.1508"/>
<text text-anchor="start" x="514" y="-232.7508" font-family="Helvetica,sans-Serif" font-weight="bold" font-size="11.00" fill="#000000">auth_user_user_permissions</text>
<text text-anchor="start" x="718.5219" y="-232.2508" font-family="Helvetica,sans-Serif" font-size="11.00" fill="#000000">[table]</text>
<polygon fill="none" stroke="#000000" points="509,-202.1508 509,-224.1508 753,-224.1508 753,-202.1508 509,-202.1508"/>
<image xlink:href="../../images/primaryKeys.png" width="11px" height="12px" preserveAspectRatio="xMinYMin meet" x="514" y="-219.151"/>
<text text-anchor="start" x="538" y="-209.2508" font-family="Helvetica,sans-Serif" font-size="11.00" fill="#000000">id</text>
<polygon fill="#ffffff" stroke="transparent" points="509,-180.1508 509,-202.1508 753,-202.1508 753,-180.1508 509,-180.1508"/>
<polygon fill="none" stroke="#000000" points="509,-180.1508 509,-202.1508 753,-202.1508 753,-180.1508 509,-180.1508"/>
<image xlink:href="../../images/foreignKeys.png" width="11px" height="12px" preserveAspectRatio="xMinYMin meet" x="514" y="-197.151"/>
<text text-anchor="start" x="538" y="-187.2508" font-family="Helvetica,sans-Serif" font-size="11.00" fill="#000000">user_id</text>
<polygon fill="#ffffff" stroke="transparent" points="509,-158.1508 509,-180.1508 753,-180.1508 753,-158.1508 509,-158.1508"/>
<polygon fill="none" stroke="#000000" points="509,-158.1508 509,-180.1508 753,-180.1508 753,-158.1508 509,-158.1508"/>
<image xlink:href="../../images/foreignKeys.png" width="11px" height="12px" preserveAspectRatio="xMinYMin meet" x="514" y="-175.151"/>
<text text-anchor="start" x="538" y="-165.2508" font-family="Helvetica,sans-Serif" font-size="11.00" fill="#000000">permission_id</text>
<polygon fill="#ffffff" stroke="transparent" points="509,-139.1508 509,-158.1508 753,-158.1508 753,-139.1508 509,-139.1508"/>
<polygon fill="none" stroke="#000000" points="509,-139.1508 509,-158.1508 753,-158.1508 753,-139.1508 509,-139.1508"/>
<polygon fill="#ffffff" stroke="transparent" points="510,-140.1508 510,-157.1508 597,-157.1508 597,-140.1508 510,-140.1508"/>
<text text-anchor="start" x="512" y="-145.2508" font-family="Helvetica,sans-Serif" font-size="11.00" fill="#000000">&lt; 2</text>
<polygon fill="#ffffff" stroke="transparent" points="597,-140.1508 597,-157.1508 675,-157.1508 675,-140.1508 597,-140.1508"/>
<text text-anchor="start" x="632.9431" y="-145.2508" font-family="Helvetica,sans-Serif" font-size="11.00" fill="#000000"> &#160;</text>
<polygon fill="#ffffff" stroke="transparent" points="675,-140.1508 675,-157.1508 752,-157.1508 752,-140.1508 675,-140.1508"/>
<text text-anchor="start" x="743.8862" y="-145.2508" font-family="Helvetica,sans-Serif" font-size="11.00" fill="#000000"> &#160;</text>
<polygon fill="#000000" stroke="#000000" points="597,-140.1508 597,-157.1508 597,-157.1508 597,-140.1508 597,-140.1508"/>
<polygon fill="#000000" stroke="#000000" points="675,-140.1508 675,-157.1508 675,-157.1508 675,-140.1508 675,-140.1508"/>
</a>
</g>
</g>
<!-- auth_user_user_permissions&#45;&gt;auth_permission -->
<g id="edge4" class="edge">
<title>auth_user_user_permissions:w&#45;&gt;auth_permission:e</title>
<path fill="none" stroke="#000000" d="M494.9925,-173.6812C474.8919,-190.6046 494.0717,-249.1508 458,-249.1508"/>
<polygon fill="#000000" stroke="#000000" points="501.3882,-171.6127 510.1078,-172.5761 505.1941,-170.3817 509,-169.1508 509,-169.1508 509,-169.1508 505.1941,-170.3817 507.8922,-165.7255 501.3882,-171.6127 501.3882,-171.6127"/>
<ellipse fill="none" stroke="#000000" cx="498.3435" cy="-172.5974" rx="3.2" ry="3.2"/>
</g>
<!-- auth_user -->
<g id="node6" class="node">
<title>auth_user</title>
<g id="a_node6"><a xlink:href="../../tables/auth_user.html" xlink:title="auth_user" target="_top">
<polygon fill="#ffffff" stroke="transparent" points="298.5,-68.6508 298.5,-129.6508 409.5,-129.6508 409.5,-68.6508 298.5,-68.6508"/>
<polygon fill="#f5f5f5" stroke="transparent" points="299,-106.1508 299,-129.1508 410,-129.1508 410,-106.1508 299,-106.1508"/>
<polygon fill="none" stroke="#000000" points="299,-106.1508 299,-129.1508 410,-129.1508 410,-106.1508 299,-106.1508"/>
<text text-anchor="start" x="304" y="-114.7508" font-family="Helvetica,sans-Serif" font-weight="bold" font-size="11.00" fill="#000000">auth_user</text>
<text text-anchor="start" x="375.5219" y="-114.2508" font-family="Helvetica,sans-Serif" font-size="11.00" fill="#000000">[table]</text>
<polygon fill="none" stroke="#000000" points="299,-87.1508 299,-106.1508 410,-106.1508 410,-87.1508 299,-87.1508"/>
<text text-anchor="start" x="302" y="-93.2508" font-family="Helvetica,sans-Serif" font-size="11.00" fill="#000000">...</text>
<polygon fill="#ffffff" stroke="transparent" points="299,-68.1508 299,-87.1508 410,-87.1508 410,-68.1508 299,-68.1508"/>
<polygon fill="none" stroke="#000000" points="299,-68.1508 299,-87.1508 410,-87.1508 410,-68.1508 299,-68.1508"/>
<polygon fill="#ffffff" stroke="transparent" points="300,-69.1508 300,-86.1508 334,-86.1508 334,-69.1508 300,-69.1508"/>
<text text-anchor="start" x="302" y="-74.2508" font-family="Helvetica,sans-Serif" font-size="11.00" fill="#000000"> &#160;</text>
<polygon fill="#ffffff" stroke="transparent" points="334,-69.1508 334,-86.1508 367,-86.1508 367,-69.1508 334,-69.1508"/>
<text text-anchor="start" x="347.4431" y="-74.2508" font-family="Helvetica,sans-Serif" font-size="11.00" fill="#000000"> &#160;</text>
<polygon fill="#ffffff" stroke="transparent" points="367,-69.1508 367,-86.1508 409,-86.1508 409,-69.1508 367,-69.1508"/>
<text text-anchor="start" x="391.4053" y="-74.2508" font-family="Helvetica,sans-Serif" font-size="11.00" fill="#000000">5 &gt;</text>
<polygon fill="#000000" stroke="#000000" points="334,-69.1508 334,-86.1508 334,-86.1508 334,-69.1508 334,-69.1508"/>
<polygon fill="#000000" stroke="#000000" points="367,-69.1508 367,-86.1508 367,-86.1508 367,-69.1508 367,-69.1508"/>
</a>
</g>
</g>
<!-- auth_user_user_permissions&#45;&gt;auth_user -->
<g id="edge5" class="edge">
<title>auth_user_user_permissions:w&#45;&gt;auth_user:e</title>
<path fill="none" stroke="#000000" d="M494.7713,-187.2679C482.5227,-178.5197 484.0883,-156.811 468,-141.1508 444.6205,-118.3935 442.6266,-96.1508 410,-96.1508"/>
<polygon fill="#000000" stroke="#000000" points="501.2822,-189.0446 508.0522,-194.6238 505.1411,-190.0977 509,-191.1508 509,-191.1508 509,-191.1508 505.1411,-190.0977 509.9478,-187.6778 501.2822,-189.0446 501.2822,-189.0446"/>
<ellipse fill="none" stroke="#000000" cx="498.1951" cy="-188.2022" rx="3.2" ry="3.2"/>
</g>
<!-- django_admin_log -->
<g id="node7" class="node">
<title>django_admin_log</title>
<g id="a_node7"><a xlink:href="../../tables/django_admin_log.html" xlink:title="django_admin_log" target="_top">
<polygon fill="#ffffff" stroke="transparent" points="546,-42.6508 546,-103.6508 716,-103.6508 716,-42.6508 546,-42.6508"/>
<polygon fill="#f5f5f5" stroke="transparent" points="546,-80.1508 546,-103.1508 716,-103.1508 716,-80.1508 546,-80.1508"/>
<polygon fill="none" stroke="#000000" points="546,-80.1508 546,-103.1508 716,-103.1508 716,-80.1508 546,-80.1508"/>
<text text-anchor="start" x="551" y="-88.7508" font-family="Helvetica,sans-Serif" font-weight="bold" font-size="11.00" fill="#000000">django_admin_log</text>
<text text-anchor="start" x="681.5219" y="-88.2508" font-family="Helvetica,sans-Serif" font-size="11.00" fill="#000000">[table]</text>
<polygon fill="none" stroke="#000000" points="546,-61.1508 546,-80.1508 716,-80.1508 716,-61.1508 546,-61.1508"/>
<text text-anchor="start" x="549" y="-67.2508" font-family="Helvetica,sans-Serif" font-size="11.00" fill="#000000">...</text>
<polygon fill="#ffffff" stroke="transparent" points="546,-42.1508 546,-61.1508 716,-61.1508 716,-42.1508 546,-42.1508"/>
<polygon fill="none" stroke="#000000" points="546,-42.1508 546,-61.1508 716,-61.1508 716,-42.1508 546,-42.1508"/>
<polygon fill="#ffffff" stroke="transparent" points="547,-43.1508 547,-60.1508 609,-60.1508 609,-43.1508 547,-43.1508"/>
<text text-anchor="start" x="549" y="-48.2508" font-family="Helvetica,sans-Serif" font-size="11.00" fill="#000000">&lt; 2</text>
<polygon fill="#ffffff" stroke="transparent" points="609,-43.1508 609,-60.1508 662,-60.1508 662,-43.1508 609,-43.1508"/>
<text text-anchor="start" x="632.4431" y="-48.2508" font-family="Helvetica,sans-Serif" font-size="11.00" fill="#000000"> &#160;</text>
<polygon fill="#ffffff" stroke="transparent" points="662,-43.1508 662,-60.1508 715,-60.1508 715,-43.1508 662,-43.1508"/>
<text text-anchor="start" x="706.8862" y="-48.2508" font-family="Helvetica,sans-Serif" font-size="11.00" fill="#000000"> &#160;</text>
<polygon fill="#000000" stroke="#000000" points="609,-43.1508 609,-60.1508 609,-60.1508 609,-43.1508 609,-43.1508"/>
<polygon fill="#000000" stroke="#000000" points="662,-43.1508 662,-60.1508 662,-60.1508 662,-43.1508 662,-43.1508"/>
</a>
</g>
</g>
<!-- django_admin_log&#45;&gt;django_content_type -->
<g id="edge6" class="edge">
<title>django_admin_log:w&#45;&gt;django_content_type:e</title>
<path fill="none" stroke="#000000" d="M531.3387,-69.5287C507.7805,-67.3989 497.508,-60.4074 468,-58.1508 366.9617,-50.4241 328.428,-8.664 240,-58.1508 209.9673,-74.9579 233.9158,-124.1508 199.5,-124.1508"/>
<polygon fill="#000000" stroke="#000000" points="538.0072,-69.8116 545.8474,-73.7476 542.0036,-69.9812 546,-70.1508 546,-70.1508 546,-70.1508 542.0036,-69.9812 546.1526,-66.554 538.0072,-69.8116 538.0072,-69.8116"/>
<ellipse fill="none" stroke="#000000" cx="534.8101" cy="-69.6759" rx="3.2" ry="3.2"/>
</g>
<!-- django_admin_log&#45;&gt;auth_user -->
<g id="edge7" class="edge">
<title>django_admin_log:w&#45;&gt;auth_user:e</title>
<path fill="none" stroke="#000000" d="M531.4662,-70.6702C481.9475,-74.3346 466.3708,-96.1508 410,-96.1508"/>
<polygon fill="#000000" stroke="#000000" points="538.0051,-70.4365 546.1286,-73.7485 542.0026,-70.2937 546,-70.1508 546,-70.1508 546,-70.1508 542.0026,-70.2937 545.8714,-66.5531 538.0051,-70.4365 538.0051,-70.4365"/>
<ellipse fill="none" stroke="#000000" cx="534.8071" cy="-70.5508" rx="3.2" ry="3.2"/>
</g>
</g>
</svg>
