<?xml version="1.0" encoding="UTF-8" standalone="no"?>
<!DOCTYPE svg PUBLIC "-//W3C//DTD SVG 1.1//EN"
 "http://www.w3.org/Graphics/SVG/1.1/DTD/svg11.dtd">
<!-- Generated by graphviz version 2.40.1 (20161225.0304)
 -->
<!-- Title: oneDegreeRelationshipsDiagram Pages: 1 -->
<svg width="477pt" height="285pt"
 viewBox="0.00 0.00 477.00 284.70" xmlns="http://www.w3.org/2000/svg" xmlns:xlink="http://www.w3.org/1999/xlink">
<g id="graph0" class="graph" transform="scale(1 1) rotate(0) translate(4 280.7)">
<title>oneDegreeRelationshipsDiagram</title>
<polygon fill="#ffffff" stroke="transparent" points="-4,4 -4,-280.7 473,-280.7 473,4 -4,4"/>
<text text-anchor="middle" x="72.4936" y="-7.3" font-family="Helvetica,sans-Serif" font-size="11.00" fill="#000000">Generated by SchemaSpy</text>
<!-- auth_group_permissions -->
<g id="node1" class="node">
<title>auth_group_permissions</title>
<g id="a_node1"><a xlink:href="../../tables/auth_group_permissions.html" xlink:title="auth_group_permissions" target="_top">
<polygon fill="#ffffff" stroke="transparent" points="216,-141.7 216,-253.7 461,-253.7 461,-141.7 216,-141.7"/>
<polygon fill="#f5f5f5" stroke="transparent" points="218.5,-228.7 218.5,-251.7 459.5,-251.7 459.5,-228.7 218.5,-228.7"/>
<polygon fill="none" stroke="#000000" points="218.5,-228.7 218.5,-251.7 459.5,-251.7 459.5,-228.7 218.5,-228.7"/>
<text text-anchor="start" x="223.5" y="-237.3" font-family="Helvetica,sans-Serif" font-weight="bold" font-size="11.00" fill="#000000">auth_group_permissions</text>
<text text-anchor="start" x="424.5437" y="-236.8" font-family="Helvetica,sans-Serif" font-size="11.00" fill="#000000">[table]</text>
<polygon fill="none" stroke="#000000" points="218.5,-206.7 218.5,-228.7 417.5,-228.7 417.5,-206.7 218.5,-206.7"/>
<image xlink:href="../../images/primaryKeys.png" width="11px" height="12px" preserveAspectRatio="xMinYMin meet" x="223.5" y="-223.7"/>
<text text-anchor="start" x="238.5" y="-213.8" font-family="Helvetica,sans-Serif" font-size="11.00" fill="#000000">id</text>
<polygon fill="none" stroke="#000000" points="417.5,-206.7 417.5,-228.7 459.5,-228.7 459.5,-206.7 417.5,-206.7"/>
<text text-anchor="start" x="420.4644" y="-214.4" font-family="Helvetica,sans-Serif" font-size="11.00" fill="#000000">int8[19]</text>
<polygon fill="#ffffff" stroke="transparent" points="218.5,-184.7 218.5,-206.7 417.5,-206.7 417.5,-184.7 218.5,-184.7"/>
<polygon fill="none" stroke="#000000" points="218.5,-184.7 218.5,-206.7 417.5,-206.7 417.5,-184.7 218.5,-184.7"/>
<image xlink:href="../../images/foreignKeys.png" width="11px" height="12px" preserveAspectRatio="xMinYMin meet" x="223.5" y="-201.7"/>
<text text-anchor="start" x="238.5" y="-191.8" font-family="Helvetica,sans-Serif" font-size="11.00" fill="#000000">group_id</text>
<polygon fill="none" stroke="#000000" points="417.5,-184.7 417.5,-206.7 459.5,-206.7 459.5,-184.7 417.5,-184.7"/>
<text text-anchor="start" x="420.4644" y="-192.4" font-family="Helvetica,sans-Serif" font-size="11.00" fill="#000000">int4[10]</text>
<polygon fill="#ffffff" stroke="transparent" points="218.5,-162.7 218.5,-184.7 417.5,-184.7 417.5,-162.7 218.5,-162.7"/>
<polygon fill="none" stroke="#000000" points="218.5,-162.7 218.5,-184.7 417.5,-184.7 417.5,-162.7 218.5,-162.7"/>
<image xlink:href="../../images/foreignKeys.png" width="11px" height="12px" preserveAspectRatio="xMinYMin meet" x="223.5" y="-179.7"/>
<text text-anchor="start" x="238.5" y="-169.8" font-family="Helvetica,sans-Serif" font-size="11.00" fill="#000000">permission_id</text>
<polygon fill="none" stroke="#000000" points="417.5,-162.7 417.5,-184.7 459.5,-184.7 459.5,-162.7 417.5,-162.7"/>
<text text-anchor="start" x="420.4644" y="-170.4" font-family="Helvetica,sans-Serif" font-size="11.00" fill="#000000">int4[10]</text>
<polygon fill="#ffffff" stroke="transparent" points="218.5,-143.7 218.5,-162.7 459.5,-162.7 459.5,-143.7 218.5,-143.7"/>
<polygon fill="none" stroke="#000000" points="218.5,-143.7 218.5,-162.7 459.5,-162.7 459.5,-143.7 218.5,-143.7"/>
<polygon fill="#ffffff" stroke="transparent" points="219.5,-144.7 219.5,-161.7 302.5,-161.7 302.5,-144.7 219.5,-144.7"/>
<text text-anchor="start" x="221.5" y="-149.8" font-family="Helvetica,sans-Serif" font-size="11.00" fill="#000000">&lt; 2</text>
<polygon fill="#ffffff" stroke="transparent" points="302.5,-144.7 302.5,-161.7 376.5,-161.7 376.5,-144.7 302.5,-144.7"/>
<text text-anchor="start" x="336.4431" y="-149.8" font-family="Helvetica,sans-Serif" font-size="11.00" fill="#000000"> &#160;</text>
<polygon fill="#ffffff" stroke="transparent" points="376.5,-144.7 376.5,-161.7 458.5,-161.7 458.5,-144.7 376.5,-144.7"/>
<text text-anchor="start" x="440.9053" y="-149.8" font-family="Helvetica,sans-Serif" font-size="11.00" fill="#000000">0 &gt;</text>
<polygon fill="#000000" stroke="#000000" points="302.5,-144.7 302.5,-161.7 302.5,-161.7 302.5,-144.7 302.5,-144.7"/>
<polygon fill="#000000" stroke="#000000" points="376.5,-144.7 376.5,-161.7 376.5,-161.7 376.5,-144.7 376.5,-144.7"/>
<polygon fill="none" stroke="#000000" stroke-width="2" points="217,-142.7 217,-252.7 460,-252.7 460,-142.7 217,-142.7"/>
</a>
</g>
</g>
<!-- auth_group -->
<g id="node2" class="node">
<title>auth_group</title>
<g id="a_node2"><a xlink:href="../../tables/auth_group.html" xlink:title="auth_group" target="_top">
<polygon fill="#ffffff" stroke="transparent" points="26.5,-186.7 26.5,-272.7 148.5,-272.7 148.5,-186.7 26.5,-186.7"/>
<polygon fill="#f5f5f5" stroke="transparent" points="26.5,-249.7 26.5,-272.7 148.5,-272.7 148.5,-249.7 26.5,-249.7"/>
<polygon fill="none" stroke="#000000" points="26.5,-249.7 26.5,-272.7 148.5,-272.7 148.5,-249.7 26.5,-249.7"/>
<text text-anchor="start" x="31.5" y="-258.3" font-family="Helvetica,sans-Serif" font-weight="bold" font-size="11.00" fill="#000000">auth_group</text>
<text text-anchor="start" x="114.0219" y="-257.8" font-family="Helvetica,sans-Serif" font-size="11.00" fill="#000000">[table]</text>
<polygon fill="none" stroke="#000000" points="26.5,-227.7 26.5,-249.7 148.5,-249.7 148.5,-227.7 26.5,-227.7"/>
<image xlink:href="../../images/primaryKeys.png" width="11px" height="12px" preserveAspectRatio="xMinYMin meet" x="31.5" y="-244.7"/>
<text text-anchor="start" x="55.5" y="-234.8" font-family="Helvetica,sans-Serif" font-size="11.00" fill="#000000">id</text>
<polygon fill="#ffffff" stroke="transparent" points="26.5,-205.7 26.5,-227.7 148.5,-227.7 148.5,-205.7 26.5,-205.7"/>
<polygon fill="none" stroke="#000000" points="26.5,-205.7 26.5,-227.7 148.5,-227.7 148.5,-205.7 26.5,-205.7"/>
<text text-anchor="start" x="55.5" y="-212.8" font-family="Helvetica,sans-Serif" font-size="11.00" fill="#000000">name</text>
<polygon fill="#ffffff" stroke="transparent" points="26.5,-186.7 26.5,-205.7 148.5,-205.7 148.5,-186.7 26.5,-186.7"/>
<polygon fill="none" stroke="#000000" points="26.5,-186.7 26.5,-205.7 148.5,-205.7 148.5,-186.7 26.5,-186.7"/>
<polygon fill="#ffffff" stroke="transparent" points="27.5,-187.7 27.5,-204.7 64.5,-204.7 64.5,-187.7 27.5,-187.7"/>
<text text-anchor="start" x="29.5" y="-192.8" font-family="Helvetica,sans-Serif" font-size="11.00" fill="#000000"> &#160;</text>
<polygon fill="#ffffff" stroke="transparent" points="64.5,-187.7 64.5,-204.7 101.5,-204.7 101.5,-187.7 64.5,-187.7"/>
<text text-anchor="start" x="79.9431" y="-192.8" font-family="Helvetica,sans-Serif" font-size="11.00" fill="#000000"> &#160;</text>
<polygon fill="#ffffff" stroke="transparent" points="101.5,-187.7 101.5,-204.7 147.5,-204.7 147.5,-187.7 101.5,-187.7"/>
<text text-anchor="start" x="129.9053" y="-192.8" font-family="Helvetica,sans-Serif" font-size="11.00" fill="#000000">2 &gt;</text>
<polygon fill="#000000" stroke="#000000" points="64.5,-187.7 64.5,-204.7 64.5,-204.7 64.5,-187.7 64.5,-187.7"/>
<polygon fill="#000000" stroke="#000000" points="101.5,-187.7 101.5,-204.7 101.5,-204.7 101.5,-187.7 101.5,-187.7"/>
</a>
</g>
</g>
<!-- auth_group_permissions&#45;&gt;auth_group -->
<g id="edge1" class="edge">
<title>auth_group_permissions:w&#45;&gt;auth_group:e</title>
<path fill="none" stroke="#000000" d="M204.286,-198.3898C181.9917,-207.8036 179.4497,-238.7 148.5,-238.7"/>
<polygon fill="#000000" stroke="#000000" points="210.6395,-197.1876 219.1694,-199.2372 214.5698,-196.4438 218.5,-195.7 218.5,-195.7 218.5,-195.7 214.5698,-196.4438 217.8306,-192.1628 210.6395,-197.1876 210.6395,-197.1876"/>
<ellipse fill="none" stroke="#000000" cx="207.4953" cy="-197.7826" rx="3.2" ry="3.2"/>
</g>
<!-- auth_permission -->
<g id="node3" class="node">
<title>auth_permission</title>
<g id="a_node3"><a xlink:href="../../tables/auth_permission.html" xlink:title="auth_permission" target="_top">
<polygon fill="#ffffff" stroke="transparent" points="8,-38.2 8,-165.2 167,-165.2 167,-38.2 8,-38.2"/>
<polygon fill="#f5f5f5" stroke="transparent" points="8.5,-141.7 8.5,-164.7 167.5,-164.7 167.5,-141.7 8.5,-141.7"/>
<polygon fill="none" stroke="#000000" points="8.5,-141.7 8.5,-164.7 167.5,-164.7 167.5,-141.7 8.5,-141.7"/>
<text text-anchor="start" x="13.5" y="-150.3" font-family="Helvetica,sans-Serif" font-weight="bold" font-size="11.00" fill="#000000">auth_permission</text>
<text text-anchor="start" x="133.0219" y="-149.8" font-family="Helvetica,sans-Serif" font-size="11.00" fill="#000000">[table]</text>
<polygon fill="none" stroke="#000000" points="8.5,-119.7 8.5,-141.7 167.5,-141.7 167.5,-119.7 8.5,-119.7"/>
<image xlink:href="../../images/primaryKeys.png" width="11px" height="12px" preserveAspectRatio="xMinYMin meet" x="13.5" y="-136.7"/>
<text text-anchor="start" x="37.5" y="-126.8" font-family="Helvetica,sans-Serif" font-size="11.00" fill="#000000">id</text>
<polygon fill="#ffffff" stroke="transparent" points="8.5,-97.7 8.5,-119.7 167.5,-119.7 167.5,-97.7 8.5,-97.7"/>
<polygon fill="none" stroke="#000000" points="8.5,-97.7 8.5,-119.7 167.5,-119.7 167.5,-97.7 8.5,-97.7"/>
<image xlink:href="../../images/foreignKeys.png" width="11px" height="12px" preserveAspectRatio="xMinYMin meet" x="13.5" y="-114.7"/>
<text text-anchor="start" x="37.5" y="-104.8" font-family="Helvetica,sans-Serif" font-size="11.00" fill="#000000">content_type_id</text>
<polygon fill="#ffffff" stroke="transparent" points="8.5,-75.7 8.5,-97.7 167.5,-97.7 167.5,-75.7 8.5,-75.7"/>
<polygon fill="none" stroke="#000000" points="8.5,-75.7 8.5,-97.7 167.5,-97.7 167.5,-75.7 8.5,-75.7"/>
<text text-anchor="start" x="37.5" y="-82.8" font-family="Helvetica,sans-Serif" font-size="11.00" fill="#000000">codename</text>
<polygon fill="none" stroke="#000000" points="8.5,-56.7 8.5,-75.7 167.5,-75.7 167.5,-56.7 8.5,-56.7"/>
<text text-anchor="start" x="11.5" y="-62.8" font-family="Helvetica,sans-Serif" font-size="11.00" fill="#000000">...</text>
<polygon fill="#ffffff" stroke="transparent" points="8.5,-37.7 8.5,-56.7 167.5,-56.7 167.5,-37.7 8.5,-37.7"/>
<polygon fill="none" stroke="#000000" points="8.5,-37.7 8.5,-56.7 167.5,-56.7 167.5,-37.7 8.5,-37.7"/>
<polygon fill="#ffffff" stroke="transparent" points="9.5,-38.7 9.5,-55.7 65.5,-55.7 65.5,-38.7 9.5,-38.7"/>
<text text-anchor="start" x="11.5" y="-43.8" font-family="Helvetica,sans-Serif" font-size="11.00" fill="#000000">&lt; 1</text>
<polygon fill="#ffffff" stroke="transparent" points="65.5,-38.7 65.5,-55.7 111.5,-55.7 111.5,-38.7 65.5,-38.7"/>
<text text-anchor="start" x="85.4431" y="-43.8" font-family="Helvetica,sans-Serif" font-size="11.00" fill="#000000"> &#160;</text>
<polygon fill="#ffffff" stroke="transparent" points="111.5,-38.7 111.5,-55.7 166.5,-55.7 166.5,-38.7 111.5,-38.7"/>
<text text-anchor="start" x="148.9053" y="-43.8" font-family="Helvetica,sans-Serif" font-size="11.00" fill="#000000">2 &gt;</text>
<polygon fill="#000000" stroke="#000000" points="65.5,-38.7 65.5,-55.7 65.5,-55.7 65.5,-38.7 65.5,-38.7"/>
<polygon fill="#000000" stroke="#000000" points="111.5,-38.7 111.5,-55.7 111.5,-55.7 111.5,-38.7 111.5,-38.7"/>
</a>
</g>
</g>
<!-- auth_group_permissions&#45;&gt;auth_permission -->
<g id="edge2" class="edge">
<title>auth_group_permissions:w&#45;&gt;auth_permission:e</title>
<path fill="none" stroke="#000000" d="M204.4939,-169.0982C190.6566,-158.0054 191.1259,-130.7 167.5,-130.7"/>
<polygon fill="#000000" stroke="#000000" points="210.8997,-171.2029 217.3763,-177.1201 214.6999,-172.4514 218.5,-173.7 218.5,-173.7 218.5,-173.7 214.6999,-172.4514 219.6237,-170.2799 210.8997,-171.2029 210.8997,-171.2029"/>
<ellipse fill="none" stroke="#000000" cx="207.8596" cy="-170.204" rx="3.2" ry="3.2"/>
</g>
</g>
</svg>
