<?xml version="1.0" encoding="UTF-8" standalone="no"?>
<!DOCTYPE svg PUBLIC "-//W3C//DTD SVG 1.1//EN"
 "http://www.w3.org/Graphics/SVG/1.1/DTD/svg11.dtd">
<!-- Generated by graphviz version 2.40.1 (20161225.0304)
 -->
<!-- Title: oneDegreeRelationshipsDiagram Pages: 1 -->
<svg width="504pt" height="303pt"
 viewBox="0.00 0.00 504.00 303.20" xmlns="http://www.w3.org/2000/svg" xmlns:xlink="http://www.w3.org/1999/xlink">
<g id="graph0" class="graph" transform="scale(1 1) rotate(0) translate(4 299.2)">
<title>oneDegreeRelationshipsDiagram</title>
<polygon fill="#ffffff" stroke="transparent" points="-4,4 -4,-299.2 500,-299.2 500,4 -4,4"/>
<text text-anchor="middle" x="72.4936" y="-7.3" font-family="Helvetica,sans-Serif" font-size="11.00" fill="#000000">Generated by SchemaSpy</text>
<!-- auth_user_user_permissions -->
<g id="node1" class="node">
<title>auth_user_user_permissions</title>
<g id="a_node1"><a xlink:href="../../tables/auth_user_user_permissions.html" xlink:title="auth_user_user_permissions" target="_top">
<polygon fill="#ffffff" stroke="transparent" points="216,-150.7 216,-262.7 488,-262.7 488,-150.7 216,-150.7"/>
<polygon fill="#f5f5f5" stroke="transparent" points="218,-237.7 218,-260.7 486,-260.7 486,-237.7 218,-237.7"/>
<polygon fill="none" stroke="#000000" points="218,-237.7 218,-260.7 486,-260.7 486,-237.7 218,-237.7"/>
<text text-anchor="start" x="223" y="-246.3" font-family="Helvetica,sans-Serif" font-weight="bold" font-size="11.00" fill="#000000">auth_user_user_permissions</text>
<text text-anchor="start" x="451.0437" y="-245.8" font-family="Helvetica,sans-Serif" font-size="11.00" fill="#000000">[table]</text>
<polygon fill="none" stroke="#000000" points="218,-215.7 218,-237.7 444,-237.7 444,-215.7 218,-215.7"/>
<image xlink:href="../../images/primaryKeys.png" width="11px" height="12px" preserveAspectRatio="xMinYMin meet" x="223" y="-232.7"/>
<text text-anchor="start" x="238" y="-222.8" font-family="Helvetica,sans-Serif" font-size="11.00" fill="#000000">id</text>
<polygon fill="none" stroke="#000000" points="444,-215.7 444,-237.7 486,-237.7 486,-215.7 444,-215.7"/>
<text text-anchor="start" x="446.9644" y="-223.4" font-family="Helvetica,sans-Serif" font-size="11.00" fill="#000000">int8[19]</text>
<polygon fill="#ffffff" stroke="transparent" points="218,-193.7 218,-215.7 444,-215.7 444,-193.7 218,-193.7"/>
<polygon fill="none" stroke="#000000" points="218,-193.7 218,-215.7 444,-215.7 444,-193.7 218,-193.7"/>
<image xlink:href="../../images/foreignKeys.png" width="11px" height="12px" preserveAspectRatio="xMinYMin meet" x="223" y="-210.7"/>
<text text-anchor="start" x="238" y="-200.8" font-family="Helvetica,sans-Serif" font-size="11.00" fill="#000000">user_id</text>
<polygon fill="none" stroke="#000000" points="444,-193.7 444,-215.7 486,-215.7 486,-193.7 444,-193.7"/>
<text text-anchor="start" x="446.9644" y="-201.4" font-family="Helvetica,sans-Serif" font-size="11.00" fill="#000000">int4[10]</text>
<polygon fill="#ffffff" stroke="transparent" points="218,-171.7 218,-193.7 444,-193.7 444,-171.7 218,-171.7"/>
<polygon fill="none" stroke="#000000" points="218,-171.7 218,-193.7 444,-193.7 444,-171.7 218,-171.7"/>
<image xlink:href="../../images/foreignKeys.png" width="11px" height="12px" preserveAspectRatio="xMinYMin meet" x="223" y="-188.7"/>
<text text-anchor="start" x="238" y="-178.8" font-family="Helvetica,sans-Serif" font-size="11.00" fill="#000000">permission_id</text>
<polygon fill="none" stroke="#000000" points="444,-171.7 444,-193.7 486,-193.7 486,-171.7 444,-171.7"/>
<text text-anchor="start" x="446.9644" y="-179.4" font-family="Helvetica,sans-Serif" font-size="11.00" fill="#000000">int4[10]</text>
<polygon fill="#ffffff" stroke="transparent" points="218,-152.7 218,-171.7 486,-171.7 486,-152.7 218,-152.7"/>
<polygon fill="none" stroke="#000000" points="218,-152.7 218,-171.7 486,-171.7 486,-152.7 218,-152.7"/>
<polygon fill="#ffffff" stroke="transparent" points="219,-153.7 219,-170.7 311,-170.7 311,-153.7 219,-153.7"/>
<text text-anchor="start" x="221" y="-158.8" font-family="Helvetica,sans-Serif" font-size="11.00" fill="#000000">&lt; 2</text>
<polygon fill="#ffffff" stroke="transparent" points="311,-153.7 311,-170.7 394,-170.7 394,-153.7 311,-153.7"/>
<text text-anchor="start" x="349.4431" y="-158.8" font-family="Helvetica,sans-Serif" font-size="11.00" fill="#000000"> &#160;</text>
<polygon fill="#ffffff" stroke="transparent" points="394,-153.7 394,-170.7 485,-170.7 485,-153.7 394,-153.7"/>
<text text-anchor="start" x="467.4053" y="-158.8" font-family="Helvetica,sans-Serif" font-size="11.00" fill="#000000">0 &gt;</text>
<polygon fill="#000000" stroke="#000000" points="311,-153.7 311,-170.7 311,-170.7 311,-153.7 311,-153.7"/>
<polygon fill="#000000" stroke="#000000" points="394,-153.7 394,-170.7 394,-170.7 394,-153.7 394,-153.7"/>
<polygon fill="none" stroke="#000000" stroke-width="2" points="217,-151.7 217,-261.7 487,-261.7 487,-151.7 217,-151.7"/>
</a>
</g>
</g>
<!-- auth_permission -->
<g id="node2" class="node">
<title>auth_permission</title>
<g id="a_node2"><a xlink:href="../../tables/auth_permission.html" xlink:title="auth_permission" target="_top">
<polygon fill="#ffffff" stroke="transparent" points="8,-38.2 8,-165.2 167,-165.2 167,-38.2 8,-38.2"/>
<polygon fill="#f5f5f5" stroke="transparent" points="8.5,-141.7 8.5,-164.7 167.5,-164.7 167.5,-141.7 8.5,-141.7"/>
<polygon fill="none" stroke="#000000" points="8.5,-141.7 8.5,-164.7 167.5,-164.7 167.5,-141.7 8.5,-141.7"/>
<text text-anchor="start" x="13.5" y="-150.3" font-family="Helvetica,sans-Serif" font-weight="bold" font-size="11.00" fill="#000000">auth_permission</text>
<text text-anchor="start" x="133.0219" y="-149.8" font-family="Helvetica,sans-Serif" font-size="11.00" fill="#000000">[table]</text>
<polygon fill="none" stroke="#000000" points="8.5,-119.7 8.5,-141.7 167.5,-141.7 167.5,-119.7 8.5,-119.7"/>
<image xlink:href="../../images/primaryKeys.png" width="11px" height="12px" preserveAspectRatio="xMinYMin meet" x="13.5" y="-136.7"/>
<text text-anchor="start" x="37.5" y="-126.8" font-family="Helvetica,sans-Serif" font-size="11.00" fill="#000000">id</text>
<polygon fill="#ffffff" stroke="transparent" points="8.5,-97.7 8.5,-119.7 167.5,-119.7 167.5,-97.7 8.5,-97.7"/>
<polygon fill="none" stroke="#000000" points="8.5,-97.7 8.5,-119.7 167.5,-119.7 167.5,-97.7 8.5,-97.7"/>
<image xlink:href="../../images/foreignKeys.png" width="11px" height="12px" preserveAspectRatio="xMinYMin meet" x="13.5" y="-114.7"/>
<text text-anchor="start" x="37.5" y="-104.8" font-family="Helvetica,sans-Serif" font-size="11.00" fill="#000000">content_type_id</text>
<polygon fill="#ffffff" stroke="transparent" points="8.5,-75.7 8.5,-97.7 167.5,-97.7 167.5,-75.7 8.5,-75.7"/>
<polygon fill="none" stroke="#000000" points="8.5,-75.7 8.5,-97.7 167.5,-97.7 167.5,-75.7 8.5,-75.7"/>
<text text-anchor="start" x="37.5" y="-82.8" font-family="Helvetica,sans-Serif" font-size="11.00" fill="#000000">codename</text>
<polygon fill="none" stroke="#000000" points="8.5,-56.7 8.5,-75.7 167.5,-75.7 167.5,-56.7 8.5,-56.7"/>
<text text-anchor="start" x="11.5" y="-62.8" font-family="Helvetica,sans-Serif" font-size="11.00" fill="#000000">...</text>
<polygon fill="#ffffff" stroke="transparent" points="8.5,-37.7 8.5,-56.7 167.5,-56.7 167.5,-37.7 8.5,-37.7"/>
<polygon fill="none" stroke="#000000" points="8.5,-37.7 8.5,-56.7 167.5,-56.7 167.5,-37.7 8.5,-37.7"/>
<polygon fill="#ffffff" stroke="transparent" points="9.5,-38.7 9.5,-55.7 65.5,-55.7 65.5,-38.7 9.5,-38.7"/>
<text text-anchor="start" x="11.5" y="-43.8" font-family="Helvetica,sans-Serif" font-size="11.00" fill="#000000">&lt; 1</text>
<polygon fill="#ffffff" stroke="transparent" points="65.5,-38.7 65.5,-55.7 111.5,-55.7 111.5,-38.7 65.5,-38.7"/>
<text text-anchor="start" x="85.4431" y="-43.8" font-family="Helvetica,sans-Serif" font-size="11.00" fill="#000000"> &#160;</text>
<polygon fill="#ffffff" stroke="transparent" points="111.5,-38.7 111.5,-55.7 166.5,-55.7 166.5,-38.7 111.5,-38.7"/>
<text text-anchor="start" x="148.9053" y="-43.8" font-family="Helvetica,sans-Serif" font-size="11.00" fill="#000000">2 &gt;</text>
<polygon fill="#000000" stroke="#000000" points="65.5,-38.7 65.5,-55.7 65.5,-55.7 65.5,-38.7 65.5,-38.7"/>
<polygon fill="#000000" stroke="#000000" points="111.5,-38.7 111.5,-55.7 111.5,-55.7 111.5,-38.7 111.5,-38.7"/>
</a>
</g>
</g>
<!-- auth_user_user_permissions&#45;&gt;auth_permission -->
<g id="edge1" class="edge">
<title>auth_user_user_permissions:w&#45;&gt;auth_permission:e</title>
<path fill="none" stroke="#000000" d="M204.1372,-177.9012C189.3861,-165.0281 193.6756,-130.7 167.5,-130.7"/>
<polygon fill="#000000" stroke="#000000" points="210.4401,-180.083 216.8223,-186.1019 214.2201,-181.3915 218,-182.7 218,-182.7 218,-182.7 214.2201,-181.3915 219.1777,-179.2981 210.4401,-180.083 210.4401,-180.083"/>
<ellipse fill="none" stroke="#000000" cx="207.4162" cy="-179.0362" rx="3.2" ry="3.2"/>
</g>
<!-- auth_user -->
<g id="node3" class="node">
<title>auth_user</title>
<g id="a_node3"><a xlink:href="../../tables/auth_user.html" xlink:title="auth_user" target="_top">
<polygon fill="#ffffff" stroke="transparent" points="31,-186.2 31,-291.2 144,-291.2 144,-186.2 31,-186.2"/>
<polygon fill="#f5f5f5" stroke="transparent" points="31.5,-267.7 31.5,-290.7 144.5,-290.7 144.5,-267.7 31.5,-267.7"/>
<polygon fill="none" stroke="#000000" points="31.5,-267.7 31.5,-290.7 144.5,-290.7 144.5,-267.7 31.5,-267.7"/>
<text text-anchor="start" x="36.5" y="-276.3" font-family="Helvetica,sans-Serif" font-weight="bold" font-size="11.00" fill="#000000">auth_user</text>
<text text-anchor="start" x="109.5437" y="-275.8" font-family="Helvetica,sans-Serif" font-size="11.00" fill="#000000">[table]</text>
<polygon fill="none" stroke="#000000" points="31.5,-245.7 31.5,-267.7 144.5,-267.7 144.5,-245.7 31.5,-245.7"/>
<image xlink:href="../../images/primaryKeys.png" width="11px" height="12px" preserveAspectRatio="xMinYMin meet" x="36.5" y="-262.7"/>
<text text-anchor="start" x="51.5" y="-252.8" font-family="Helvetica,sans-Serif" font-size="11.00" fill="#000000">id</text>
<polygon fill="#ffffff" stroke="transparent" points="31.5,-223.7 31.5,-245.7 144.5,-245.7 144.5,-223.7 31.5,-223.7"/>
<polygon fill="none" stroke="#000000" points="31.5,-223.7 31.5,-245.7 144.5,-245.7 144.5,-223.7 31.5,-223.7"/>
<text text-anchor="start" x="51.5" y="-230.8" font-family="Helvetica,sans-Serif" font-size="11.00" fill="#000000">username</text>
<polygon fill="none" stroke="#000000" points="31.5,-204.7 31.5,-223.7 144.5,-223.7 144.5,-204.7 31.5,-204.7"/>
<text text-anchor="start" x="34.5" y="-210.8" font-family="Helvetica,sans-Serif" font-size="11.00" fill="#000000">...</text>
<polygon fill="#ffffff" stroke="transparent" points="31.5,-185.7 31.5,-204.7 144.5,-204.7 144.5,-185.7 31.5,-185.7"/>
<polygon fill="none" stroke="#000000" points="31.5,-185.7 31.5,-204.7 144.5,-204.7 144.5,-185.7 31.5,-185.7"/>
<polygon fill="#ffffff" stroke="transparent" points="32.5,-186.7 32.5,-203.7 66.5,-203.7 66.5,-186.7 32.5,-186.7"/>
<text text-anchor="start" x="34.5" y="-191.8" font-family="Helvetica,sans-Serif" font-size="11.00" fill="#000000"> &#160;</text>
<polygon fill="#ffffff" stroke="transparent" points="66.5,-186.7 66.5,-203.7 100.5,-203.7 100.5,-186.7 66.5,-186.7"/>
<text text-anchor="start" x="80.4431" y="-191.8" font-family="Helvetica,sans-Serif" font-size="11.00" fill="#000000"> &#160;</text>
<polygon fill="#ffffff" stroke="transparent" points="100.5,-186.7 100.5,-203.7 143.5,-203.7 143.5,-186.7 100.5,-186.7"/>
<text text-anchor="start" x="125.9053" y="-191.8" font-family="Helvetica,sans-Serif" font-size="11.00" fill="#000000">5 &gt;</text>
<polygon fill="#000000" stroke="#000000" points="66.5,-186.7 66.5,-203.7 66.5,-203.7 66.5,-186.7 66.5,-186.7"/>
<polygon fill="#000000" stroke="#000000" points="100.5,-186.7 100.5,-203.7 100.5,-203.7 100.5,-186.7 100.5,-186.7"/>
</a>
</g>
</g>
<!-- auth_user_user_permissions&#45;&gt;auth_user -->
<g id="edge2" class="edge">
<title>auth_user_user_permissions:w&#45;&gt;auth_user:e</title>
<path fill="none" stroke="#000000" d="M203.621,-207.4957C178.9009,-218.2967 178.8883,-256.7 144.5,-256.7"/>
<polygon fill="#000000" stroke="#000000" points="210.1471,-206.2269 218.6871,-208.2338 214.0735,-205.4635 218,-204.7 218,-204.7 218,-204.7 214.0735,-205.4635 217.3129,-201.1662 210.1471,-206.2269 210.1471,-206.2269"/>
<ellipse fill="none" stroke="#000000" cx="207.0059" cy="-206.8377" rx="3.2" ry="3.2"/>
</g>
</g>
</svg>
