<?xml version="1.0" encoding="UTF-8" standalone="no"?>
<!DOCTYPE svg PUBLIC "-//W3C//DTD SVG 1.1//EN"
 "http://www.w3.org/Graphics/SVG/1.1/DTD/svg11.dtd">
<!-- Generated by graphviz version 2.40.1 (20161225.0304)
 -->
<!-- Title: twoDegreesRelationshipsDiagram Pages: 1 -->
<svg width="717pt" height="348pt"
 viewBox="0.00 0.00 717.00 348.20" xmlns="http://www.w3.org/2000/svg" xmlns:xlink="http://www.w3.org/1999/xlink">
<g id="graph0" class="graph" transform="scale(1 1) rotate(0) translate(4 344.2)">
<title>twoDegreesRelationshipsDiagram</title>
<polygon fill="#ffffff" stroke="transparent" points="-4,4 -4,-344.2 713,-344.2 713,4 -4,4"/>
<text text-anchor="middle" x="72.4936" y="-7.3" font-family="Helvetica,sans-Serif" font-size="11.00" fill="#000000">Generated by SchemaSpy</text>
<!-- auth_group_permissions -->
<g id="node1" class="node">
<title>auth_group_permissions</title>
<g id="a_node1"><a xlink:href="../../tables/auth_group_permissions.html" xlink:title="auth_group_permissions" target="_top">
<polygon fill="#ffffff" stroke="transparent" points="456,-141.7 456,-253.7 701,-253.7 701,-141.7 456,-141.7"/>
<polygon fill="#f5f5f5" stroke="transparent" points="458.5,-228.7 458.5,-251.7 699.5,-251.7 699.5,-228.7 458.5,-228.7"/>
<polygon fill="none" stroke="#000000" points="458.5,-228.7 458.5,-251.7 699.5,-251.7 699.5,-228.7 458.5,-228.7"/>
<text text-anchor="start" x="463.5" y="-237.3" font-family="Helvetica,sans-Serif" font-weight="bold" font-size="11.00" fill="#000000">auth_group_permissions</text>
<text text-anchor="start" x="664.5437" y="-236.8" font-family="Helvetica,sans-Serif" font-size="11.00" fill="#000000">[table]</text>
<polygon fill="none" stroke="#000000" points="458.5,-206.7 458.5,-228.7 657.5,-228.7 657.5,-206.7 458.5,-206.7"/>
<image xlink:href="../../images/primaryKeys.png" width="11px" height="12px" preserveAspectRatio="xMinYMin meet" x="463.5" y="-223.7"/>
<text text-anchor="start" x="478.5" y="-213.8" font-family="Helvetica,sans-Serif" font-size="11.00" fill="#000000">id</text>
<polygon fill="none" stroke="#000000" points="657.5,-206.7 657.5,-228.7 699.5,-228.7 699.5,-206.7 657.5,-206.7"/>
<text text-anchor="start" x="660.4644" y="-214.4" font-family="Helvetica,sans-Serif" font-size="11.00" fill="#000000">int8[19]</text>
<polygon fill="#ffffff" stroke="transparent" points="458.5,-184.7 458.5,-206.7 657.5,-206.7 657.5,-184.7 458.5,-184.7"/>
<polygon fill="none" stroke="#000000" points="458.5,-184.7 458.5,-206.7 657.5,-206.7 657.5,-184.7 458.5,-184.7"/>
<image xlink:href="../../images/foreignKeys.png" width="11px" height="12px" preserveAspectRatio="xMinYMin meet" x="463.5" y="-201.7"/>
<text text-anchor="start" x="478.5" y="-191.8" font-family="Helvetica,sans-Serif" font-size="11.00" fill="#000000">group_id</text>
<polygon fill="none" stroke="#000000" points="657.5,-184.7 657.5,-206.7 699.5,-206.7 699.5,-184.7 657.5,-184.7"/>
<text text-anchor="start" x="660.4644" y="-192.4" font-family="Helvetica,sans-Serif" font-size="11.00" fill="#000000">int4[10]</text>
<polygon fill="#ffffff" stroke="transparent" points="458.5,-162.7 458.5,-184.7 657.5,-184.7 657.5,-162.7 458.5,-162.7"/>
<polygon fill="none" stroke="#000000" points="458.5,-162.7 458.5,-184.7 657.5,-184.7 657.5,-162.7 458.5,-162.7"/>
<image xlink:href="../../images/foreignKeys.png" width="11px" height="12px" preserveAspectRatio="xMinYMin meet" x="463.5" y="-179.7"/>
<text text-anchor="start" x="478.5" y="-169.8" font-family="Helvetica,sans-Serif" font-size="11.00" fill="#000000">permission_id</text>
<polygon fill="none" stroke="#000000" points="657.5,-162.7 657.5,-184.7 699.5,-184.7 699.5,-162.7 657.5,-162.7"/>
<text text-anchor="start" x="660.4644" y="-170.4" font-family="Helvetica,sans-Serif" font-size="11.00" fill="#000000">int4[10]</text>
<polygon fill="#ffffff" stroke="transparent" points="458.5,-143.7 458.5,-162.7 699.5,-162.7 699.5,-143.7 458.5,-143.7"/>
<polygon fill="none" stroke="#000000" points="458.5,-143.7 458.5,-162.7 699.5,-162.7 699.5,-143.7 458.5,-143.7"/>
<polygon fill="#ffffff" stroke="transparent" points="459.5,-144.7 459.5,-161.7 542.5,-161.7 542.5,-144.7 459.5,-144.7"/>
<text text-anchor="start" x="461.5" y="-149.8" font-family="Helvetica,sans-Serif" font-size="11.00" fill="#000000">&lt; 2</text>
<polygon fill="#ffffff" stroke="transparent" points="542.5,-144.7 542.5,-161.7 616.5,-161.7 616.5,-144.7 542.5,-144.7"/>
<text text-anchor="start" x="576.4431" y="-149.8" font-family="Helvetica,sans-Serif" font-size="11.00" fill="#000000"> &#160;</text>
<polygon fill="#ffffff" stroke="transparent" points="616.5,-144.7 616.5,-161.7 698.5,-161.7 698.5,-144.7 616.5,-144.7"/>
<text text-anchor="start" x="680.9053" y="-149.8" font-family="Helvetica,sans-Serif" font-size="11.00" fill="#000000">0 &gt;</text>
<polygon fill="#000000" stroke="#000000" points="542.5,-144.7 542.5,-161.7 542.5,-161.7 542.5,-144.7 542.5,-144.7"/>
<polygon fill="#000000" stroke="#000000" points="616.5,-144.7 616.5,-161.7 616.5,-161.7 616.5,-144.7 616.5,-144.7"/>
<polygon fill="none" stroke="#000000" stroke-width="2" points="457,-142.7 457,-252.7 700,-252.7 700,-142.7 457,-142.7"/>
</a>
</g>
</g>
<!-- auth_group -->
<g id="node2" class="node">
<title>auth_group</title>
<g id="a_node2"><a xlink:href="../../tables/auth_group.html" xlink:title="auth_group" target="_top">
<polygon fill="#ffffff" stroke="transparent" points="266.5,-186.7 266.5,-272.7 388.5,-272.7 388.5,-186.7 266.5,-186.7"/>
<polygon fill="#f5f5f5" stroke="transparent" points="266.5,-249.7 266.5,-272.7 388.5,-272.7 388.5,-249.7 266.5,-249.7"/>
<polygon fill="none" stroke="#000000" points="266.5,-249.7 266.5,-272.7 388.5,-272.7 388.5,-249.7 266.5,-249.7"/>
<text text-anchor="start" x="271.5" y="-258.3" font-family="Helvetica,sans-Serif" font-weight="bold" font-size="11.00" fill="#000000">auth_group</text>
<text text-anchor="start" x="354.0219" y="-257.8" font-family="Helvetica,sans-Serif" font-size="11.00" fill="#000000">[table]</text>
<polygon fill="none" stroke="#000000" points="266.5,-227.7 266.5,-249.7 388.5,-249.7 388.5,-227.7 266.5,-227.7"/>
<image xlink:href="../../images/primaryKeys.png" width="11px" height="12px" preserveAspectRatio="xMinYMin meet" x="271.5" y="-244.7"/>
<text text-anchor="start" x="295.5" y="-234.8" font-family="Helvetica,sans-Serif" font-size="11.00" fill="#000000">id</text>
<polygon fill="#ffffff" stroke="transparent" points="266.5,-205.7 266.5,-227.7 388.5,-227.7 388.5,-205.7 266.5,-205.7"/>
<polygon fill="none" stroke="#000000" points="266.5,-205.7 266.5,-227.7 388.5,-227.7 388.5,-205.7 266.5,-205.7"/>
<text text-anchor="start" x="295.5" y="-212.8" font-family="Helvetica,sans-Serif" font-size="11.00" fill="#000000">name</text>
<polygon fill="#ffffff" stroke="transparent" points="266.5,-186.7 266.5,-205.7 388.5,-205.7 388.5,-186.7 266.5,-186.7"/>
<polygon fill="none" stroke="#000000" points="266.5,-186.7 266.5,-205.7 388.5,-205.7 388.5,-186.7 266.5,-186.7"/>
<polygon fill="#ffffff" stroke="transparent" points="267.5,-187.7 267.5,-204.7 304.5,-204.7 304.5,-187.7 267.5,-187.7"/>
<text text-anchor="start" x="269.5" y="-192.8" font-family="Helvetica,sans-Serif" font-size="11.00" fill="#000000"> &#160;</text>
<polygon fill="#ffffff" stroke="transparent" points="304.5,-187.7 304.5,-204.7 341.5,-204.7 341.5,-187.7 304.5,-187.7"/>
<text text-anchor="start" x="319.9431" y="-192.8" font-family="Helvetica,sans-Serif" font-size="11.00" fill="#000000"> &#160;</text>
<polygon fill="#ffffff" stroke="transparent" points="341.5,-187.7 341.5,-204.7 387.5,-204.7 387.5,-187.7 341.5,-187.7"/>
<text text-anchor="start" x="369.9053" y="-192.8" font-family="Helvetica,sans-Serif" font-size="11.00" fill="#000000">2 &gt;</text>
<polygon fill="#000000" stroke="#000000" points="304.5,-187.7 304.5,-204.7 304.5,-204.7 304.5,-187.7 304.5,-187.7"/>
<polygon fill="#000000" stroke="#000000" points="341.5,-187.7 341.5,-204.7 341.5,-204.7 341.5,-187.7 341.5,-187.7"/>
</a>
</g>
</g>
<!-- auth_group_permissions&#45;&gt;auth_group -->
<g id="edge1" class="edge">
<title>auth_group_permissions:w&#45;&gt;auth_group:e</title>
<path fill="none" stroke="#000000" d="M444.286,-198.3898C421.9917,-207.8036 419.4497,-238.7 388.5,-238.7"/>
<polygon fill="#000000" stroke="#000000" points="450.6395,-197.1876 459.1694,-199.2372 454.5698,-196.4438 458.5,-195.7 458.5,-195.7 458.5,-195.7 454.5698,-196.4438 457.8306,-192.1628 450.6395,-197.1876 450.6395,-197.1876"/>
<ellipse fill="none" stroke="#000000" cx="447.4953" cy="-197.7826" rx="3.2" ry="3.2"/>
</g>
<!-- auth_permission -->
<g id="node3" class="node">
<title>auth_permission</title>
<g id="a_node3"><a xlink:href="../../tables/auth_permission.html" xlink:title="auth_permission" target="_top">
<polygon fill="#ffffff" stroke="transparent" points="248,-38.2 248,-165.2 407,-165.2 407,-38.2 248,-38.2"/>
<polygon fill="#f5f5f5" stroke="transparent" points="248.5,-141.7 248.5,-164.7 407.5,-164.7 407.5,-141.7 248.5,-141.7"/>
<polygon fill="none" stroke="#000000" points="248.5,-141.7 248.5,-164.7 407.5,-164.7 407.5,-141.7 248.5,-141.7"/>
<text text-anchor="start" x="253.5" y="-150.3" font-family="Helvetica,sans-Serif" font-weight="bold" font-size="11.00" fill="#000000">auth_permission</text>
<text text-anchor="start" x="373.0219" y="-149.8" font-family="Helvetica,sans-Serif" font-size="11.00" fill="#000000">[table]</text>
<polygon fill="none" stroke="#000000" points="248.5,-119.7 248.5,-141.7 407.5,-141.7 407.5,-119.7 248.5,-119.7"/>
<image xlink:href="../../images/primaryKeys.png" width="11px" height="12px" preserveAspectRatio="xMinYMin meet" x="253.5" y="-136.7"/>
<text text-anchor="start" x="277.5" y="-126.8" font-family="Helvetica,sans-Serif" font-size="11.00" fill="#000000">id</text>
<polygon fill="#ffffff" stroke="transparent" points="248.5,-97.7 248.5,-119.7 407.5,-119.7 407.5,-97.7 248.5,-97.7"/>
<polygon fill="none" stroke="#000000" points="248.5,-97.7 248.5,-119.7 407.5,-119.7 407.5,-97.7 248.5,-97.7"/>
<image xlink:href="../../images/foreignKeys.png" width="11px" height="12px" preserveAspectRatio="xMinYMin meet" x="253.5" y="-114.7"/>
<text text-anchor="start" x="277.5" y="-104.8" font-family="Helvetica,sans-Serif" font-size="11.00" fill="#000000">content_type_id</text>
<polygon fill="#ffffff" stroke="transparent" points="248.5,-75.7 248.5,-97.7 407.5,-97.7 407.5,-75.7 248.5,-75.7"/>
<polygon fill="none" stroke="#000000" points="248.5,-75.7 248.5,-97.7 407.5,-97.7 407.5,-75.7 248.5,-75.7"/>
<text text-anchor="start" x="277.5" y="-82.8" font-family="Helvetica,sans-Serif" font-size="11.00" fill="#000000">codename</text>
<polygon fill="none" stroke="#000000" points="248.5,-56.7 248.5,-75.7 407.5,-75.7 407.5,-56.7 248.5,-56.7"/>
<text text-anchor="start" x="251.5" y="-62.8" font-family="Helvetica,sans-Serif" font-size="11.00" fill="#000000">...</text>
<polygon fill="#ffffff" stroke="transparent" points="248.5,-37.7 248.5,-56.7 407.5,-56.7 407.5,-37.7 248.5,-37.7"/>
<polygon fill="none" stroke="#000000" points="248.5,-37.7 248.5,-56.7 407.5,-56.7 407.5,-37.7 248.5,-37.7"/>
<polygon fill="#ffffff" stroke="transparent" points="249.5,-38.7 249.5,-55.7 305.5,-55.7 305.5,-38.7 249.5,-38.7"/>
<text text-anchor="start" x="251.5" y="-43.8" font-family="Helvetica,sans-Serif" font-size="11.00" fill="#000000">&lt; 1</text>
<polygon fill="#ffffff" stroke="transparent" points="305.5,-38.7 305.5,-55.7 351.5,-55.7 351.5,-38.7 305.5,-38.7"/>
<text text-anchor="start" x="325.4431" y="-43.8" font-family="Helvetica,sans-Serif" font-size="11.00" fill="#000000"> &#160;</text>
<polygon fill="#ffffff" stroke="transparent" points="351.5,-38.7 351.5,-55.7 406.5,-55.7 406.5,-38.7 351.5,-38.7"/>
<text text-anchor="start" x="388.9053" y="-43.8" font-family="Helvetica,sans-Serif" font-size="11.00" fill="#000000">2 &gt;</text>
<polygon fill="#000000" stroke="#000000" points="305.5,-38.7 305.5,-55.7 305.5,-55.7 305.5,-38.7 305.5,-38.7"/>
<polygon fill="#000000" stroke="#000000" points="351.5,-38.7 351.5,-55.7 351.5,-55.7 351.5,-38.7 351.5,-38.7"/>
</a>
</g>
</g>
<!-- auth_group_permissions&#45;&gt;auth_permission -->
<g id="edge2" class="edge">
<title>auth_group_permissions:w&#45;&gt;auth_permission:e</title>
<path fill="none" stroke="#000000" d="M444.4939,-169.0982C430.6566,-158.0054 431.1259,-130.7 407.5,-130.7"/>
<polygon fill="#000000" stroke="#000000" points="450.8997,-171.2029 457.3763,-177.1201 454.6999,-172.4514 458.5,-173.7 458.5,-173.7 458.5,-173.7 454.6999,-172.4514 459.6237,-170.2799 450.8997,-171.2029 450.8997,-171.2029"/>
<ellipse fill="none" stroke="#000000" cx="447.8596" cy="-170.204" rx="3.2" ry="3.2"/>
</g>
<!-- django_content_type -->
<g id="node4" class="node">
<title>django_content_type</title>
<g id="a_node4"><a xlink:href="../../tables/django_content_type.html" xlink:title="django_content_type" target="_top">
<polygon fill="#ffffff" stroke="transparent" points="8,-81.2 8,-142.2 199,-142.2 199,-81.2 8,-81.2"/>
<polygon fill="#f5f5f5" stroke="transparent" points="8.5,-118.7 8.5,-141.7 199.5,-141.7 199.5,-118.7 8.5,-118.7"/>
<polygon fill="none" stroke="#000000" points="8.5,-118.7 8.5,-141.7 199.5,-141.7 199.5,-118.7 8.5,-118.7"/>
<text text-anchor="start" x="13.5" y="-127.3" font-family="Helvetica,sans-Serif" font-weight="bold" font-size="11.00" fill="#000000">django_content_type</text>
<text text-anchor="start" x="165.0219" y="-126.8" font-family="Helvetica,sans-Serif" font-size="11.00" fill="#000000">[table]</text>
<polygon fill="none" stroke="#000000" points="8.5,-99.7 8.5,-118.7 199.5,-118.7 199.5,-99.7 8.5,-99.7"/>
<text text-anchor="start" x="11.5" y="-105.8" font-family="Helvetica,sans-Serif" font-size="11.00" fill="#000000">...</text>
<polygon fill="#ffffff" stroke="transparent" points="8.5,-80.7 8.5,-99.7 199.5,-99.7 199.5,-80.7 8.5,-80.7"/>
<polygon fill="none" stroke="#000000" points="8.5,-80.7 8.5,-99.7 199.5,-99.7 199.5,-80.7 8.5,-80.7"/>
<polygon fill="#ffffff" stroke="transparent" points="9.5,-81.7 9.5,-98.7 69.5,-98.7 69.5,-81.7 9.5,-81.7"/>
<text text-anchor="start" x="11.5" y="-86.8" font-family="Helvetica,sans-Serif" font-size="11.00" fill="#000000"> &#160;</text>
<polygon fill="#ffffff" stroke="transparent" points="69.5,-81.7 69.5,-98.7 129.5,-98.7 129.5,-81.7 69.5,-81.7"/>
<text text-anchor="start" x="96.4431" y="-86.8" font-family="Helvetica,sans-Serif" font-size="11.00" fill="#000000"> &#160;</text>
<polygon fill="#ffffff" stroke="transparent" points="129.5,-81.7 129.5,-98.7 198.5,-98.7 198.5,-81.7 129.5,-81.7"/>
<text text-anchor="start" x="180.9053" y="-86.8" font-family="Helvetica,sans-Serif" font-size="11.00" fill="#000000">2 &gt;</text>
<polygon fill="#000000" stroke="#000000" points="69.5,-81.7 69.5,-98.7 69.5,-98.7 69.5,-81.7 69.5,-81.7"/>
<polygon fill="#000000" stroke="#000000" points="129.5,-81.7 129.5,-98.7 129.5,-98.7 129.5,-81.7 129.5,-81.7"/>
</a>
</g>
</g>
<!-- auth_permission&#45;&gt;django_content_type -->
<g id="edge3" class="edge">
<title>auth_permission:w&#45;&gt;django_content_type:e</title>
<path fill="none" stroke="#000000" d="M233.9909,-108.7C222.6774,-108.7 215.4931,-108.7 199.5,-108.7"/>
<polygon fill="#000000" stroke="#000000" points="240.5,-108.7001 248.5,-112.3 244.5,-108.7 248.5,-108.7 248.5,-108.7 248.5,-108.7 244.5,-108.7 248.5,-105.1 240.5,-108.7001 240.5,-108.7001"/>
<ellipse fill="none" stroke="#000000" cx="237.3" cy="-108.7001" rx="3.2" ry="3.2"/>
</g>
<!-- auth_user_groups -->
<g id="node5" class="node">
<title>auth_user_groups</title>
<g id="a_node5"><a xlink:href="../../tables/auth_user_groups.html" xlink:title="auth_user_groups" target="_top">
<polygon fill="#ffffff" stroke="transparent" points="494.5,-275.2 494.5,-336.2 662.5,-336.2 662.5,-275.2 494.5,-275.2"/>
<polygon fill="#f5f5f5" stroke="transparent" points="494.5,-312.7 494.5,-335.7 662.5,-335.7 662.5,-312.7 494.5,-312.7"/>
<polygon fill="none" stroke="#000000" points="494.5,-312.7 494.5,-335.7 662.5,-335.7 662.5,-312.7 494.5,-312.7"/>
<text text-anchor="start" x="499.5" y="-321.3" font-family="Helvetica,sans-Serif" font-weight="bold" font-size="11.00" fill="#000000">auth_user_groups</text>
<text text-anchor="start" x="628.0219" y="-320.8" font-family="Helvetica,sans-Serif" font-size="11.00" fill="#000000">[table]</text>
<polygon fill="none" stroke="#000000" points="494.5,-293.7 494.5,-312.7 662.5,-312.7 662.5,-293.7 494.5,-293.7"/>
<text text-anchor="start" x="497.5" y="-299.8" font-family="Helvetica,sans-Serif" font-size="11.00" fill="#000000">...</text>
<polygon fill="#ffffff" stroke="transparent" points="494.5,-274.7 494.5,-293.7 662.5,-293.7 662.5,-274.7 494.5,-274.7"/>
<polygon fill="none" stroke="#000000" points="494.5,-274.7 494.5,-293.7 662.5,-293.7 662.5,-274.7 494.5,-274.7"/>
<polygon fill="#ffffff" stroke="transparent" points="495.5,-275.7 495.5,-292.7 557.5,-292.7 557.5,-275.7 495.5,-275.7"/>
<text text-anchor="start" x="497.5" y="-280.8" font-family="Helvetica,sans-Serif" font-size="11.00" fill="#000000">&lt; 2</text>
<polygon fill="#ffffff" stroke="transparent" points="557.5,-275.7 557.5,-292.7 609.5,-292.7 609.5,-275.7 557.5,-275.7"/>
<text text-anchor="start" x="580.4431" y="-280.8" font-family="Helvetica,sans-Serif" font-size="11.00" fill="#000000"> &#160;</text>
<polygon fill="#ffffff" stroke="transparent" points="609.5,-275.7 609.5,-292.7 661.5,-292.7 661.5,-275.7 609.5,-275.7"/>
<text text-anchor="start" x="653.3862" y="-280.8" font-family="Helvetica,sans-Serif" font-size="11.00" fill="#000000"> &#160;</text>
<polygon fill="#000000" stroke="#000000" points="557.5,-275.7 557.5,-292.7 557.5,-292.7 557.5,-275.7 557.5,-275.7"/>
<polygon fill="#000000" stroke="#000000" points="609.5,-275.7 609.5,-292.7 609.5,-292.7 609.5,-275.7 609.5,-275.7"/>
</a>
</g>
</g>
<!-- auth_user_groups&#45;&gt;auth_group -->
<g id="edge4" class="edge">
<title>auth_user_groups:w&#45;&gt;auth_group:e</title>
<path fill="none" stroke="#000000" d="M479.958,-300.9882C439.698,-290.8104 438.158,-238.7 388.5,-238.7"/>
<polygon fill="#000000" stroke="#000000" points="486.5549,-301.7647 494.0791,-306.2753 490.5274,-302.2323 494.5,-302.7 494.5,-302.7 494.5,-302.7 490.5274,-302.2323 494.9209,-299.1247 486.5549,-301.7647 486.5549,-301.7647"/>
<ellipse fill="none" stroke="#000000" cx="483.3768" cy="-301.3905" rx="3.2" ry="3.2"/>
</g>
<!-- auth_user_user_permissions -->
<g id="node6" class="node">
<title>auth_user_user_permissions</title>
<g id="a_node6"><a xlink:href="../../tables/auth_user_user_permissions.html" xlink:title="auth_user_user_permissions" target="_top">
<polygon fill="#ffffff" stroke="transparent" points="456.5,-59.2 456.5,-120.2 700.5,-120.2 700.5,-59.2 456.5,-59.2"/>
<polygon fill="#f5f5f5" stroke="transparent" points="456.5,-96.7 456.5,-119.7 700.5,-119.7 700.5,-96.7 456.5,-96.7"/>
<polygon fill="none" stroke="#000000" points="456.5,-96.7 456.5,-119.7 700.5,-119.7 700.5,-96.7 456.5,-96.7"/>
<text text-anchor="start" x="461.5" y="-105.3" font-family="Helvetica,sans-Serif" font-weight="bold" font-size="11.00" fill="#000000">auth_user_user_permissions</text>
<text text-anchor="start" x="666.0219" y="-104.8" font-family="Helvetica,sans-Serif" font-size="11.00" fill="#000000">[table]</text>
<polygon fill="none" stroke="#000000" points="456.5,-77.7 456.5,-96.7 700.5,-96.7 700.5,-77.7 456.5,-77.7"/>
<text text-anchor="start" x="459.5" y="-83.8" font-family="Helvetica,sans-Serif" font-size="11.00" fill="#000000">...</text>
<polygon fill="#ffffff" stroke="transparent" points="456.5,-58.7 456.5,-77.7 700.5,-77.7 700.5,-58.7 456.5,-58.7"/>
<polygon fill="none" stroke="#000000" points="456.5,-58.7 456.5,-77.7 700.5,-77.7 700.5,-58.7 456.5,-58.7"/>
<polygon fill="#ffffff" stroke="transparent" points="457.5,-59.7 457.5,-76.7 544.5,-76.7 544.5,-59.7 457.5,-59.7"/>
<text text-anchor="start" x="459.5" y="-64.8" font-family="Helvetica,sans-Serif" font-size="11.00" fill="#000000">&lt; 2</text>
<polygon fill="#ffffff" stroke="transparent" points="544.5,-59.7 544.5,-76.7 622.5,-76.7 622.5,-59.7 544.5,-59.7"/>
<text text-anchor="start" x="580.4431" y="-64.8" font-family="Helvetica,sans-Serif" font-size="11.00" fill="#000000"> &#160;</text>
<polygon fill="#ffffff" stroke="transparent" points="622.5,-59.7 622.5,-76.7 699.5,-76.7 699.5,-59.7 622.5,-59.7"/>
<text text-anchor="start" x="691.3862" y="-64.8" font-family="Helvetica,sans-Serif" font-size="11.00" fill="#000000"> &#160;</text>
<polygon fill="#000000" stroke="#000000" points="544.5,-59.7 544.5,-76.7 544.5,-76.7 544.5,-59.7 544.5,-59.7"/>
<polygon fill="#000000" stroke="#000000" points="622.5,-59.7 622.5,-76.7 622.5,-76.7 622.5,-59.7 622.5,-59.7"/>
</a>
</g>
</g>
<!-- auth_user_user_permissions&#45;&gt;auth_permission -->
<g id="edge5" class="edge">
<title>auth_user_user_permissions:w&#45;&gt;auth_permission:e</title>
<path fill="none" stroke="#000000" d="M442.8171,-91.4088C429.5046,-102.7596 430.824,-130.7 407.5,-130.7"/>
<polygon fill="#000000" stroke="#000000" points="448.9354,-89.3033 457.6715,-90.1041 452.7177,-88.0016 456.5,-86.7 456.5,-86.7 456.5,-86.7 452.7177,-88.0016 455.3285,-83.2959 448.9354,-89.3033 448.9354,-89.3033"/>
<ellipse fill="none" stroke="#000000" cx="445.9096" cy="-90.3446" rx="3.2" ry="3.2"/>
</g>
</g>
</svg>
