<?xml version="1.0" encoding="UTF-8" standalone="no"?>
<!DOCTYPE svg PUBLIC "-//W3C//DTD SVG 1.1//EN"
 "http://www.w3.org/Graphics/SVG/1.1/DTD/svg11.dtd">
<!-- Generated by graphviz version 2.40.1 (20161225.0304)
 -->
<!-- Title: oneDegreeRelationshipsDiagram Pages: 1 -->
<svg width="769pt" height="311pt"
 viewBox="0.00 0.00 769.00 311.20" xmlns="http://www.w3.org/2000/svg" xmlns:xlink="http://www.w3.org/1999/xlink">
<g id="graph0" class="graph" transform="scale(1 1) rotate(0) translate(4 307.2)">
<title>oneDegreeRelationshipsDiagram</title>
<polygon fill="#ffffff" stroke="transparent" points="-4,4 -4,-307.2 765,-307.2 765,4 -4,4"/>
<text text-anchor="middle" x="72.4936" y="-7.3" font-family="Helvetica,sans-Serif" font-size="11.00" fill="#000000">Generated by SchemaSpy</text>
<!-- auth_group_permissions -->
<g id="node1" class="node">
<title>auth_group_permissions</title>
<g id="a_node1"><a xlink:href="../../tables/auth_group_permissions.html" xlink:title="auth_group_permissions" target="_top">
<polygon fill="#ffffff" stroke="transparent" points="522.5,-191.2 522.5,-299.2 739.5,-299.2 739.5,-191.2 522.5,-191.2"/>
<polygon fill="#f5f5f5" stroke="transparent" points="523,-276.2 523,-299.2 740,-299.2 740,-276.2 523,-276.2"/>
<polygon fill="none" stroke="#000000" points="523,-276.2 523,-299.2 740,-299.2 740,-276.2 523,-276.2"/>
<text text-anchor="start" x="528" y="-284.8" font-family="Helvetica,sans-Serif" font-weight="bold" font-size="11.00" fill="#000000">auth_group_permissions</text>
<text text-anchor="start" x="705.5219" y="-284.3" font-family="Helvetica,sans-Serif" font-size="11.00" fill="#000000">[table]</text>
<polygon fill="none" stroke="#000000" points="523,-254.2 523,-276.2 740,-276.2 740,-254.2 523,-254.2"/>
<image xlink:href="../../images/primaryKeys.png" width="11px" height="12px" preserveAspectRatio="xMinYMin meet" x="528" y="-271.2"/>
<text text-anchor="start" x="552" y="-261.3" font-family="Helvetica,sans-Serif" font-size="11.00" fill="#000000">id</text>
<polygon fill="#ffffff" stroke="transparent" points="523,-232.2 523,-254.2 740,-254.2 740,-232.2 523,-232.2"/>
<polygon fill="none" stroke="#000000" points="523,-232.2 523,-254.2 740,-254.2 740,-232.2 523,-232.2"/>
<image xlink:href="../../images/foreignKeys.png" width="11px" height="12px" preserveAspectRatio="xMinYMin meet" x="528" y="-249.2"/>
<text text-anchor="start" x="552" y="-239.3" font-family="Helvetica,sans-Serif" font-size="11.00" fill="#000000">group_id</text>
<polygon fill="#ffffff" stroke="transparent" points="523,-210.2 523,-232.2 740,-232.2 740,-210.2 523,-210.2"/>
<polygon fill="none" stroke="#000000" points="523,-210.2 523,-232.2 740,-232.2 740,-210.2 523,-210.2"/>
<image xlink:href="../../images/foreignKeys.png" width="11px" height="12px" preserveAspectRatio="xMinYMin meet" x="528" y="-227.2"/>
<text text-anchor="start" x="552" y="-217.3" font-family="Helvetica,sans-Serif" font-size="11.00" fill="#000000">permission_id</text>
<polygon fill="#ffffff" stroke="transparent" points="523,-191.2 523,-210.2 740,-210.2 740,-191.2 523,-191.2"/>
<polygon fill="none" stroke="#000000" points="523,-191.2 523,-210.2 740,-210.2 740,-191.2 523,-191.2"/>
<polygon fill="#ffffff" stroke="transparent" points="524,-192.2 524,-209.2 602,-209.2 602,-192.2 524,-192.2"/>
<text text-anchor="start" x="526" y="-197.3" font-family="Helvetica,sans-Serif" font-size="11.00" fill="#000000">&lt; 2</text>
<polygon fill="#ffffff" stroke="transparent" points="602,-192.2 602,-209.2 671,-209.2 671,-192.2 602,-192.2"/>
<text text-anchor="start" x="633.4431" y="-197.3" font-family="Helvetica,sans-Serif" font-size="11.00" fill="#000000"> &#160;</text>
<polygon fill="#ffffff" stroke="transparent" points="671,-192.2 671,-209.2 739,-209.2 739,-192.2 671,-192.2"/>
<text text-anchor="start" x="730.8862" y="-197.3" font-family="Helvetica,sans-Serif" font-size="11.00" fill="#000000"> &#160;</text>
<polygon fill="#000000" stroke="#000000" points="602,-192.2 602,-209.2 602,-209.2 602,-192.2 602,-192.2"/>
<polygon fill="#000000" stroke="#000000" points="671,-192.2 671,-209.2 671,-209.2 671,-192.2 671,-192.2"/>
</a>
</g>
</g>
<!-- auth_permission -->
<g id="node2" class="node">
<title>auth_permission</title>
<g id="a_node2"><a xlink:href="../../tables/auth_permission.html" xlink:title="auth_permission" target="_top">
<polygon fill="#ffffff" stroke="transparent" points="248,-58.2 248,-192.2 460,-192.2 460,-58.2 248,-58.2"/>
<polygon fill="#f5f5f5" stroke="transparent" points="250,-167.2 250,-190.2 458,-190.2 458,-167.2 250,-167.2"/>
<polygon fill="none" stroke="#000000" points="250,-167.2 250,-190.2 458,-190.2 458,-167.2 250,-167.2"/>
<text text-anchor="start" x="255" y="-175.8" font-family="Helvetica,sans-Serif" font-weight="bold" font-size="11.00" fill="#000000">auth_permission</text>
<text text-anchor="start" x="423.0437" y="-175.3" font-family="Helvetica,sans-Serif" font-size="11.00" fill="#000000">[table]</text>
<polygon fill="none" stroke="#000000" points="250,-145.2 250,-167.2 391,-167.2 391,-145.2 250,-145.2"/>
<image xlink:href="../../images/primaryKeys.png" width="11px" height="12px" preserveAspectRatio="xMinYMin meet" x="255" y="-162.2"/>
<text text-anchor="start" x="270" y="-152.3" font-family="Helvetica,sans-Serif" font-size="11.00" fill="#000000">id</text>
<polygon fill="none" stroke="#000000" points="391,-145.2 391,-167.2 458,-167.2 458,-145.2 391,-145.2"/>
<text text-anchor="start" x="394" y="-152.9" font-family="Helvetica,sans-Serif" font-size="11.00" fill="#000000">int4[10]</text>
<polygon fill="none" stroke="#000000" points="250,-123.2 250,-145.2 391,-145.2 391,-123.2 250,-123.2"/>
<text text-anchor="start" x="270" y="-130.3" font-family="Helvetica,sans-Serif" font-size="11.00" fill="#000000">name</text>
<polygon fill="none" stroke="#000000" points="391,-123.2 391,-145.2 458,-145.2 458,-123.2 391,-123.2"/>
<text text-anchor="start" x="393.9365" y="-130.9" font-family="Helvetica,sans-Serif" font-size="11.00" fill="#000000">varchar[255]</text>
<polygon fill="#ffffff" stroke="transparent" points="250,-101.2 250,-123.2 391,-123.2 391,-101.2 250,-101.2"/>
<polygon fill="none" stroke="#000000" points="250,-101.2 250,-123.2 391,-123.2 391,-101.2 250,-101.2"/>
<image xlink:href="../../images/foreignKeys.png" width="11px" height="12px" preserveAspectRatio="xMinYMin meet" x="255" y="-118.2"/>
<text text-anchor="start" x="270" y="-108.3" font-family="Helvetica,sans-Serif" font-size="11.00" fill="#000000">content_type_id</text>
<polygon fill="none" stroke="#000000" points="391,-101.2 391,-123.2 458,-123.2 458,-101.2 391,-101.2"/>
<text text-anchor="start" x="394" y="-108.9" font-family="Helvetica,sans-Serif" font-size="11.00" fill="#000000">int4[10]</text>
<polygon fill="#ffffff" stroke="transparent" points="250,-79.2 250,-101.2 391,-101.2 391,-79.2 250,-79.2"/>
<polygon fill="none" stroke="#000000" points="250,-79.2 250,-101.2 391,-101.2 391,-79.2 250,-79.2"/>
<text text-anchor="start" x="270" y="-86.3" font-family="Helvetica,sans-Serif" font-size="11.00" fill="#000000">codename</text>
<polygon fill="none" stroke="#000000" points="391,-79.2 391,-101.2 458,-101.2 458,-79.2 391,-79.2"/>
<text text-anchor="start" x="393.9365" y="-86.9" font-family="Helvetica,sans-Serif" font-size="11.00" fill="#000000">varchar[100]</text>
<polygon fill="#ffffff" stroke="transparent" points="250,-60.2 250,-79.2 458,-79.2 458,-60.2 250,-60.2"/>
<polygon fill="none" stroke="#000000" points="250,-60.2 250,-79.2 458,-79.2 458,-60.2 250,-60.2"/>
<polygon fill="#ffffff" stroke="transparent" points="251,-61.2 251,-78.2 323,-78.2 323,-61.2 251,-61.2"/>
<text text-anchor="start" x="253" y="-66.3" font-family="Helvetica,sans-Serif" font-size="11.00" fill="#000000">&lt; 1</text>
<polygon fill="#ffffff" stroke="transparent" points="323,-61.2 323,-78.2 386,-78.2 386,-61.2 323,-61.2"/>
<text text-anchor="start" x="351.4431" y="-66.3" font-family="Helvetica,sans-Serif" font-size="11.00" fill="#000000"> &#160;</text>
<polygon fill="#ffffff" stroke="transparent" points="386,-61.2 386,-78.2 457,-78.2 457,-61.2 386,-61.2"/>
<text text-anchor="start" x="439.4053" y="-66.3" font-family="Helvetica,sans-Serif" font-size="11.00" fill="#000000">2 &gt;</text>
<polygon fill="#000000" stroke="#000000" points="323,-61.2 323,-78.2 323,-78.2 323,-61.2 323,-61.2"/>
<polygon fill="#000000" stroke="#000000" points="386,-61.2 386,-78.2 386,-78.2 386,-61.2 386,-61.2"/>
<polygon fill="none" stroke="#000000" stroke-width="2" points="249,-59.2 249,-191.2 459,-191.2 459,-59.2 249,-59.2"/>
</a>
</g>
</g>
<!-- auth_group_permissions&#45;&gt;auth_permission -->
<g id="edge1" class="edge">
<title>auth_group_permissions:w&#45;&gt;auth_permission:e</title>
<path fill="none" stroke="#000000" d="M508.8592,-217.7053C485.7063,-204.2042 493.1098,-156.2 458,-156.2"/>
<polygon fill="#000000" stroke="#000000" points="515.2337,-219.2806 522.1363,-224.6949 519.1168,-220.2403 523,-221.2 523,-221.2 523,-221.2 519.1168,-220.2403 523.8637,-217.7051 515.2337,-219.2806 515.2337,-219.2806"/>
<ellipse fill="none" stroke="#000000" cx="512.1271" cy="-218.5129" rx="3.2" ry="3.2"/>
</g>
<!-- django_content_type -->
<g id="node3" class="node">
<title>django_content_type</title>
<g id="a_node3"><a xlink:href="../../tables/django_content_type.html" xlink:title="django_content_type" target="_top">
<polygon fill="#ffffff" stroke="transparent" points="8,-38.2 8,-146.2 199,-146.2 199,-38.2 8,-38.2"/>
<polygon fill="#f5f5f5" stroke="transparent" points="8.5,-123.2 8.5,-146.2 199.5,-146.2 199.5,-123.2 8.5,-123.2"/>
<polygon fill="none" stroke="#000000" points="8.5,-123.2 8.5,-146.2 199.5,-146.2 199.5,-123.2 8.5,-123.2"/>
<text text-anchor="start" x="13.5" y="-131.8" font-family="Helvetica,sans-Serif" font-weight="bold" font-size="11.00" fill="#000000">django_content_type</text>
<text text-anchor="start" x="165.0219" y="-131.3" font-family="Helvetica,sans-Serif" font-size="11.00" fill="#000000">[table]</text>
<polygon fill="none" stroke="#000000" points="8.5,-101.2 8.5,-123.2 199.5,-123.2 199.5,-101.2 8.5,-101.2"/>
<image xlink:href="../../images/primaryKeys.png" width="11px" height="12px" preserveAspectRatio="xMinYMin meet" x="13.5" y="-118.2"/>
<text text-anchor="start" x="37.5" y="-108.3" font-family="Helvetica,sans-Serif" font-size="11.00" fill="#000000">id</text>
<polygon fill="#ffffff" stroke="transparent" points="8.5,-79.2 8.5,-101.2 199.5,-101.2 199.5,-79.2 8.5,-79.2"/>
<polygon fill="none" stroke="#000000" points="8.5,-79.2 8.5,-101.2 199.5,-101.2 199.5,-79.2 8.5,-79.2"/>
<text text-anchor="start" x="37.5" y="-86.3" font-family="Helvetica,sans-Serif" font-size="11.00" fill="#000000">app_label</text>
<polygon fill="#ffffff" stroke="transparent" points="8.5,-57.2 8.5,-79.2 199.5,-79.2 199.5,-57.2 8.5,-57.2"/>
<polygon fill="none" stroke="#000000" points="8.5,-57.2 8.5,-79.2 199.5,-79.2 199.5,-57.2 8.5,-57.2"/>
<text text-anchor="start" x="37.5" y="-64.3" font-family="Helvetica,sans-Serif" font-size="11.00" fill="#000000">model</text>
<polygon fill="#ffffff" stroke="transparent" points="8.5,-38.2 8.5,-57.2 199.5,-57.2 199.5,-38.2 8.5,-38.2"/>
<polygon fill="none" stroke="#000000" points="8.5,-38.2 8.5,-57.2 199.5,-57.2 199.5,-38.2 8.5,-38.2"/>
<polygon fill="#ffffff" stroke="transparent" points="9.5,-39.2 9.5,-56.2 69.5,-56.2 69.5,-39.2 9.5,-39.2"/>
<text text-anchor="start" x="11.5" y="-44.3" font-family="Helvetica,sans-Serif" font-size="11.00" fill="#000000"> &#160;</text>
<polygon fill="#ffffff" stroke="transparent" points="69.5,-39.2 69.5,-56.2 129.5,-56.2 129.5,-39.2 69.5,-39.2"/>
<text text-anchor="start" x="96.4431" y="-44.3" font-family="Helvetica,sans-Serif" font-size="11.00" fill="#000000"> &#160;</text>
<polygon fill="#ffffff" stroke="transparent" points="129.5,-39.2 129.5,-56.2 198.5,-56.2 198.5,-39.2 129.5,-39.2"/>
<text text-anchor="start" x="180.9053" y="-44.3" font-family="Helvetica,sans-Serif" font-size="11.00" fill="#000000">2 &gt;</text>
<polygon fill="#000000" stroke="#000000" points="69.5,-39.2 69.5,-56.2 69.5,-56.2 69.5,-39.2 69.5,-39.2"/>
<polygon fill="#000000" stroke="#000000" points="129.5,-39.2 129.5,-56.2 129.5,-56.2 129.5,-39.2 129.5,-39.2"/>
</a>
</g>
</g>
<!-- auth_permission&#45;&gt;django_content_type -->
<g id="edge2" class="edge">
<title>auth_permission:w&#45;&gt;django_content_type:e</title>
<path fill="none" stroke="#000000" d="M235.4203,-112.2C223.5435,-112.2 216.158,-112.2 199.5,-112.2"/>
<polygon fill="#000000" stroke="#000000" points="242,-112.2001 250,-115.8 246,-112.2 250,-112.2 250,-112.2 250,-112.2 246,-112.2 250,-108.6 242,-112.2001 242,-112.2001"/>
<ellipse fill="none" stroke="#000000" cx="238.8" cy="-112.2001" rx="3.2" ry="3.2"/>
</g>
<!-- auth_user_user_permissions -->
<g id="node4" class="node">
<title>auth_user_user_permissions</title>
<g id="a_node4"><a xlink:href="../../tables/auth_user_user_permissions.html" xlink:title="auth_user_user_permissions" target="_top">
<polygon fill="#ffffff" stroke="transparent" points="509,-62.2 509,-170.2 753,-170.2 753,-62.2 509,-62.2"/>
<polygon fill="#f5f5f5" stroke="transparent" points="509,-147.2 509,-170.2 753,-170.2 753,-147.2 509,-147.2"/>
<polygon fill="none" stroke="#000000" points="509,-147.2 509,-170.2 753,-170.2 753,-147.2 509,-147.2"/>
<text text-anchor="start" x="514" y="-155.8" font-family="Helvetica,sans-Serif" font-weight="bold" font-size="11.00" fill="#000000">auth_user_user_permissions</text>
<text text-anchor="start" x="718.5219" y="-155.3" font-family="Helvetica,sans-Serif" font-size="11.00" fill="#000000">[table]</text>
<polygon fill="none" stroke="#000000" points="509,-125.2 509,-147.2 753,-147.2 753,-125.2 509,-125.2"/>
<image xlink:href="../../images/primaryKeys.png" width="11px" height="12px" preserveAspectRatio="xMinYMin meet" x="514" y="-142.2"/>
<text text-anchor="start" x="538" y="-132.3" font-family="Helvetica,sans-Serif" font-size="11.00" fill="#000000">id</text>
<polygon fill="#ffffff" stroke="transparent" points="509,-103.2 509,-125.2 753,-125.2 753,-103.2 509,-103.2"/>
<polygon fill="none" stroke="#000000" points="509,-103.2 509,-125.2 753,-125.2 753,-103.2 509,-103.2"/>
<image xlink:href="../../images/foreignKeys.png" width="11px" height="12px" preserveAspectRatio="xMinYMin meet" x="514" y="-120.2"/>
<text text-anchor="start" x="538" y="-110.3" font-family="Helvetica,sans-Serif" font-size="11.00" fill="#000000">user_id</text>
<polygon fill="#ffffff" stroke="transparent" points="509,-81.2 509,-103.2 753,-103.2 753,-81.2 509,-81.2"/>
<polygon fill="none" stroke="#000000" points="509,-81.2 509,-103.2 753,-103.2 753,-81.2 509,-81.2"/>
<image xlink:href="../../images/foreignKeys.png" width="11px" height="12px" preserveAspectRatio="xMinYMin meet" x="514" y="-98.2"/>
<text text-anchor="start" x="538" y="-88.3" font-family="Helvetica,sans-Serif" font-size="11.00" fill="#000000">permission_id</text>
<polygon fill="#ffffff" stroke="transparent" points="509,-62.2 509,-81.2 753,-81.2 753,-62.2 509,-62.2"/>
<polygon fill="none" stroke="#000000" points="509,-62.2 509,-81.2 753,-81.2 753,-62.2 509,-62.2"/>
<polygon fill="#ffffff" stroke="transparent" points="510,-63.2 510,-80.2 597,-80.2 597,-63.2 510,-63.2"/>
<text text-anchor="start" x="512" y="-68.3" font-family="Helvetica,sans-Serif" font-size="11.00" fill="#000000">&lt; 2</text>
<polygon fill="#ffffff" stroke="transparent" points="597,-63.2 597,-80.2 675,-80.2 675,-63.2 597,-63.2"/>
<text text-anchor="start" x="632.9431" y="-68.3" font-family="Helvetica,sans-Serif" font-size="11.00" fill="#000000"> &#160;</text>
<polygon fill="#ffffff" stroke="transparent" points="675,-63.2 675,-80.2 752,-80.2 752,-63.2 675,-63.2"/>
<text text-anchor="start" x="743.8862" y="-68.3" font-family="Helvetica,sans-Serif" font-size="11.00" fill="#000000"> &#160;</text>
<polygon fill="#000000" stroke="#000000" points="597,-63.2 597,-80.2 597,-80.2 597,-63.2 597,-63.2"/>
<polygon fill="#000000" stroke="#000000" points="675,-63.2 675,-80.2 675,-80.2 675,-63.2 675,-63.2"/>
</a>
</g>
</g>
<!-- auth_user_user_permissions&#45;&gt;auth_permission -->
<g id="edge3" class="edge">
<title>auth_user_user_permissions:w&#45;&gt;auth_permission:e</title>
<path fill="none" stroke="#000000" d="M495.2779,-96.8027C478.1988,-111.4773 488.4041,-156.2 458,-156.2"/>
<polygon fill="#000000" stroke="#000000" points="501.4153,-94.7441 510.1449,-95.6131 505.2077,-93.4721 509,-92.2 509,-92.2 509,-92.2 505.2077,-93.4721 507.8551,-88.7869 501.4153,-94.7441 501.4153,-94.7441"/>
<ellipse fill="none" stroke="#000000" cx="498.3814" cy="-95.7618" rx="3.2" ry="3.2"/>
</g>
</g>
</svg>
