<?xml version="1.0" encoding="UTF-8" standalone="no"?>
<!DOCTYPE svg PUBLIC "-//W3C//DTD SVG 1.1//EN"
 "http://www.w3.org/Graphics/SVG/1.1/DTD/svg11.dtd">
<!-- Generated by graphviz version 2.40.1 (20161225.0304)
 -->
<!-- Title: oneDegreeRelationshipsDiagram Pages: 1 -->
<svg width="391pt" height="263pt"
 viewBox="0.00 0.00 391.00 262.70" xmlns="http://www.w3.org/2000/svg" xmlns:xlink="http://www.w3.org/1999/xlink">
<g id="graph0" class="graph" transform="scale(1 1) rotate(0) translate(4 258.7)">
<title>oneDegreeRelationshipsDiagram</title>
<polygon fill="#ffffff" stroke="transparent" points="-4,4 -4,-258.7 387,-258.7 387,4 -4,4"/>
<text text-anchor="middle" x="72.4936" y="-7.3" font-family="Helvetica,sans-Serif" font-size="11.00" fill="#000000">Generated by SchemaSpy</text>
<!-- auth_user_groups -->
<g id="node1" class="node">
<title>auth_user_groups</title>
<g id="a_node1"><a xlink:href="../../tables/auth_user_groups.html" xlink:title="auth_user_groups" target="_top">
<polygon fill="#ffffff" stroke="transparent" points="179,-110.2 179,-222.2 375,-222.2 375,-110.2 179,-110.2"/>
<polygon fill="#f5f5f5" stroke="transparent" points="181,-197.2 181,-220.2 373,-220.2 373,-197.2 181,-197.2"/>
<polygon fill="none" stroke="#000000" points="181,-197.2 181,-220.2 373,-220.2 373,-197.2 181,-197.2"/>
<text text-anchor="start" x="186" y="-205.8" font-family="Helvetica,sans-Serif" font-weight="bold" font-size="11.00" fill="#000000">auth_user_groups</text>
<text text-anchor="start" x="338.0437" y="-205.3" font-family="Helvetica,sans-Serif" font-size="11.00" fill="#000000">[table]</text>
<polygon fill="none" stroke="#000000" points="181,-175.2 181,-197.2 331,-197.2 331,-175.2 181,-175.2"/>
<image xlink:href="../../images/primaryKeys.png" width="11px" height="12px" preserveAspectRatio="xMinYMin meet" x="186" y="-192.2"/>
<text text-anchor="start" x="201" y="-182.3" font-family="Helvetica,sans-Serif" font-size="11.00" fill="#000000">id</text>
<polygon fill="none" stroke="#000000" points="331,-175.2 331,-197.2 373,-197.2 373,-175.2 331,-175.2"/>
<text text-anchor="start" x="333.9644" y="-182.9" font-family="Helvetica,sans-Serif" font-size="11.00" fill="#000000">int8[19]</text>
<polygon fill="#ffffff" stroke="transparent" points="181,-153.2 181,-175.2 331,-175.2 331,-153.2 181,-153.2"/>
<polygon fill="none" stroke="#000000" points="181,-153.2 181,-175.2 331,-175.2 331,-153.2 181,-153.2"/>
<image xlink:href="../../images/foreignKeys.png" width="11px" height="12px" preserveAspectRatio="xMinYMin meet" x="186" y="-170.2"/>
<text text-anchor="start" x="201" y="-160.3" font-family="Helvetica,sans-Serif" font-size="11.00" fill="#000000">user_id</text>
<polygon fill="none" stroke="#000000" points="331,-153.2 331,-175.2 373,-175.2 373,-153.2 331,-153.2"/>
<text text-anchor="start" x="333.9644" y="-160.9" font-family="Helvetica,sans-Serif" font-size="11.00" fill="#000000">int4[10]</text>
<polygon fill="#ffffff" stroke="transparent" points="181,-131.2 181,-153.2 331,-153.2 331,-131.2 181,-131.2"/>
<polygon fill="none" stroke="#000000" points="181,-131.2 181,-153.2 331,-153.2 331,-131.2 181,-131.2"/>
<image xlink:href="../../images/foreignKeys.png" width="11px" height="12px" preserveAspectRatio="xMinYMin meet" x="186" y="-148.2"/>
<text text-anchor="start" x="201" y="-138.3" font-family="Helvetica,sans-Serif" font-size="11.00" fill="#000000">group_id</text>
<polygon fill="none" stroke="#000000" points="331,-131.2 331,-153.2 373,-153.2 373,-131.2 331,-131.2"/>
<text text-anchor="start" x="333.9644" y="-138.9" font-family="Helvetica,sans-Serif" font-size="11.00" fill="#000000">int4[10]</text>
<polygon fill="#ffffff" stroke="transparent" points="181,-112.2 181,-131.2 373,-131.2 373,-112.2 181,-112.2"/>
<polygon fill="none" stroke="#000000" points="181,-112.2 181,-131.2 373,-131.2 373,-112.2 181,-112.2"/>
<polygon fill="#ffffff" stroke="transparent" points="182,-113.2 182,-130.2 249,-130.2 249,-113.2 182,-113.2"/>
<text text-anchor="start" x="184" y="-118.3" font-family="Helvetica,sans-Serif" font-size="11.00" fill="#000000">&lt; 2</text>
<polygon fill="#ffffff" stroke="transparent" points="249,-113.2 249,-130.2 306,-130.2 306,-113.2 249,-113.2"/>
<text text-anchor="start" x="274.4431" y="-118.3" font-family="Helvetica,sans-Serif" font-size="11.00" fill="#000000"> &#160;</text>
<polygon fill="#ffffff" stroke="transparent" points="306,-113.2 306,-130.2 372,-130.2 372,-113.2 306,-113.2"/>
<text text-anchor="start" x="354.4053" y="-118.3" font-family="Helvetica,sans-Serif" font-size="11.00" fill="#000000">0 &gt;</text>
<polygon fill="#000000" stroke="#000000" points="249,-113.2 249,-130.2 249,-130.2 249,-113.2 249,-113.2"/>
<polygon fill="#000000" stroke="#000000" points="306,-113.2 306,-130.2 306,-130.2 306,-113.2 306,-113.2"/>
<polygon fill="none" stroke="#000000" stroke-width="2" points="180,-111.2 180,-221.2 374,-221.2 374,-111.2 180,-111.2"/>
</a>
</g>
</g>
<!-- auth_group -->
<g id="node2" class="node">
<title>auth_group</title>
<g id="a_node2"><a xlink:href="../../tables/auth_group.html" xlink:title="auth_group" target="_top">
<polygon fill="#ffffff" stroke="transparent" points="8,-38.2 8,-124.2 130,-124.2 130,-38.2 8,-38.2"/>
<polygon fill="#f5f5f5" stroke="transparent" points="8,-101.2 8,-124.2 130,-124.2 130,-101.2 8,-101.2"/>
<polygon fill="none" stroke="#000000" points="8,-101.2 8,-124.2 130,-124.2 130,-101.2 8,-101.2"/>
<text text-anchor="start" x="13" y="-109.8" font-family="Helvetica,sans-Serif" font-weight="bold" font-size="11.00" fill="#000000">auth_group</text>
<text text-anchor="start" x="95.5219" y="-109.3" font-family="Helvetica,sans-Serif" font-size="11.00" fill="#000000">[table]</text>
<polygon fill="none" stroke="#000000" points="8,-79.2 8,-101.2 130,-101.2 130,-79.2 8,-79.2"/>
<image xlink:href="../../images/primaryKeys.png" width="11px" height="12px" preserveAspectRatio="xMinYMin meet" x="13" y="-96.2"/>
<text text-anchor="start" x="37" y="-86.3" font-family="Helvetica,sans-Serif" font-size="11.00" fill="#000000">id</text>
<polygon fill="#ffffff" stroke="transparent" points="8,-57.2 8,-79.2 130,-79.2 130,-57.2 8,-57.2"/>
<polygon fill="none" stroke="#000000" points="8,-57.2 8,-79.2 130,-79.2 130,-57.2 8,-57.2"/>
<text text-anchor="start" x="37" y="-64.3" font-family="Helvetica,sans-Serif" font-size="11.00" fill="#000000">name</text>
<polygon fill="#ffffff" stroke="transparent" points="8,-38.2 8,-57.2 130,-57.2 130,-38.2 8,-38.2"/>
<polygon fill="none" stroke="#000000" points="8,-38.2 8,-57.2 130,-57.2 130,-38.2 8,-38.2"/>
<polygon fill="#ffffff" stroke="transparent" points="9,-39.2 9,-56.2 46,-56.2 46,-39.2 9,-39.2"/>
<text text-anchor="start" x="11" y="-44.3" font-family="Helvetica,sans-Serif" font-size="11.00" fill="#000000"> &#160;</text>
<polygon fill="#ffffff" stroke="transparent" points="46,-39.2 46,-56.2 83,-56.2 83,-39.2 46,-39.2"/>
<text text-anchor="start" x="61.4431" y="-44.3" font-family="Helvetica,sans-Serif" font-size="11.00" fill="#000000"> &#160;</text>
<polygon fill="#ffffff" stroke="transparent" points="83,-39.2 83,-56.2 129,-56.2 129,-39.2 83,-39.2"/>
<text text-anchor="start" x="111.4053" y="-44.3" font-family="Helvetica,sans-Serif" font-size="11.00" fill="#000000">2 &gt;</text>
<polygon fill="#000000" stroke="#000000" points="46,-39.2 46,-56.2 46,-56.2 46,-39.2 46,-39.2"/>
<polygon fill="#000000" stroke="#000000" points="83,-39.2 83,-56.2 83,-56.2 83,-39.2 83,-39.2"/>
</a>
</g>
</g>
<!-- auth_user_groups&#45;&gt;auth_group -->
<g id="edge1" class="edge">
<title>auth_user_groups:w&#45;&gt;auth_group:e</title>
<path fill="none" stroke="#000000" d="M167.0468,-137.4012C152.161,-124.5281 156.3017,-90.2 130,-90.2"/>
<polygon fill="#000000" stroke="#000000" points="173.4349,-139.5982 179.8292,-145.6043 177.2175,-140.8991 181,-142.2 181,-142.2 181,-142.2 177.2175,-140.8991 182.1708,-138.7957 173.4349,-139.5982 173.4349,-139.5982"/>
<ellipse fill="none" stroke="#000000" cx="170.4089" cy="-138.5574" rx="3.2" ry="3.2"/>
</g>
<!-- auth_user -->
<g id="node3" class="node">
<title>auth_user</title>
<g id="a_node3"><a xlink:href="../../tables/auth_user.html" xlink:title="auth_user" target="_top">
<polygon fill="#ffffff" stroke="transparent" points="12.5,-145.7 12.5,-250.7 125.5,-250.7 125.5,-145.7 12.5,-145.7"/>
<polygon fill="#f5f5f5" stroke="transparent" points="13,-227.2 13,-250.2 126,-250.2 126,-227.2 13,-227.2"/>
<polygon fill="none" stroke="#000000" points="13,-227.2 13,-250.2 126,-250.2 126,-227.2 13,-227.2"/>
<text text-anchor="start" x="18" y="-235.8" font-family="Helvetica,sans-Serif" font-weight="bold" font-size="11.00" fill="#000000">auth_user</text>
<text text-anchor="start" x="91.0437" y="-235.3" font-family="Helvetica,sans-Serif" font-size="11.00" fill="#000000">[table]</text>
<polygon fill="none" stroke="#000000" points="13,-205.2 13,-227.2 126,-227.2 126,-205.2 13,-205.2"/>
<image xlink:href="../../images/primaryKeys.png" width="11px" height="12px" preserveAspectRatio="xMinYMin meet" x="18" y="-222.2"/>
<text text-anchor="start" x="33" y="-212.3" font-family="Helvetica,sans-Serif" font-size="11.00" fill="#000000">id</text>
<polygon fill="#ffffff" stroke="transparent" points="13,-183.2 13,-205.2 126,-205.2 126,-183.2 13,-183.2"/>
<polygon fill="none" stroke="#000000" points="13,-183.2 13,-205.2 126,-205.2 126,-183.2 13,-183.2"/>
<text text-anchor="start" x="33" y="-190.3" font-family="Helvetica,sans-Serif" font-size="11.00" fill="#000000">username</text>
<polygon fill="none" stroke="#000000" points="13,-164.2 13,-183.2 126,-183.2 126,-164.2 13,-164.2"/>
<text text-anchor="start" x="16" y="-170.3" font-family="Helvetica,sans-Serif" font-size="11.00" fill="#000000">...</text>
<polygon fill="#ffffff" stroke="transparent" points="13,-145.2 13,-164.2 126,-164.2 126,-145.2 13,-145.2"/>
<polygon fill="none" stroke="#000000" points="13,-145.2 13,-164.2 126,-164.2 126,-145.2 13,-145.2"/>
<polygon fill="#ffffff" stroke="transparent" points="14,-146.2 14,-163.2 48,-163.2 48,-146.2 14,-146.2"/>
<text text-anchor="start" x="16" y="-151.3" font-family="Helvetica,sans-Serif" font-size="11.00" fill="#000000"> &#160;</text>
<polygon fill="#ffffff" stroke="transparent" points="48,-146.2 48,-163.2 82,-163.2 82,-146.2 48,-146.2"/>
<text text-anchor="start" x="61.9431" y="-151.3" font-family="Helvetica,sans-Serif" font-size="11.00" fill="#000000"> &#160;</text>
<polygon fill="#ffffff" stroke="transparent" points="82,-146.2 82,-163.2 125,-163.2 125,-146.2 82,-146.2"/>
<text text-anchor="start" x="107.4053" y="-151.3" font-family="Helvetica,sans-Serif" font-size="11.00" fill="#000000">5 &gt;</text>
<polygon fill="#000000" stroke="#000000" points="48,-146.2 48,-163.2 48,-163.2 48,-146.2 48,-146.2"/>
<polygon fill="#000000" stroke="#000000" points="82,-146.2 82,-163.2 82,-163.2 82,-146.2 82,-146.2"/>
</a>
</g>
</g>
<!-- auth_user_groups&#45;&gt;auth_user -->
<g id="edge2" class="edge">
<title>auth_user_groups:w&#45;&gt;auth_user:e</title>
<path fill="none" stroke="#000000" d="M166.781,-168.6335C150.2905,-181.2085 153.5954,-216.2 126,-216.2"/>
<polygon fill="#000000" stroke="#000000" points="173.3626,-166.5814 182.0716,-167.6368 177.1813,-165.3907 181,-164.2 181,-164.2 181,-164.2 177.1813,-165.3907 179.9284,-160.7632 173.3626,-166.5814 173.3626,-166.5814"/>
<ellipse fill="none" stroke="#000000" cx="170.3077" cy="-167.5339" rx="3.2" ry="3.2"/>
</g>
</g>
</svg>
