<?xml version="1.0" encoding="UTF-8" standalone="no"?>
<!DOCTYPE svg PUBLIC "-//W3C//DTD SVG 1.1//EN"
 "http://www.w3.org/Graphics/SVG/1.1/DTD/svg11.dtd">
<!-- Generated by graphviz version 2.40.1 (20161225.0304)
 -->
<!-- Title: twoDegreesRelationshipsDiagram Pages: 1 -->
<svg width="465pt" height="317pt"
 viewBox="0.00 0.00 465.00 316.70" xmlns="http://www.w3.org/2000/svg" xmlns:xlink="http://www.w3.org/1999/xlink">
<g id="graph0" class="graph" transform="scale(1 1) rotate(0) translate(4 312.7)">
<title>twoDegreesRelationshipsDiagram</title>
<polygon fill="#ffffff" stroke="transparent" points="-4,4 -4,-312.7 461,-312.7 461,4 -4,4"/>
<text text-anchor="middle" x="72.4936" y="-7.3" font-family="Helvetica,sans-Serif" font-size="11.00" fill="#000000">Generated by SchemaSpy</text>
<!-- auth_group_permissions -->
<g id="node1" class="node">
<title>auth_group_permissions</title>
<g id="a_node1"><a xlink:href="../../tables/auth_group_permissions.html" xlink:title="auth_group_permissions" target="_top">
<polygon fill="#ffffff" stroke="transparent" points="232,-56.7 232,-164.7 449,-164.7 449,-56.7 232,-56.7"/>
<polygon fill="#f5f5f5" stroke="transparent" points="232.5,-141.7 232.5,-164.7 449.5,-164.7 449.5,-141.7 232.5,-141.7"/>
<polygon fill="none" stroke="#000000" points="232.5,-141.7 232.5,-164.7 449.5,-164.7 449.5,-141.7 232.5,-141.7"/>
<text text-anchor="start" x="237.5" y="-150.3" font-family="Helvetica,sans-Serif" font-weight="bold" font-size="11.00" fill="#000000">auth_group_permissions</text>
<text text-anchor="start" x="415.0219" y="-149.8" font-family="Helvetica,sans-Serif" font-size="11.00" fill="#000000">[table]</text>
<polygon fill="none" stroke="#000000" points="232.5,-119.7 232.5,-141.7 449.5,-141.7 449.5,-119.7 232.5,-119.7"/>
<image xlink:href="../../images/primaryKeys.png" width="11px" height="12px" preserveAspectRatio="xMinYMin meet" x="237.5" y="-136.7"/>
<text text-anchor="start" x="261.5" y="-126.8" font-family="Helvetica,sans-Serif" font-size="11.00" fill="#000000">id</text>
<polygon fill="#ffffff" stroke="transparent" points="232.5,-97.7 232.5,-119.7 449.5,-119.7 449.5,-97.7 232.5,-97.7"/>
<polygon fill="none" stroke="#000000" points="232.5,-97.7 232.5,-119.7 449.5,-119.7 449.5,-97.7 232.5,-97.7"/>
<image xlink:href="../../images/foreignKeys.png" width="11px" height="12px" preserveAspectRatio="xMinYMin meet" x="237.5" y="-114.7"/>
<text text-anchor="start" x="261.5" y="-104.8" font-family="Helvetica,sans-Serif" font-size="11.00" fill="#000000">group_id</text>
<polygon fill="#ffffff" stroke="transparent" points="232.5,-75.7 232.5,-97.7 449.5,-97.7 449.5,-75.7 232.5,-75.7"/>
<polygon fill="none" stroke="#000000" points="232.5,-75.7 232.5,-97.7 449.5,-97.7 449.5,-75.7 232.5,-75.7"/>
<image xlink:href="../../images/foreignKeys.png" width="11px" height="12px" preserveAspectRatio="xMinYMin meet" x="237.5" y="-92.7"/>
<text text-anchor="start" x="261.5" y="-82.8" font-family="Helvetica,sans-Serif" font-size="11.00" fill="#000000">permission_id</text>
<polygon fill="#ffffff" stroke="transparent" points="232.5,-56.7 232.5,-75.7 449.5,-75.7 449.5,-56.7 232.5,-56.7"/>
<polygon fill="none" stroke="#000000" points="232.5,-56.7 232.5,-75.7 449.5,-75.7 449.5,-56.7 232.5,-56.7"/>
<polygon fill="#ffffff" stroke="transparent" points="233.5,-57.7 233.5,-74.7 311.5,-74.7 311.5,-57.7 233.5,-57.7"/>
<text text-anchor="start" x="235.5" y="-62.8" font-family="Helvetica,sans-Serif" font-size="11.00" fill="#000000">&lt; 2</text>
<polygon fill="#ffffff" stroke="transparent" points="311.5,-57.7 311.5,-74.7 380.5,-74.7 380.5,-57.7 311.5,-57.7"/>
<text text-anchor="start" x="342.9431" y="-62.8" font-family="Helvetica,sans-Serif" font-size="11.00" fill="#000000"> &#160;</text>
<polygon fill="#ffffff" stroke="transparent" points="380.5,-57.7 380.5,-74.7 448.5,-74.7 448.5,-57.7 380.5,-57.7"/>
<text text-anchor="start" x="440.3862" y="-62.8" font-family="Helvetica,sans-Serif" font-size="11.00" fill="#000000"> &#160;</text>
<polygon fill="#000000" stroke="#000000" points="311.5,-57.7 311.5,-74.7 311.5,-74.7 311.5,-57.7 311.5,-57.7"/>
<polygon fill="#000000" stroke="#000000" points="380.5,-57.7 380.5,-74.7 380.5,-74.7 380.5,-57.7 380.5,-57.7"/>
</a>
</g>
</g>
<!-- auth_group -->
<g id="node2" class="node">
<title>auth_group</title>
<g id="a_node2"><a xlink:href="../../tables/auth_group.html" xlink:title="auth_group" target="_top">
<polygon fill="#ffffff" stroke="transparent" points="8,-120.7 8,-210.7 183,-210.7 183,-120.7 8,-120.7"/>
<polygon fill="#f5f5f5" stroke="transparent" points="10.5,-185.7 10.5,-208.7 181.5,-208.7 181.5,-185.7 10.5,-185.7"/>
<polygon fill="none" stroke="#000000" points="10.5,-185.7 10.5,-208.7 181.5,-208.7 181.5,-185.7 10.5,-185.7"/>
<text text-anchor="start" x="15.5" y="-194.3" font-family="Helvetica,sans-Serif" font-weight="bold" font-size="11.00" fill="#000000">auth_group</text>
<text text-anchor="start" x="146.5437" y="-193.8" font-family="Helvetica,sans-Serif" font-size="11.00" fill="#000000">[table]</text>
<polygon fill="none" stroke="#000000" points="10.5,-163.7 10.5,-185.7 114.5,-185.7 114.5,-163.7 10.5,-163.7"/>
<image xlink:href="../../images/primaryKeys.png" width="11px" height="12px" preserveAspectRatio="xMinYMin meet" x="15.5" y="-180.7"/>
<text text-anchor="start" x="30.5" y="-170.8" font-family="Helvetica,sans-Serif" font-size="11.00" fill="#000000">id</text>
<polygon fill="none" stroke="#000000" points="114.5,-163.7 114.5,-185.7 181.5,-185.7 181.5,-163.7 114.5,-163.7"/>
<text text-anchor="start" x="117.5" y="-171.4" font-family="Helvetica,sans-Serif" font-size="11.00" fill="#000000">int4[10]</text>
<polygon fill="#ffffff" stroke="transparent" points="10.5,-141.7 10.5,-163.7 114.5,-163.7 114.5,-141.7 10.5,-141.7"/>
<polygon fill="none" stroke="#000000" points="10.5,-141.7 10.5,-163.7 114.5,-163.7 114.5,-141.7 10.5,-141.7"/>
<text text-anchor="start" x="30.5" y="-148.8" font-family="Helvetica,sans-Serif" font-size="11.00" fill="#000000">name</text>
<polygon fill="none" stroke="#000000" points="114.5,-141.7 114.5,-163.7 181.5,-163.7 181.5,-141.7 114.5,-141.7"/>
<text text-anchor="start" x="117.4365" y="-149.4" font-family="Helvetica,sans-Serif" font-size="11.00" fill="#000000">varchar[150]</text>
<polygon fill="#ffffff" stroke="transparent" points="10.5,-122.7 10.5,-141.7 181.5,-141.7 181.5,-122.7 10.5,-122.7"/>
<polygon fill="none" stroke="#000000" points="10.5,-122.7 10.5,-141.7 181.5,-141.7 181.5,-122.7 10.5,-122.7"/>
<polygon fill="#ffffff" stroke="transparent" points="11.5,-123.7 11.5,-140.7 71.5,-140.7 71.5,-123.7 11.5,-123.7"/>
<text text-anchor="start" x="13.5" y="-128.8" font-family="Helvetica,sans-Serif" font-size="11.00" fill="#000000">&lt; 0</text>
<polygon fill="#ffffff" stroke="transparent" points="71.5,-123.7 71.5,-140.7 121.5,-140.7 121.5,-123.7 71.5,-123.7"/>
<text text-anchor="start" x="93.4431" y="-128.8" font-family="Helvetica,sans-Serif" font-size="11.00" fill="#000000"> &#160;</text>
<polygon fill="#ffffff" stroke="transparent" points="121.5,-123.7 121.5,-140.7 180.5,-140.7 180.5,-123.7 121.5,-123.7"/>
<text text-anchor="start" x="162.9053" y="-128.8" font-family="Helvetica,sans-Serif" font-size="11.00" fill="#000000">2 &gt;</text>
<polygon fill="#000000" stroke="#000000" points="71.5,-123.7 71.5,-140.7 71.5,-140.7 71.5,-123.7 71.5,-123.7"/>
<polygon fill="#000000" stroke="#000000" points="121.5,-123.7 121.5,-140.7 121.5,-140.7 121.5,-123.7 121.5,-123.7"/>
<polygon fill="none" stroke="#000000" stroke-width="2" points="9,-121.7 9,-209.7 182,-209.7 182,-121.7 9,-121.7"/>
</a>
</g>
</g>
<!-- auth_group_permissions&#45;&gt;auth_group -->
<g id="edge1" class="edge">
<title>auth_group_permissions:w&#45;&gt;auth_group:e</title>
<path fill="none" stroke="#000000" d="M218.5846,-113.4466C201.402,-128.5798 212.4886,-174.7 181.5,-174.7"/>
<polygon fill="#000000" stroke="#000000" points="224.9284,-111.2827 233.6622,-112.1072 228.7142,-109.9914 232.5,-108.7 232.5,-108.7 232.5,-108.7 228.7142,-109.9914 231.3378,-105.2928 224.9284,-111.2827 224.9284,-111.2827"/>
<ellipse fill="none" stroke="#000000" cx="221.8997" cy="-112.3158" rx="3.2" ry="3.2"/>
</g>
<!-- auth_permission -->
<g id="node3" class="node">
<title>auth_permission</title>
<g id="a_node3"><a xlink:href="../../tables/auth_permission.html" xlink:title="auth_permission" target="_top">
<polygon fill="#ffffff" stroke="transparent" points="16,-38.2 16,-99.2 175,-99.2 175,-38.2 16,-38.2"/>
<polygon fill="#f5f5f5" stroke="transparent" points="16.5,-75.7 16.5,-98.7 175.5,-98.7 175.5,-75.7 16.5,-75.7"/>
<polygon fill="none" stroke="#000000" points="16.5,-75.7 16.5,-98.7 175.5,-98.7 175.5,-75.7 16.5,-75.7"/>
<text text-anchor="start" x="21.5" y="-84.3" font-family="Helvetica,sans-Serif" font-weight="bold" font-size="11.00" fill="#000000">auth_permission</text>
<text text-anchor="start" x="141.0219" y="-83.8" font-family="Helvetica,sans-Serif" font-size="11.00" fill="#000000">[table]</text>
<polygon fill="none" stroke="#000000" points="16.5,-56.7 16.5,-75.7 175.5,-75.7 175.5,-56.7 16.5,-56.7"/>
<text text-anchor="start" x="19.5" y="-62.8" font-family="Helvetica,sans-Serif" font-size="11.00" fill="#000000">...</text>
<polygon fill="#ffffff" stroke="transparent" points="16.5,-37.7 16.5,-56.7 175.5,-56.7 175.5,-37.7 16.5,-37.7"/>
<polygon fill="none" stroke="#000000" points="16.5,-37.7 16.5,-56.7 175.5,-56.7 175.5,-37.7 16.5,-37.7"/>
<polygon fill="#ffffff" stroke="transparent" points="17.5,-38.7 17.5,-55.7 73.5,-55.7 73.5,-38.7 17.5,-38.7"/>
<text text-anchor="start" x="19.5" y="-43.8" font-family="Helvetica,sans-Serif" font-size="11.00" fill="#000000">&lt; 1</text>
<polygon fill="#ffffff" stroke="transparent" points="73.5,-38.7 73.5,-55.7 119.5,-55.7 119.5,-38.7 73.5,-38.7"/>
<text text-anchor="start" x="93.4431" y="-43.8" font-family="Helvetica,sans-Serif" font-size="11.00" fill="#000000"> &#160;</text>
<polygon fill="#ffffff" stroke="transparent" points="119.5,-38.7 119.5,-55.7 174.5,-55.7 174.5,-38.7 119.5,-38.7"/>
<text text-anchor="start" x="156.9053" y="-43.8" font-family="Helvetica,sans-Serif" font-size="11.00" fill="#000000">2 &gt;</text>
<polygon fill="#000000" stroke="#000000" points="73.5,-38.7 73.5,-55.7 73.5,-55.7 73.5,-38.7 73.5,-38.7"/>
<polygon fill="#000000" stroke="#000000" points="119.5,-38.7 119.5,-55.7 119.5,-55.7 119.5,-38.7 119.5,-38.7"/>
</a>
</g>
</g>
<!-- auth_group_permissions&#45;&gt;auth_permission -->
<g id="edge2" class="edge">
<title>auth_group_permissions:w&#45;&gt;auth_permission:e</title>
<path fill="none" stroke="#000000" d="M218.1678,-84.291C203.1671,-78.775 196.8031,-65.7 175.5,-65.7"/>
<polygon fill="#000000" stroke="#000000" points="224.6107,-85.3739 231.9033,-90.2502 228.5553,-86.037 232.5,-86.7 232.5,-86.7 232.5,-86.7 228.5553,-86.037 233.0967,-83.1498 224.6107,-85.3739 224.6107,-85.3739"/>
<ellipse fill="none" stroke="#000000" cx="221.4549" cy="-84.8435" rx="3.2" ry="3.2"/>
</g>
<!-- auth_user_groups -->
<g id="node4" class="node">
<title>auth_user_groups</title>
<g id="a_node4"><a xlink:href="../../tables/auth_user_groups.html" xlink:title="auth_user_groups" target="_top">
<polygon fill="#ffffff" stroke="transparent" points="256.5,-196.7 256.5,-304.7 424.5,-304.7 424.5,-196.7 256.5,-196.7"/>
<polygon fill="#f5f5f5" stroke="transparent" points="256.5,-281.7 256.5,-304.7 424.5,-304.7 424.5,-281.7 256.5,-281.7"/>
<polygon fill="none" stroke="#000000" points="256.5,-281.7 256.5,-304.7 424.5,-304.7 424.5,-281.7 256.5,-281.7"/>
<text text-anchor="start" x="261.5" y="-290.3" font-family="Helvetica,sans-Serif" font-weight="bold" font-size="11.00" fill="#000000">auth_user_groups</text>
<text text-anchor="start" x="390.0219" y="-289.8" font-family="Helvetica,sans-Serif" font-size="11.00" fill="#000000">[table]</text>
<polygon fill="none" stroke="#000000" points="256.5,-259.7 256.5,-281.7 424.5,-281.7 424.5,-259.7 256.5,-259.7"/>
<image xlink:href="../../images/primaryKeys.png" width="11px" height="12px" preserveAspectRatio="xMinYMin meet" x="261.5" y="-276.7"/>
<text text-anchor="start" x="285.5" y="-266.8" font-family="Helvetica,sans-Serif" font-size="11.00" fill="#000000">id</text>
<polygon fill="#ffffff" stroke="transparent" points="256.5,-237.7 256.5,-259.7 424.5,-259.7 424.5,-237.7 256.5,-237.7"/>
<polygon fill="none" stroke="#000000" points="256.5,-237.7 256.5,-259.7 424.5,-259.7 424.5,-237.7 256.5,-237.7"/>
<image xlink:href="../../images/foreignKeys.png" width="11px" height="12px" preserveAspectRatio="xMinYMin meet" x="261.5" y="-254.7"/>
<text text-anchor="start" x="285.5" y="-244.8" font-family="Helvetica,sans-Serif" font-size="11.00" fill="#000000">user_id</text>
<polygon fill="#ffffff" stroke="transparent" points="256.5,-215.7 256.5,-237.7 424.5,-237.7 424.5,-215.7 256.5,-215.7"/>
<polygon fill="none" stroke="#000000" points="256.5,-215.7 256.5,-237.7 424.5,-237.7 424.5,-215.7 256.5,-215.7"/>
<image xlink:href="../../images/foreignKeys.png" width="11px" height="12px" preserveAspectRatio="xMinYMin meet" x="261.5" y="-232.7"/>
<text text-anchor="start" x="285.5" y="-222.8" font-family="Helvetica,sans-Serif" font-size="11.00" fill="#000000">group_id</text>
<polygon fill="#ffffff" stroke="transparent" points="256.5,-196.7 256.5,-215.7 424.5,-215.7 424.5,-196.7 256.5,-196.7"/>
<polygon fill="none" stroke="#000000" points="256.5,-196.7 256.5,-215.7 424.5,-215.7 424.5,-196.7 256.5,-196.7"/>
<polygon fill="#ffffff" stroke="transparent" points="257.5,-197.7 257.5,-214.7 319.5,-214.7 319.5,-197.7 257.5,-197.7"/>
<text text-anchor="start" x="259.5" y="-202.8" font-family="Helvetica,sans-Serif" font-size="11.00" fill="#000000">&lt; 2</text>
<polygon fill="#ffffff" stroke="transparent" points="319.5,-197.7 319.5,-214.7 371.5,-214.7 371.5,-197.7 319.5,-197.7"/>
<text text-anchor="start" x="342.4431" y="-202.8" font-family="Helvetica,sans-Serif" font-size="11.00" fill="#000000"> &#160;</text>
<polygon fill="#ffffff" stroke="transparent" points="371.5,-197.7 371.5,-214.7 423.5,-214.7 423.5,-197.7 371.5,-197.7"/>
<text text-anchor="start" x="415.3862" y="-202.8" font-family="Helvetica,sans-Serif" font-size="11.00" fill="#000000"> &#160;</text>
<polygon fill="#000000" stroke="#000000" points="319.5,-197.7 319.5,-214.7 319.5,-214.7 319.5,-197.7 319.5,-197.7"/>
<polygon fill="#000000" stroke="#000000" points="371.5,-197.7 371.5,-214.7 371.5,-214.7 371.5,-197.7 371.5,-197.7"/>
</a>
</g>
</g>
<!-- auth_user_groups&#45;&gt;auth_group -->
<g id="edge3" class="edge">
<title>auth_user_groups:w&#45;&gt;auth_group:e</title>
<path fill="none" stroke="#000000" d="M242.2427,-224.0498C216.7401,-213.4532 216.516,-174.7 181.5,-174.7"/>
<polygon fill="#000000" stroke="#000000" points="248.6347,-225.2379 255.8421,-230.2394 252.5674,-225.969 256.5,-226.7 256.5,-226.7 256.5,-226.7 252.5674,-225.969 257.1579,-223.1606 248.6347,-225.2379 248.6347,-225.2379"/>
<ellipse fill="none" stroke="#000000" cx="245.4886" cy="-224.6531" rx="3.2" ry="3.2"/>
</g>
<!-- auth_user -->
<g id="node5" class="node">
<title>auth_user</title>
<g id="a_node5"><a xlink:href="../../tables/auth_user.html" xlink:title="auth_user" target="_top">
<polygon fill="#ffffff" stroke="transparent" points="40,-232.2 40,-293.2 151,-293.2 151,-232.2 40,-232.2"/>
<polygon fill="#f5f5f5" stroke="transparent" points="40.5,-269.7 40.5,-292.7 151.5,-292.7 151.5,-269.7 40.5,-269.7"/>
<polygon fill="none" stroke="#000000" points="40.5,-269.7 40.5,-292.7 151.5,-292.7 151.5,-269.7 40.5,-269.7"/>
<text text-anchor="start" x="45.5" y="-278.3" font-family="Helvetica,sans-Serif" font-weight="bold" font-size="11.00" fill="#000000">auth_user</text>
<text text-anchor="start" x="117.0219" y="-277.8" font-family="Helvetica,sans-Serif" font-size="11.00" fill="#000000">[table]</text>
<polygon fill="none" stroke="#000000" points="40.5,-250.7 40.5,-269.7 151.5,-269.7 151.5,-250.7 40.5,-250.7"/>
<text text-anchor="start" x="43.5" y="-256.8" font-family="Helvetica,sans-Serif" font-size="11.00" fill="#000000">...</text>
<polygon fill="#ffffff" stroke="transparent" points="40.5,-231.7 40.5,-250.7 151.5,-250.7 151.5,-231.7 40.5,-231.7"/>
<polygon fill="none" stroke="#000000" points="40.5,-231.7 40.5,-250.7 151.5,-250.7 151.5,-231.7 40.5,-231.7"/>
<polygon fill="#ffffff" stroke="transparent" points="41.5,-232.7 41.5,-249.7 75.5,-249.7 75.5,-232.7 41.5,-232.7"/>
<text text-anchor="start" x="43.5" y="-237.8" font-family="Helvetica,sans-Serif" font-size="11.00" fill="#000000"> &#160;</text>
<polygon fill="#ffffff" stroke="transparent" points="75.5,-232.7 75.5,-249.7 108.5,-249.7 108.5,-232.7 75.5,-232.7"/>
<text text-anchor="start" x="88.9431" y="-237.8" font-family="Helvetica,sans-Serif" font-size="11.00" fill="#000000"> &#160;</text>
<polygon fill="#ffffff" stroke="transparent" points="108.5,-232.7 108.5,-249.7 150.5,-249.7 150.5,-232.7 108.5,-232.7"/>
<text text-anchor="start" x="132.9053" y="-237.8" font-family="Helvetica,sans-Serif" font-size="11.00" fill="#000000">5 &gt;</text>
<polygon fill="#000000" stroke="#000000" points="75.5,-232.7 75.5,-249.7 75.5,-249.7 75.5,-232.7 75.5,-232.7"/>
<polygon fill="#000000" stroke="#000000" points="108.5,-232.7 108.5,-249.7 108.5,-249.7 108.5,-232.7 108.5,-232.7"/>
</a>
</g>
</g>
<!-- auth_user_groups&#45;&gt;auth_user -->
<g id="edge4" class="edge">
<title>auth_user_groups:w&#45;&gt;auth_user:e</title>
<path fill="none" stroke="#000000" d="M241.8268,-249.0915C206.5915,-251.051 193.1067,-259.7 151.5,-259.7"/>
<polygon fill="#000000" stroke="#000000" points="248.5028,-248.9134 256.596,-252.2987 252.5014,-248.8067 256.5,-248.7 256.5,-248.7 256.5,-248.7 252.5014,-248.8067 256.404,-245.1013 248.5028,-248.9134 248.5028,-248.9134"/>
<ellipse fill="none" stroke="#000000" cx="245.304" cy="-248.9988" rx="3.2" ry="3.2"/>
</g>
</g>
</svg>
