<?xml version="1.0" encoding="UTF-8" standalone="no"?>
<!DOCTYPE svg PUBLIC "-//W3C//DTD SVG 1.1//EN"
 "http://www.w3.org/Graphics/SVG/1.1/DTD/svg11.dtd">
<!-- Generated by graphviz version 2.40.1 (20161225.0304)
 -->
<!-- Title: twoDegreesRelationshipsDiagram Pages: 1 -->
<svg width="894pt" height="713pt"
 viewBox="0.00 0.00 894.00 712.70" xmlns="http://www.w3.org/2000/svg" xmlns:xlink="http://www.w3.org/1999/xlink">
<g id="graph0" class="graph" transform="scale(1 1) rotate(0) translate(4 708.7)">
<title>twoDegreesRelationshipsDiagram</title>
<polygon fill="#ffffff" stroke="transparent" points="-4,4 -4,-708.7 890,-708.7 890,4 -4,4"/>
<text text-anchor="middle" x="72.4936" y="-7.3" font-family="Helvetica,sans-Serif" font-size="11.00" fill="#000000">Generated by SchemaSpy</text>
<!-- auth_permission -->
<g id="node1" class="node">
<title>auth_permission</title>
<g id="a_node1"><a xlink:href="../../tables/auth_permission.html" xlink:title="auth_permission" target="_top">
<polygon fill="#ffffff" stroke="transparent" points="329.5,-639.7 329.5,-700.7 488.5,-700.7 488.5,-639.7 329.5,-639.7"/>
<polygon fill="#f5f5f5" stroke="transparent" points="330,-677.2 330,-700.2 489,-700.2 489,-677.2 330,-677.2"/>
<polygon fill="none" stroke="#000000" points="330,-677.2 330,-700.2 489,-700.2 489,-677.2 330,-677.2"/>
<text text-anchor="start" x="335" y="-685.8" font-family="Helvetica,sans-Serif" font-weight="bold" font-size="11.00" fill="#000000">auth_permission</text>
<text text-anchor="start" x="454.5219" y="-685.3" font-family="Helvetica,sans-Serif" font-size="11.00" fill="#000000">[table]</text>
<polygon fill="none" stroke="#000000" points="330,-658.2 330,-677.2 489,-677.2 489,-658.2 330,-658.2"/>
<text text-anchor="start" x="333" y="-664.3" font-family="Helvetica,sans-Serif" font-size="11.00" fill="#000000">...</text>
<polygon fill="#ffffff" stroke="transparent" points="330,-639.2 330,-658.2 489,-658.2 489,-639.2 330,-639.2"/>
<polygon fill="none" stroke="#000000" points="330,-639.2 330,-658.2 489,-658.2 489,-639.2 330,-639.2"/>
<polygon fill="#ffffff" stroke="transparent" points="331,-640.2 331,-657.2 387,-657.2 387,-640.2 331,-640.2"/>
<text text-anchor="start" x="333" y="-645.3" font-family="Helvetica,sans-Serif" font-size="11.00" fill="#000000">&lt; 1</text>
<polygon fill="#ffffff" stroke="transparent" points="387,-640.2 387,-657.2 433,-657.2 433,-640.2 387,-640.2"/>
<text text-anchor="start" x="406.9431" y="-645.3" font-family="Helvetica,sans-Serif" font-size="11.00" fill="#000000"> &#160;</text>
<polygon fill="#ffffff" stroke="transparent" points="433,-640.2 433,-657.2 488,-657.2 488,-640.2 433,-640.2"/>
<text text-anchor="start" x="470.4053" y="-645.3" font-family="Helvetica,sans-Serif" font-size="11.00" fill="#000000">2 &gt;</text>
<polygon fill="#000000" stroke="#000000" points="387,-640.2 387,-657.2 387,-657.2 387,-640.2 387,-640.2"/>
<polygon fill="#000000" stroke="#000000" points="433,-640.2 433,-657.2 433,-657.2 433,-640.2 433,-640.2"/>
</a>
</g>
</g>
<!-- django_content_type -->
<g id="node2" class="node">
<title>django_content_type</title>
<g id="a_node2"><a xlink:href="../../tables/django_content_type.html" xlink:title="django_content_type" target="_top">
<polygon fill="#ffffff" stroke="transparent" points="17,-586.7 17,-647.7 208,-647.7 208,-586.7 17,-586.7"/>
<polygon fill="#f5f5f5" stroke="transparent" points="17.5,-624.2 17.5,-647.2 208.5,-647.2 208.5,-624.2 17.5,-624.2"/>
<polygon fill="none" stroke="#000000" points="17.5,-624.2 17.5,-647.2 208.5,-647.2 208.5,-624.2 17.5,-624.2"/>
<text text-anchor="start" x="22.5" y="-632.8" font-family="Helvetica,sans-Serif" font-weight="bold" font-size="11.00" fill="#000000">django_content_type</text>
<text text-anchor="start" x="174.0219" y="-632.3" font-family="Helvetica,sans-Serif" font-size="11.00" fill="#000000">[table]</text>
<polygon fill="none" stroke="#000000" points="17.5,-605.2 17.5,-624.2 208.5,-624.2 208.5,-605.2 17.5,-605.2"/>
<text text-anchor="start" x="20.5" y="-611.3" font-family="Helvetica,sans-Serif" font-size="11.00" fill="#000000">...</text>
<polygon fill="#ffffff" stroke="transparent" points="17.5,-586.2 17.5,-605.2 208.5,-605.2 208.5,-586.2 17.5,-586.2"/>
<polygon fill="none" stroke="#000000" points="17.5,-586.2 17.5,-605.2 208.5,-605.2 208.5,-586.2 17.5,-586.2"/>
<polygon fill="#ffffff" stroke="transparent" points="18.5,-587.2 18.5,-604.2 78.5,-604.2 78.5,-587.2 18.5,-587.2"/>
<text text-anchor="start" x="20.5" y="-592.3" font-family="Helvetica,sans-Serif" font-size="11.00" fill="#000000"> &#160;</text>
<polygon fill="#ffffff" stroke="transparent" points="78.5,-587.2 78.5,-604.2 138.5,-604.2 138.5,-587.2 78.5,-587.2"/>
<text text-anchor="start" x="105.4431" y="-592.3" font-family="Helvetica,sans-Serif" font-size="11.00" fill="#000000"> &#160;</text>
<polygon fill="#ffffff" stroke="transparent" points="138.5,-587.2 138.5,-604.2 207.5,-604.2 207.5,-587.2 138.5,-587.2"/>
<text text-anchor="start" x="189.9053" y="-592.3" font-family="Helvetica,sans-Serif" font-size="11.00" fill="#000000">2 &gt;</text>
<polygon fill="#000000" stroke="#000000" points="78.5,-587.2 78.5,-604.2 78.5,-604.2 78.5,-587.2 78.5,-587.2"/>
<polygon fill="#000000" stroke="#000000" points="138.5,-587.2 138.5,-604.2 138.5,-604.2 138.5,-587.2 138.5,-587.2"/>
</a>
</g>
</g>
<!-- auth_permission&#45;&gt;django_content_type -->
<g id="edge1" class="edge">
<title>auth_permission:w&#45;&gt;django_content_type:e</title>
<path fill="none" stroke="#000000" d="M315.3784,-665.9934C269.9803,-658.1044 262.121,-614.2 208.5,-614.2"/>
<polygon fill="#000000" stroke="#000000" points="322.0271,-666.542 329.7039,-670.7878 326.0135,-666.871 330,-667.2 330,-667.2 330,-667.2 326.0135,-666.871 330.2961,-663.6122 322.0271,-666.542 322.0271,-666.542"/>
<ellipse fill="none" stroke="#000000" cx="318.8379" cy="-666.2788" rx="3.2" ry="3.2"/>
</g>
<!-- auth_user_groups -->
<g id="node3" class="node">
<title>auth_user_groups</title>
<g id="a_node3"><a xlink:href="../../tables/auth_user_groups.html" xlink:title="auth_user_groups" target="_top">
<polygon fill="#ffffff" stroke="transparent" points="325,-38.2 325,-146.2 493,-146.2 493,-38.2 325,-38.2"/>
<polygon fill="#f5f5f5" stroke="transparent" points="325,-123.2 325,-146.2 493,-146.2 493,-123.2 325,-123.2"/>
<polygon fill="none" stroke="#000000" points="325,-123.2 325,-146.2 493,-146.2 493,-123.2 325,-123.2"/>
<text text-anchor="start" x="330" y="-131.8" font-family="Helvetica,sans-Serif" font-weight="bold" font-size="11.00" fill="#000000">auth_user_groups</text>
<text text-anchor="start" x="458.5219" y="-131.3" font-family="Helvetica,sans-Serif" font-size="11.00" fill="#000000">[table]</text>
<polygon fill="none" stroke="#000000" points="325,-101.2 325,-123.2 493,-123.2 493,-101.2 325,-101.2"/>
<image xlink:href="../../images/primaryKeys.png" width="11px" height="12px" preserveAspectRatio="xMinYMin meet" x="330" y="-118.2"/>
<text text-anchor="start" x="354" y="-108.3" font-family="Helvetica,sans-Serif" font-size="11.00" fill="#000000">id</text>
<polygon fill="#ffffff" stroke="transparent" points="325,-79.2 325,-101.2 493,-101.2 493,-79.2 325,-79.2"/>
<polygon fill="none" stroke="#000000" points="325,-79.2 325,-101.2 493,-101.2 493,-79.2 325,-79.2"/>
<image xlink:href="../../images/foreignKeys.png" width="11px" height="12px" preserveAspectRatio="xMinYMin meet" x="330" y="-96.2"/>
<text text-anchor="start" x="354" y="-86.3" font-family="Helvetica,sans-Serif" font-size="11.00" fill="#000000">user_id</text>
<polygon fill="#ffffff" stroke="transparent" points="325,-57.2 325,-79.2 493,-79.2 493,-57.2 325,-57.2"/>
<polygon fill="none" stroke="#000000" points="325,-57.2 325,-79.2 493,-79.2 493,-57.2 325,-57.2"/>
<image xlink:href="../../images/foreignKeys.png" width="11px" height="12px" preserveAspectRatio="xMinYMin meet" x="330" y="-74.2"/>
<text text-anchor="start" x="354" y="-64.3" font-family="Helvetica,sans-Serif" font-size="11.00" fill="#000000">group_id</text>
<polygon fill="#ffffff" stroke="transparent" points="325,-38.2 325,-57.2 493,-57.2 493,-38.2 325,-38.2"/>
<polygon fill="none" stroke="#000000" points="325,-38.2 325,-57.2 493,-57.2 493,-38.2 325,-38.2"/>
<polygon fill="#ffffff" stroke="transparent" points="326,-39.2 326,-56.2 388,-56.2 388,-39.2 326,-39.2"/>
<text text-anchor="start" x="328" y="-44.3" font-family="Helvetica,sans-Serif" font-size="11.00" fill="#000000">&lt; 2</text>
<polygon fill="#ffffff" stroke="transparent" points="388,-39.2 388,-56.2 440,-56.2 440,-39.2 388,-39.2"/>
<text text-anchor="start" x="410.9431" y="-44.3" font-family="Helvetica,sans-Serif" font-size="11.00" fill="#000000"> &#160;</text>
<polygon fill="#ffffff" stroke="transparent" points="440,-39.2 440,-56.2 492,-56.2 492,-39.2 440,-39.2"/>
<text text-anchor="start" x="483.8862" y="-44.3" font-family="Helvetica,sans-Serif" font-size="11.00" fill="#000000"> &#160;</text>
<polygon fill="#000000" stroke="#000000" points="388,-39.2 388,-56.2 388,-56.2 388,-39.2 388,-39.2"/>
<polygon fill="#000000" stroke="#000000" points="440,-39.2 440,-56.2 440,-56.2 440,-39.2 440,-39.2"/>
</a>
</g>
</g>
<!-- auth_group -->
<g id="node4" class="node">
<title>auth_group</title>
<g id="a_node4"><a xlink:href="../../tables/auth_group.html" xlink:title="auth_group" target="_top">
<polygon fill="#ffffff" stroke="transparent" points="51.5,-40.7 51.5,-101.7 173.5,-101.7 173.5,-40.7 51.5,-40.7"/>
<polygon fill="#f5f5f5" stroke="transparent" points="51.5,-78.2 51.5,-101.2 173.5,-101.2 173.5,-78.2 51.5,-78.2"/>
<polygon fill="none" stroke="#000000" points="51.5,-78.2 51.5,-101.2 173.5,-101.2 173.5,-78.2 51.5,-78.2"/>
<text text-anchor="start" x="56.5" y="-86.8" font-family="Helvetica,sans-Serif" font-weight="bold" font-size="11.00" fill="#000000">auth_group</text>
<text text-anchor="start" x="139.0219" y="-86.3" font-family="Helvetica,sans-Serif" font-size="11.00" fill="#000000">[table]</text>
<polygon fill="none" stroke="#000000" points="51.5,-59.2 51.5,-78.2 173.5,-78.2 173.5,-59.2 51.5,-59.2"/>
<text text-anchor="start" x="54.5" y="-65.3" font-family="Helvetica,sans-Serif" font-size="11.00" fill="#000000">...</text>
<polygon fill="#ffffff" stroke="transparent" points="51.5,-40.2 51.5,-59.2 173.5,-59.2 173.5,-40.2 51.5,-40.2"/>
<polygon fill="none" stroke="#000000" points="51.5,-40.2 51.5,-59.2 173.5,-59.2 173.5,-40.2 51.5,-40.2"/>
<polygon fill="#ffffff" stroke="transparent" points="52.5,-41.2 52.5,-58.2 89.5,-58.2 89.5,-41.2 52.5,-41.2"/>
<text text-anchor="start" x="54.5" y="-46.3" font-family="Helvetica,sans-Serif" font-size="11.00" fill="#000000"> &#160;</text>
<polygon fill="#ffffff" stroke="transparent" points="89.5,-41.2 89.5,-58.2 126.5,-58.2 126.5,-41.2 89.5,-41.2"/>
<text text-anchor="start" x="104.9431" y="-46.3" font-family="Helvetica,sans-Serif" font-size="11.00" fill="#000000"> &#160;</text>
<polygon fill="#ffffff" stroke="transparent" points="126.5,-41.2 126.5,-58.2 172.5,-58.2 172.5,-41.2 126.5,-41.2"/>
<text text-anchor="start" x="154.9053" y="-46.3" font-family="Helvetica,sans-Serif" font-size="11.00" fill="#000000">2 &gt;</text>
<polygon fill="#000000" stroke="#000000" points="89.5,-41.2 89.5,-58.2 89.5,-58.2 89.5,-41.2 89.5,-41.2"/>
<polygon fill="#000000" stroke="#000000" points="126.5,-41.2 126.5,-58.2 126.5,-58.2 126.5,-41.2 126.5,-41.2"/>
</a>
</g>
</g>
<!-- auth_user_groups&#45;&gt;auth_group -->
<g id="edge2" class="edge">
<title>auth_user_groups:w&#45;&gt;auth_group:e</title>
<path fill="none" stroke="#000000" d="M310.4477,-68.2C254.8092,-68.2 235.7044,-68.2 173.5,-68.2"/>
<polygon fill="#000000" stroke="#000000" points="317,-68.2001 325,-71.8 321,-68.2 325,-68.2 325,-68.2 325,-68.2 321,-68.2 325,-64.6 317,-68.2001 317,-68.2001"/>
<ellipse fill="none" stroke="#000000" cx="313.8" cy="-68.2001" rx="3.2" ry="3.2"/>
</g>
<!-- auth_user -->
<g id="node5" class="node">
<title>auth_user</title>
<g id="a_node5"><a xlink:href="../../tables/auth_user.html" xlink:title="auth_user" target="_top">
<polygon fill="#ffffff" stroke="transparent" points="8,-134.2 8,-422.2 217,-422.2 217,-134.2 8,-134.2"/>
<polygon fill="#f5f5f5" stroke="transparent" points="10.5,-397.2 10.5,-420.2 215.5,-420.2 215.5,-397.2 10.5,-397.2"/>
<polygon fill="none" stroke="#000000" points="10.5,-397.2 10.5,-420.2 215.5,-420.2 215.5,-397.2 10.5,-397.2"/>
<text text-anchor="start" x="15.5" y="-405.8" font-family="Helvetica,sans-Serif" font-weight="bold" font-size="11.00" fill="#000000">auth_user</text>
<text text-anchor="start" x="180.5437" y="-405.3" font-family="Helvetica,sans-Serif" font-size="11.00" fill="#000000">[table]</text>
<polygon fill="none" stroke="#000000" points="10.5,-375.2 10.5,-397.2 123.5,-397.2 123.5,-375.2 10.5,-375.2"/>
<image xlink:href="../../images/primaryKeys.png" width="11px" height="12px" preserveAspectRatio="xMinYMin meet" x="15.5" y="-392.2"/>
<text text-anchor="start" x="30.5" y="-382.3" font-family="Helvetica,sans-Serif" font-size="11.00" fill="#000000">id</text>
<polygon fill="none" stroke="#000000" points="123.5,-375.2 123.5,-397.2 215.5,-397.2 215.5,-375.2 123.5,-375.2"/>
<text text-anchor="start" x="126.5" y="-382.9" font-family="Helvetica,sans-Serif" font-size="11.00" fill="#000000">int4[10]</text>
<polygon fill="none" stroke="#000000" points="10.5,-353.2 10.5,-375.2 123.5,-375.2 123.5,-353.2 10.5,-353.2"/>
<text text-anchor="start" x="30.5" y="-360.3" font-family="Helvetica,sans-Serif" font-size="11.00" fill="#000000">password</text>
<polygon fill="none" stroke="#000000" points="123.5,-353.2 123.5,-375.2 215.5,-375.2 215.5,-353.2 123.5,-353.2"/>
<text text-anchor="start" x="126.5" y="-360.9" font-family="Helvetica,sans-Serif" font-size="11.00" fill="#000000">varchar[128]</text>
<polygon fill="none" stroke="#000000" points="10.5,-331.2 10.5,-353.2 123.5,-353.2 123.5,-331.2 10.5,-331.2"/>
<text text-anchor="start" x="30.5" y="-338.3" font-family="Helvetica,sans-Serif" font-size="11.00" fill="#000000">last_login</text>
<polygon fill="none" stroke="#000000" points="123.5,-331.2 123.5,-353.2 215.5,-353.2 215.5,-331.2 123.5,-331.2"/>
<text text-anchor="start" x="126.1023" y="-338.9" font-family="Helvetica,sans-Serif" font-size="11.00" fill="#000000">timestamptz[35,6]</text>
<polygon fill="none" stroke="#000000" points="10.5,-309.2 10.5,-331.2 123.5,-331.2 123.5,-309.2 10.5,-309.2"/>
<text text-anchor="start" x="30.5" y="-316.3" font-family="Helvetica,sans-Serif" font-size="11.00" fill="#000000">is_superuser</text>
<polygon fill="none" stroke="#000000" points="123.5,-309.2 123.5,-331.2 215.5,-331.2 215.5,-309.2 123.5,-309.2"/>
<text text-anchor="start" x="126.5" y="-316.9" font-family="Helvetica,sans-Serif" font-size="11.00" fill="#000000">bool[1]</text>
<polygon fill="#ffffff" stroke="transparent" points="10.5,-287.2 10.5,-309.2 123.5,-309.2 123.5,-287.2 10.5,-287.2"/>
<polygon fill="none" stroke="#000000" points="10.5,-287.2 10.5,-309.2 123.5,-309.2 123.5,-287.2 10.5,-287.2"/>
<text text-anchor="start" x="30.5" y="-294.3" font-family="Helvetica,sans-Serif" font-size="11.00" fill="#000000">username</text>
<polygon fill="none" stroke="#000000" points="123.5,-287.2 123.5,-309.2 215.5,-309.2 215.5,-287.2 123.5,-287.2"/>
<text text-anchor="start" x="126.5" y="-294.9" font-family="Helvetica,sans-Serif" font-size="11.00" fill="#000000">varchar[150]</text>
<polygon fill="none" stroke="#000000" points="10.5,-265.2 10.5,-287.2 123.5,-287.2 123.5,-265.2 10.5,-265.2"/>
<text text-anchor="start" x="30.5" y="-272.3" font-family="Helvetica,sans-Serif" font-size="11.00" fill="#000000">first_name</text>
<polygon fill="none" stroke="#000000" points="123.5,-265.2 123.5,-287.2 215.5,-287.2 215.5,-265.2 123.5,-265.2"/>
<text text-anchor="start" x="126.5" y="-272.9" font-family="Helvetica,sans-Serif" font-size="11.00" fill="#000000">varchar[150]</text>
<polygon fill="none" stroke="#000000" points="10.5,-243.2 10.5,-265.2 123.5,-265.2 123.5,-243.2 10.5,-243.2"/>
<text text-anchor="start" x="30.5" y="-250.3" font-family="Helvetica,sans-Serif" font-size="11.00" fill="#000000">last_name</text>
<polygon fill="none" stroke="#000000" points="123.5,-243.2 123.5,-265.2 215.5,-265.2 215.5,-243.2 123.5,-243.2"/>
<text text-anchor="start" x="126.5" y="-250.9" font-family="Helvetica,sans-Serif" font-size="11.00" fill="#000000">varchar[150]</text>
<polygon fill="none" stroke="#000000" points="10.5,-221.2 10.5,-243.2 123.5,-243.2 123.5,-221.2 10.5,-221.2"/>
<text text-anchor="start" x="30.5" y="-228.3" font-family="Helvetica,sans-Serif" font-size="11.00" fill="#000000">email</text>
<polygon fill="none" stroke="#000000" points="123.5,-221.2 123.5,-243.2 215.5,-243.2 215.5,-221.2 123.5,-221.2"/>
<text text-anchor="start" x="126.5" y="-228.9" font-family="Helvetica,sans-Serif" font-size="11.00" fill="#000000">varchar[254]</text>
<polygon fill="none" stroke="#000000" points="10.5,-199.2 10.5,-221.2 123.5,-221.2 123.5,-199.2 10.5,-199.2"/>
<text text-anchor="start" x="30.5" y="-206.3" font-family="Helvetica,sans-Serif" font-size="11.00" fill="#000000">is_staff</text>
<polygon fill="none" stroke="#000000" points="123.5,-199.2 123.5,-221.2 215.5,-221.2 215.5,-199.2 123.5,-199.2"/>
<text text-anchor="start" x="126.5" y="-206.9" font-family="Helvetica,sans-Serif" font-size="11.00" fill="#000000">bool[1]</text>
<polygon fill="none" stroke="#000000" points="10.5,-177.2 10.5,-199.2 123.5,-199.2 123.5,-177.2 10.5,-177.2"/>
<text text-anchor="start" x="30.5" y="-184.3" font-family="Helvetica,sans-Serif" font-size="11.00" fill="#000000">is_active</text>
<polygon fill="none" stroke="#000000" points="123.5,-177.2 123.5,-199.2 215.5,-199.2 215.5,-177.2 123.5,-177.2"/>
<text text-anchor="start" x="126.5" y="-184.9" font-family="Helvetica,sans-Serif" font-size="11.00" fill="#000000">bool[1]</text>
<polygon fill="none" stroke="#000000" points="10.5,-155.2 10.5,-177.2 123.5,-177.2 123.5,-155.2 10.5,-155.2"/>
<text text-anchor="start" x="30.5" y="-162.3" font-family="Helvetica,sans-Serif" font-size="11.00" fill="#000000">date_joined</text>
<polygon fill="none" stroke="#000000" points="123.5,-155.2 123.5,-177.2 215.5,-177.2 215.5,-155.2 123.5,-155.2"/>
<text text-anchor="start" x="126.1023" y="-162.9" font-family="Helvetica,sans-Serif" font-size="11.00" fill="#000000">timestamptz[35,6]</text>
<polygon fill="#ffffff" stroke="transparent" points="10.5,-136.2 10.5,-155.2 215.5,-155.2 215.5,-136.2 10.5,-136.2"/>
<polygon fill="none" stroke="#000000" points="10.5,-136.2 10.5,-155.2 215.5,-155.2 215.5,-136.2 10.5,-136.2"/>
<polygon fill="#ffffff" stroke="transparent" points="11.5,-137.2 11.5,-154.2 82.5,-154.2 82.5,-137.2 11.5,-137.2"/>
<text text-anchor="start" x="13.5" y="-142.3" font-family="Helvetica,sans-Serif" font-size="11.00" fill="#000000">&lt; 0</text>
<polygon fill="#ffffff" stroke="transparent" points="82.5,-137.2 82.5,-154.2 144.5,-154.2 144.5,-137.2 82.5,-137.2"/>
<text text-anchor="start" x="110.4431" y="-142.3" font-family="Helvetica,sans-Serif" font-size="11.00" fill="#000000"> &#160;</text>
<polygon fill="#ffffff" stroke="transparent" points="144.5,-137.2 144.5,-154.2 214.5,-154.2 214.5,-137.2 144.5,-137.2"/>
<text text-anchor="start" x="196.9053" y="-142.3" font-family="Helvetica,sans-Serif" font-size="11.00" fill="#000000">5 &gt;</text>
<polygon fill="#000000" stroke="#000000" points="82.5,-137.2 82.5,-154.2 82.5,-154.2 82.5,-137.2 82.5,-137.2"/>
<polygon fill="#000000" stroke="#000000" points="144.5,-137.2 144.5,-154.2 144.5,-154.2 144.5,-137.2 144.5,-137.2"/>
<polygon fill="none" stroke="#000000" stroke-width="2" points="9,-135.2 9,-421.2 216,-421.2 216,-135.2 9,-135.2"/>
</a>
</g>
</g>
<!-- auth_user_groups&#45;&gt;auth_user -->
<g id="edge3" class="edge">
<title>auth_user_groups:w&#45;&gt;auth_user:e</title>
<path fill="none" stroke="#000000" d="M310.4412,-91.6347C281.2896,-97.9909 275.0844,-124.7375 258,-157.2 233.8952,-203.0022 267.2579,-386.2 215.5,-386.2"/>
<polygon fill="#000000" stroke="#000000" points="317.0386,-90.9846 325.3531,-93.7826 321.0193,-90.5923 325,-90.2 325,-90.2 325,-90.2 321.0193,-90.5923 324.6469,-86.6174 317.0386,-90.9846 317.0386,-90.9846"/>
<ellipse fill="none" stroke="#000000" cx="313.854" cy="-91.2984" rx="3.2" ry="3.2"/>
</g>
<!-- auth_user_user_permissions -->
<g id="node6" class="node">
<title>auth_user_user_permissions</title>
<g id="a_node6"><a xlink:href="../../tables/auth_user_user_permissions.html" xlink:title="auth_user_user_permissions" target="_top">
<polygon fill="#ffffff" stroke="transparent" points="617.5,-550.2 617.5,-658.2 861.5,-658.2 861.5,-550.2 617.5,-550.2"/>
<polygon fill="#f5f5f5" stroke="transparent" points="617.5,-635.2 617.5,-658.2 861.5,-658.2 861.5,-635.2 617.5,-635.2"/>
<polygon fill="none" stroke="#000000" points="617.5,-635.2 617.5,-658.2 861.5,-658.2 861.5,-635.2 617.5,-635.2"/>
<text text-anchor="start" x="622.5" y="-643.8" font-family="Helvetica,sans-Serif" font-weight="bold" font-size="11.00" fill="#000000">auth_user_user_permissions</text>
<text text-anchor="start" x="827.0219" y="-643.3" font-family="Helvetica,sans-Serif" font-size="11.00" fill="#000000">[table]</text>
<polygon fill="none" stroke="#000000" points="617.5,-613.2 617.5,-635.2 861.5,-635.2 861.5,-613.2 617.5,-613.2"/>
<image xlink:href="../../images/primaryKeys.png" width="11px" height="12px" preserveAspectRatio="xMinYMin meet" x="622.5" y="-630.2"/>
<text text-anchor="start" x="646.5" y="-620.3" font-family="Helvetica,sans-Serif" font-size="11.00" fill="#000000">id</text>
<polygon fill="#ffffff" stroke="transparent" points="617.5,-591.2 617.5,-613.2 861.5,-613.2 861.5,-591.2 617.5,-591.2"/>
<polygon fill="none" stroke="#000000" points="617.5,-591.2 617.5,-613.2 861.5,-613.2 861.5,-591.2 617.5,-591.2"/>
<image xlink:href="../../images/foreignKeys.png" width="11px" height="12px" preserveAspectRatio="xMinYMin meet" x="622.5" y="-608.2"/>
<text text-anchor="start" x="646.5" y="-598.3" font-family="Helvetica,sans-Serif" font-size="11.00" fill="#000000">user_id</text>
<polygon fill="#ffffff" stroke="transparent" points="617.5,-569.2 617.5,-591.2 861.5,-591.2 861.5,-569.2 617.5,-569.2"/>
<polygon fill="none" stroke="#000000" points="617.5,-569.2 617.5,-591.2 861.5,-591.2 861.5,-569.2 617.5,-569.2"/>
<image xlink:href="../../images/foreignKeys.png" width="11px" height="12px" preserveAspectRatio="xMinYMin meet" x="622.5" y="-586.2"/>
<text text-anchor="start" x="646.5" y="-576.3" font-family="Helvetica,sans-Serif" font-size="11.00" fill="#000000">permission_id</text>
<polygon fill="#ffffff" stroke="transparent" points="617.5,-550.2 617.5,-569.2 861.5,-569.2 861.5,-550.2 617.5,-550.2"/>
<polygon fill="none" stroke="#000000" points="617.5,-550.2 617.5,-569.2 861.5,-569.2 861.5,-550.2 617.5,-550.2"/>
<polygon fill="#ffffff" stroke="transparent" points="618.5,-551.2 618.5,-568.2 705.5,-568.2 705.5,-551.2 618.5,-551.2"/>
<text text-anchor="start" x="620.5" y="-556.3" font-family="Helvetica,sans-Serif" font-size="11.00" fill="#000000">&lt; 2</text>
<polygon fill="#ffffff" stroke="transparent" points="705.5,-551.2 705.5,-568.2 783.5,-568.2 783.5,-551.2 705.5,-551.2"/>
<text text-anchor="start" x="741.4431" y="-556.3" font-family="Helvetica,sans-Serif" font-size="11.00" fill="#000000"> &#160;</text>
<polygon fill="#ffffff" stroke="transparent" points="783.5,-551.2 783.5,-568.2 860.5,-568.2 860.5,-551.2 783.5,-551.2"/>
<text text-anchor="start" x="852.3862" y="-556.3" font-family="Helvetica,sans-Serif" font-size="11.00" fill="#000000"> &#160;</text>
<polygon fill="#000000" stroke="#000000" points="705.5,-551.2 705.5,-568.2 705.5,-568.2 705.5,-551.2 705.5,-551.2"/>
<polygon fill="#000000" stroke="#000000" points="783.5,-551.2 783.5,-568.2 783.5,-568.2 783.5,-551.2 783.5,-551.2"/>
</a>
</g>
</g>
<!-- auth_user_user_permissions&#45;&gt;auth_permission -->
<g id="edge4" class="edge">
<title>auth_user_user_permissions:w&#45;&gt;auth_permission:e</title>
<path fill="none" stroke="#000000" d="M603.1509,-582.6564C584.303,-590.2105 582.9708,-613.5324 560,-629.2 530.432,-649.3673 524.7909,-667.2 489,-667.2"/>
<polygon fill="#000000" stroke="#000000" points="609.6147,-581.5499 618.1075,-583.7484 613.5574,-580.875 617.5,-580.2 617.5,-580.2 617.5,-580.2 613.5574,-580.875 616.8925,-576.6516 609.6147,-581.5499 609.6147,-581.5499"/>
<ellipse fill="none" stroke="#000000" cx="606.4606" cy="-582.0899" rx="3.2" ry="3.2"/>
</g>
<!-- auth_user_user_permissions&#45;&gt;auth_user -->
<g id="edge5" class="edge">
<title>auth_user_user_permissions:w&#45;&gt;auth_user:e</title>
<path fill="none" stroke="#000000" d="M603.019,-599.8439C566.9402,-585.7309 604.0425,-511.97 560,-481.2 449.4989,-403.9991 372.99,-523.5403 258,-453.2 227.9184,-434.7988 250.7634,-386.2 215.5,-386.2"/>
<polygon fill="#000000" stroke="#000000" points="609.6038,-600.9152 616.9218,-605.7533 613.5519,-601.5576 617.5,-602.2 617.5,-602.2 617.5,-602.2 613.5519,-601.5576 618.0782,-598.6467 609.6038,-600.9152 609.6038,-600.9152"/>
<ellipse fill="none" stroke="#000000" cx="606.4454" cy="-600.4013" rx="3.2" ry="3.2"/>
</g>
<!-- django_admin_log -->
<g id="node7" class="node">
<title>django_admin_log</title>
<g id="a_node7"><a xlink:href="../../tables/django_admin_log.html" xlink:title="django_admin_log" target="_top">
<polygon fill="#ffffff" stroke="transparent" points="324,-491.7 324,-618.7 494,-618.7 494,-491.7 324,-491.7"/>
<polygon fill="#f5f5f5" stroke="transparent" points="324,-595.2 324,-618.2 494,-618.2 494,-595.2 324,-595.2"/>
<polygon fill="none" stroke="#000000" points="324,-595.2 324,-618.2 494,-618.2 494,-595.2 324,-595.2"/>
<text text-anchor="start" x="329" y="-603.8" font-family="Helvetica,sans-Serif" font-weight="bold" font-size="11.00" fill="#000000">django_admin_log</text>
<text text-anchor="start" x="459.5219" y="-603.3" font-family="Helvetica,sans-Serif" font-size="11.00" fill="#000000">[table]</text>
<polygon fill="none" stroke="#000000" points="324,-573.2 324,-595.2 494,-595.2 494,-573.2 324,-573.2"/>
<image xlink:href="../../images/primaryKeys.png" width="11px" height="12px" preserveAspectRatio="xMinYMin meet" x="329" y="-590.2"/>
<text text-anchor="start" x="353" y="-580.3" font-family="Helvetica,sans-Serif" font-size="11.00" fill="#000000">id</text>
<polygon fill="#ffffff" stroke="transparent" points="324,-551.2 324,-573.2 494,-573.2 494,-551.2 324,-551.2"/>
<polygon fill="none" stroke="#000000" points="324,-551.2 324,-573.2 494,-573.2 494,-551.2 324,-551.2"/>
<image xlink:href="../../images/foreignKeys.png" width="11px" height="12px" preserveAspectRatio="xMinYMin meet" x="329" y="-568.2"/>
<text text-anchor="start" x="353" y="-558.3" font-family="Helvetica,sans-Serif" font-size="11.00" fill="#000000">content_type_id</text>
<polygon fill="#ffffff" stroke="transparent" points="324,-529.2 324,-551.2 494,-551.2 494,-529.2 324,-529.2"/>
<polygon fill="none" stroke="#000000" points="324,-529.2 324,-551.2 494,-551.2 494,-529.2 324,-529.2"/>
<image xlink:href="../../images/foreignKeys.png" width="11px" height="12px" preserveAspectRatio="xMinYMin meet" x="329" y="-546.2"/>
<text text-anchor="start" x="353" y="-536.3" font-family="Helvetica,sans-Serif" font-size="11.00" fill="#000000">user_id</text>
<polygon fill="none" stroke="#000000" points="324,-510.2 324,-529.2 494,-529.2 494,-510.2 324,-510.2"/>
<text text-anchor="start" x="327" y="-516.3" font-family="Helvetica,sans-Serif" font-size="11.00" fill="#000000">...</text>
<polygon fill="#ffffff" stroke="transparent" points="324,-491.2 324,-510.2 494,-510.2 494,-491.2 324,-491.2"/>
<polygon fill="none" stroke="#000000" points="324,-491.2 324,-510.2 494,-510.2 494,-491.2 324,-491.2"/>
<polygon fill="#ffffff" stroke="transparent" points="325,-492.2 325,-509.2 387,-509.2 387,-492.2 325,-492.2"/>
<text text-anchor="start" x="327" y="-497.3" font-family="Helvetica,sans-Serif" font-size="11.00" fill="#000000">&lt; 2</text>
<polygon fill="#ffffff" stroke="transparent" points="387,-492.2 387,-509.2 440,-509.2 440,-492.2 387,-492.2"/>
<text text-anchor="start" x="410.4431" y="-497.3" font-family="Helvetica,sans-Serif" font-size="11.00" fill="#000000"> &#160;</text>
<polygon fill="#ffffff" stroke="transparent" points="440,-492.2 440,-509.2 493,-509.2 493,-492.2 440,-492.2"/>
<text text-anchor="start" x="484.8862" y="-497.3" font-family="Helvetica,sans-Serif" font-size="11.00" fill="#000000"> &#160;</text>
<polygon fill="#000000" stroke="#000000" points="387,-492.2 387,-509.2 387,-509.2 387,-492.2 387,-492.2"/>
<polygon fill="#000000" stroke="#000000" points="440,-492.2 440,-509.2 440,-509.2 440,-492.2 440,-492.2"/>
</a>
</g>
</g>
<!-- django_admin_log&#45;&gt;django_content_type -->
<g id="edge6" class="edge">
<title>django_admin_log:w&#45;&gt;django_content_type:e</title>
<path fill="none" stroke="#000000" d="M309.4865,-563.4854C266.6895,-571.493 259.5182,-614.2 208.5,-614.2"/>
<polygon fill="#000000" stroke="#000000" points="316.0312,-562.9058 324.3176,-565.786 320.0156,-562.5529 324,-562.2 324,-562.2 324,-562.2 320.0156,-562.5529 323.6824,-558.614 316.0312,-562.9058 316.0312,-562.9058"/>
<ellipse fill="none" stroke="#000000" cx="312.8437" cy="-563.1881" rx="3.2" ry="3.2"/>
</g>
<!-- django_admin_log&#45;&gt;auth_user -->
<g id="edge7" class="edge">
<title>django_admin_log:w&#45;&gt;auth_user:e</title>
<path fill="none" stroke="#000000" d="M309.3859,-538.5837C282.549,-531.9262 278.42,-505.6351 258,-477.2 231.9626,-440.9426 260.1379,-386.2 215.5,-386.2"/>
<polygon fill="#000000" stroke="#000000" points="316.0485,-539.3205 323.6042,-543.7782 320.0242,-539.7603 324,-540.2 324,-540.2 324,-540.2 320.0242,-539.7603 324.3958,-536.6218 316.0485,-539.3205 316.0485,-539.3205"/>
<ellipse fill="none" stroke="#000000" cx="312.8679" cy="-538.9688" rx="3.2" ry="3.2"/>
</g>
<!-- showcase_dog -->
<g id="node8" class="node">
<title>showcase_dog</title>
<g id="a_node8"><a xlink:href="../../tables/showcase_dog.html" xlink:title="showcase_dog" target="_top">
<polygon fill="#ffffff" stroke="transparent" points="667.5,-232.7 667.5,-293.7 811.5,-293.7 811.5,-232.7 667.5,-232.7"/>
<polygon fill="#f5f5f5" stroke="transparent" points="667.5,-270.2 667.5,-293.2 811.5,-293.2 811.5,-270.2 667.5,-270.2"/>
<polygon fill="none" stroke="#000000" points="667.5,-270.2 667.5,-293.2 811.5,-293.2 811.5,-270.2 667.5,-270.2"/>
<text text-anchor="start" x="672.5" y="-278.8" font-family="Helvetica,sans-Serif" font-weight="bold" font-size="11.00" fill="#000000">showcase_dog</text>
<text text-anchor="start" x="777.0219" y="-278.3" font-family="Helvetica,sans-Serif" font-size="11.00" fill="#000000">[table]</text>
<polygon fill="none" stroke="#000000" points="667.5,-251.2 667.5,-270.2 811.5,-270.2 811.5,-251.2 667.5,-251.2"/>
<text text-anchor="start" x="670.5" y="-257.3" font-family="Helvetica,sans-Serif" font-size="11.00" fill="#000000">...</text>
<polygon fill="#ffffff" stroke="transparent" points="667.5,-232.2 667.5,-251.2 811.5,-251.2 811.5,-232.2 667.5,-232.2"/>
<polygon fill="none" stroke="#000000" points="667.5,-232.2 667.5,-251.2 811.5,-251.2 811.5,-232.2 667.5,-232.2"/>
<polygon fill="#ffffff" stroke="transparent" points="668.5,-233.2 668.5,-250.2 715.5,-250.2 715.5,-233.2 668.5,-233.2"/>
<text text-anchor="start" x="670.5" y="-238.3" font-family="Helvetica,sans-Serif" font-size="11.00" fill="#000000">&lt; 2</text>
<polygon fill="#ffffff" stroke="transparent" points="715.5,-233.2 715.5,-250.2 773.5,-250.2 773.5,-233.2 715.5,-233.2"/>
<text text-anchor="start" x="731.0553" y="-238.3" font-family="Helvetica,sans-Serif" font-size="11.00" fill="#000000">1 row</text>
<polygon fill="#ffffff" stroke="transparent" points="773.5,-233.2 773.5,-250.2 810.5,-250.2 810.5,-233.2 773.5,-233.2"/>
<text text-anchor="start" x="802.3862" y="-238.3" font-family="Helvetica,sans-Serif" font-size="11.00" fill="#000000"> &#160;</text>
<polygon fill="#000000" stroke="#000000" points="715.5,-233.2 715.5,-250.2 715.5,-250.2 715.5,-233.2 715.5,-233.2"/>
<polygon fill="#000000" stroke="#000000" points="773.5,-233.2 773.5,-250.2 773.5,-250.2 773.5,-233.2 773.5,-233.2"/>
</a>
</g>
</g>
<!-- showcase_ownerprofile -->
<g id="node9" class="node">
<title>showcase_ownerprofile</title>
<g id="a_node9"><a xlink:href="../../tables/showcase_ownerprofile.html" xlink:title="showcase_ownerprofile" target="_top">
<polygon fill="#ffffff" stroke="transparent" points="304.5,-167.7 304.5,-294.7 513.5,-294.7 513.5,-167.7 304.5,-167.7"/>
<polygon fill="#f5f5f5" stroke="transparent" points="305,-271.2 305,-294.2 514,-294.2 514,-271.2 305,-271.2"/>
<polygon fill="none" stroke="#000000" points="305,-271.2 305,-294.2 514,-294.2 514,-271.2 305,-271.2"/>
<text text-anchor="start" x="310" y="-279.8" font-family="Helvetica,sans-Serif" font-weight="bold" font-size="11.00" fill="#000000">showcase_ownerprofile</text>
<text text-anchor="start" x="479.5219" y="-279.3" font-family="Helvetica,sans-Serif" font-size="11.00" fill="#000000">[table]</text>
<polygon fill="none" stroke="#000000" points="305,-249.2 305,-271.2 514,-271.2 514,-249.2 305,-249.2"/>
<image xlink:href="../../images/primaryKeys.png" width="11px" height="12px" preserveAspectRatio="xMinYMin meet" x="310" y="-266.2"/>
<text text-anchor="start" x="334" y="-256.3" font-family="Helvetica,sans-Serif" font-size="11.00" fill="#000000">id</text>
<polygon fill="#ffffff" stroke="transparent" points="305,-227.2 305,-249.2 514,-249.2 514,-227.2 305,-227.2"/>
<polygon fill="none" stroke="#000000" points="305,-227.2 305,-249.2 514,-249.2 514,-227.2 305,-227.2"/>
<image xlink:href="../../images/foreignKeys.png" width="11px" height="12px" preserveAspectRatio="xMinYMin meet" x="310" y="-244.2"/>
<text text-anchor="start" x="334" y="-234.3" font-family="Helvetica,sans-Serif" font-size="11.00" fill="#000000">user_id</text>
<polygon fill="#ffffff" stroke="transparent" points="305,-205.2 305,-227.2 514,-227.2 514,-205.2 305,-205.2"/>
<polygon fill="none" stroke="#000000" points="305,-205.2 305,-227.2 514,-227.2 514,-205.2 305,-205.2"/>
<text text-anchor="start" x="334" y="-212.3" font-family="Helvetica,sans-Serif" font-size="11.00" fill="#000000">handle</text>
<polygon fill="none" stroke="#000000" points="305,-186.2 305,-205.2 514,-205.2 514,-186.2 305,-186.2"/>
<text text-anchor="start" x="308" y="-192.3" font-family="Helvetica,sans-Serif" font-size="11.00" fill="#000000">...</text>
<polygon fill="#ffffff" stroke="transparent" points="305,-167.2 305,-186.2 514,-186.2 514,-167.2 305,-167.2"/>
<polygon fill="none" stroke="#000000" points="305,-167.2 305,-186.2 514,-186.2 514,-167.2 305,-167.2"/>
<polygon fill="#ffffff" stroke="transparent" points="306,-168.2 306,-185.2 372,-185.2 372,-168.2 306,-168.2"/>
<text text-anchor="start" x="308" y="-173.3" font-family="Helvetica,sans-Serif" font-size="11.00" fill="#000000">&lt; 1</text>
<polygon fill="#ffffff" stroke="transparent" points="372,-168.2 372,-185.2 448,-185.2 448,-168.2 372,-168.2"/>
<text text-anchor="start" x="396.5553" y="-173.3" font-family="Helvetica,sans-Serif" font-size="11.00" fill="#000000">1 row</text>
<polygon fill="#ffffff" stroke="transparent" points="448,-168.2 448,-185.2 513,-185.2 513,-168.2 448,-168.2"/>
<text text-anchor="start" x="495.4053" y="-173.3" font-family="Helvetica,sans-Serif" font-size="11.00" fill="#000000">1 &gt;</text>
<polygon fill="#000000" stroke="#000000" points="372,-168.2 372,-185.2 372,-185.2 372,-168.2 372,-168.2"/>
<polygon fill="#000000" stroke="#000000" points="448,-168.2 448,-185.2 448,-185.2 448,-168.2 448,-168.2"/>
</a>
</g>
</g>
<!-- showcase_dog&#45;&gt;showcase_ownerprofile -->
<g id="edge8" class="edge">
<title>showcase_dog:w&#45;&gt;showcase_ownerprofile:e</title>
<path fill="none" stroke="#000000" d="M652.7556,-260.2C596.3826,-260.2 577.0256,-260.2 514,-260.2"/>
<polygon fill="#000000" stroke="#000000" points="659.5,-260.2001 667.5,-263.8 663.5,-260.2 667.5,-260.2 667.5,-260.2 667.5,-260.2 663.5,-260.2 667.5,-256.6 659.5,-260.2001 659.5,-260.2001"/>
<ellipse fill="none" stroke="#000000" cx="656.3" cy="-260.2001" rx="3.2" ry="3.2"/>
</g>
<!-- showcase_ownerprofile&#45;&gt;auth_user -->
<g id="edge9" class="edge">
<title>showcase_ownerprofile:w&#45;&gt;auth_user:e</title>
<path fill="none" stroke="#000000" d="M294.5743,-239.4365C270.1175,-246.0039 274.8627,-277.5392 258,-305.2 236.8383,-339.9127 256.1545,-386.2 215.5,-386.2"/>
<polygon fill="#000000" stroke="#000000" points="303.7344,-234.3221 304.6767,-242.2664 303.0878,-242.4548 302.1456,-234.5105 303.7344,-234.3221"/>
<polyline fill="none" stroke="#000000" points="305,-238.2 301.0278,-238.6711 "/>
<ellipse fill="none" stroke="#000000" cx="297.8501" cy="-239.048" rx="3.2" ry="3.2"/>
</g>
<!-- token_blacklist_blacklistedtoken -->
<g id="node10" class="node">
<title>token_blacklist_blacklistedtoken</title>
<g id="a_node10"><a xlink:href="../../tables/token_blacklist_blacklistedtoken.html" xlink:title="token_blacklist_blacklistedtoken" target="_top">
<polygon fill="#ffffff" stroke="transparent" points="601,-380.7 601,-441.7 878,-441.7 878,-380.7 601,-380.7"/>
<polygon fill="#f5f5f5" stroke="transparent" points="601.5,-418.2 601.5,-441.2 878.5,-441.2 878.5,-418.2 601.5,-418.2"/>
<polygon fill="none" stroke="#000000" points="601.5,-418.2 601.5,-441.2 878.5,-441.2 878.5,-418.2 601.5,-418.2"/>
<text text-anchor="start" x="606.5" y="-426.8" font-family="Helvetica,sans-Serif" font-weight="bold" font-size="11.00" fill="#000000">token_blacklist_blacklistedtoken</text>
<text text-anchor="start" x="844.0219" y="-426.3" font-family="Helvetica,sans-Serif" font-size="11.00" fill="#000000">[table]</text>
<polygon fill="none" stroke="#000000" points="601.5,-399.2 601.5,-418.2 878.5,-418.2 878.5,-399.2 601.5,-399.2"/>
<text text-anchor="start" x="604.5" y="-405.3" font-family="Helvetica,sans-Serif" font-size="11.00" fill="#000000">...</text>
<polygon fill="#ffffff" stroke="transparent" points="601.5,-380.2 601.5,-399.2 878.5,-399.2 878.5,-380.2 601.5,-380.2"/>
<polygon fill="none" stroke="#000000" points="601.5,-380.2 601.5,-399.2 878.5,-399.2 878.5,-380.2 601.5,-380.2"/>
<polygon fill="#ffffff" stroke="transparent" points="602.5,-381.2 602.5,-398.2 700.5,-398.2 700.5,-381.2 602.5,-381.2"/>
<text text-anchor="start" x="604.5" y="-386.3" font-family="Helvetica,sans-Serif" font-size="11.00" fill="#000000">&lt; 1</text>
<polygon fill="#ffffff" stroke="transparent" points="700.5,-381.2 700.5,-398.2 789.5,-398.2 789.5,-381.2 700.5,-381.2"/>
<text text-anchor="start" x="741.9431" y="-386.3" font-family="Helvetica,sans-Serif" font-size="11.00" fill="#000000"> &#160;</text>
<polygon fill="#ffffff" stroke="transparent" points="789.5,-381.2 789.5,-398.2 877.5,-398.2 877.5,-381.2 789.5,-381.2"/>
<text text-anchor="start" x="869.3862" y="-386.3" font-family="Helvetica,sans-Serif" font-size="11.00" fill="#000000"> &#160;</text>
<polygon fill="#000000" stroke="#000000" points="700.5,-381.2 700.5,-398.2 700.5,-398.2 700.5,-381.2 700.5,-381.2"/>
<polygon fill="#000000" stroke="#000000" points="789.5,-381.2 789.5,-398.2 789.5,-398.2 789.5,-381.2 789.5,-381.2"/>
</a>
</g>
</g>
<!-- token_blacklist_outstandingtoken -->
<g id="node11" class="node">
<title>token_blacklist_outstandingtoken</title>
<g id="a_node11"><a xlink:href="../../tables/token_blacklist_outstandingtoken.html" xlink:title="token_blacklist_outstandingtoken" target="_top">
<polygon fill="#ffffff" stroke="transparent" points="266,-315.7 266,-442.7 552,-442.7 552,-315.7 266,-315.7"/>
<polygon fill="#f5f5f5" stroke="transparent" points="266,-419.2 266,-442.2 552,-442.2 552,-419.2 266,-419.2"/>
<polygon fill="none" stroke="#000000" points="266,-419.2 266,-442.2 552,-442.2 552,-419.2 266,-419.2"/>
<text text-anchor="start" x="271" y="-427.8" font-family="Helvetica,sans-Serif" font-weight="bold" font-size="11.00" fill="#000000">token_blacklist_outstandingtoken</text>
<text text-anchor="start" x="517.5219" y="-427.3" font-family="Helvetica,sans-Serif" font-size="11.00" fill="#000000">[table]</text>
<polygon fill="none" stroke="#000000" points="266,-397.2 266,-419.2 552,-419.2 552,-397.2 266,-397.2"/>
<image xlink:href="../../images/primaryKeys.png" width="11px" height="12px" preserveAspectRatio="xMinYMin meet" x="271" y="-414.2"/>
<text text-anchor="start" x="295" y="-404.3" font-family="Helvetica,sans-Serif" font-size="11.00" fill="#000000">id</text>
<polygon fill="#ffffff" stroke="transparent" points="266,-375.2 266,-397.2 552,-397.2 552,-375.2 266,-375.2"/>
<polygon fill="none" stroke="#000000" points="266,-375.2 266,-397.2 552,-397.2 552,-375.2 266,-375.2"/>
<image xlink:href="../../images/foreignKeys.png" width="11px" height="12px" preserveAspectRatio="xMinYMin meet" x="271" y="-392.2"/>
<text text-anchor="start" x="295" y="-382.3" font-family="Helvetica,sans-Serif" font-size="11.00" fill="#000000">user_id</text>
<polygon fill="#ffffff" stroke="transparent" points="266,-353.2 266,-375.2 552,-375.2 552,-353.2 266,-353.2"/>
<polygon fill="none" stroke="#000000" points="266,-353.2 266,-375.2 552,-375.2 552,-353.2 266,-353.2"/>
<text text-anchor="start" x="295" y="-360.3" font-family="Helvetica,sans-Serif" font-size="11.00" fill="#000000">jti</text>
<polygon fill="none" stroke="#000000" points="266,-334.2 266,-353.2 552,-353.2 552,-334.2 266,-334.2"/>
<text text-anchor="start" x="269" y="-340.3" font-family="Helvetica,sans-Serif" font-size="11.00" fill="#000000">...</text>
<polygon fill="#ffffff" stroke="transparent" points="266,-315.2 266,-334.2 552,-334.2 552,-315.2 266,-315.2"/>
<polygon fill="none" stroke="#000000" points="266,-315.2 266,-334.2 552,-334.2 552,-315.2 266,-315.2"/>
<polygon fill="#ffffff" stroke="transparent" points="267,-316.2 267,-333.2 365,-333.2 365,-316.2 267,-316.2"/>
<text text-anchor="start" x="269" y="-321.3" font-family="Helvetica,sans-Serif" font-size="11.00" fill="#000000">&lt; 1</text>
<polygon fill="#ffffff" stroke="transparent" points="365,-316.2 365,-333.2 454,-333.2 454,-316.2 365,-316.2"/>
<text text-anchor="start" x="406.4431" y="-321.3" font-family="Helvetica,sans-Serif" font-size="11.00" fill="#000000"> &#160;</text>
<polygon fill="#ffffff" stroke="transparent" points="454,-316.2 454,-333.2 551,-333.2 551,-316.2 454,-316.2"/>
<text text-anchor="start" x="533.4053" y="-321.3" font-family="Helvetica,sans-Serif" font-size="11.00" fill="#000000">1 &gt;</text>
<polygon fill="#000000" stroke="#000000" points="365,-316.2 365,-333.2 365,-333.2 365,-316.2 365,-316.2"/>
<polygon fill="#000000" stroke="#000000" points="454,-316.2 454,-333.2 454,-333.2 454,-316.2 454,-316.2"/>
</a>
</g>
</g>
<!-- token_blacklist_blacklistedtoken&#45;&gt;token_blacklist_outstandingtoken -->
<g id="edge10" class="edge">
<title>token_blacklist_blacklistedtoken:w&#45;&gt;token_blacklist_outstandingtoken:e</title>
<path fill="none" stroke="#000000" d="M591.0474,-408.2C576.9907,-408.2 570.0469,-408.2 552,-408.2"/>
<polygon fill="#000000" stroke="#000000" points="600.7,-404.2 600.7,-412.2 599.1,-412.2 599.1,-404.2 600.7,-404.2"/>
<polyline fill="none" stroke="#000000" points="601.5,-408.2 597.5,-408.2 "/>
<ellipse fill="none" stroke="#000000" cx="594.3" cy="-408.2001" rx="3.2" ry="3.2"/>
</g>
<!-- token_blacklist_outstandingtoken&#45;&gt;auth_user -->
<g id="edge11" class="edge">
<title>token_blacklist_outstandingtoken:w&#45;&gt;auth_user:e</title>
<path fill="none" stroke="#000000" d="M251.4203,-386.2C239.5435,-386.2 232.158,-386.2 215.5,-386.2"/>
<polygon fill="#000000" stroke="#000000" points="258,-386.2001 266,-389.8 262,-386.2 266,-386.2 266,-386.2 266,-386.2 262,-386.2 266,-382.6 258,-386.2001 258,-386.2001"/>
<ellipse fill="none" stroke="#000000" cx="254.8" cy="-386.2001" rx="3.2" ry="3.2"/>
</g>
</g>
</svg>
