<?xml version="1.0" encoding="UTF-8" standalone="no"?>
<!DOCTYPE svg PUBLIC "-//W3C//DTD SVG 1.1//EN"
 "http://www.w3.org/Graphics/SVG/1.1/DTD/svg11.dtd">
<!-- Generated by graphviz version 2.40.1 (20161225.0304)
 -->
<!-- Title: twoDegreesRelationshipsDiagram Pages: 1 -->
<svg width="769pt" height="341pt"
 viewBox="0.00 0.00 769.00 341.20" xmlns="http://www.w3.org/2000/svg" xmlns:xlink="http://www.w3.org/1999/xlink">
<g id="graph0" class="graph" transform="scale(1 1) rotate(0) translate(4 337.2)">
<title>twoDegreesRelationshipsDiagram</title>
<polygon fill="#ffffff" stroke="transparent" points="-4,4 -4,-337.2 765,-337.2 765,4 -4,4"/>
<text text-anchor="middle" x="72.4936" y="-7.3" font-family="Helvetica,sans-Serif" font-size="11.00" fill="#000000">Generated by SchemaSpy</text>
<!-- auth_group_permissions -->
<g id="node1" class="node">
<title>auth_group_permissions</title>
<g id="a_node1"><a xlink:href="../../tables/auth_group_permissions.html" xlink:title="auth_group_permissions" target="_top">
<polygon fill="#ffffff" stroke="transparent" points="522.5,-38.2 522.5,-99.2 739.5,-99.2 739.5,-38.2 522.5,-38.2"/>
<polygon fill="#f5f5f5" stroke="transparent" points="523,-75.7 523,-98.7 740,-98.7 740,-75.7 523,-75.7"/>
<polygon fill="none" stroke="#000000" points="523,-75.7 523,-98.7 740,-98.7 740,-75.7 523,-75.7"/>
<text text-anchor="start" x="528" y="-84.3" font-family="Helvetica,sans-Serif" font-weight="bold" font-size="11.00" fill="#000000">auth_group_permissions</text>
<text text-anchor="start" x="705.5219" y="-83.8" font-family="Helvetica,sans-Serif" font-size="11.00" fill="#000000">[table]</text>
<polygon fill="none" stroke="#000000" points="523,-56.7 523,-75.7 740,-75.7 740,-56.7 523,-56.7"/>
<text text-anchor="start" x="526" y="-62.8" font-family="Helvetica,sans-Serif" font-size="11.00" fill="#000000">...</text>
<polygon fill="#ffffff" stroke="transparent" points="523,-37.7 523,-56.7 740,-56.7 740,-37.7 523,-37.7"/>
<polygon fill="none" stroke="#000000" points="523,-37.7 523,-56.7 740,-56.7 740,-37.7 523,-37.7"/>
<polygon fill="#ffffff" stroke="transparent" points="524,-38.7 524,-55.7 602,-55.7 602,-38.7 524,-38.7"/>
<text text-anchor="start" x="526" y="-43.8" font-family="Helvetica,sans-Serif" font-size="11.00" fill="#000000">&lt; 2</text>
<polygon fill="#ffffff" stroke="transparent" points="602,-38.7 602,-55.7 671,-55.7 671,-38.7 602,-38.7"/>
<text text-anchor="start" x="633.4431" y="-43.8" font-family="Helvetica,sans-Serif" font-size="11.00" fill="#000000"> &#160;</text>
<polygon fill="#ffffff" stroke="transparent" points="671,-38.7 671,-55.7 739,-55.7 739,-38.7 671,-38.7"/>
<text text-anchor="start" x="730.8862" y="-43.8" font-family="Helvetica,sans-Serif" font-size="11.00" fill="#000000"> &#160;</text>
<polygon fill="#000000" stroke="#000000" points="602,-38.7 602,-55.7 602,-55.7 602,-38.7 602,-38.7"/>
<polygon fill="#000000" stroke="#000000" points="671,-38.7 671,-55.7 671,-55.7 671,-38.7 671,-38.7"/>
</a>
</g>
</g>
<!-- auth_permission -->
<g id="node2" class="node">
<title>auth_permission</title>
<g id="a_node2"><a xlink:href="../../tables/auth_permission.html" xlink:title="auth_permission" target="_top">
<polygon fill="#ffffff" stroke="transparent" points="301,-39.2 301,-166.2 460,-166.2 460,-39.2 301,-39.2"/>
<polygon fill="#f5f5f5" stroke="transparent" points="301.5,-142.7 301.5,-165.7 460.5,-165.7 460.5,-142.7 301.5,-142.7"/>
<polygon fill="none" stroke="#000000" points="301.5,-142.7 301.5,-165.7 460.5,-165.7 460.5,-142.7 301.5,-142.7"/>
<text text-anchor="start" x="306.5" y="-151.3" font-family="Helvetica,sans-Serif" font-weight="bold" font-size="11.00" fill="#000000">auth_permission</text>
<text text-anchor="start" x="426.0219" y="-150.8" font-family="Helvetica,sans-Serif" font-size="11.00" fill="#000000">[table]</text>
<polygon fill="none" stroke="#000000" points="301.5,-120.7 301.5,-142.7 460.5,-142.7 460.5,-120.7 301.5,-120.7"/>
<image xlink:href="../../images/primaryKeys.png" width="11px" height="12px" preserveAspectRatio="xMinYMin meet" x="306.5" y="-137.7"/>
<text text-anchor="start" x="330.5" y="-127.8" font-family="Helvetica,sans-Serif" font-size="11.00" fill="#000000">id</text>
<polygon fill="#ffffff" stroke="transparent" points="301.5,-98.7 301.5,-120.7 460.5,-120.7 460.5,-98.7 301.5,-98.7"/>
<polygon fill="none" stroke="#000000" points="301.5,-98.7 301.5,-120.7 460.5,-120.7 460.5,-98.7 301.5,-98.7"/>
<image xlink:href="../../images/foreignKeys.png" width="11px" height="12px" preserveAspectRatio="xMinYMin meet" x="306.5" y="-115.7"/>
<text text-anchor="start" x="330.5" y="-105.8" font-family="Helvetica,sans-Serif" font-size="11.00" fill="#000000">content_type_id</text>
<polygon fill="#ffffff" stroke="transparent" points="301.5,-76.7 301.5,-98.7 460.5,-98.7 460.5,-76.7 301.5,-76.7"/>
<polygon fill="none" stroke="#000000" points="301.5,-76.7 301.5,-98.7 460.5,-98.7 460.5,-76.7 301.5,-76.7"/>
<text text-anchor="start" x="330.5" y="-83.8" font-family="Helvetica,sans-Serif" font-size="11.00" fill="#000000">codename</text>
<polygon fill="none" stroke="#000000" points="301.5,-57.7 301.5,-76.7 460.5,-76.7 460.5,-57.7 301.5,-57.7"/>
<text text-anchor="start" x="304.5" y="-63.8" font-family="Helvetica,sans-Serif" font-size="11.00" fill="#000000">...</text>
<polygon fill="#ffffff" stroke="transparent" points="301.5,-38.7 301.5,-57.7 460.5,-57.7 460.5,-38.7 301.5,-38.7"/>
<polygon fill="none" stroke="#000000" points="301.5,-38.7 301.5,-57.7 460.5,-57.7 460.5,-38.7 301.5,-38.7"/>
<polygon fill="#ffffff" stroke="transparent" points="302.5,-39.7 302.5,-56.7 358.5,-56.7 358.5,-39.7 302.5,-39.7"/>
<text text-anchor="start" x="304.5" y="-44.8" font-family="Helvetica,sans-Serif" font-size="11.00" fill="#000000">&lt; 1</text>
<polygon fill="#ffffff" stroke="transparent" points="358.5,-39.7 358.5,-56.7 404.5,-56.7 404.5,-39.7 358.5,-39.7"/>
<text text-anchor="start" x="378.4431" y="-44.8" font-family="Helvetica,sans-Serif" font-size="11.00" fill="#000000"> &#160;</text>
<polygon fill="#ffffff" stroke="transparent" points="404.5,-39.7 404.5,-56.7 459.5,-56.7 459.5,-39.7 404.5,-39.7"/>
<text text-anchor="start" x="441.9053" y="-44.8" font-family="Helvetica,sans-Serif" font-size="11.00" fill="#000000">2 &gt;</text>
<polygon fill="#000000" stroke="#000000" points="358.5,-39.7 358.5,-56.7 358.5,-56.7 358.5,-39.7 358.5,-39.7"/>
<polygon fill="#000000" stroke="#000000" points="404.5,-39.7 404.5,-56.7 404.5,-56.7 404.5,-39.7 404.5,-39.7"/>
</a>
</g>
</g>
<!-- auth_group_permissions&#45;&gt;auth_permission -->
<g id="edge1" class="edge">
<title>auth_group_permissions:w&#45;&gt;auth_permission:e</title>
<path fill="none" stroke="#000000" d="M508.8073,-69.4375C486.6643,-83.3994 495.0598,-131.7 460.5,-131.7"/>
<polygon fill="#000000" stroke="#000000" points="515.2638,-67.7373 523.9168,-69.1813 519.1319,-66.7187 523,-65.7 523,-65.7 523,-65.7 519.1319,-66.7187 522.0832,-62.2187 515.2638,-67.7373 515.2638,-67.7373"/>
<ellipse fill="none" stroke="#000000" cx="512.1693" cy="-68.5523" rx="3.2" ry="3.2"/>
</g>
<!-- django_content_type -->
<g id="node3" class="node">
<title>django_content_type</title>
<g id="a_node3"><a xlink:href="../../tables/django_content_type.html" xlink:title="django_content_type" target="_top">
<polygon fill="#ffffff" stroke="transparent" points="8,-114.7 8,-226.7 252,-226.7 252,-114.7 8,-114.7"/>
<polygon fill="#f5f5f5" stroke="transparent" points="10,-201.7 10,-224.7 250,-224.7 250,-201.7 10,-201.7"/>
<polygon fill="none" stroke="#000000" points="10,-201.7 10,-224.7 250,-224.7 250,-201.7 10,-201.7"/>
<text text-anchor="start" x="15" y="-210.3" font-family="Helvetica,sans-Serif" font-weight="bold" font-size="11.00" fill="#000000">django_content_type</text>
<text text-anchor="start" x="215.0437" y="-209.8" font-family="Helvetica,sans-Serif" font-size="11.00" fill="#000000">[table]</text>
<polygon fill="none" stroke="#000000" points="10,-179.7 10,-201.7 183,-201.7 183,-179.7 10,-179.7"/>
<image xlink:href="../../images/primaryKeys.png" width="11px" height="12px" preserveAspectRatio="xMinYMin meet" x="15" y="-196.7"/>
<text text-anchor="start" x="30" y="-186.8" font-family="Helvetica,sans-Serif" font-size="11.00" fill="#000000">id</text>
<polygon fill="none" stroke="#000000" points="183,-179.7 183,-201.7 250,-201.7 250,-179.7 183,-179.7"/>
<text text-anchor="start" x="186" y="-187.4" font-family="Helvetica,sans-Serif" font-size="11.00" fill="#000000">int4[10]</text>
<polygon fill="#ffffff" stroke="transparent" points="10,-157.7 10,-179.7 183,-179.7 183,-157.7 10,-157.7"/>
<polygon fill="none" stroke="#000000" points="10,-157.7 10,-179.7 183,-179.7 183,-157.7 10,-157.7"/>
<text text-anchor="start" x="30" y="-164.8" font-family="Helvetica,sans-Serif" font-size="11.00" fill="#000000">app_label</text>
<polygon fill="none" stroke="#000000" points="183,-157.7 183,-179.7 250,-179.7 250,-157.7 183,-157.7"/>
<text text-anchor="start" x="185.9365" y="-165.4" font-family="Helvetica,sans-Serif" font-size="11.00" fill="#000000">varchar[100]</text>
<polygon fill="#ffffff" stroke="transparent" points="10,-135.7 10,-157.7 183,-157.7 183,-135.7 10,-135.7"/>
<polygon fill="none" stroke="#000000" points="10,-135.7 10,-157.7 183,-157.7 183,-135.7 10,-135.7"/>
<text text-anchor="start" x="30" y="-142.8" font-family="Helvetica,sans-Serif" font-size="11.00" fill="#000000">model</text>
<polygon fill="none" stroke="#000000" points="183,-135.7 183,-157.7 250,-157.7 250,-135.7 183,-135.7"/>
<text text-anchor="start" x="185.9365" y="-143.4" font-family="Helvetica,sans-Serif" font-size="11.00" fill="#000000">varchar[100]</text>
<polygon fill="#ffffff" stroke="transparent" points="10,-116.7 10,-135.7 250,-135.7 250,-116.7 10,-116.7"/>
<polygon fill="none" stroke="#000000" points="10,-116.7 10,-135.7 250,-135.7 250,-116.7 10,-116.7"/>
<polygon fill="#ffffff" stroke="transparent" points="11,-117.7 11,-134.7 94,-134.7 94,-117.7 11,-117.7"/>
<text text-anchor="start" x="13" y="-122.8" font-family="Helvetica,sans-Serif" font-size="11.00" fill="#000000">&lt; 0</text>
<polygon fill="#ffffff" stroke="transparent" points="94,-117.7 94,-134.7 167,-134.7 167,-117.7 94,-117.7"/>
<text text-anchor="start" x="127.4431" y="-122.8" font-family="Helvetica,sans-Serif" font-size="11.00" fill="#000000"> &#160;</text>
<polygon fill="#ffffff" stroke="transparent" points="167,-117.7 167,-134.7 249,-134.7 249,-117.7 167,-117.7"/>
<text text-anchor="start" x="231.4053" y="-122.8" font-family="Helvetica,sans-Serif" font-size="11.00" fill="#000000">2 &gt;</text>
<polygon fill="#000000" stroke="#000000" points="94,-117.7 94,-134.7 94,-134.7 94,-117.7 94,-117.7"/>
<polygon fill="#000000" stroke="#000000" points="167,-117.7 167,-134.7 167,-134.7 167,-117.7 167,-117.7"/>
<polygon fill="none" stroke="#000000" stroke-width="2" points="9,-115.7 9,-225.7 251,-225.7 251,-115.7 9,-115.7"/>
</a>
</g>
</g>
<!-- auth_permission&#45;&gt;django_content_type -->
<g id="edge2" class="edge">
<title>auth_permission:w&#45;&gt;django_content_type:e</title>
<path fill="none" stroke="#000000" d="M287.6146,-114.0549C266.8393,-130.8794 286.6612,-190.7 250,-190.7"/>
<polygon fill="#000000" stroke="#000000" points="293.8666,-112.0941 302.5774,-113.135 297.6833,-110.8971 301.5,-109.7 301.5,-109.7 301.5,-109.7 297.6833,-110.8971 300.4226,-106.265 293.8666,-112.0941 293.8666,-112.0941"/>
<ellipse fill="none" stroke="#000000" cx="290.8133" cy="-113.0518" rx="3.2" ry="3.2"/>
</g>
<!-- auth_user_user_permissions -->
<g id="node4" class="node">
<title>auth_user_user_permissions</title>
<g id="a_node4"><a xlink:href="../../tables/auth_user_user_permissions.html" xlink:title="auth_user_user_permissions" target="_top">
<polygon fill="#ffffff" stroke="transparent" points="509,-120.2 509,-181.2 753,-181.2 753,-120.2 509,-120.2"/>
<polygon fill="#f5f5f5" stroke="transparent" points="509,-157.7 509,-180.7 753,-180.7 753,-157.7 509,-157.7"/>
<polygon fill="none" stroke="#000000" points="509,-157.7 509,-180.7 753,-180.7 753,-157.7 509,-157.7"/>
<text text-anchor="start" x="514" y="-166.3" font-family="Helvetica,sans-Serif" font-weight="bold" font-size="11.00" fill="#000000">auth_user_user_permissions</text>
<text text-anchor="start" x="718.5219" y="-165.8" font-family="Helvetica,sans-Serif" font-size="11.00" fill="#000000">[table]</text>
<polygon fill="none" stroke="#000000" points="509,-138.7 509,-157.7 753,-157.7 753,-138.7 509,-138.7"/>
<text text-anchor="start" x="512" y="-144.8" font-family="Helvetica,sans-Serif" font-size="11.00" fill="#000000">...</text>
<polygon fill="#ffffff" stroke="transparent" points="509,-119.7 509,-138.7 753,-138.7 753,-119.7 509,-119.7"/>
<polygon fill="none" stroke="#000000" points="509,-119.7 509,-138.7 753,-138.7 753,-119.7 509,-119.7"/>
<polygon fill="#ffffff" stroke="transparent" points="510,-120.7 510,-137.7 597,-137.7 597,-120.7 510,-120.7"/>
<text text-anchor="start" x="512" y="-125.8" font-family="Helvetica,sans-Serif" font-size="11.00" fill="#000000">&lt; 2</text>
<polygon fill="#ffffff" stroke="transparent" points="597,-120.7 597,-137.7 675,-137.7 675,-120.7 597,-120.7"/>
<text text-anchor="start" x="632.9431" y="-125.8" font-family="Helvetica,sans-Serif" font-size="11.00" fill="#000000"> &#160;</text>
<polygon fill="#ffffff" stroke="transparent" points="675,-120.7 675,-137.7 752,-137.7 752,-120.7 675,-120.7"/>
<text text-anchor="start" x="743.8862" y="-125.8" font-family="Helvetica,sans-Serif" font-size="11.00" fill="#000000"> &#160;</text>
<polygon fill="#000000" stroke="#000000" points="597,-120.7 597,-137.7 597,-137.7 597,-120.7 597,-120.7"/>
<polygon fill="#000000" stroke="#000000" points="675,-120.7 675,-137.7 675,-137.7 675,-120.7 675,-120.7"/>
</a>
</g>
</g>
<!-- auth_user_user_permissions&#45;&gt;auth_permission -->
<g id="edge3" class="edge">
<title>auth_user_user_permissions:w&#45;&gt;auth_permission:e</title>
<path fill="none" stroke="#000000" d="M494.68,-145.0579C483.3991,-140.5135 477.3463,-131.7 460.5,-131.7"/>
<polygon fill="#000000" stroke="#000000" points="501.1328,-146.2484 508.3468,-151.2402 505.0664,-146.9742 509,-147.7 509,-147.7 509,-147.7 505.0664,-146.9742 509.6532,-144.1598 501.1328,-146.2484 501.1328,-146.2484"/>
<ellipse fill="none" stroke="#000000" cx="497.9859" cy="-145.6678" rx="3.2" ry="3.2"/>
</g>
<!-- auth_user -->
<g id="node5" class="node">
<title>auth_user</title>
<g id="a_node5"><a xlink:href="../../tables/auth_user.html" xlink:title="auth_user" target="_top">
<polygon fill="#ffffff" stroke="transparent" points="325,-187.2 325,-248.2 436,-248.2 436,-187.2 325,-187.2"/>
<polygon fill="#f5f5f5" stroke="transparent" points="325.5,-224.7 325.5,-247.7 436.5,-247.7 436.5,-224.7 325.5,-224.7"/>
<polygon fill="none" stroke="#000000" points="325.5,-224.7 325.5,-247.7 436.5,-247.7 436.5,-224.7 325.5,-224.7"/>
<text text-anchor="start" x="330.5" y="-233.3" font-family="Helvetica,sans-Serif" font-weight="bold" font-size="11.00" fill="#000000">auth_user</text>
<text text-anchor="start" x="402.0219" y="-232.8" font-family="Helvetica,sans-Serif" font-size="11.00" fill="#000000">[table]</text>
<polygon fill="none" stroke="#000000" points="325.5,-205.7 325.5,-224.7 436.5,-224.7 436.5,-205.7 325.5,-205.7"/>
<text text-anchor="start" x="328.5" y="-211.8" font-family="Helvetica,sans-Serif" font-size="11.00" fill="#000000">...</text>
<polygon fill="#ffffff" stroke="transparent" points="325.5,-186.7 325.5,-205.7 436.5,-205.7 436.5,-186.7 325.5,-186.7"/>
<polygon fill="none" stroke="#000000" points="325.5,-186.7 325.5,-205.7 436.5,-205.7 436.5,-186.7 325.5,-186.7"/>
<polygon fill="#ffffff" stroke="transparent" points="326.5,-187.7 326.5,-204.7 360.5,-204.7 360.5,-187.7 326.5,-187.7"/>
<text text-anchor="start" x="328.5" y="-192.8" font-family="Helvetica,sans-Serif" font-size="11.00" fill="#000000"> &#160;</text>
<polygon fill="#ffffff" stroke="transparent" points="360.5,-187.7 360.5,-204.7 393.5,-204.7 393.5,-187.7 360.5,-187.7"/>
<text text-anchor="start" x="373.9431" y="-192.8" font-family="Helvetica,sans-Serif" font-size="11.00" fill="#000000"> &#160;</text>
<polygon fill="#ffffff" stroke="transparent" points="393.5,-187.7 393.5,-204.7 435.5,-204.7 435.5,-187.7 393.5,-187.7"/>
<text text-anchor="start" x="417.9053" y="-192.8" font-family="Helvetica,sans-Serif" font-size="11.00" fill="#000000">5 &gt;</text>
<polygon fill="#000000" stroke="#000000" points="360.5,-187.7 360.5,-204.7 360.5,-204.7 360.5,-187.7 360.5,-187.7"/>
<polygon fill="#000000" stroke="#000000" points="393.5,-187.7 393.5,-204.7 393.5,-204.7 393.5,-187.7 393.5,-187.7"/>
</a>
</g>
</g>
<!-- auth_user_user_permissions&#45;&gt;auth_user -->
<g id="edge4" class="edge">
<title>auth_user_user_permissions:w&#45;&gt;auth_user:e</title>
<path fill="none" stroke="#000000" d="M494.7269,-150.753C468.0743,-163.8601 474.719,-214.7 436.5,-214.7"/>
<polygon fill="#000000" stroke="#000000" points="501.177,-149.3734 509.753,-151.2204 505.0885,-148.5367 509,-147.7 509,-147.7 509,-147.7 505.0885,-148.5367 508.247,-144.1796 501.177,-149.3734 501.177,-149.3734"/>
<ellipse fill="none" stroke="#000000" cx="498.0477" cy="-150.0427" rx="3.2" ry="3.2"/>
</g>
<!-- django_admin_log -->
<g id="node6" class="node">
<title>django_admin_log</title>
<g id="a_node6"><a xlink:href="../../tables/django_admin_log.html" xlink:title="django_admin_log" target="_top">
<polygon fill="#ffffff" stroke="transparent" points="546,-202.2 546,-329.2 716,-329.2 716,-202.2 546,-202.2"/>
<polygon fill="#f5f5f5" stroke="transparent" points="546,-305.7 546,-328.7 716,-328.7 716,-305.7 546,-305.7"/>
<polygon fill="none" stroke="#000000" points="546,-305.7 546,-328.7 716,-328.7 716,-305.7 546,-305.7"/>
<text text-anchor="start" x="551" y="-314.3" font-family="Helvetica,sans-Serif" font-weight="bold" font-size="11.00" fill="#000000">django_admin_log</text>
<text text-anchor="start" x="681.5219" y="-313.8" font-family="Helvetica,sans-Serif" font-size="11.00" fill="#000000">[table]</text>
<polygon fill="none" stroke="#000000" points="546,-283.7 546,-305.7 716,-305.7 716,-283.7 546,-283.7"/>
<image xlink:href="../../images/primaryKeys.png" width="11px" height="12px" preserveAspectRatio="xMinYMin meet" x="551" y="-300.7"/>
<text text-anchor="start" x="575" y="-290.8" font-family="Helvetica,sans-Serif" font-size="11.00" fill="#000000">id</text>
<polygon fill="#ffffff" stroke="transparent" points="546,-261.7 546,-283.7 716,-283.7 716,-261.7 546,-261.7"/>
<polygon fill="none" stroke="#000000" points="546,-261.7 546,-283.7 716,-283.7 716,-261.7 546,-261.7"/>
<image xlink:href="../../images/foreignKeys.png" width="11px" height="12px" preserveAspectRatio="xMinYMin meet" x="551" y="-278.7"/>
<text text-anchor="start" x="575" y="-268.8" font-family="Helvetica,sans-Serif" font-size="11.00" fill="#000000">content_type_id</text>
<polygon fill="#ffffff" stroke="transparent" points="546,-239.7 546,-261.7 716,-261.7 716,-239.7 546,-239.7"/>
<polygon fill="none" stroke="#000000" points="546,-239.7 546,-261.7 716,-261.7 716,-239.7 546,-239.7"/>
<image xlink:href="../../images/foreignKeys.png" width="11px" height="12px" preserveAspectRatio="xMinYMin meet" x="551" y="-256.7"/>
<text text-anchor="start" x="575" y="-246.8" font-family="Helvetica,sans-Serif" font-size="11.00" fill="#000000">user_id</text>
<polygon fill="none" stroke="#000000" points="546,-220.7 546,-239.7 716,-239.7 716,-220.7 546,-220.7"/>
<text text-anchor="start" x="549" y="-226.8" font-family="Helvetica,sans-Serif" font-size="11.00" fill="#000000">...</text>
<polygon fill="#ffffff" stroke="transparent" points="546,-201.7 546,-220.7 716,-220.7 716,-201.7 546,-201.7"/>
<polygon fill="none" stroke="#000000" points="546,-201.7 546,-220.7 716,-220.7 716,-201.7 546,-201.7"/>
<polygon fill="#ffffff" stroke="transparent" points="547,-202.7 547,-219.7 609,-219.7 609,-202.7 547,-202.7"/>
<text text-anchor="start" x="549" y="-207.8" font-family="Helvetica,sans-Serif" font-size="11.00" fill="#000000">&lt; 2</text>
<polygon fill="#ffffff" stroke="transparent" points="609,-202.7 609,-219.7 662,-219.7 662,-202.7 609,-202.7"/>
<text text-anchor="start" x="632.4431" y="-207.8" font-family="Helvetica,sans-Serif" font-size="11.00" fill="#000000"> &#160;</text>
<polygon fill="#ffffff" stroke="transparent" points="662,-202.7 662,-219.7 715,-219.7 715,-202.7 662,-202.7"/>
<text text-anchor="start" x="706.8862" y="-207.8" font-family="Helvetica,sans-Serif" font-size="11.00" fill="#000000"> &#160;</text>
<polygon fill="#000000" stroke="#000000" points="609,-202.7 609,-219.7 609,-219.7 609,-202.7 609,-202.7"/>
<polygon fill="#000000" stroke="#000000" points="662,-202.7 662,-219.7 662,-219.7 662,-202.7 662,-202.7"/>
</a>
</g>
</g>
<!-- django_admin_log&#45;&gt;django_content_type -->
<g id="edge5" class="edge">
<title>django_admin_log:w&#45;&gt;django_content_type:e</title>
<path fill="none" stroke="#000000" d="M531.5444,-272.9372C429.4757,-276.2894 385.8362,-313.232 293,-258.7 262.1679,-240.5892 285.7578,-190.7 250,-190.7"/>
<polygon fill="#000000" stroke="#000000" points="538.0011,-272.8313 546.0591,-276.2995 542.0005,-272.7657 546,-272.7 546,-272.7 546,-272.7 542.0005,-272.7657 545.9409,-269.1005 538.0011,-272.8313 538.0011,-272.8313"/>
<ellipse fill="none" stroke="#000000" cx="534.8015" cy="-272.8838" rx="3.2" ry="3.2"/>
</g>
<!-- django_admin_log&#45;&gt;auth_user -->
<g id="edge6" class="edge">
<title>django_admin_log:w&#45;&gt;auth_user:e</title>
<path fill="none" stroke="#000000" d="M531.4134,-249.6226C492.8394,-243.6326 482.4263,-214.7 436.5,-214.7"/>
<polygon fill="#000000" stroke="#000000" points="538.0217,-250.1107 545.7348,-254.2902 542.0109,-250.4053 546,-250.7 546,-250.7 546,-250.7 542.0109,-250.4053 546.2652,-247.1098 538.0217,-250.1107 538.0217,-250.1107"/>
<ellipse fill="none" stroke="#000000" cx="534.8304" cy="-249.8749" rx="3.2" ry="3.2"/>
</g>
</g>
</svg>
