<?xml version="1.0" encoding="UTF-8" standalone="no"?>
<!DOCTYPE svg PUBLIC "-//W3C//DTD SVG 1.1//EN"
 "http://www.w3.org/Graphics/SVG/1.1/DTD/svg11.dtd">
<!-- Generated by graphviz version 2.40.1 (20161225.0304)
 -->
<!-- Title: oneDegreeRelationshipsDiagram Pages: 1 -->
<svg width="512pt" height="365pt"
 viewBox="0.00 0.00 512.00 364.70" xmlns="http://www.w3.org/2000/svg" xmlns:xlink="http://www.w3.org/1999/xlink">
<g id="graph0" class="graph" transform="scale(1 1) rotate(0) translate(4 360.7)">
<title>oneDegreeRelationshipsDiagram</title>
<polygon fill="#ffffff" stroke="transparent" points="-4,4 -4,-360.7 508,-360.7 508,4 -4,4"/>
<text text-anchor="middle" x="72.4936" y="-7.3" font-family="Helvetica,sans-Serif" font-size="11.00" fill="#000000">Generated by SchemaSpy</text>
<!-- django_admin_log -->
<g id="node1" class="node">
<title>django_admin_log</title>
<g id="a_node1"><a xlink:href="../../tables/django_admin_log.html" xlink:title="django_admin_log" target="_top">
<polygon fill="#ffffff" stroke="transparent" points="248,-130.7 248,-352.7 496,-352.7 496,-130.7 248,-130.7"/>
<polygon fill="#f5f5f5" stroke="transparent" points="250,-327.7 250,-350.7 494,-350.7 494,-327.7 250,-327.7"/>
<polygon fill="none" stroke="#000000" points="250,-327.7 250,-350.7 494,-350.7 494,-327.7 250,-327.7"/>
<text text-anchor="start" x="255" y="-336.3" font-family="Helvetica,sans-Serif" font-weight="bold" font-size="11.00" fill="#000000">django_admin_log</text>
<text text-anchor="start" x="459.0437" y="-335.8" font-family="Helvetica,sans-Serif" font-size="11.00" fill="#000000">[table]</text>
<polygon fill="none" stroke="#000000" points="250,-305.7 250,-327.7 402,-327.7 402,-305.7 250,-305.7"/>
<image xlink:href="../../images/primaryKeys.png" width="11px" height="12px" preserveAspectRatio="xMinYMin meet" x="255" y="-322.7"/>
<text text-anchor="start" x="270" y="-312.8" font-family="Helvetica,sans-Serif" font-size="11.00" fill="#000000">id</text>
<polygon fill="none" stroke="#000000" points="402,-305.7 402,-327.7 494,-327.7 494,-305.7 402,-305.7"/>
<text text-anchor="start" x="405" y="-313.4" font-family="Helvetica,sans-Serif" font-size="11.00" fill="#000000">int4[10]</text>
<polygon fill="none" stroke="#000000" points="250,-283.7 250,-305.7 402,-305.7 402,-283.7 250,-283.7"/>
<text text-anchor="start" x="270" y="-290.8" font-family="Helvetica,sans-Serif" font-size="11.00" fill="#000000">action_time</text>
<polygon fill="none" stroke="#000000" points="402,-283.7 402,-305.7 494,-305.7 494,-283.7 402,-283.7"/>
<text text-anchor="start" x="404.6023" y="-291.4" font-family="Helvetica,sans-Serif" font-size="11.00" fill="#000000">timestamptz[35,6]</text>
<polygon fill="none" stroke="#000000" points="250,-261.7 250,-283.7 402,-283.7 402,-261.7 250,-261.7"/>
<text text-anchor="start" x="270" y="-268.8" font-family="Helvetica,sans-Serif" font-size="11.00" fill="#000000">object_id</text>
<polygon fill="none" stroke="#000000" points="402,-261.7 402,-283.7 494,-283.7 494,-261.7 402,-261.7"/>
<text text-anchor="start" x="405" y="-269.4" font-family="Helvetica,sans-Serif" font-size="11.00" fill="#000000">text[2147483647]</text>
<polygon fill="none" stroke="#000000" points="250,-239.7 250,-261.7 402,-261.7 402,-239.7 250,-239.7"/>
<text text-anchor="start" x="270" y="-246.8" font-family="Helvetica,sans-Serif" font-size="11.00" fill="#000000">object_repr</text>
<polygon fill="none" stroke="#000000" points="402,-239.7 402,-261.7 494,-261.7 494,-239.7 402,-239.7"/>
<text text-anchor="start" x="405" y="-247.4" font-family="Helvetica,sans-Serif" font-size="11.00" fill="#000000">varchar[200]</text>
<polygon fill="none" stroke="#000000" points="250,-217.7 250,-239.7 402,-239.7 402,-217.7 250,-217.7"/>
<text text-anchor="start" x="270" y="-224.8" font-family="Helvetica,sans-Serif" font-size="11.00" fill="#000000">action_flag</text>
<polygon fill="none" stroke="#000000" points="402,-217.7 402,-239.7 494,-239.7 494,-217.7 402,-217.7"/>
<text text-anchor="start" x="405" y="-225.4" font-family="Helvetica,sans-Serif" font-size="11.00" fill="#000000">int2[5]</text>
<polygon fill="none" stroke="#000000" points="250,-195.7 250,-217.7 402,-217.7 402,-195.7 250,-195.7"/>
<text text-anchor="start" x="270" y="-202.8" font-family="Helvetica,sans-Serif" font-size="11.00" fill="#000000">change_message</text>
<polygon fill="none" stroke="#000000" points="402,-195.7 402,-217.7 494,-217.7 494,-195.7 402,-195.7"/>
<text text-anchor="start" x="405" y="-203.4" font-family="Helvetica,sans-Serif" font-size="11.00" fill="#000000">text[2147483647]</text>
<polygon fill="#ffffff" stroke="transparent" points="250,-173.7 250,-195.7 402,-195.7 402,-173.7 250,-173.7"/>
<polygon fill="none" stroke="#000000" points="250,-173.7 250,-195.7 402,-195.7 402,-173.7 250,-173.7"/>
<image xlink:href="../../images/foreignKeys.png" width="11px" height="12px" preserveAspectRatio="xMinYMin meet" x="255" y="-190.7"/>
<text text-anchor="start" x="270" y="-180.8" font-family="Helvetica,sans-Serif" font-size="11.00" fill="#000000">content_type_id</text>
<polygon fill="none" stroke="#000000" points="402,-173.7 402,-195.7 494,-195.7 494,-173.7 402,-173.7"/>
<text text-anchor="start" x="405" y="-181.4" font-family="Helvetica,sans-Serif" font-size="11.00" fill="#000000">int4[10]</text>
<polygon fill="#ffffff" stroke="transparent" points="250,-151.7 250,-173.7 402,-173.7 402,-151.7 250,-151.7"/>
<polygon fill="none" stroke="#000000" points="250,-151.7 250,-173.7 402,-173.7 402,-151.7 250,-151.7"/>
<image xlink:href="../../images/foreignKeys.png" width="11px" height="12px" preserveAspectRatio="xMinYMin meet" x="255" y="-168.7"/>
<text text-anchor="start" x="270" y="-158.8" font-family="Helvetica,sans-Serif" font-size="11.00" fill="#000000">user_id</text>
<polygon fill="none" stroke="#000000" points="402,-151.7 402,-173.7 494,-173.7 494,-151.7 402,-151.7"/>
<text text-anchor="start" x="405" y="-159.4" font-family="Helvetica,sans-Serif" font-size="11.00" fill="#000000">int4[10]</text>
<polygon fill="#ffffff" stroke="transparent" points="250,-132.7 250,-151.7 494,-151.7 494,-132.7 250,-132.7"/>
<polygon fill="none" stroke="#000000" points="250,-132.7 250,-151.7 494,-151.7 494,-132.7 250,-132.7"/>
<polygon fill="#ffffff" stroke="transparent" points="251,-133.7 251,-150.7 335,-150.7 335,-133.7 251,-133.7"/>
<text text-anchor="start" x="253" y="-138.8" font-family="Helvetica,sans-Serif" font-size="11.00" fill="#000000">&lt; 2</text>
<polygon fill="#ffffff" stroke="transparent" points="335,-133.7 335,-150.7 410,-150.7 410,-133.7 335,-133.7"/>
<text text-anchor="start" x="369.4431" y="-138.8" font-family="Helvetica,sans-Serif" font-size="11.00" fill="#000000"> &#160;</text>
<polygon fill="#ffffff" stroke="transparent" points="410,-133.7 410,-150.7 493,-150.7 493,-133.7 410,-133.7"/>
<text text-anchor="start" x="475.4053" y="-138.8" font-family="Helvetica,sans-Serif" font-size="11.00" fill="#000000">0 &gt;</text>
<polygon fill="#000000" stroke="#000000" points="335,-133.7 335,-150.7 335,-150.7 335,-133.7 335,-133.7"/>
<polygon fill="#000000" stroke="#000000" points="410,-133.7 410,-150.7 410,-150.7 410,-133.7 410,-133.7"/>
<polygon fill="none" stroke="#000000" stroke-width="2" points="249,-131.7 249,-351.7 495,-351.7 495,-131.7 249,-131.7"/>
</a>
</g>
</g>
<!-- django_content_type -->
<g id="node2" class="node">
<title>django_content_type</title>
<g id="a_node2"><a xlink:href="../../tables/django_content_type.html" xlink:title="django_content_type" target="_top">
<polygon fill="#ffffff" stroke="transparent" points="8,-164.7 8,-272.7 199,-272.7 199,-164.7 8,-164.7"/>
<polygon fill="#f5f5f5" stroke="transparent" points="8.5,-249.7 8.5,-272.7 199.5,-272.7 199.5,-249.7 8.5,-249.7"/>
<polygon fill="none" stroke="#000000" points="8.5,-249.7 8.5,-272.7 199.5,-272.7 199.5,-249.7 8.5,-249.7"/>
<text text-anchor="start" x="13.5" y="-258.3" font-family="Helvetica,sans-Serif" font-weight="bold" font-size="11.00" fill="#000000">django_content_type</text>
<text text-anchor="start" x="165.0219" y="-257.8" font-family="Helvetica,sans-Serif" font-size="11.00" fill="#000000">[table]</text>
<polygon fill="none" stroke="#000000" points="8.5,-227.7 8.5,-249.7 199.5,-249.7 199.5,-227.7 8.5,-227.7"/>
<image xlink:href="../../images/primaryKeys.png" width="11px" height="12px" preserveAspectRatio="xMinYMin meet" x="13.5" y="-244.7"/>
<text text-anchor="start" x="37.5" y="-234.8" font-family="Helvetica,sans-Serif" font-size="11.00" fill="#000000">id</text>
<polygon fill="#ffffff" stroke="transparent" points="8.5,-205.7 8.5,-227.7 199.5,-227.7 199.5,-205.7 8.5,-205.7"/>
<polygon fill="none" stroke="#000000" points="8.5,-205.7 8.5,-227.7 199.5,-227.7 199.5,-205.7 8.5,-205.7"/>
<text text-anchor="start" x="37.5" y="-212.8" font-family="Helvetica,sans-Serif" font-size="11.00" fill="#000000">app_label</text>
<polygon fill="#ffffff" stroke="transparent" points="8.5,-183.7 8.5,-205.7 199.5,-205.7 199.5,-183.7 8.5,-183.7"/>
<polygon fill="none" stroke="#000000" points="8.5,-183.7 8.5,-205.7 199.5,-205.7 199.5,-183.7 8.5,-183.7"/>
<text text-anchor="start" x="37.5" y="-190.8" font-family="Helvetica,sans-Serif" font-size="11.00" fill="#000000">model</text>
<polygon fill="#ffffff" stroke="transparent" points="8.5,-164.7 8.5,-183.7 199.5,-183.7 199.5,-164.7 8.5,-164.7"/>
<polygon fill="none" stroke="#000000" points="8.5,-164.7 8.5,-183.7 199.5,-183.7 199.5,-164.7 8.5,-164.7"/>
<polygon fill="#ffffff" stroke="transparent" points="9.5,-165.7 9.5,-182.7 69.5,-182.7 69.5,-165.7 9.5,-165.7"/>
<text text-anchor="start" x="11.5" y="-170.8" font-family="Helvetica,sans-Serif" font-size="11.00" fill="#000000"> &#160;</text>
<polygon fill="#ffffff" stroke="transparent" points="69.5,-165.7 69.5,-182.7 129.5,-182.7 129.5,-165.7 69.5,-165.7"/>
<text text-anchor="start" x="96.4431" y="-170.8" font-family="Helvetica,sans-Serif" font-size="11.00" fill="#000000"> &#160;</text>
<polygon fill="#ffffff" stroke="transparent" points="129.5,-165.7 129.5,-182.7 198.5,-182.7 198.5,-165.7 129.5,-165.7"/>
<text text-anchor="start" x="180.9053" y="-170.8" font-family="Helvetica,sans-Serif" font-size="11.00" fill="#000000">2 &gt;</text>
<polygon fill="#000000" stroke="#000000" points="69.5,-165.7 69.5,-182.7 69.5,-182.7 69.5,-165.7 69.5,-165.7"/>
<polygon fill="#000000" stroke="#000000" points="129.5,-165.7 129.5,-182.7 129.5,-182.7 129.5,-165.7 129.5,-165.7"/>
</a>
</g>
</g>
<!-- django_admin_log&#45;&gt;django_content_type -->
<g id="edge1" class="edge">
<title>django_admin_log:w&#45;&gt;django_content_type:e</title>
<path fill="none" stroke="#000000" d="M235.9534,-189.6834C221.1573,-203.0516 226.1984,-238.7 199.5,-238.7"/>
<polygon fill="#000000" stroke="#000000" points="242.4604,-187.3749 251.2037,-188.0928 246.2302,-186.0375 250,-184.7 250,-184.7 250,-184.7 246.2302,-186.0375 248.7963,-181.3072 242.4604,-187.3749 242.4604,-187.3749"/>
<ellipse fill="none" stroke="#000000" cx="239.4446" cy="-188.4449" rx="3.2" ry="3.2"/>
</g>
<!-- auth_user -->
<g id="node3" class="node">
<title>auth_user</title>
<g id="a_node3"><a xlink:href="../../tables/auth_user.html" xlink:title="auth_user" target="_top">
<polygon fill="#ffffff" stroke="transparent" points="47,-38.2 47,-143.2 160,-143.2 160,-38.2 47,-38.2"/>
<polygon fill="#f5f5f5" stroke="transparent" points="47.5,-119.7 47.5,-142.7 160.5,-142.7 160.5,-119.7 47.5,-119.7"/>
<polygon fill="none" stroke="#000000" points="47.5,-119.7 47.5,-142.7 160.5,-142.7 160.5,-119.7 47.5,-119.7"/>
<text text-anchor="start" x="52.5" y="-128.3" font-family="Helvetica,sans-Serif" font-weight="bold" font-size="11.00" fill="#000000">auth_user</text>
<text text-anchor="start" x="125.5437" y="-127.8" font-family="Helvetica,sans-Serif" font-size="11.00" fill="#000000">[table]</text>
<polygon fill="none" stroke="#000000" points="47.5,-97.7 47.5,-119.7 160.5,-119.7 160.5,-97.7 47.5,-97.7"/>
<image xlink:href="../../images/primaryKeys.png" width="11px" height="12px" preserveAspectRatio="xMinYMin meet" x="52.5" y="-114.7"/>
<text text-anchor="start" x="67.5" y="-104.8" font-family="Helvetica,sans-Serif" font-size="11.00" fill="#000000">id</text>
<polygon fill="#ffffff" stroke="transparent" points="47.5,-75.7 47.5,-97.7 160.5,-97.7 160.5,-75.7 47.5,-75.7"/>
<polygon fill="none" stroke="#000000" points="47.5,-75.7 47.5,-97.7 160.5,-97.7 160.5,-75.7 47.5,-75.7"/>
<text text-anchor="start" x="67.5" y="-82.8" font-family="Helvetica,sans-Serif" font-size="11.00" fill="#000000">username</text>
<polygon fill="none" stroke="#000000" points="47.5,-56.7 47.5,-75.7 160.5,-75.7 160.5,-56.7 47.5,-56.7"/>
<text text-anchor="start" x="50.5" y="-62.8" font-family="Helvetica,sans-Serif" font-size="11.00" fill="#000000">...</text>
<polygon fill="#ffffff" stroke="transparent" points="47.5,-37.7 47.5,-56.7 160.5,-56.7 160.5,-37.7 47.5,-37.7"/>
<polygon fill="none" stroke="#000000" points="47.5,-37.7 47.5,-56.7 160.5,-56.7 160.5,-37.7 47.5,-37.7"/>
<polygon fill="#ffffff" stroke="transparent" points="48.5,-38.7 48.5,-55.7 82.5,-55.7 82.5,-38.7 48.5,-38.7"/>
<text text-anchor="start" x="50.5" y="-43.8" font-family="Helvetica,sans-Serif" font-size="11.00" fill="#000000"> &#160;</text>
<polygon fill="#ffffff" stroke="transparent" points="82.5,-38.7 82.5,-55.7 116.5,-55.7 116.5,-38.7 82.5,-38.7"/>
<text text-anchor="start" x="96.4431" y="-43.8" font-family="Helvetica,sans-Serif" font-size="11.00" fill="#000000"> &#160;</text>
<polygon fill="#ffffff" stroke="transparent" points="116.5,-38.7 116.5,-55.7 159.5,-55.7 159.5,-38.7 116.5,-38.7"/>
<text text-anchor="start" x="141.9053" y="-43.8" font-family="Helvetica,sans-Serif" font-size="11.00" fill="#000000">5 &gt;</text>
<polygon fill="#000000" stroke="#000000" points="82.5,-38.7 82.5,-55.7 82.5,-55.7 82.5,-38.7 82.5,-38.7"/>
<polygon fill="#000000" stroke="#000000" points="116.5,-38.7 116.5,-55.7 116.5,-55.7 116.5,-38.7 116.5,-38.7"/>
</a>
</g>
</g>
<!-- django_admin_log&#45;&gt;auth_user -->
<g id="edge2" class="edge">
<title>django_admin_log:w&#45;&gt;auth_user:e</title>
<path fill="none" stroke="#000000" d="M235.5615,-160.6491C203.6582,-150.7853 201.513,-108.7 160.5,-108.7"/>
<polygon fill="#000000" stroke="#000000" points="242.0795,-161.5749 249.4937,-166.2642 246.0398,-162.1374 250,-162.7 250,-162.7 250,-162.7 246.0398,-162.1374 250.5063,-159.1358 242.0795,-161.5749 242.0795,-161.5749"/>
<ellipse fill="none" stroke="#000000" cx="238.9113" cy="-161.1248" rx="3.2" ry="3.2"/>
</g>
</g>
</svg>
