<?xml version="1.0" encoding="UTF-8" standalone="no"?>
<!DOCTYPE svg PUBLIC "-//W3C//DTD SVG 1.1//EN"
 "http://www.w3.org/Graphics/SVG/1.1/DTD/svg11.dtd">
<!-- Generated by graphviz version 2.40.1 (20161225.0304)
 -->
<!-- Title: twoDegreesRelationshipsDiagram Pages: 1 -->
<svg width="758pt" height="601pt"
 viewBox="0.00 0.00 758.00 600.70" xmlns="http://www.w3.org/2000/svg" xmlns:xlink="http://www.w3.org/1999/xlink">
<g id="graph0" class="graph" transform="scale(1 1) rotate(0) translate(4 596.7)">
<title>twoDegreesRelationshipsDiagram</title>
<polygon fill="#ffffff" stroke="transparent" points="-4,4 -4,-596.7 754,-596.7 754,4 -4,4"/>
<text text-anchor="middle" x="72.4936" y="-7.3" font-family="Helvetica,sans-Serif" font-size="11.00" fill="#000000">Generated by SchemaSpy</text>
<!-- auth_permission -->
<g id="node1" class="node">
<title>auth_permission</title>
<g id="a_node1"><a xlink:href="../../tables/auth_permission.html" xlink:title="auth_permission" target="_top">
<polygon fill="#ffffff" stroke="transparent" points="248,-57.2 248,-118.2 407,-118.2 407,-57.2 248,-57.2"/>
<polygon fill="#f5f5f5" stroke="transparent" points="248.5,-94.7 248.5,-117.7 407.5,-117.7 407.5,-94.7 248.5,-94.7"/>
<polygon fill="none" stroke="#000000" points="248.5,-94.7 248.5,-117.7 407.5,-117.7 407.5,-94.7 248.5,-94.7"/>
<text text-anchor="start" x="253.5" y="-103.3" font-family="Helvetica,sans-Serif" font-weight="bold" font-size="11.00" fill="#000000">auth_permission</text>
<text text-anchor="start" x="373.0219" y="-102.8" font-family="Helvetica,sans-Serif" font-size="11.00" fill="#000000">[table]</text>
<polygon fill="none" stroke="#000000" points="248.5,-75.7 248.5,-94.7 407.5,-94.7 407.5,-75.7 248.5,-75.7"/>
<text text-anchor="start" x="251.5" y="-81.8" font-family="Helvetica,sans-Serif" font-size="11.00" fill="#000000">...</text>
<polygon fill="#ffffff" stroke="transparent" points="248.5,-56.7 248.5,-75.7 407.5,-75.7 407.5,-56.7 248.5,-56.7"/>
<polygon fill="none" stroke="#000000" points="248.5,-56.7 248.5,-75.7 407.5,-75.7 407.5,-56.7 248.5,-56.7"/>
<polygon fill="#ffffff" stroke="transparent" points="249.5,-57.7 249.5,-74.7 305.5,-74.7 305.5,-57.7 249.5,-57.7"/>
<text text-anchor="start" x="251.5" y="-62.8" font-family="Helvetica,sans-Serif" font-size="11.00" fill="#000000">&lt; 1</text>
<polygon fill="#ffffff" stroke="transparent" points="305.5,-57.7 305.5,-74.7 351.5,-74.7 351.5,-57.7 305.5,-57.7"/>
<text text-anchor="start" x="325.4431" y="-62.8" font-family="Helvetica,sans-Serif" font-size="11.00" fill="#000000"> &#160;</text>
<polygon fill="#ffffff" stroke="transparent" points="351.5,-57.7 351.5,-74.7 406.5,-74.7 406.5,-57.7 351.5,-57.7"/>
<text text-anchor="start" x="388.9053" y="-62.8" font-family="Helvetica,sans-Serif" font-size="11.00" fill="#000000">2 &gt;</text>
<polygon fill="#000000" stroke="#000000" points="305.5,-57.7 305.5,-74.7 305.5,-74.7 305.5,-57.7 305.5,-57.7"/>
<polygon fill="#000000" stroke="#000000" points="351.5,-57.7 351.5,-74.7 351.5,-74.7 351.5,-57.7 351.5,-57.7"/>
</a>
</g>
</g>
<!-- django_content_type -->
<g id="node2" class="node">
<title>django_content_type</title>
<g id="a_node2"><a xlink:href="../../tables/django_content_type.html" xlink:title="django_content_type" target="_top">
<polygon fill="#ffffff" stroke="transparent" points="8,-121.7 8,-229.7 199,-229.7 199,-121.7 8,-121.7"/>
<polygon fill="#f5f5f5" stroke="transparent" points="8.5,-206.7 8.5,-229.7 199.5,-229.7 199.5,-206.7 8.5,-206.7"/>
<polygon fill="none" stroke="#000000" points="8.5,-206.7 8.5,-229.7 199.5,-229.7 199.5,-206.7 8.5,-206.7"/>
<text text-anchor="start" x="13.5" y="-215.3" font-family="Helvetica,sans-Serif" font-weight="bold" font-size="11.00" fill="#000000">django_content_type</text>
<text text-anchor="start" x="165.0219" y="-214.8" font-family="Helvetica,sans-Serif" font-size="11.00" fill="#000000">[table]</text>
<polygon fill="none" stroke="#000000" points="8.5,-184.7 8.5,-206.7 199.5,-206.7 199.5,-184.7 8.5,-184.7"/>
<image xlink:href="../../images/primaryKeys.png" width="11px" height="12px" preserveAspectRatio="xMinYMin meet" x="13.5" y="-201.7"/>
<text text-anchor="start" x="37.5" y="-191.8" font-family="Helvetica,sans-Serif" font-size="11.00" fill="#000000">id</text>
<polygon fill="#ffffff" stroke="transparent" points="8.5,-162.7 8.5,-184.7 199.5,-184.7 199.5,-162.7 8.5,-162.7"/>
<polygon fill="none" stroke="#000000" points="8.5,-162.7 8.5,-184.7 199.5,-184.7 199.5,-162.7 8.5,-162.7"/>
<text text-anchor="start" x="37.5" y="-169.8" font-family="Helvetica,sans-Serif" font-size="11.00" fill="#000000">app_label</text>
<polygon fill="#ffffff" stroke="transparent" points="8.5,-140.7 8.5,-162.7 199.5,-162.7 199.5,-140.7 8.5,-140.7"/>
<polygon fill="none" stroke="#000000" points="8.5,-140.7 8.5,-162.7 199.5,-162.7 199.5,-140.7 8.5,-140.7"/>
<text text-anchor="start" x="37.5" y="-147.8" font-family="Helvetica,sans-Serif" font-size="11.00" fill="#000000">model</text>
<polygon fill="#ffffff" stroke="transparent" points="8.5,-121.7 8.5,-140.7 199.5,-140.7 199.5,-121.7 8.5,-121.7"/>
<polygon fill="none" stroke="#000000" points="8.5,-121.7 8.5,-140.7 199.5,-140.7 199.5,-121.7 8.5,-121.7"/>
<polygon fill="#ffffff" stroke="transparent" points="9.5,-122.7 9.5,-139.7 69.5,-139.7 69.5,-122.7 9.5,-122.7"/>
<text text-anchor="start" x="11.5" y="-127.8" font-family="Helvetica,sans-Serif" font-size="11.00" fill="#000000"> &#160;</text>
<polygon fill="#ffffff" stroke="transparent" points="69.5,-122.7 69.5,-139.7 129.5,-139.7 129.5,-122.7 69.5,-122.7"/>
<text text-anchor="start" x="96.4431" y="-127.8" font-family="Helvetica,sans-Serif" font-size="11.00" fill="#000000"> &#160;</text>
<polygon fill="#ffffff" stroke="transparent" points="129.5,-122.7 129.5,-139.7 198.5,-139.7 198.5,-122.7 129.5,-122.7"/>
<text text-anchor="start" x="180.9053" y="-127.8" font-family="Helvetica,sans-Serif" font-size="11.00" fill="#000000">2 &gt;</text>
<polygon fill="#000000" stroke="#000000" points="69.5,-122.7 69.5,-139.7 69.5,-139.7 69.5,-122.7 69.5,-122.7"/>
<polygon fill="#000000" stroke="#000000" points="129.5,-122.7 129.5,-139.7 129.5,-139.7 129.5,-122.7 129.5,-122.7"/>
</a>
</g>
</g>
<!-- auth_permission&#45;&gt;django_content_type -->
<g id="edge1" class="edge">
<title>auth_permission:w&#45;&gt;django_content_type:e</title>
<path fill="none" stroke="#000000" d="M234.5578,-88.3932C206.0985,-107.6534 247.5281,-195.7 199.5,-195.7"/>
<polygon fill="#000000" stroke="#000000" points="240.7667,-86.7485 249.4218,-88.18 244.6334,-85.7243 248.5,-84.7 248.5,-84.7 248.5,-84.7 244.6334,-85.7243 247.5782,-81.22 240.7667,-86.7485 240.7667,-86.7485"/>
<ellipse fill="none" stroke="#000000" cx="237.6734" cy="-87.5679" rx="3.2" ry="3.2"/>
</g>
<!-- auth_user_groups -->
<g id="node3" class="node">
<title>auth_user_groups</title>
<g id="a_node3"><a xlink:href="../../tables/auth_user_groups.html" xlink:title="auth_user_groups" target="_top">
<polygon fill="#ffffff" stroke="transparent" points="515,-284.2 515,-345.2 683,-345.2 683,-284.2 515,-284.2"/>
<polygon fill="#f5f5f5" stroke="transparent" points="515,-321.7 515,-344.7 683,-344.7 683,-321.7 515,-321.7"/>
<polygon fill="none" stroke="#000000" points="515,-321.7 515,-344.7 683,-344.7 683,-321.7 515,-321.7"/>
<text text-anchor="start" x="520" y="-330.3" font-family="Helvetica,sans-Serif" font-weight="bold" font-size="11.00" fill="#000000">auth_user_groups</text>
<text text-anchor="start" x="648.5219" y="-329.8" font-family="Helvetica,sans-Serif" font-size="11.00" fill="#000000">[table]</text>
<polygon fill="none" stroke="#000000" points="515,-302.7 515,-321.7 683,-321.7 683,-302.7 515,-302.7"/>
<text text-anchor="start" x="518" y="-308.8" font-family="Helvetica,sans-Serif" font-size="11.00" fill="#000000">...</text>
<polygon fill="#ffffff" stroke="transparent" points="515,-283.7 515,-302.7 683,-302.7 683,-283.7 515,-283.7"/>
<polygon fill="none" stroke="#000000" points="515,-283.7 515,-302.7 683,-302.7 683,-283.7 515,-283.7"/>
<polygon fill="#ffffff" stroke="transparent" points="516,-284.7 516,-301.7 578,-301.7 578,-284.7 516,-284.7"/>
<text text-anchor="start" x="518" y="-289.8" font-family="Helvetica,sans-Serif" font-size="11.00" fill="#000000">&lt; 2</text>
<polygon fill="#ffffff" stroke="transparent" points="578,-284.7 578,-301.7 630,-301.7 630,-284.7 578,-284.7"/>
<text text-anchor="start" x="600.9431" y="-289.8" font-family="Helvetica,sans-Serif" font-size="11.00" fill="#000000"> &#160;</text>
<polygon fill="#ffffff" stroke="transparent" points="630,-284.7 630,-301.7 682,-301.7 682,-284.7 630,-284.7"/>
<text text-anchor="start" x="673.8862" y="-289.8" font-family="Helvetica,sans-Serif" font-size="11.00" fill="#000000"> &#160;</text>
<polygon fill="#000000" stroke="#000000" points="578,-284.7 578,-301.7 578,-301.7 578,-284.7 578,-284.7"/>
<polygon fill="#000000" stroke="#000000" points="630,-284.7 630,-301.7 630,-301.7 630,-284.7 630,-284.7"/>
</a>
</g>
</g>
<!-- auth_user -->
<g id="node4" class="node">
<title>auth_user</title>
<g id="a_node4"><a xlink:href="../../tables/auth_user.html" xlink:title="auth_user" target="_top">
<polygon fill="#ffffff" stroke="transparent" points="271,-159.2 271,-264.2 384,-264.2 384,-159.2 271,-159.2"/>
<polygon fill="#f5f5f5" stroke="transparent" points="271.5,-240.7 271.5,-263.7 384.5,-263.7 384.5,-240.7 271.5,-240.7"/>
<polygon fill="none" stroke="#000000" points="271.5,-240.7 271.5,-263.7 384.5,-263.7 384.5,-240.7 271.5,-240.7"/>
<text text-anchor="start" x="276.5" y="-249.3" font-family="Helvetica,sans-Serif" font-weight="bold" font-size="11.00" fill="#000000">auth_user</text>
<text text-anchor="start" x="349.5437" y="-248.8" font-family="Helvetica,sans-Serif" font-size="11.00" fill="#000000">[table]</text>
<polygon fill="none" stroke="#000000" points="271.5,-218.7 271.5,-240.7 384.5,-240.7 384.5,-218.7 271.5,-218.7"/>
<image xlink:href="../../images/primaryKeys.png" width="11px" height="12px" preserveAspectRatio="xMinYMin meet" x="276.5" y="-235.7"/>
<text text-anchor="start" x="291.5" y="-225.8" font-family="Helvetica,sans-Serif" font-size="11.00" fill="#000000">id</text>
<polygon fill="#ffffff" stroke="transparent" points="271.5,-196.7 271.5,-218.7 384.5,-218.7 384.5,-196.7 271.5,-196.7"/>
<polygon fill="none" stroke="#000000" points="271.5,-196.7 271.5,-218.7 384.5,-218.7 384.5,-196.7 271.5,-196.7"/>
<text text-anchor="start" x="291.5" y="-203.8" font-family="Helvetica,sans-Serif" font-size="11.00" fill="#000000">username</text>
<polygon fill="none" stroke="#000000" points="271.5,-177.7 271.5,-196.7 384.5,-196.7 384.5,-177.7 271.5,-177.7"/>
<text text-anchor="start" x="274.5" y="-183.8" font-family="Helvetica,sans-Serif" font-size="11.00" fill="#000000">...</text>
<polygon fill="#ffffff" stroke="transparent" points="271.5,-158.7 271.5,-177.7 384.5,-177.7 384.5,-158.7 271.5,-158.7"/>
<polygon fill="none" stroke="#000000" points="271.5,-158.7 271.5,-177.7 384.5,-177.7 384.5,-158.7 271.5,-158.7"/>
<polygon fill="#ffffff" stroke="transparent" points="272.5,-159.7 272.5,-176.7 306.5,-176.7 306.5,-159.7 272.5,-159.7"/>
<text text-anchor="start" x="274.5" y="-164.8" font-family="Helvetica,sans-Serif" font-size="11.00" fill="#000000"> &#160;</text>
<polygon fill="#ffffff" stroke="transparent" points="306.5,-159.7 306.5,-176.7 340.5,-176.7 340.5,-159.7 306.5,-159.7"/>
<text text-anchor="start" x="320.4431" y="-164.8" font-family="Helvetica,sans-Serif" font-size="11.00" fill="#000000"> &#160;</text>
<polygon fill="#ffffff" stroke="transparent" points="340.5,-159.7 340.5,-176.7 383.5,-176.7 383.5,-159.7 340.5,-159.7"/>
<text text-anchor="start" x="365.9053" y="-164.8" font-family="Helvetica,sans-Serif" font-size="11.00" fill="#000000">5 &gt;</text>
<polygon fill="#000000" stroke="#000000" points="306.5,-159.7 306.5,-176.7 306.5,-176.7 306.5,-159.7 306.5,-159.7"/>
<polygon fill="#000000" stroke="#000000" points="340.5,-159.7 340.5,-176.7 340.5,-176.7 340.5,-159.7 340.5,-159.7"/>
</a>
</g>
</g>
<!-- auth_user_groups&#45;&gt;auth_user -->
<g id="edge2" class="edge">
<title>auth_user_groups:w&#45;&gt;auth_user:e</title>
<path fill="none" stroke="#000000" d="M500.6666,-310.2651C478.9093,-305.402 472.3451,-288.995 448,-273.7 418.9264,-255.4342 418.8353,-229.7 384.5,-229.7"/>
<polygon fill="#000000" stroke="#000000" points="507.0398,-310.903 514.6414,-315.2821 511.0199,-311.3015 515,-311.7 515,-311.7 515,-311.7 511.0199,-311.3015 515.3586,-308.1179 507.0398,-310.903 507.0398,-310.903"/>
<ellipse fill="none" stroke="#000000" cx="503.8557" cy="-310.5843" rx="3.2" ry="3.2"/>
</g>
<!-- auth_user_user_permissions -->
<g id="node5" class="node">
<title>auth_user_user_permissions</title>
<g id="a_node5"><a xlink:href="../../tables/auth_user_user_permissions.html" xlink:title="auth_user_user_permissions" target="_top">
<polygon fill="#ffffff" stroke="transparent" points="477,-38.2 477,-99.2 721,-99.2 721,-38.2 477,-38.2"/>
<polygon fill="#f5f5f5" stroke="transparent" points="477,-75.7 477,-98.7 721,-98.7 721,-75.7 477,-75.7"/>
<polygon fill="none" stroke="#000000" points="477,-75.7 477,-98.7 721,-98.7 721,-75.7 477,-75.7"/>
<text text-anchor="start" x="482" y="-84.3" font-family="Helvetica,sans-Serif" font-weight="bold" font-size="11.00" fill="#000000">auth_user_user_permissions</text>
<text text-anchor="start" x="686.5219" y="-83.8" font-family="Helvetica,sans-Serif" font-size="11.00" fill="#000000">[table]</text>
<polygon fill="none" stroke="#000000" points="477,-56.7 477,-75.7 721,-75.7 721,-56.7 477,-56.7"/>
<text text-anchor="start" x="480" y="-62.8" font-family="Helvetica,sans-Serif" font-size="11.00" fill="#000000">...</text>
<polygon fill="#ffffff" stroke="transparent" points="477,-37.7 477,-56.7 721,-56.7 721,-37.7 477,-37.7"/>
<polygon fill="none" stroke="#000000" points="477,-37.7 477,-56.7 721,-56.7 721,-37.7 477,-37.7"/>
<polygon fill="#ffffff" stroke="transparent" points="478,-38.7 478,-55.7 565,-55.7 565,-38.7 478,-38.7"/>
<text text-anchor="start" x="480" y="-43.8" font-family="Helvetica,sans-Serif" font-size="11.00" fill="#000000">&lt; 2</text>
<polygon fill="#ffffff" stroke="transparent" points="565,-38.7 565,-55.7 643,-55.7 643,-38.7 565,-38.7"/>
<text text-anchor="start" x="600.9431" y="-43.8" font-family="Helvetica,sans-Serif" font-size="11.00" fill="#000000"> &#160;</text>
<polygon fill="#ffffff" stroke="transparent" points="643,-38.7 643,-55.7 720,-55.7 720,-38.7 643,-38.7"/>
<text text-anchor="start" x="711.8862" y="-43.8" font-family="Helvetica,sans-Serif" font-size="11.00" fill="#000000"> &#160;</text>
<polygon fill="#000000" stroke="#000000" points="565,-38.7 565,-55.7 565,-55.7 565,-38.7 565,-38.7"/>
<polygon fill="#000000" stroke="#000000" points="643,-38.7 643,-55.7 643,-55.7 643,-38.7 643,-38.7"/>
</a>
</g>
</g>
<!-- auth_user_user_permissions&#45;&gt;auth_permission -->
<g id="edge3" class="edge">
<title>auth_user_user_permissions:w&#45;&gt;auth_permission:e</title>
<path fill="none" stroke="#000000" d="M462.5731,-67.1909C442.3176,-71.67 434.0185,-84.7 407.5,-84.7"/>
<polygon fill="#000000" stroke="#000000" points="469.0424,-66.5224 477.3701,-69.2809 473.0212,-66.1112 477,-65.7 477,-65.7 477,-65.7 473.0212,-66.1112 476.6299,-62.1191 469.0424,-66.5224 469.0424,-66.5224"/>
<ellipse fill="none" stroke="#000000" cx="465.8593" cy="-66.8514" rx="3.2" ry="3.2"/>
</g>
<!-- auth_user_user_permissions&#45;&gt;auth_user -->
<g id="edge4" class="edge">
<title>auth_user_user_permissions:w&#45;&gt;auth_user:e</title>
<path fill="none" stroke="#000000" d="M462.7101,-67.656C402.3087,-86.1593 462.7898,-229.7 384.5,-229.7"/>
<polygon fill="#000000" stroke="#000000" points="469.0739,-66.785 477.4882,-69.2667 473.037,-66.2425 477,-65.7 477,-65.7 477,-65.7 473.037,-66.2425 476.5118,-62.1333 469.0739,-66.785 469.0739,-66.785"/>
<ellipse fill="none" stroke="#000000" cx="465.9035" cy="-67.219" rx="3.2" ry="3.2"/>
</g>
<!-- django_admin_log -->
<g id="node6" class="node">
<title>django_admin_log</title>
<g id="a_node6"><a xlink:href="../../tables/django_admin_log.html" xlink:title="django_admin_log" target="_top">
<polygon fill="#ffffff" stroke="transparent" points="475,-366.7 475,-588.7 723,-588.7 723,-366.7 475,-366.7"/>
<polygon fill="#f5f5f5" stroke="transparent" points="477,-563.7 477,-586.7 721,-586.7 721,-563.7 477,-563.7"/>
<polygon fill="none" stroke="#000000" points="477,-563.7 477,-586.7 721,-586.7 721,-563.7 477,-563.7"/>
<text text-anchor="start" x="482" y="-572.3" font-family="Helvetica,sans-Serif" font-weight="bold" font-size="11.00" fill="#000000">django_admin_log</text>
<text text-anchor="start" x="686.0437" y="-571.8" font-family="Helvetica,sans-Serif" font-size="11.00" fill="#000000">[table]</text>
<polygon fill="none" stroke="#000000" points="477,-541.7 477,-563.7 629,-563.7 629,-541.7 477,-541.7"/>
<image xlink:href="../../images/primaryKeys.png" width="11px" height="12px" preserveAspectRatio="xMinYMin meet" x="482" y="-558.7"/>
<text text-anchor="start" x="497" y="-548.8" font-family="Helvetica,sans-Serif" font-size="11.00" fill="#000000">id</text>
<polygon fill="none" stroke="#000000" points="629,-541.7 629,-563.7 721,-563.7 721,-541.7 629,-541.7"/>
<text text-anchor="start" x="632" y="-549.4" font-family="Helvetica,sans-Serif" font-size="11.00" fill="#000000">int4[10]</text>
<polygon fill="none" stroke="#000000" points="477,-519.7 477,-541.7 629,-541.7 629,-519.7 477,-519.7"/>
<text text-anchor="start" x="497" y="-526.8" font-family="Helvetica,sans-Serif" font-size="11.00" fill="#000000">action_time</text>
<polygon fill="none" stroke="#000000" points="629,-519.7 629,-541.7 721,-541.7 721,-519.7 629,-519.7"/>
<text text-anchor="start" x="631.6023" y="-527.4" font-family="Helvetica,sans-Serif" font-size="11.00" fill="#000000">timestamptz[35,6]</text>
<polygon fill="none" stroke="#000000" points="477,-497.7 477,-519.7 629,-519.7 629,-497.7 477,-497.7"/>
<text text-anchor="start" x="497" y="-504.8" font-family="Helvetica,sans-Serif" font-size="11.00" fill="#000000">object_id</text>
<polygon fill="none" stroke="#000000" points="629,-497.7 629,-519.7 721,-519.7 721,-497.7 629,-497.7"/>
<text text-anchor="start" x="632" y="-505.4" font-family="Helvetica,sans-Serif" font-size="11.00" fill="#000000">text[2147483647]</text>
<polygon fill="none" stroke="#000000" points="477,-475.7 477,-497.7 629,-497.7 629,-475.7 477,-475.7"/>
<text text-anchor="start" x="497" y="-482.8" font-family="Helvetica,sans-Serif" font-size="11.00" fill="#000000">object_repr</text>
<polygon fill="none" stroke="#000000" points="629,-475.7 629,-497.7 721,-497.7 721,-475.7 629,-475.7"/>
<text text-anchor="start" x="632" y="-483.4" font-family="Helvetica,sans-Serif" font-size="11.00" fill="#000000">varchar[200]</text>
<polygon fill="none" stroke="#000000" points="477,-453.7 477,-475.7 629,-475.7 629,-453.7 477,-453.7"/>
<text text-anchor="start" x="497" y="-460.8" font-family="Helvetica,sans-Serif" font-size="11.00" fill="#000000">action_flag</text>
<polygon fill="none" stroke="#000000" points="629,-453.7 629,-475.7 721,-475.7 721,-453.7 629,-453.7"/>
<text text-anchor="start" x="632" y="-461.4" font-family="Helvetica,sans-Serif" font-size="11.00" fill="#000000">int2[5]</text>
<polygon fill="none" stroke="#000000" points="477,-431.7 477,-453.7 629,-453.7 629,-431.7 477,-431.7"/>
<text text-anchor="start" x="497" y="-438.8" font-family="Helvetica,sans-Serif" font-size="11.00" fill="#000000">change_message</text>
<polygon fill="none" stroke="#000000" points="629,-431.7 629,-453.7 721,-453.7 721,-431.7 629,-431.7"/>
<text text-anchor="start" x="632" y="-439.4" font-family="Helvetica,sans-Serif" font-size="11.00" fill="#000000">text[2147483647]</text>
<polygon fill="#ffffff" stroke="transparent" points="477,-409.7 477,-431.7 629,-431.7 629,-409.7 477,-409.7"/>
<polygon fill="none" stroke="#000000" points="477,-409.7 477,-431.7 629,-431.7 629,-409.7 477,-409.7"/>
<image xlink:href="../../images/foreignKeys.png" width="11px" height="12px" preserveAspectRatio="xMinYMin meet" x="482" y="-426.7"/>
<text text-anchor="start" x="497" y="-416.8" font-family="Helvetica,sans-Serif" font-size="11.00" fill="#000000">content_type_id</text>
<polygon fill="none" stroke="#000000" points="629,-409.7 629,-431.7 721,-431.7 721,-409.7 629,-409.7"/>
<text text-anchor="start" x="632" y="-417.4" font-family="Helvetica,sans-Serif" font-size="11.00" fill="#000000">int4[10]</text>
<polygon fill="#ffffff" stroke="transparent" points="477,-387.7 477,-409.7 629,-409.7 629,-387.7 477,-387.7"/>
<polygon fill="none" stroke="#000000" points="477,-387.7 477,-409.7 629,-409.7 629,-387.7 477,-387.7"/>
<image xlink:href="../../images/foreignKeys.png" width="11px" height="12px" preserveAspectRatio="xMinYMin meet" x="482" y="-404.7"/>
<text text-anchor="start" x="497" y="-394.8" font-family="Helvetica,sans-Serif" font-size="11.00" fill="#000000">user_id</text>
<polygon fill="none" stroke="#000000" points="629,-387.7 629,-409.7 721,-409.7 721,-387.7 629,-387.7"/>
<text text-anchor="start" x="632" y="-395.4" font-family="Helvetica,sans-Serif" font-size="11.00" fill="#000000">int4[10]</text>
<polygon fill="#ffffff" stroke="transparent" points="477,-368.7 477,-387.7 721,-387.7 721,-368.7 477,-368.7"/>
<polygon fill="none" stroke="#000000" points="477,-368.7 477,-387.7 721,-387.7 721,-368.7 477,-368.7"/>
<polygon fill="#ffffff" stroke="transparent" points="478,-369.7 478,-386.7 562,-386.7 562,-369.7 478,-369.7"/>
<text text-anchor="start" x="480" y="-374.8" font-family="Helvetica,sans-Serif" font-size="11.00" fill="#000000">&lt; 2</text>
<polygon fill="#ffffff" stroke="transparent" points="562,-369.7 562,-386.7 637,-386.7 637,-369.7 562,-369.7"/>
<text text-anchor="start" x="596.4431" y="-374.8" font-family="Helvetica,sans-Serif" font-size="11.00" fill="#000000"> &#160;</text>
<polygon fill="#ffffff" stroke="transparent" points="637,-369.7 637,-386.7 720,-386.7 720,-369.7 637,-369.7"/>
<text text-anchor="start" x="702.4053" y="-374.8" font-family="Helvetica,sans-Serif" font-size="11.00" fill="#000000">0 &gt;</text>
<polygon fill="#000000" stroke="#000000" points="562,-369.7 562,-386.7 562,-386.7 562,-369.7 562,-369.7"/>
<polygon fill="#000000" stroke="#000000" points="637,-369.7 637,-386.7 637,-386.7 637,-369.7 637,-369.7"/>
<polygon fill="none" stroke="#000000" stroke-width="2" points="476,-367.7 476,-587.7 722,-587.7 722,-367.7 476,-367.7"/>
</a>
</g>
</g>
<!-- django_admin_log&#45;&gt;django_content_type -->
<g id="edge5" class="edge">
<title>django_admin_log:w&#45;&gt;django_content_type:e</title>
<path fill="none" stroke="#000000" d="M462.5841,-420.436C350.85,-416.2258 320.6221,-361.9046 240,-274.7 213.2151,-245.7283 238.9562,-195.7 199.5,-195.7"/>
<polygon fill="#000000" stroke="#000000" points="469.0013,-420.5535 476.9341,-424.2994 473.0007,-420.6267 477,-420.7 477,-420.7 477,-420.7 473.0007,-420.6267 477.0659,-417.1006 469.0013,-420.5535 469.0013,-420.5535"/>
<ellipse fill="none" stroke="#000000" cx="465.8019" cy="-420.4948" rx="3.2" ry="3.2"/>
</g>
<!-- django_admin_log&#45;&gt;auth_user -->
<g id="edge6" class="edge">
<title>django_admin_log:w&#45;&gt;auth_user:e</title>
<path fill="none" stroke="#000000" d="M462.404,-396.6843C400.8428,-377.6169 464.6071,-229.7 384.5,-229.7"/>
<polygon fill="#000000" stroke="#000000" points="469.0752,-397.6056 476.5075,-402.2662 473.0376,-398.1528 477,-398.7 477,-398.7 477,-398.7 473.0376,-398.1528 477.4925,-395.1338 469.0752,-397.6056 469.0752,-397.6056"/>
<ellipse fill="none" stroke="#000000" cx="465.9053" cy="-397.1678" rx="3.2" ry="3.2"/>
</g>
<!-- showcase_ownerprofile -->
<g id="node7" class="node">
<title>showcase_ownerprofile</title>
<g id="a_node7"><a xlink:href="../../tables/showcase_ownerprofile.html" xlink:title="showcase_ownerprofile" target="_top">
<polygon fill="#ffffff" stroke="transparent" points="494.5,-202.2 494.5,-263.2 703.5,-263.2 703.5,-202.2 494.5,-202.2"/>
<polygon fill="#f5f5f5" stroke="transparent" points="495,-239.7 495,-262.7 704,-262.7 704,-239.7 495,-239.7"/>
<polygon fill="none" stroke="#000000" points="495,-239.7 495,-262.7 704,-262.7 704,-239.7 495,-239.7"/>
<text text-anchor="start" x="500" y="-248.3" font-family="Helvetica,sans-Serif" font-weight="bold" font-size="11.00" fill="#000000">showcase_ownerprofile</text>
<text text-anchor="start" x="669.5219" y="-247.8" font-family="Helvetica,sans-Serif" font-size="11.00" fill="#000000">[table]</text>
<polygon fill="none" stroke="#000000" points="495,-220.7 495,-239.7 704,-239.7 704,-220.7 495,-220.7"/>
<text text-anchor="start" x="498" y="-226.8" font-family="Helvetica,sans-Serif" font-size="11.00" fill="#000000">...</text>
<polygon fill="#ffffff" stroke="transparent" points="495,-201.7 495,-220.7 704,-220.7 704,-201.7 495,-201.7"/>
<polygon fill="none" stroke="#000000" points="495,-201.7 495,-220.7 704,-220.7 704,-201.7 495,-201.7"/>
<polygon fill="#ffffff" stroke="transparent" points="496,-202.7 496,-219.7 562,-219.7 562,-202.7 496,-202.7"/>
<text text-anchor="start" x="498" y="-207.8" font-family="Helvetica,sans-Serif" font-size="11.00" fill="#000000">&lt; 1</text>
<polygon fill="#ffffff" stroke="transparent" points="562,-202.7 562,-219.7 638,-219.7 638,-202.7 562,-202.7"/>
<text text-anchor="start" x="586.5553" y="-207.8" font-family="Helvetica,sans-Serif" font-size="11.00" fill="#000000">1 row</text>
<polygon fill="#ffffff" stroke="transparent" points="638,-202.7 638,-219.7 703,-219.7 703,-202.7 638,-202.7"/>
<text text-anchor="start" x="685.4053" y="-207.8" font-family="Helvetica,sans-Serif" font-size="11.00" fill="#000000">1 &gt;</text>
<polygon fill="#000000" stroke="#000000" points="562,-202.7 562,-219.7 562,-219.7 562,-202.7 562,-202.7"/>
<polygon fill="#000000" stroke="#000000" points="638,-202.7 638,-219.7 638,-219.7 638,-202.7 638,-202.7"/>
</a>
</g>
</g>
<!-- showcase_ownerprofile&#45;&gt;auth_user -->
<g id="edge7" class="edge">
<title>showcase_ownerprofile:w&#45;&gt;auth_user:e</title>
<path fill="none" stroke="#000000" d="M484.3859,-229.7C443.8047,-229.7 429.8702,-229.7 384.5,-229.7"/>
<polygon fill="#000000" stroke="#000000" points="494.2,-225.7 494.2,-233.7 492.6,-233.7 492.6,-225.7 494.2,-225.7"/>
<polyline fill="none" stroke="#000000" points="495,-229.7 491,-229.7 "/>
<ellipse fill="none" stroke="#000000" cx="487.8" cy="-229.7001" rx="3.2" ry="3.2"/>
</g>
<!-- token_blacklist_outstandingtoken -->
<g id="node8" class="node">
<title>token_blacklist_outstandingtoken</title>
<g id="a_node8"><a xlink:href="../../tables/token_blacklist_outstandingtoken.html" xlink:title="token_blacklist_outstandingtoken" target="_top">
<polygon fill="#ffffff" stroke="transparent" points="456,-120.2 456,-181.2 742,-181.2 742,-120.2 456,-120.2"/>
<polygon fill="#f5f5f5" stroke="transparent" points="456,-157.7 456,-180.7 742,-180.7 742,-157.7 456,-157.7"/>
<polygon fill="none" stroke="#000000" points="456,-157.7 456,-180.7 742,-180.7 742,-157.7 456,-157.7"/>
<text text-anchor="start" x="461" y="-166.3" font-family="Helvetica,sans-Serif" font-weight="bold" font-size="11.00" fill="#000000">token_blacklist_outstandingtoken</text>
<text text-anchor="start" x="707.5219" y="-165.8" font-family="Helvetica,sans-Serif" font-size="11.00" fill="#000000">[table]</text>
<polygon fill="none" stroke="#000000" points="456,-138.7 456,-157.7 742,-157.7 742,-138.7 456,-138.7"/>
<text text-anchor="start" x="459" y="-144.8" font-family="Helvetica,sans-Serif" font-size="11.00" fill="#000000">...</text>
<polygon fill="#ffffff" stroke="transparent" points="456,-119.7 456,-138.7 742,-138.7 742,-119.7 456,-119.7"/>
<polygon fill="none" stroke="#000000" points="456,-119.7 456,-138.7 742,-138.7 742,-119.7 456,-119.7"/>
<polygon fill="#ffffff" stroke="transparent" points="457,-120.7 457,-137.7 555,-137.7 555,-120.7 457,-120.7"/>
<text text-anchor="start" x="459" y="-125.8" font-family="Helvetica,sans-Serif" font-size="11.00" fill="#000000">&lt; 1</text>
<polygon fill="#ffffff" stroke="transparent" points="555,-120.7 555,-137.7 644,-137.7 644,-120.7 555,-120.7"/>
<text text-anchor="start" x="596.4431" y="-125.8" font-family="Helvetica,sans-Serif" font-size="11.00" fill="#000000"> &#160;</text>
<polygon fill="#ffffff" stroke="transparent" points="644,-120.7 644,-137.7 741,-137.7 741,-120.7 644,-120.7"/>
<text text-anchor="start" x="723.4053" y="-125.8" font-family="Helvetica,sans-Serif" font-size="11.00" fill="#000000">1 &gt;</text>
<polygon fill="#000000" stroke="#000000" points="555,-120.7 555,-137.7 555,-137.7 555,-120.7 555,-120.7"/>
<polygon fill="#000000" stroke="#000000" points="644,-120.7 644,-137.7 644,-137.7 644,-120.7 644,-120.7"/>
</a>
</g>
</g>
<!-- token_blacklist_outstandingtoken&#45;&gt;auth_user -->
<g id="edge8" class="edge">
<title>token_blacklist_outstandingtoken:w&#45;&gt;auth_user:e</title>
<path fill="none" stroke="#000000" d="M441.7946,-150.8144C412.5444,-165.7927 427.1867,-229.7 384.5,-229.7"/>
<polygon fill="#000000" stroke="#000000" points="448.1856,-149.4133 456.771,-151.2165 452.0928,-148.5566 456,-147.7 456,-147.7 456,-147.7 452.0928,-148.5566 455.229,-144.1835 448.1856,-149.4133 448.1856,-149.4133"/>
<ellipse fill="none" stroke="#000000" cx="445.0598" cy="-150.0986" rx="3.2" ry="3.2"/>
</g>
</g>
</svg>
