<?xml version="1.0" encoding="UTF-8" standalone="no"?>
<!DOCTYPE svg PUBLIC "-//W3C//DTD SVG 1.1//EN"
 "http://www.w3.org/Graphics/SVG/1.1/DTD/svg11.dtd">
<!-- Generated by graphviz version 2.40.1 (20161225.0304)
 -->
<!-- Title: oneDegreeRelationshipsDiagram Pages: 1 -->
<svg width="487pt" height="325pt"
 viewBox="0.00 0.00 487.00 325.20" xmlns="http://www.w3.org/2000/svg" xmlns:xlink="http://www.w3.org/1999/xlink">
<g id="graph0" class="graph" transform="scale(1 1) rotate(0) translate(4 321.2)">
<title>oneDegreeRelationshipsDiagram</title>
<polygon fill="#ffffff" stroke="transparent" points="-4,4 -4,-321.2 483,-321.2 483,4 -4,4"/>
<text text-anchor="middle" x="72.4936" y="-7.3" font-family="Helvetica,sans-Serif" font-size="11.00" fill="#000000">Generated by SchemaSpy</text>
<!-- auth_permission -->
<g id="node1" class="node">
<title>auth_permission</title>
<g id="a_node1"><a xlink:href="../../tables/auth_permission.html" xlink:title="auth_permission" target="_top">
<polygon fill="#ffffff" stroke="transparent" points="306.5,-186.2 306.5,-313.2 465.5,-313.2 465.5,-186.2 306.5,-186.2"/>
<polygon fill="#f5f5f5" stroke="transparent" points="307,-289.7 307,-312.7 466,-312.7 466,-289.7 307,-289.7"/>
<polygon fill="none" stroke="#000000" points="307,-289.7 307,-312.7 466,-312.7 466,-289.7 307,-289.7"/>
<text text-anchor="start" x="312" y="-298.3" font-family="Helvetica,sans-Serif" font-weight="bold" font-size="11.00" fill="#000000">auth_permission</text>
<text text-anchor="start" x="431.5219" y="-297.8" font-family="Helvetica,sans-Serif" font-size="11.00" fill="#000000">[table]</text>
<polygon fill="none" stroke="#000000" points="307,-267.7 307,-289.7 466,-289.7 466,-267.7 307,-267.7"/>
<image xlink:href="../../images/primaryKeys.png" width="11px" height="12px" preserveAspectRatio="xMinYMin meet" x="312" y="-284.7"/>
<text text-anchor="start" x="336" y="-274.8" font-family="Helvetica,sans-Serif" font-size="11.00" fill="#000000">id</text>
<polygon fill="#ffffff" stroke="transparent" points="307,-245.7 307,-267.7 466,-267.7 466,-245.7 307,-245.7"/>
<polygon fill="none" stroke="#000000" points="307,-245.7 307,-267.7 466,-267.7 466,-245.7 307,-245.7"/>
<image xlink:href="../../images/foreignKeys.png" width="11px" height="12px" preserveAspectRatio="xMinYMin meet" x="312" y="-262.7"/>
<text text-anchor="start" x="336" y="-252.8" font-family="Helvetica,sans-Serif" font-size="11.00" fill="#000000">content_type_id</text>
<polygon fill="#ffffff" stroke="transparent" points="307,-223.7 307,-245.7 466,-245.7 466,-223.7 307,-223.7"/>
<polygon fill="none" stroke="#000000" points="307,-223.7 307,-245.7 466,-245.7 466,-223.7 307,-223.7"/>
<text text-anchor="start" x="336" y="-230.8" font-family="Helvetica,sans-Serif" font-size="11.00" fill="#000000">codename</text>
<polygon fill="none" stroke="#000000" points="307,-204.7 307,-223.7 466,-223.7 466,-204.7 307,-204.7"/>
<text text-anchor="start" x="310" y="-210.8" font-family="Helvetica,sans-Serif" font-size="11.00" fill="#000000">...</text>
<polygon fill="#ffffff" stroke="transparent" points="307,-185.7 307,-204.7 466,-204.7 466,-185.7 307,-185.7"/>
<polygon fill="none" stroke="#000000" points="307,-185.7 307,-204.7 466,-204.7 466,-185.7 307,-185.7"/>
<polygon fill="#ffffff" stroke="transparent" points="308,-186.7 308,-203.7 364,-203.7 364,-186.7 308,-186.7"/>
<text text-anchor="start" x="310" y="-191.8" font-family="Helvetica,sans-Serif" font-size="11.00" fill="#000000">&lt; 1</text>
<polygon fill="#ffffff" stroke="transparent" points="364,-186.7 364,-203.7 410,-203.7 410,-186.7 364,-186.7"/>
<text text-anchor="start" x="383.9431" y="-191.8" font-family="Helvetica,sans-Serif" font-size="11.00" fill="#000000"> &#160;</text>
<polygon fill="#ffffff" stroke="transparent" points="410,-186.7 410,-203.7 465,-203.7 465,-186.7 410,-186.7"/>
<text text-anchor="start" x="447.4053" y="-191.8" font-family="Helvetica,sans-Serif" font-size="11.00" fill="#000000">2 &gt;</text>
<polygon fill="#000000" stroke="#000000" points="364,-186.7 364,-203.7 364,-203.7 364,-186.7 364,-186.7"/>
<polygon fill="#000000" stroke="#000000" points="410,-186.7 410,-203.7 410,-203.7 410,-186.7 410,-186.7"/>
</a>
</g>
</g>
<!-- django_content_type -->
<g id="node2" class="node">
<title>django_content_type</title>
<g id="a_node2"><a xlink:href="../../tables/django_content_type.html" xlink:title="django_content_type" target="_top">
<polygon fill="#ffffff" stroke="transparent" points="8,-106.7 8,-218.7 252,-218.7 252,-106.7 8,-106.7"/>
<polygon fill="#f5f5f5" stroke="transparent" points="10,-193.7 10,-216.7 250,-216.7 250,-193.7 10,-193.7"/>
<polygon fill="none" stroke="#000000" points="10,-193.7 10,-216.7 250,-216.7 250,-193.7 10,-193.7"/>
<text text-anchor="start" x="15" y="-202.3" font-family="Helvetica,sans-Serif" font-weight="bold" font-size="11.00" fill="#000000">django_content_type</text>
<text text-anchor="start" x="215.0437" y="-201.8" font-family="Helvetica,sans-Serif" font-size="11.00" fill="#000000">[table]</text>
<polygon fill="none" stroke="#000000" points="10,-171.7 10,-193.7 183,-193.7 183,-171.7 10,-171.7"/>
<image xlink:href="../../images/primaryKeys.png" width="11px" height="12px" preserveAspectRatio="xMinYMin meet" x="15" y="-188.7"/>
<text text-anchor="start" x="30" y="-178.8" font-family="Helvetica,sans-Serif" font-size="11.00" fill="#000000">id</text>
<polygon fill="none" stroke="#000000" points="183,-171.7 183,-193.7 250,-193.7 250,-171.7 183,-171.7"/>
<text text-anchor="start" x="186" y="-179.4" font-family="Helvetica,sans-Serif" font-size="11.00" fill="#000000">int4[10]</text>
<polygon fill="#ffffff" stroke="transparent" points="10,-149.7 10,-171.7 183,-171.7 183,-149.7 10,-149.7"/>
<polygon fill="none" stroke="#000000" points="10,-149.7 10,-171.7 183,-171.7 183,-149.7 10,-149.7"/>
<text text-anchor="start" x="30" y="-156.8" font-family="Helvetica,sans-Serif" font-size="11.00" fill="#000000">app_label</text>
<polygon fill="none" stroke="#000000" points="183,-149.7 183,-171.7 250,-171.7 250,-149.7 183,-149.7"/>
<text text-anchor="start" x="185.9365" y="-157.4" font-family="Helvetica,sans-Serif" font-size="11.00" fill="#000000">varchar[100]</text>
<polygon fill="#ffffff" stroke="transparent" points="10,-127.7 10,-149.7 183,-149.7 183,-127.7 10,-127.7"/>
<polygon fill="none" stroke="#000000" points="10,-127.7 10,-149.7 183,-149.7 183,-127.7 10,-127.7"/>
<text text-anchor="start" x="30" y="-134.8" font-family="Helvetica,sans-Serif" font-size="11.00" fill="#000000">model</text>
<polygon fill="none" stroke="#000000" points="183,-127.7 183,-149.7 250,-149.7 250,-127.7 183,-127.7"/>
<text text-anchor="start" x="185.9365" y="-135.4" font-family="Helvetica,sans-Serif" font-size="11.00" fill="#000000">varchar[100]</text>
<polygon fill="#ffffff" stroke="transparent" points="10,-108.7 10,-127.7 250,-127.7 250,-108.7 10,-108.7"/>
<polygon fill="none" stroke="#000000" points="10,-108.7 10,-127.7 250,-127.7 250,-108.7 10,-108.7"/>
<polygon fill="#ffffff" stroke="transparent" points="11,-109.7 11,-126.7 94,-126.7 94,-109.7 11,-109.7"/>
<text text-anchor="start" x="13" y="-114.8" font-family="Helvetica,sans-Serif" font-size="11.00" fill="#000000">&lt; 0</text>
<polygon fill="#ffffff" stroke="transparent" points="94,-109.7 94,-126.7 167,-126.7 167,-109.7 94,-109.7"/>
<text text-anchor="start" x="127.4431" y="-114.8" font-family="Helvetica,sans-Serif" font-size="11.00" fill="#000000"> &#160;</text>
<polygon fill="#ffffff" stroke="transparent" points="167,-109.7 167,-126.7 249,-126.7 249,-109.7 167,-109.7"/>
<text text-anchor="start" x="231.4053" y="-114.8" font-family="Helvetica,sans-Serif" font-size="11.00" fill="#000000">2 &gt;</text>
<polygon fill="#000000" stroke="#000000" points="94,-109.7 94,-126.7 94,-126.7 94,-109.7 94,-109.7"/>
<polygon fill="#000000" stroke="#000000" points="167,-109.7 167,-126.7 167,-126.7 167,-109.7 167,-109.7"/>
<polygon fill="none" stroke="#000000" stroke-width="2" points="9,-107.7 9,-217.7 251,-217.7 251,-107.7 9,-107.7"/>
</a>
</g>
</g>
<!-- auth_permission&#45;&gt;django_content_type -->
<g id="edge1" class="edge">
<title>auth_permission:w&#45;&gt;django_content_type:e</title>
<path fill="none" stroke="#000000" d="M293.1175,-252.7214C271.4704,-237.3509 285.6766,-182.7 250,-182.7"/>
<polygon fill="#000000" stroke="#000000" points="299.3096,-254.496 306.0082,-260.1607 303.1548,-255.598 307,-256.7 307,-256.7 307,-256.7 303.1548,-255.598 307.9918,-253.2393 299.3096,-254.496 299.3096,-254.496"/>
<ellipse fill="none" stroke="#000000" cx="296.2334" cy="-253.6144" rx="3.2" ry="3.2"/>
</g>
<!-- django_admin_log -->
<g id="node3" class="node">
<title>django_admin_log</title>
<g id="a_node3"><a xlink:href="../../tables/django_admin_log.html" xlink:title="django_admin_log" target="_top">
<polygon fill="#ffffff" stroke="transparent" points="301,-38.2 301,-165.2 471,-165.2 471,-38.2 301,-38.2"/>
<polygon fill="#f5f5f5" stroke="transparent" points="301,-141.7 301,-164.7 471,-164.7 471,-141.7 301,-141.7"/>
<polygon fill="none" stroke="#000000" points="301,-141.7 301,-164.7 471,-164.7 471,-141.7 301,-141.7"/>
<text text-anchor="start" x="306" y="-150.3" font-family="Helvetica,sans-Serif" font-weight="bold" font-size="11.00" fill="#000000">django_admin_log</text>
<text text-anchor="start" x="436.5219" y="-149.8" font-family="Helvetica,sans-Serif" font-size="11.00" fill="#000000">[table]</text>
<polygon fill="none" stroke="#000000" points="301,-119.7 301,-141.7 471,-141.7 471,-119.7 301,-119.7"/>
<image xlink:href="../../images/primaryKeys.png" width="11px" height="12px" preserveAspectRatio="xMinYMin meet" x="306" y="-136.7"/>
<text text-anchor="start" x="330" y="-126.8" font-family="Helvetica,sans-Serif" font-size="11.00" fill="#000000">id</text>
<polygon fill="#ffffff" stroke="transparent" points="301,-97.7 301,-119.7 471,-119.7 471,-97.7 301,-97.7"/>
<polygon fill="none" stroke="#000000" points="301,-97.7 301,-119.7 471,-119.7 471,-97.7 301,-97.7"/>
<image xlink:href="../../images/foreignKeys.png" width="11px" height="12px" preserveAspectRatio="xMinYMin meet" x="306" y="-114.7"/>
<text text-anchor="start" x="330" y="-104.8" font-family="Helvetica,sans-Serif" font-size="11.00" fill="#000000">content_type_id</text>
<polygon fill="#ffffff" stroke="transparent" points="301,-75.7 301,-97.7 471,-97.7 471,-75.7 301,-75.7"/>
<polygon fill="none" stroke="#000000" points="301,-75.7 301,-97.7 471,-97.7 471,-75.7 301,-75.7"/>
<image xlink:href="../../images/foreignKeys.png" width="11px" height="12px" preserveAspectRatio="xMinYMin meet" x="306" y="-92.7"/>
<text text-anchor="start" x="330" y="-82.8" font-family="Helvetica,sans-Serif" font-size="11.00" fill="#000000">user_id</text>
<polygon fill="none" stroke="#000000" points="301,-56.7 301,-75.7 471,-75.7 471,-56.7 301,-56.7"/>
<text text-anchor="start" x="304" y="-62.8" font-family="Helvetica,sans-Serif" font-size="11.00" fill="#000000">...</text>
<polygon fill="#ffffff" stroke="transparent" points="301,-37.7 301,-56.7 471,-56.7 471,-37.7 301,-37.7"/>
<polygon fill="none" stroke="#000000" points="301,-37.7 301,-56.7 471,-56.7 471,-37.7 301,-37.7"/>
<polygon fill="#ffffff" stroke="transparent" points="302,-38.7 302,-55.7 364,-55.7 364,-38.7 302,-38.7"/>
<text text-anchor="start" x="304" y="-43.8" font-family="Helvetica,sans-Serif" font-size="11.00" fill="#000000">&lt; 2</text>
<polygon fill="#ffffff" stroke="transparent" points="364,-38.7 364,-55.7 417,-55.7 417,-38.7 364,-38.7"/>
<text text-anchor="start" x="387.4431" y="-43.8" font-family="Helvetica,sans-Serif" font-size="11.00" fill="#000000"> &#160;</text>
<polygon fill="#ffffff" stroke="transparent" points="417,-38.7 417,-55.7 470,-55.7 470,-38.7 417,-38.7"/>
<text text-anchor="start" x="461.8862" y="-43.8" font-family="Helvetica,sans-Serif" font-size="11.00" fill="#000000"> &#160;</text>
<polygon fill="#000000" stroke="#000000" points="364,-38.7 364,-55.7 364,-55.7 364,-38.7 364,-38.7"/>
<polygon fill="#000000" stroke="#000000" points="417,-38.7 417,-55.7 417,-55.7 417,-38.7 417,-38.7"/>
</a>
</g>
</g>
<!-- django_admin_log&#45;&gt;django_content_type -->
<g id="edge2" class="edge">
<title>django_admin_log:w&#45;&gt;django_content_type:e</title>
<path fill="none" stroke="#000000" d="M287.0503,-113.329C268.2607,-129.5294 283.8581,-182.7 250,-182.7"/>
<polygon fill="#000000" stroke="#000000" points="293.4071,-111.2196 302.1338,-112.1168 297.2036,-109.9598 301,-108.7 301,-108.7 301,-108.7 297.2036,-109.9598 299.8662,-105.2832 293.4071,-111.2196 293.4071,-111.2196"/>
<ellipse fill="none" stroke="#000000" cx="290.37" cy="-112.2275" rx="3.2" ry="3.2"/>
</g>
</g>
</svg>
