<?xml version="1.0" encoding="UTF-8" standalone="no"?>
<!DOCTYPE svg PUBLIC "-//W3C//DTD SVG 1.1//EN"
 "http://www.w3.org/Graphics/SVG/1.1/DTD/svg11.dtd">
<!-- Generated by graphviz version 2.40.1 (20161225.0304)
 -->
<!-- Title: twoDegreesRelationshipsDiagram Pages: 1 -->
<svg width="676pt" height="683pt"
 viewBox="0.00 0.00 676.00 683.20" xmlns="http://www.w3.org/2000/svg" xmlns:xlink="http://www.w3.org/1999/xlink">
<g id="graph0" class="graph" transform="scale(1 1) rotate(0) translate(4 679.2)">
<title>twoDegreesRelationshipsDiagram</title>
<polygon fill="#ffffff" stroke="transparent" points="-4,4 -4,-679.2 672,-679.2 672,4 -4,4"/>
<text text-anchor="middle" x="72.4936" y="-7.3" font-family="Helvetica,sans-Serif" font-size="11.00" fill="#000000">Generated by SchemaSpy</text>
<!-- auth_user_groups -->
<g id="node1" class="node">
<title>auth_user_groups</title>
<g id="a_node1"><a xlink:href="../../tables/auth_user_groups.html" xlink:title="auth_user_groups" target="_top">
<polygon fill="#ffffff" stroke="transparent" points="230.5,-610.2 230.5,-671.2 398.5,-671.2 398.5,-610.2 230.5,-610.2"/>
<polygon fill="#f5f5f5" stroke="transparent" points="230.5,-647.7 230.5,-670.7 398.5,-670.7 398.5,-647.7 230.5,-647.7"/>
<polygon fill="none" stroke="#000000" points="230.5,-647.7 230.5,-670.7 398.5,-670.7 398.5,-647.7 230.5,-647.7"/>
<text text-anchor="start" x="235.5" y="-656.3" font-family="Helvetica,sans-Serif" font-weight="bold" font-size="11.00" fill="#000000">auth_user_groups</text>
<text text-anchor="start" x="364.0219" y="-655.8" font-family="Helvetica,sans-Serif" font-size="11.00" fill="#000000">[table]</text>
<polygon fill="none" stroke="#000000" points="230.5,-628.7 230.5,-647.7 398.5,-647.7 398.5,-628.7 230.5,-628.7"/>
<text text-anchor="start" x="233.5" y="-634.8" font-family="Helvetica,sans-Serif" font-size="11.00" fill="#000000">...</text>
<polygon fill="#ffffff" stroke="transparent" points="230.5,-609.7 230.5,-628.7 398.5,-628.7 398.5,-609.7 230.5,-609.7"/>
<polygon fill="none" stroke="#000000" points="230.5,-609.7 230.5,-628.7 398.5,-628.7 398.5,-609.7 230.5,-609.7"/>
<polygon fill="#ffffff" stroke="transparent" points="231.5,-610.7 231.5,-627.7 293.5,-627.7 293.5,-610.7 231.5,-610.7"/>
<text text-anchor="start" x="233.5" y="-615.8" font-family="Helvetica,sans-Serif" font-size="11.00" fill="#000000">&lt; 2</text>
<polygon fill="#ffffff" stroke="transparent" points="293.5,-610.7 293.5,-627.7 345.5,-627.7 345.5,-610.7 293.5,-610.7"/>
<text text-anchor="start" x="316.4431" y="-615.8" font-family="Helvetica,sans-Serif" font-size="11.00" fill="#000000"> &#160;</text>
<polygon fill="#ffffff" stroke="transparent" points="345.5,-610.7 345.5,-627.7 397.5,-627.7 397.5,-610.7 345.5,-610.7"/>
<text text-anchor="start" x="389.3862" y="-615.8" font-family="Helvetica,sans-Serif" font-size="11.00" fill="#000000"> &#160;</text>
<polygon fill="#000000" stroke="#000000" points="293.5,-610.7 293.5,-627.7 293.5,-627.7 293.5,-610.7 293.5,-610.7"/>
<polygon fill="#000000" stroke="#000000" points="345.5,-610.7 345.5,-627.7 345.5,-627.7 345.5,-610.7 345.5,-610.7"/>
</a>
</g>
</g>
<!-- auth_user -->
<g id="node2" class="node">
<title>auth_user</title>
<g id="a_node2"><a xlink:href="../../tables/auth_user.html" xlink:title="auth_user" target="_top">
<polygon fill="#ffffff" stroke="transparent" points="8,-403.2 8,-508.2 121,-508.2 121,-403.2 8,-403.2"/>
<polygon fill="#f5f5f5" stroke="transparent" points="8.5,-484.7 8.5,-507.7 121.5,-507.7 121.5,-484.7 8.5,-484.7"/>
<polygon fill="none" stroke="#000000" points="8.5,-484.7 8.5,-507.7 121.5,-507.7 121.5,-484.7 8.5,-484.7"/>
<text text-anchor="start" x="13.5" y="-493.3" font-family="Helvetica,sans-Serif" font-weight="bold" font-size="11.00" fill="#000000">auth_user</text>
<text text-anchor="start" x="86.5437" y="-492.8" font-family="Helvetica,sans-Serif" font-size="11.00" fill="#000000">[table]</text>
<polygon fill="none" stroke="#000000" points="8.5,-462.7 8.5,-484.7 121.5,-484.7 121.5,-462.7 8.5,-462.7"/>
<image xlink:href="../../images/primaryKeys.png" width="11px" height="12px" preserveAspectRatio="xMinYMin meet" x="13.5" y="-479.7"/>
<text text-anchor="start" x="28.5" y="-469.8" font-family="Helvetica,sans-Serif" font-size="11.00" fill="#000000">id</text>
<polygon fill="#ffffff" stroke="transparent" points="8.5,-440.7 8.5,-462.7 121.5,-462.7 121.5,-440.7 8.5,-440.7"/>
<polygon fill="none" stroke="#000000" points="8.5,-440.7 8.5,-462.7 121.5,-462.7 121.5,-440.7 8.5,-440.7"/>
<text text-anchor="start" x="28.5" y="-447.8" font-family="Helvetica,sans-Serif" font-size="11.00" fill="#000000">username</text>
<polygon fill="none" stroke="#000000" points="8.5,-421.7 8.5,-440.7 121.5,-440.7 121.5,-421.7 8.5,-421.7"/>
<text text-anchor="start" x="11.5" y="-427.8" font-family="Helvetica,sans-Serif" font-size="11.00" fill="#000000">...</text>
<polygon fill="#ffffff" stroke="transparent" points="8.5,-402.7 8.5,-421.7 121.5,-421.7 121.5,-402.7 8.5,-402.7"/>
<polygon fill="none" stroke="#000000" points="8.5,-402.7 8.5,-421.7 121.5,-421.7 121.5,-402.7 8.5,-402.7"/>
<polygon fill="#ffffff" stroke="transparent" points="9.5,-403.7 9.5,-420.7 43.5,-420.7 43.5,-403.7 9.5,-403.7"/>
<text text-anchor="start" x="11.5" y="-408.8" font-family="Helvetica,sans-Serif" font-size="11.00" fill="#000000"> &#160;</text>
<polygon fill="#ffffff" stroke="transparent" points="43.5,-403.7 43.5,-420.7 77.5,-420.7 77.5,-403.7 43.5,-403.7"/>
<text text-anchor="start" x="57.4431" y="-408.8" font-family="Helvetica,sans-Serif" font-size="11.00" fill="#000000"> &#160;</text>
<polygon fill="#ffffff" stroke="transparent" points="77.5,-403.7 77.5,-420.7 120.5,-420.7 120.5,-403.7 77.5,-403.7"/>
<text text-anchor="start" x="102.9053" y="-408.8" font-family="Helvetica,sans-Serif" font-size="11.00" fill="#000000">5 &gt;</text>
<polygon fill="#000000" stroke="#000000" points="43.5,-403.7 43.5,-420.7 43.5,-420.7 43.5,-403.7 43.5,-403.7"/>
<polygon fill="#000000" stroke="#000000" points="77.5,-403.7 77.5,-420.7 77.5,-420.7 77.5,-403.7 77.5,-403.7"/>
</a>
</g>
</g>
<!-- auth_user_groups&#45;&gt;auth_user -->
<g id="edge1" class="edge">
<title>auth_user_groups:w&#45;&gt;auth_user:e</title>
<path fill="none" stroke="#000000" d="M216.0864,-636.9107C191.9105,-633.952 180.7317,-622.5044 162,-599.7 124.6641,-554.2464 180.3218,-473.7 121.5,-473.7"/>
<polygon fill="#000000" stroke="#000000" points="222.512,-637.2625 230.3031,-641.2946 226.506,-637.4813 230.5,-637.7 230.5,-637.7 230.5,-637.7 226.506,-637.4813 230.6969,-634.1054 222.512,-637.2625 222.512,-637.2625"/>
<ellipse fill="none" stroke="#000000" cx="219.3168" cy="-637.0875" rx="3.2" ry="3.2"/>
</g>
<!-- auth_user_user_permissions -->
<g id="node3" class="node">
<title>auth_user_user_permissions</title>
<g id="a_node3"><a xlink:href="../../tables/auth_user_user_permissions.html" xlink:title="auth_user_user_permissions" target="_top">
<polygon fill="#ffffff" stroke="transparent" points="192.5,-528.2 192.5,-589.2 436.5,-589.2 436.5,-528.2 192.5,-528.2"/>
<polygon fill="#f5f5f5" stroke="transparent" points="192.5,-565.7 192.5,-588.7 436.5,-588.7 436.5,-565.7 192.5,-565.7"/>
<polygon fill="none" stroke="#000000" points="192.5,-565.7 192.5,-588.7 436.5,-588.7 436.5,-565.7 192.5,-565.7"/>
<text text-anchor="start" x="197.5" y="-574.3" font-family="Helvetica,sans-Serif" font-weight="bold" font-size="11.00" fill="#000000">auth_user_user_permissions</text>
<text text-anchor="start" x="402.0219" y="-573.8" font-family="Helvetica,sans-Serif" font-size="11.00" fill="#000000">[table]</text>
<polygon fill="none" stroke="#000000" points="192.5,-546.7 192.5,-565.7 436.5,-565.7 436.5,-546.7 192.5,-546.7"/>
<text text-anchor="start" x="195.5" y="-552.8" font-family="Helvetica,sans-Serif" font-size="11.00" fill="#000000">...</text>
<polygon fill="#ffffff" stroke="transparent" points="192.5,-527.7 192.5,-546.7 436.5,-546.7 436.5,-527.7 192.5,-527.7"/>
<polygon fill="none" stroke="#000000" points="192.5,-527.7 192.5,-546.7 436.5,-546.7 436.5,-527.7 192.5,-527.7"/>
<polygon fill="#ffffff" stroke="transparent" points="193.5,-528.7 193.5,-545.7 280.5,-545.7 280.5,-528.7 193.5,-528.7"/>
<text text-anchor="start" x="195.5" y="-533.8" font-family="Helvetica,sans-Serif" font-size="11.00" fill="#000000">&lt; 2</text>
<polygon fill="#ffffff" stroke="transparent" points="280.5,-528.7 280.5,-545.7 358.5,-545.7 358.5,-528.7 280.5,-528.7"/>
<text text-anchor="start" x="316.4431" y="-533.8" font-family="Helvetica,sans-Serif" font-size="11.00" fill="#000000"> &#160;</text>
<polygon fill="#ffffff" stroke="transparent" points="358.5,-528.7 358.5,-545.7 435.5,-545.7 435.5,-528.7 358.5,-528.7"/>
<text text-anchor="start" x="427.3862" y="-533.8" font-family="Helvetica,sans-Serif" font-size="11.00" fill="#000000"> &#160;</text>
<polygon fill="#000000" stroke="#000000" points="280.5,-528.7 280.5,-545.7 280.5,-545.7 280.5,-528.7 280.5,-528.7"/>
<polygon fill="#000000" stroke="#000000" points="358.5,-528.7 358.5,-545.7 358.5,-545.7 358.5,-528.7 358.5,-528.7"/>
</a>
</g>
</g>
<!-- auth_user_user_permissions&#45;&gt;auth_user -->
<g id="edge2" class="edge">
<title>auth_user_user_permissions:w&#45;&gt;auth_user:e</title>
<path fill="none" stroke="#000000" d="M178.3483,-552.5856C149.2382,-537.6073 164.0581,-473.7 121.5,-473.7"/>
<polygon fill="#000000" stroke="#000000" points="184.687,-553.9805 191.7262,-559.2159 188.5935,-554.8403 192.5,-555.7 192.5,-555.7 192.5,-555.7 188.5935,-554.8403 193.2738,-552.1841 184.687,-553.9805 184.687,-553.9805"/>
<ellipse fill="none" stroke="#000000" cx="181.5617" cy="-553.2928" rx="3.2" ry="3.2"/>
</g>
<!-- django_admin_log -->
<g id="node4" class="node">
<title>django_admin_log</title>
<g id="a_node4"><a xlink:href="../../tables/django_admin_log.html" xlink:title="django_admin_log" target="_top">
<polygon fill="#ffffff" stroke="transparent" points="229.5,-446.2 229.5,-507.2 399.5,-507.2 399.5,-446.2 229.5,-446.2"/>
<polygon fill="#f5f5f5" stroke="transparent" points="229.5,-483.7 229.5,-506.7 399.5,-506.7 399.5,-483.7 229.5,-483.7"/>
<polygon fill="none" stroke="#000000" points="229.5,-483.7 229.5,-506.7 399.5,-506.7 399.5,-483.7 229.5,-483.7"/>
<text text-anchor="start" x="234.5" y="-492.3" font-family="Helvetica,sans-Serif" font-weight="bold" font-size="11.00" fill="#000000">django_admin_log</text>
<text text-anchor="start" x="365.0219" y="-491.8" font-family="Helvetica,sans-Serif" font-size="11.00" fill="#000000">[table]</text>
<polygon fill="none" stroke="#000000" points="229.5,-464.7 229.5,-483.7 399.5,-483.7 399.5,-464.7 229.5,-464.7"/>
<text text-anchor="start" x="232.5" y="-470.8" font-family="Helvetica,sans-Serif" font-size="11.00" fill="#000000">...</text>
<polygon fill="#ffffff" stroke="transparent" points="229.5,-445.7 229.5,-464.7 399.5,-464.7 399.5,-445.7 229.5,-445.7"/>
<polygon fill="none" stroke="#000000" points="229.5,-445.7 229.5,-464.7 399.5,-464.7 399.5,-445.7 229.5,-445.7"/>
<polygon fill="#ffffff" stroke="transparent" points="230.5,-446.7 230.5,-463.7 292.5,-463.7 292.5,-446.7 230.5,-446.7"/>
<text text-anchor="start" x="232.5" y="-451.8" font-family="Helvetica,sans-Serif" font-size="11.00" fill="#000000">&lt; 2</text>
<polygon fill="#ffffff" stroke="transparent" points="292.5,-446.7 292.5,-463.7 345.5,-463.7 345.5,-446.7 292.5,-446.7"/>
<text text-anchor="start" x="315.9431" y="-451.8" font-family="Helvetica,sans-Serif" font-size="11.00" fill="#000000"> &#160;</text>
<polygon fill="#ffffff" stroke="transparent" points="345.5,-446.7 345.5,-463.7 398.5,-463.7 398.5,-446.7 345.5,-446.7"/>
<text text-anchor="start" x="390.3862" y="-451.8" font-family="Helvetica,sans-Serif" font-size="11.00" fill="#000000"> &#160;</text>
<polygon fill="#000000" stroke="#000000" points="292.5,-446.7 292.5,-463.7 292.5,-463.7 292.5,-446.7 292.5,-446.7"/>
<polygon fill="#000000" stroke="#000000" points="345.5,-446.7 345.5,-463.7 345.5,-463.7 345.5,-446.7 345.5,-446.7"/>
</a>
</g>
</g>
<!-- django_admin_log&#45;&gt;auth_user -->
<g id="edge3" class="edge">
<title>django_admin_log:w&#45;&gt;auth_user:e</title>
<path fill="none" stroke="#000000" d="M214.9478,-473.7C178.4443,-473.7 164.25,-473.7 121.5,-473.7"/>
<polygon fill="#000000" stroke="#000000" points="221.5,-473.7001 229.5,-477.3 225.5,-473.7 229.5,-473.7 229.5,-473.7 229.5,-473.7 225.5,-473.7 229.5,-470.1 221.5,-473.7001 221.5,-473.7001"/>
<ellipse fill="none" stroke="#000000" cx="218.3" cy="-473.7001" rx="3.2" ry="3.2"/>
</g>
<!-- showcase_dog -->
<g id="node5" class="node">
<title>showcase_dog</title>
<g id="a_node5"><a xlink:href="../../tables/showcase_dog.html" xlink:title="showcase_dog" target="_top">
<polygon fill="#ffffff" stroke="transparent" points="508,-289.2 508,-416.2 660,-416.2 660,-289.2 508,-289.2"/>
<polygon fill="#f5f5f5" stroke="transparent" points="508,-392.7 508,-415.7 660,-415.7 660,-392.7 508,-392.7"/>
<polygon fill="none" stroke="#000000" points="508,-392.7 508,-415.7 660,-415.7 660,-392.7 508,-392.7"/>
<text text-anchor="start" x="513" y="-401.3" font-family="Helvetica,sans-Serif" font-weight="bold" font-size="11.00" fill="#000000">showcase_dog</text>
<text text-anchor="start" x="625.0437" y="-400.8" font-family="Helvetica,sans-Serif" font-size="11.00" fill="#000000">[table]</text>
<polygon fill="none" stroke="#000000" points="508,-370.7 508,-392.7 660,-392.7 660,-370.7 508,-370.7"/>
<image xlink:href="../../images/primaryKeys.png" width="11px" height="12px" preserveAspectRatio="xMinYMin meet" x="513" y="-387.7"/>
<text text-anchor="start" x="528" y="-377.8" font-family="Helvetica,sans-Serif" font-size="11.00" fill="#000000">id</text>
<polygon fill="#ffffff" stroke="transparent" points="508,-348.7 508,-370.7 660,-370.7 660,-348.7 508,-348.7"/>
<polygon fill="none" stroke="#000000" points="508,-348.7 508,-370.7 660,-370.7 660,-348.7 508,-348.7"/>
<image xlink:href="../../images/foreignKeys.png" width="11px" height="12px" preserveAspectRatio="xMinYMin meet" x="513" y="-365.7"/>
<text text-anchor="start" x="528" y="-355.8" font-family="Helvetica,sans-Serif" font-size="11.00" fill="#000000">breed_code</text>
<polygon fill="#ffffff" stroke="transparent" points="508,-326.7 508,-348.7 660,-348.7 660,-326.7 508,-326.7"/>
<polygon fill="none" stroke="#000000" points="508,-326.7 508,-348.7 660,-348.7 660,-326.7 508,-326.7"/>
<image xlink:href="../../images/foreignKeys.png" width="11px" height="12px" preserveAspectRatio="xMinYMin meet" x="513" y="-343.7"/>
<text text-anchor="start" x="528" y="-333.8" font-family="Helvetica,sans-Serif" font-size="11.00" fill="#000000">owner_id</text>
<polygon fill="none" stroke="#000000" points="508,-307.7 508,-326.7 660,-326.7 660,-307.7 508,-307.7"/>
<text text-anchor="start" x="511" y="-313.8" font-family="Helvetica,sans-Serif" font-size="11.00" fill="#000000">...</text>
<polygon fill="#ffffff" stroke="transparent" points="508,-288.7 508,-307.7 660,-307.7 660,-288.7 508,-288.7"/>
<polygon fill="none" stroke="#000000" points="508,-288.7 508,-307.7 660,-307.7 660,-288.7 508,-288.7"/>
<polygon fill="#ffffff" stroke="transparent" points="509,-289.7 509,-306.7 559,-306.7 559,-289.7 509,-289.7"/>
<text text-anchor="start" x="511" y="-294.8" font-family="Helvetica,sans-Serif" font-size="11.00" fill="#000000">&lt; 2</text>
<polygon fill="#ffffff" stroke="transparent" points="559,-289.7 559,-306.7 619,-306.7 619,-289.7 559,-289.7"/>
<text text-anchor="start" x="575.5553" y="-294.8" font-family="Helvetica,sans-Serif" font-size="11.00" fill="#000000">1 row</text>
<polygon fill="#ffffff" stroke="transparent" points="619,-289.7 619,-306.7 659,-306.7 659,-289.7 619,-289.7"/>
<text text-anchor="start" x="650.8862" y="-294.8" font-family="Helvetica,sans-Serif" font-size="11.00" fill="#000000"> &#160;</text>
<polygon fill="#000000" stroke="#000000" points="559,-289.7 559,-306.7 559,-306.7 559,-289.7 559,-289.7"/>
<polygon fill="#000000" stroke="#000000" points="619,-289.7 619,-306.7 619,-306.7 619,-289.7 619,-289.7"/>
</a>
</g>
</g>
<!-- showcase_breed -->
<g id="node6" class="node">
<title>showcase_breed</title>
<g id="a_node6"><a xlink:href="../../tables/showcase_breed.html" xlink:title="showcase_breed" target="_top">
<polygon fill="#ffffff" stroke="transparent" points="235,-364.2 235,-425.2 394,-425.2 394,-364.2 235,-364.2"/>
<polygon fill="#f5f5f5" stroke="transparent" points="235.5,-401.7 235.5,-424.7 394.5,-424.7 394.5,-401.7 235.5,-401.7"/>
<polygon fill="none" stroke="#000000" points="235.5,-401.7 235.5,-424.7 394.5,-424.7 394.5,-401.7 235.5,-401.7"/>
<text text-anchor="start" x="240.5" y="-410.3" font-family="Helvetica,sans-Serif" font-weight="bold" font-size="11.00" fill="#000000">showcase_breed</text>
<text text-anchor="start" x="360.0219" y="-409.8" font-family="Helvetica,sans-Serif" font-size="11.00" fill="#000000">[table]</text>
<polygon fill="none" stroke="#000000" points="235.5,-382.7 235.5,-401.7 394.5,-401.7 394.5,-382.7 235.5,-382.7"/>
<text text-anchor="start" x="238.5" y="-388.8" font-family="Helvetica,sans-Serif" font-size="11.00" fill="#000000">...</text>
<polygon fill="#ffffff" stroke="transparent" points="235.5,-363.7 235.5,-382.7 394.5,-382.7 394.5,-363.7 235.5,-363.7"/>
<polygon fill="none" stroke="#000000" points="235.5,-363.7 235.5,-382.7 394.5,-382.7 394.5,-363.7 235.5,-363.7"/>
<polygon fill="#ffffff" stroke="transparent" points="236.5,-364.7 236.5,-381.7 275.5,-381.7 275.5,-364.7 236.5,-364.7"/>
<text text-anchor="start" x="238.5" y="-369.8" font-family="Helvetica,sans-Serif" font-size="11.00" fill="#000000"> &#160;</text>
<polygon fill="#ffffff" stroke="transparent" points="275.5,-364.7 275.5,-381.7 346.5,-381.7 346.5,-364.7 275.5,-364.7"/>
<text text-anchor="start" x="291.7478" y="-369.8" font-family="Helvetica,sans-Serif" font-size="11.00" fill="#000000">40 rows</text>
<polygon fill="#ffffff" stroke="transparent" points="346.5,-364.7 346.5,-381.7 393.5,-381.7 393.5,-364.7 346.5,-364.7"/>
<text text-anchor="start" x="375.9053" y="-369.8" font-family="Helvetica,sans-Serif" font-size="11.00" fill="#000000">1 &gt;</text>
<polygon fill="#000000" stroke="#000000" points="275.5,-364.7 275.5,-381.7 275.5,-381.7 275.5,-364.7 275.5,-364.7"/>
<polygon fill="#000000" stroke="#000000" points="346.5,-364.7 346.5,-381.7 346.5,-381.7 346.5,-364.7 346.5,-364.7"/>
</a>
</g>
</g>
<!-- showcase_dog&#45;&gt;showcase_breed -->
<g id="edge4" class="edge">
<title>showcase_dog:w&#45;&gt;showcase_breed:e</title>
<path fill="none" stroke="#000000" d="M493.5534,-360.5893C453.4263,-365.7575 441.6904,-391.7 394.5,-391.7"/>
<polygon fill="#000000" stroke="#000000" points="500.0151,-360.1916 508.2212,-363.2932 504.0076,-359.9458 508,-359.7 508,-359.7 508,-359.7 504.0076,-359.9458 507.7788,-356.1068 500.0151,-360.1916 500.0151,-360.1916"/>
<ellipse fill="none" stroke="#000000" cx="496.8212" cy="-360.3882" rx="3.2" ry="3.2"/>
</g>
<!-- showcase_ownerprofile -->
<g id="node7" class="node">
<title>showcase_ownerprofile</title>
<g id="a_node7"><a xlink:href="../../tables/showcase_ownerprofile.html" xlink:title="showcase_ownerprofile" target="_top">
<polygon fill="#ffffff" stroke="transparent" points="170,-120.7 170,-342.7 459,-342.7 459,-120.7 170,-120.7"/>
<polygon fill="#f5f5f5" stroke="transparent" points="172.5,-317.7 172.5,-340.7 457.5,-340.7 457.5,-317.7 172.5,-317.7"/>
<polygon fill="none" stroke="#000000" points="172.5,-317.7 172.5,-340.7 457.5,-340.7 457.5,-317.7 172.5,-317.7"/>
<text text-anchor="start" x="177.5" y="-326.3" font-family="Helvetica,sans-Serif" font-weight="bold" font-size="11.00" fill="#000000">showcase_ownerprofile</text>
<text text-anchor="start" x="422.5437" y="-325.8" font-family="Helvetica,sans-Serif" font-size="11.00" fill="#000000">[table]</text>
<polygon fill="none" stroke="#000000" points="172.5,-295.7 172.5,-317.7 363.5,-317.7 363.5,-295.7 172.5,-295.7"/>
<image xlink:href="../../images/primaryKeys.png" width="11px" height="12px" preserveAspectRatio="xMinYMin meet" x="177.5" y="-312.7"/>
<text text-anchor="start" x="192.5" y="-302.8" font-family="Helvetica,sans-Serif" font-size="11.00" fill="#000000">id</text>
<polygon fill="none" stroke="#000000" points="363.5,-295.7 363.5,-317.7 457.5,-317.7 457.5,-295.7 363.5,-295.7"/>
<text text-anchor="start" x="366.4758" y="-303.4" font-family="Helvetica,sans-Serif" font-size="11.00" fill="#000000">uuid[2147483647]</text>
<polygon fill="none" stroke="#000000" points="172.5,-273.7 172.5,-295.7 363.5,-295.7 363.5,-273.7 172.5,-273.7"/>
<text text-anchor="start" x="192.5" y="-280.8" font-family="Helvetica,sans-Serif" font-size="11.00" fill="#000000">nickname</text>
<polygon fill="none" stroke="#000000" points="363.5,-273.7 363.5,-295.7 457.5,-295.7 457.5,-273.7 363.5,-273.7"/>
<text text-anchor="start" x="366.5" y="-281.4" font-family="Helvetica,sans-Serif" font-size="11.00" fill="#000000">varchar[64]</text>
<polygon fill="none" stroke="#000000" points="172.5,-251.7 172.5,-273.7 363.5,-273.7 363.5,-251.7 172.5,-251.7"/>
<text text-anchor="start" x="192.5" y="-258.8" font-family="Helvetica,sans-Serif" font-size="11.00" fill="#000000">profile_image_key</text>
<polygon fill="none" stroke="#000000" points="363.5,-251.7 363.5,-273.7 457.5,-273.7 457.5,-251.7 363.5,-251.7"/>
<text text-anchor="start" x="366.5" y="-259.4" font-family="Helvetica,sans-Serif" font-size="11.00" fill="#000000">varchar[512]</text>
<polygon fill="none" stroke="#000000" points="172.5,-229.7 172.5,-251.7 363.5,-251.7 363.5,-229.7 172.5,-229.7"/>
<text text-anchor="start" x="192.5" y="-236.8" font-family="Helvetica,sans-Serif" font-size="11.00" fill="#000000">created_at</text>
<polygon fill="none" stroke="#000000" points="363.5,-229.7 363.5,-251.7 457.5,-251.7 457.5,-229.7 363.5,-229.7"/>
<text text-anchor="start" x="366.5" y="-237.4" font-family="Helvetica,sans-Serif" font-size="11.00" fill="#000000">timestamptz[35,6]</text>
<polygon fill="#ffffff" stroke="transparent" points="172.5,-207.7 172.5,-229.7 363.5,-229.7 363.5,-207.7 172.5,-207.7"/>
<polygon fill="none" stroke="#000000" points="172.5,-207.7 172.5,-229.7 363.5,-229.7 363.5,-207.7 172.5,-207.7"/>
<image xlink:href="../../images/foreignKeys.png" width="11px" height="12px" preserveAspectRatio="xMinYMin meet" x="177.5" y="-224.7"/>
<text text-anchor="start" x="192.5" y="-214.8" font-family="Helvetica,sans-Serif" font-size="11.00" fill="#000000">user_id</text>
<polygon fill="none" stroke="#000000" points="363.5,-207.7 363.5,-229.7 457.5,-229.7 457.5,-207.7 363.5,-207.7"/>
<text text-anchor="start" x="366.5" y="-215.4" font-family="Helvetica,sans-Serif" font-size="11.00" fill="#000000">int4[10]</text>
<polygon fill="none" stroke="#000000" points="172.5,-185.7 172.5,-207.7 363.5,-207.7 363.5,-185.7 172.5,-185.7"/>
<text text-anchor="start" x="192.5" y="-192.8" font-family="Helvetica,sans-Serif" font-size="11.00" fill="#000000">pii_email_ciphertext</text>
<polygon fill="none" stroke="#000000" points="363.5,-185.7 363.5,-207.7 457.5,-207.7 457.5,-185.7 363.5,-185.7"/>
<text text-anchor="start" x="366.5" y="-193.4" font-family="Helvetica,sans-Serif" font-size="11.00" fill="#000000">text[2147483647]</text>
<polygon fill="#ffffff" stroke="transparent" points="172.5,-163.7 172.5,-185.7 363.5,-185.7 363.5,-163.7 172.5,-163.7"/>
<polygon fill="none" stroke="#000000" points="172.5,-163.7 172.5,-185.7 363.5,-185.7 363.5,-163.7 172.5,-163.7"/>
<text text-anchor="start" x="192.5" y="-170.8" font-family="Helvetica,sans-Serif" font-size="11.00" fill="#000000">handle</text>
<polygon fill="none" stroke="#000000" points="363.5,-163.7 363.5,-185.7 457.5,-185.7 457.5,-163.7 363.5,-163.7"/>
<text text-anchor="start" x="366.5" y="-171.4" font-family="Helvetica,sans-Serif" font-size="11.00" fill="#000000">varchar[30]</text>
<polygon fill="none" stroke="#000000" points="172.5,-141.7 172.5,-163.7 363.5,-163.7 363.5,-141.7 172.5,-141.7"/>
<text text-anchor="start" x="192.5" y="-148.8" font-family="Helvetica,sans-Serif" font-size="11.00" fill="#000000">full_name</text>
<polygon fill="none" stroke="#000000" points="363.5,-141.7 363.5,-163.7 457.5,-163.7 457.5,-141.7 363.5,-141.7"/>
<text text-anchor="start" x="366.5" y="-149.4" font-family="Helvetica,sans-Serif" font-size="11.00" fill="#000000">text[2147483647]</text>
<polygon fill="#ffffff" stroke="transparent" points="172.5,-122.7 172.5,-141.7 457.5,-141.7 457.5,-122.7 172.5,-122.7"/>
<polygon fill="none" stroke="#000000" points="172.5,-122.7 172.5,-141.7 457.5,-141.7 457.5,-122.7 172.5,-122.7"/>
<polygon fill="#ffffff" stroke="transparent" points="173.5,-123.7 173.5,-140.7 264.5,-140.7 264.5,-123.7 173.5,-123.7"/>
<text text-anchor="start" x="175.5" y="-128.8" font-family="Helvetica,sans-Serif" font-size="11.00" fill="#000000">&lt; 1</text>
<polygon fill="#ffffff" stroke="transparent" points="264.5,-123.7 264.5,-140.7 366.5,-140.7 366.5,-123.7 264.5,-123.7"/>
<text text-anchor="start" x="302.0553" y="-128.8" font-family="Helvetica,sans-Serif" font-size="11.00" fill="#000000">1 row</text>
<polygon fill="#ffffff" stroke="transparent" points="366.5,-123.7 366.5,-140.7 456.5,-140.7 456.5,-123.7 366.5,-123.7"/>
<text text-anchor="start" x="438.9053" y="-128.8" font-family="Helvetica,sans-Serif" font-size="11.00" fill="#000000">1 &gt;</text>
<polygon fill="#000000" stroke="#000000" points="264.5,-123.7 264.5,-140.7 264.5,-140.7 264.5,-123.7 264.5,-123.7"/>
<polygon fill="#000000" stroke="#000000" points="366.5,-123.7 366.5,-140.7 366.5,-140.7 366.5,-123.7 366.5,-123.7"/>
<polygon fill="none" stroke="#000000" stroke-width="2" points="171,-121.7 171,-341.7 458,-341.7 458,-121.7 171,-121.7"/>
</a>
</g>
</g>
<!-- showcase_dog&#45;&gt;showcase_ownerprofile -->
<g id="edge5" class="edge">
<title>showcase_dog:w&#45;&gt;showcase_ownerprofile:e</title>
<path fill="none" stroke="#000000" d="M493.8267,-333.6473C481.1849,-325.2444 477.8692,-306.7 457.5,-306.7"/>
<polygon fill="#000000" stroke="#000000" points="500.3083,-335.5006 507.0103,-341.1613 504.1541,-336.6003 508,-337.7 508,-337.7 508,-337.7 504.1541,-336.6003 508.9897,-334.2387 500.3083,-335.5006 500.3083,-335.5006"/>
<ellipse fill="none" stroke="#000000" cx="497.2316" cy="-334.6208" rx="3.2" ry="3.2"/>
</g>
<!-- showcase_ownerprofile&#45;&gt;auth_user -->
<g id="edge6" class="edge">
<title>showcase_ownerprofile:w&#45;&gt;auth_user:e</title>
<path fill="none" stroke="#000000" d="M162.5345,-221.9241C122.7482,-251.4427 175.4513,-473.7 121.5,-473.7"/>
<polygon fill="#000000" stroke="#000000" points="170.5075,-215.1405 172.9702,-222.752 171.4478,-223.2446 168.9852,-215.633 170.5075,-215.1405"/>
<polyline fill="none" stroke="#000000" points="172.5,-218.7 168.6942,-219.9313 "/>
<ellipse fill="none" stroke="#000000" cx="165.6496" cy="-220.9164" rx="3.2" ry="3.2"/>
</g>
<!-- token_blacklist_outstandingtoken -->
<g id="node8" class="node">
<title>token_blacklist_outstandingtoken</title>
<g id="a_node8"><a xlink:href="../../tables/token_blacklist_outstandingtoken.html" xlink:title="token_blacklist_outstandingtoken" target="_top">
<polygon fill="#ffffff" stroke="transparent" points="171.5,-38.2 171.5,-99.2 457.5,-99.2 457.5,-38.2 171.5,-38.2"/>
<polygon fill="#f5f5f5" stroke="transparent" points="171.5,-75.7 171.5,-98.7 457.5,-98.7 457.5,-75.7 171.5,-75.7"/>
<polygon fill="none" stroke="#000000" points="171.5,-75.7 171.5,-98.7 457.5,-98.7 457.5,-75.7 171.5,-75.7"/>
<text text-anchor="start" x="176.5" y="-84.3" font-family="Helvetica,sans-Serif" font-weight="bold" font-size="11.00" fill="#000000">token_blacklist_outstandingtoken</text>
<text text-anchor="start" x="423.0219" y="-83.8" font-family="Helvetica,sans-Serif" font-size="11.00" fill="#000000">[table]</text>
<polygon fill="none" stroke="#000000" points="171.5,-56.7 171.5,-75.7 457.5,-75.7 457.5,-56.7 171.5,-56.7"/>
<text text-anchor="start" x="174.5" y="-62.8" font-family="Helvetica,sans-Serif" font-size="11.00" fill="#000000">...</text>
<polygon fill="#ffffff" stroke="transparent" points="171.5,-37.7 171.5,-56.7 457.5,-56.7 457.5,-37.7 171.5,-37.7"/>
<polygon fill="none" stroke="#000000" points="171.5,-37.7 171.5,-56.7 457.5,-56.7 457.5,-37.7 171.5,-37.7"/>
<polygon fill="#ffffff" stroke="transparent" points="172.5,-38.7 172.5,-55.7 270.5,-55.7 270.5,-38.7 172.5,-38.7"/>
<text text-anchor="start" x="174.5" y="-43.8" font-family="Helvetica,sans-Serif" font-size="11.00" fill="#000000">&lt; 1</text>
<polygon fill="#ffffff" stroke="transparent" points="270.5,-38.7 270.5,-55.7 359.5,-55.7 359.5,-38.7 270.5,-38.7"/>
<text text-anchor="start" x="311.9431" y="-43.8" font-family="Helvetica,sans-Serif" font-size="11.00" fill="#000000"> &#160;</text>
<polygon fill="#ffffff" stroke="transparent" points="359.5,-38.7 359.5,-55.7 456.5,-55.7 456.5,-38.7 359.5,-38.7"/>
<text text-anchor="start" x="438.9053" y="-43.8" font-family="Helvetica,sans-Serif" font-size="11.00" fill="#000000">1 &gt;</text>
<polygon fill="#000000" stroke="#000000" points="270.5,-38.7 270.5,-55.7 270.5,-55.7 270.5,-38.7 270.5,-38.7"/>
<polygon fill="#000000" stroke="#000000" points="359.5,-38.7 359.5,-55.7 359.5,-55.7 359.5,-38.7 359.5,-38.7"/>
</a>
</g>
</g>
<!-- token_blacklist_outstandingtoken&#45;&gt;auth_user -->
<g id="edge7" class="edge">
<title>token_blacklist_outstandingtoken:w&#45;&gt;auth_user:e</title>
<path fill="none" stroke="#000000" d="M157.6606,-69.7381C94.9355,-112.1117 207.4927,-473.7 121.5,-473.7"/>
<polygon fill="#000000" stroke="#000000" points="163.8202,-67.9409 172.5084,-69.1559 167.6601,-66.8204 171.5,-65.7 171.5,-65.7 171.5,-65.7 167.6601,-66.8204 170.4916,-62.2441 163.8202,-67.9409 163.8202,-67.9409"/>
<ellipse fill="none" stroke="#000000" cx="160.7483" cy="-68.8372" rx="3.2" ry="3.2"/>
</g>
</g>
</svg>
