<?xml version="1.0" encoding="UTF-8" standalone="no"?>
<!DOCTYPE svg PUBLIC "-//W3C//DTD SVG 1.1//EN"
 "http://www.w3.org/Graphics/SVG/1.1/DTD/svg11.dtd">
<!-- Generated by graphviz version 2.40.1 (20161225.0304)
 -->
<!-- Title: twoDegreesRelationshipsDiagram Pages: 1 -->
<svg width="692pt" height="418pt"
 viewBox="0.00 0.00 692.00 417.70" xmlns="http://www.w3.org/2000/svg" xmlns:xlink="http://www.w3.org/1999/xlink">
<g id="graph0" class="graph" transform="scale(1 1) rotate(0) translate(4 413.7)">
<title>twoDegreesRelationshipsDiagram</title>
<polygon fill="#ffffff" stroke="transparent" points="-4,4 -4,-413.7 688,-413.7 688,4 -4,4"/>
<text text-anchor="middle" x="72.4936" y="-7.3" font-family="Helvetica,sans-Serif" font-size="11.00" fill="#000000">Generated by SchemaSpy</text>
<!-- showcase_dog -->
<g id="node1" class="node">
<title>showcase_dog</title>
<g id="a_node1"><a xlink:href="../../tables/showcase_dog.html" xlink:title="showcase_dog" target="_top">
<polygon fill="#ffffff" stroke="transparent" points="426,-139.7 426,-405.7 676,-405.7 676,-139.7 426,-139.7"/>
<polygon fill="#f5f5f5" stroke="transparent" points="428,-380.7 428,-403.7 674,-403.7 674,-380.7 428,-380.7"/>
<polygon fill="none" stroke="#000000" points="428,-380.7 428,-403.7 674,-403.7 674,-380.7 428,-380.7"/>
<text text-anchor="start" x="433" y="-389.3" font-family="Helvetica,sans-Serif" font-weight="bold" font-size="11.00" fill="#000000">showcase_dog</text>
<text text-anchor="start" x="639.0437" y="-388.8" font-family="Helvetica,sans-Serif" font-size="11.00" fill="#000000">[table]</text>
<polygon fill="none" stroke="#000000" points="428,-358.7 428,-380.7 580,-380.7 580,-358.7 428,-358.7"/>
<image xlink:href="../../images/primaryKeys.png" width="11px" height="12px" preserveAspectRatio="xMinYMin meet" x="433" y="-375.7"/>
<text text-anchor="start" x="448" y="-365.8" font-family="Helvetica,sans-Serif" font-size="11.00" fill="#000000">id</text>
<polygon fill="none" stroke="#000000" points="580,-358.7 580,-380.7 674,-380.7 674,-358.7 580,-358.7"/>
<text text-anchor="start" x="582.9758" y="-366.4" font-family="Helvetica,sans-Serif" font-size="11.00" fill="#000000">uuid[2147483647]</text>
<polygon fill="none" stroke="#000000" points="428,-336.7 428,-358.7 580,-358.7 580,-336.7 428,-336.7"/>
<text text-anchor="start" x="448" y="-343.8" font-family="Helvetica,sans-Serif" font-size="11.00" fill="#000000">name</text>
<polygon fill="none" stroke="#000000" points="580,-336.7 580,-358.7 674,-358.7 674,-336.7 580,-336.7"/>
<text text-anchor="start" x="583" y="-344.4" font-family="Helvetica,sans-Serif" font-size="11.00" fill="#000000">varchar[128]</text>
<polygon fill="none" stroke="#000000" points="428,-314.7 428,-336.7 580,-336.7 580,-314.7 428,-314.7"/>
<text text-anchor="start" x="448" y="-321.8" font-family="Helvetica,sans-Serif" font-size="11.00" fill="#000000">birth_date</text>
<polygon fill="none" stroke="#000000" points="580,-314.7 580,-336.7 674,-336.7 674,-314.7 580,-314.7"/>
<text text-anchor="start" x="583" y="-322.4" font-family="Helvetica,sans-Serif" font-size="11.00" fill="#000000">date[13]</text>
<polygon fill="none" stroke="#000000" points="428,-292.7 428,-314.7 580,-314.7 580,-292.7 428,-292.7"/>
<text text-anchor="start" x="448" y="-299.8" font-family="Helvetica,sans-Serif" font-size="11.00" fill="#000000">weight</text>
<polygon fill="none" stroke="#000000" points="580,-292.7 580,-314.7 674,-314.7 674,-292.7 580,-292.7"/>
<text text-anchor="start" x="583" y="-300.4" font-family="Helvetica,sans-Serif" font-size="11.00" fill="#000000">float8[17,17]</text>
<polygon fill="none" stroke="#000000" points="428,-270.7 428,-292.7 580,-292.7 580,-270.7 428,-270.7"/>
<text text-anchor="start" x="448" y="-277.8" font-family="Helvetica,sans-Serif" font-size="11.00" fill="#000000">color</text>
<polygon fill="none" stroke="#000000" points="580,-270.7 580,-292.7 674,-292.7 674,-270.7 580,-270.7"/>
<text text-anchor="start" x="583" y="-278.4" font-family="Helvetica,sans-Serif" font-size="11.00" fill="#000000">varchar[64]</text>
<polygon fill="none" stroke="#000000" points="428,-248.7 428,-270.7 580,-270.7 580,-248.7 428,-248.7"/>
<text text-anchor="start" x="448" y="-255.8" font-family="Helvetica,sans-Serif" font-size="11.00" fill="#000000">gender</text>
<polygon fill="none" stroke="#000000" points="580,-248.7 580,-270.7 674,-270.7 674,-248.7 580,-248.7"/>
<text text-anchor="start" x="583" y="-256.4" font-family="Helvetica,sans-Serif" font-size="11.00" fill="#000000">varchar[32]</text>
<polygon fill="none" stroke="#000000" points="428,-226.7 428,-248.7 580,-248.7 580,-226.7 428,-226.7"/>
<text text-anchor="start" x="448" y="-233.8" font-family="Helvetica,sans-Serif" font-size="11.00" fill="#000000">profile_image_key</text>
<polygon fill="none" stroke="#000000" points="580,-226.7 580,-248.7 674,-248.7 674,-226.7 580,-226.7"/>
<text text-anchor="start" x="583" y="-234.4" font-family="Helvetica,sans-Serif" font-size="11.00" fill="#000000">varchar[512]</text>
<polygon fill="none" stroke="#000000" points="428,-204.7 428,-226.7 580,-226.7 580,-204.7 428,-204.7"/>
<text text-anchor="start" x="448" y="-211.8" font-family="Helvetica,sans-Serif" font-size="11.00" fill="#000000">created_at</text>
<polygon fill="none" stroke="#000000" points="580,-204.7 580,-226.7 674,-226.7 674,-204.7 580,-204.7"/>
<text text-anchor="start" x="583" y="-212.4" font-family="Helvetica,sans-Serif" font-size="11.00" fill="#000000">timestamptz[35,6]</text>
<polygon fill="#ffffff" stroke="transparent" points="428,-182.7 428,-204.7 580,-204.7 580,-182.7 428,-182.7"/>
<polygon fill="none" stroke="#000000" points="428,-182.7 428,-204.7 580,-204.7 580,-182.7 428,-182.7"/>
<image xlink:href="../../images/foreignKeys.png" width="11px" height="12px" preserveAspectRatio="xMinYMin meet" x="433" y="-199.7"/>
<text text-anchor="start" x="448" y="-189.8" font-family="Helvetica,sans-Serif" font-size="11.00" fill="#000000">breed_code</text>
<polygon fill="none" stroke="#000000" points="580,-182.7 580,-204.7 674,-204.7 674,-182.7 580,-182.7"/>
<text text-anchor="start" x="583" y="-190.4" font-family="Helvetica,sans-Serif" font-size="11.00" fill="#000000">int4[10]</text>
<polygon fill="#ffffff" stroke="transparent" points="428,-160.7 428,-182.7 580,-182.7 580,-160.7 428,-160.7"/>
<polygon fill="none" stroke="#000000" points="428,-160.7 428,-182.7 580,-182.7 580,-160.7 428,-160.7"/>
<image xlink:href="../../images/foreignKeys.png" width="11px" height="12px" preserveAspectRatio="xMinYMin meet" x="433" y="-177.7"/>
<text text-anchor="start" x="448" y="-167.8" font-family="Helvetica,sans-Serif" font-size="11.00" fill="#000000">owner_id</text>
<polygon fill="none" stroke="#000000" points="580,-160.7 580,-182.7 674,-182.7 674,-160.7 580,-160.7"/>
<text text-anchor="start" x="582.9758" y="-168.4" font-family="Helvetica,sans-Serif" font-size="11.00" fill="#000000">uuid[2147483647]</text>
<polygon fill="#ffffff" stroke="transparent" points="428,-141.7 428,-160.7 674,-160.7 674,-141.7 428,-141.7"/>
<polygon fill="none" stroke="#000000" points="428,-141.7 428,-160.7 674,-160.7 674,-141.7 428,-141.7"/>
<polygon fill="#ffffff" stroke="transparent" points="429,-142.7 429,-159.7 507,-159.7 507,-142.7 429,-142.7"/>
<text text-anchor="start" x="431" y="-147.8" font-family="Helvetica,sans-Serif" font-size="11.00" fill="#000000">&lt; 2</text>
<polygon fill="#ffffff" stroke="transparent" points="507,-142.7 507,-159.7 596,-159.7 596,-142.7 507,-142.7"/>
<text text-anchor="start" x="538.0553" y="-147.8" font-family="Helvetica,sans-Serif" font-size="11.00" fill="#000000">1 row</text>
<polygon fill="#ffffff" stroke="transparent" points="596,-142.7 596,-159.7 673,-159.7 673,-142.7 596,-142.7"/>
<text text-anchor="start" x="655.4053" y="-147.8" font-family="Helvetica,sans-Serif" font-size="11.00" fill="#000000">0 &gt;</text>
<polygon fill="#000000" stroke="#000000" points="507,-142.7 507,-159.7 507,-159.7 507,-142.7 507,-142.7"/>
<polygon fill="#000000" stroke="#000000" points="596,-142.7 596,-159.7 596,-159.7 596,-142.7 596,-142.7"/>
<polygon fill="none" stroke="#000000" stroke-width="2" points="427,-140.7 427,-404.7 675,-404.7 675,-140.7 427,-140.7"/>
</a>
</g>
</g>
<!-- showcase_breed -->
<g id="node2" class="node">
<title>showcase_breed</title>
<g id="a_node2"><a xlink:href="../../tables/showcase_breed.html" xlink:title="showcase_breed" target="_top">
<polygon fill="#ffffff" stroke="transparent" points="193,-186.2 193,-269.2 352,-269.2 352,-186.2 193,-186.2"/>
<polygon fill="#f5f5f5" stroke="transparent" points="193.5,-245.7 193.5,-268.7 352.5,-268.7 352.5,-245.7 193.5,-245.7"/>
<polygon fill="none" stroke="#000000" points="193.5,-245.7 193.5,-268.7 352.5,-268.7 352.5,-245.7 193.5,-245.7"/>
<text text-anchor="start" x="198.5" y="-254.3" font-family="Helvetica,sans-Serif" font-weight="bold" font-size="11.00" fill="#000000">showcase_breed</text>
<text text-anchor="start" x="318.0219" y="-253.8" font-family="Helvetica,sans-Serif" font-size="11.00" fill="#000000">[table]</text>
<polygon fill="none" stroke="#000000" points="193.5,-223.7 193.5,-245.7 352.5,-245.7 352.5,-223.7 193.5,-223.7"/>
<image xlink:href="../../images/primaryKeys.png" width="11px" height="12px" preserveAspectRatio="xMinYMin meet" x="198.5" y="-240.7"/>
<text text-anchor="start" x="222.5" y="-230.8" font-family="Helvetica,sans-Serif" font-size="11.00" fill="#000000">code</text>
<polygon fill="none" stroke="#000000" points="193.5,-204.7 193.5,-223.7 352.5,-223.7 352.5,-204.7 193.5,-204.7"/>
<text text-anchor="start" x="196.5" y="-210.8" font-family="Helvetica,sans-Serif" font-size="11.00" fill="#000000">...</text>
<polygon fill="#ffffff" stroke="transparent" points="193.5,-185.7 193.5,-204.7 352.5,-204.7 352.5,-185.7 193.5,-185.7"/>
<polygon fill="none" stroke="#000000" points="193.5,-185.7 193.5,-204.7 352.5,-204.7 352.5,-185.7 193.5,-185.7"/>
<polygon fill="#ffffff" stroke="transparent" points="194.5,-186.7 194.5,-203.7 233.5,-203.7 233.5,-186.7 194.5,-186.7"/>
<text text-anchor="start" x="196.5" y="-191.8" font-family="Helvetica,sans-Serif" font-size="11.00" fill="#000000"> &#160;</text>
<polygon fill="#ffffff" stroke="transparent" points="233.5,-186.7 233.5,-203.7 304.5,-203.7 304.5,-186.7 233.5,-186.7"/>
<text text-anchor="start" x="249.7478" y="-191.8" font-family="Helvetica,sans-Serif" font-size="11.00" fill="#000000">40 rows</text>
<polygon fill="#ffffff" stroke="transparent" points="304.5,-186.7 304.5,-203.7 351.5,-203.7 351.5,-186.7 304.5,-186.7"/>
<text text-anchor="start" x="333.9053" y="-191.8" font-family="Helvetica,sans-Serif" font-size="11.00" fill="#000000">1 &gt;</text>
<polygon fill="#000000" stroke="#000000" points="233.5,-186.7 233.5,-203.7 233.5,-203.7 233.5,-186.7 233.5,-186.7"/>
<polygon fill="#000000" stroke="#000000" points="304.5,-186.7 304.5,-203.7 304.5,-203.7 304.5,-186.7 304.5,-186.7"/>
</a>
</g>
</g>
<!-- showcase_dog&#45;&gt;showcase_breed -->
<g id="edge1" class="edge">
<title>showcase_dog:w&#45;&gt;showcase_breed:e</title>
<path fill="none" stroke="#000000" d="M413.6551,-196.0218C389.2511,-204.6951 385.1653,-234.7 352.5,-234.7"/>
<polygon fill="#000000" stroke="#000000" points="420.1028,-194.9783 428.5752,-197.2538 424.0514,-194.3391 428,-193.7 428,-193.7 428,-193.7 424.0514,-194.3391 427.4248,-190.1462 420.1028,-194.9783 420.1028,-194.9783"/>
<ellipse fill="none" stroke="#000000" cx="416.9439" cy="-195.4896" rx="3.2" ry="3.2"/>
</g>
<!-- showcase_ownerprofile -->
<g id="node3" class="node">
<title>showcase_ownerprofile</title>
<g id="a_node3"><a xlink:href="../../tables/showcase_ownerprofile.html" xlink:title="showcase_ownerprofile" target="_top">
<polygon fill="#ffffff" stroke="transparent" points="168,-38.2 168,-165.2 377,-165.2 377,-38.2 168,-38.2"/>
<polygon fill="#f5f5f5" stroke="transparent" points="168.5,-141.7 168.5,-164.7 377.5,-164.7 377.5,-141.7 168.5,-141.7"/>
<polygon fill="none" stroke="#000000" points="168.5,-141.7 168.5,-164.7 377.5,-164.7 377.5,-141.7 168.5,-141.7"/>
<text text-anchor="start" x="173.5" y="-150.3" font-family="Helvetica,sans-Serif" font-weight="bold" font-size="11.00" fill="#000000">showcase_ownerprofile</text>
<text text-anchor="start" x="343.0219" y="-149.8" font-family="Helvetica,sans-Serif" font-size="11.00" fill="#000000">[table]</text>
<polygon fill="none" stroke="#000000" points="168.5,-119.7 168.5,-141.7 377.5,-141.7 377.5,-119.7 168.5,-119.7"/>
<image xlink:href="../../images/primaryKeys.png" width="11px" height="12px" preserveAspectRatio="xMinYMin meet" x="173.5" y="-136.7"/>
<text text-anchor="start" x="197.5" y="-126.8" font-family="Helvetica,sans-Serif" font-size="11.00" fill="#000000">id</text>
<polygon fill="#ffffff" stroke="transparent" points="168.5,-97.7 168.5,-119.7 377.5,-119.7 377.5,-97.7 168.5,-97.7"/>
<polygon fill="none" stroke="#000000" points="168.5,-97.7 168.5,-119.7 377.5,-119.7 377.5,-97.7 168.5,-97.7"/>
<image xlink:href="../../images/foreignKeys.png" width="11px" height="12px" preserveAspectRatio="xMinYMin meet" x="173.5" y="-114.7"/>
<text text-anchor="start" x="197.5" y="-104.8" font-family="Helvetica,sans-Serif" font-size="11.00" fill="#000000">user_id</text>
<polygon fill="#ffffff" stroke="transparent" points="168.5,-75.7 168.5,-97.7 377.5,-97.7 377.5,-75.7 168.5,-75.7"/>
<polygon fill="none" stroke="#000000" points="168.5,-75.7 168.5,-97.7 377.5,-97.7 377.5,-75.7 168.5,-75.7"/>
<text text-anchor="start" x="197.5" y="-82.8" font-family="Helvetica,sans-Serif" font-size="11.00" fill="#000000">handle</text>
<polygon fill="none" stroke="#000000" points="168.5,-56.7 168.5,-75.7 377.5,-75.7 377.5,-56.7 168.5,-56.7"/>
<text text-anchor="start" x="171.5" y="-62.8" font-family="Helvetica,sans-Serif" font-size="11.00" fill="#000000">...</text>
<polygon fill="#ffffff" stroke="transparent" points="168.5,-37.7 168.5,-56.7 377.5,-56.7 377.5,-37.7 168.5,-37.7"/>
<polygon fill="none" stroke="#000000" points="168.5,-37.7 168.5,-56.7 377.5,-56.7 377.5,-37.7 168.5,-37.7"/>
<polygon fill="#ffffff" stroke="transparent" points="169.5,-38.7 169.5,-55.7 235.5,-55.7 235.5,-38.7 169.5,-38.7"/>
<text text-anchor="start" x="171.5" y="-43.8" font-family="Helvetica,sans-Serif" font-size="11.00" fill="#000000">&lt; 1</text>
<polygon fill="#ffffff" stroke="transparent" points="235.5,-38.7 235.5,-55.7 311.5,-55.7 311.5,-38.7 235.5,-38.7"/>
<text text-anchor="start" x="260.0553" y="-43.8" font-family="Helvetica,sans-Serif" font-size="11.00" fill="#000000">1 row</text>
<polygon fill="#ffffff" stroke="transparent" points="311.5,-38.7 311.5,-55.7 376.5,-55.7 376.5,-38.7 311.5,-38.7"/>
<text text-anchor="start" x="358.9053" y="-43.8" font-family="Helvetica,sans-Serif" font-size="11.00" fill="#000000">1 &gt;</text>
<polygon fill="#000000" stroke="#000000" points="235.5,-38.7 235.5,-55.7 235.5,-55.7 235.5,-38.7 235.5,-38.7"/>
<polygon fill="#000000" stroke="#000000" points="311.5,-38.7 311.5,-55.7 311.5,-55.7 311.5,-38.7 311.5,-38.7"/>
</a>
</g>
</g>
<!-- showcase_dog&#45;&gt;showcase_ownerprofile -->
<g id="edge2" class="edge">
<title>showcase_dog:w&#45;&gt;showcase_ownerprofile:e</title>
<path fill="none" stroke="#000000" d="M414.2601,-167.3123C400.5688,-156.7354 400.5379,-130.7 377.5,-130.7"/>
<polygon fill="#000000" stroke="#000000" points="420.3792,-169.2663 426.9048,-175.1294 424.1896,-170.4832 428,-171.7 428,-171.7 428,-171.7 424.1896,-170.4832 429.0952,-168.2706 420.3792,-169.2663 420.3792,-169.2663"/>
<ellipse fill="none" stroke="#000000" cx="417.3308" cy="-168.2928" rx="3.2" ry="3.2"/>
</g>
<!-- auth_user -->
<g id="node4" class="node">
<title>auth_user</title>
<g id="a_node4"><a xlink:href="../../tables/auth_user.html" xlink:title="auth_user" target="_top">
<polygon fill="#ffffff" stroke="transparent" points="8,-81.2 8,-142.2 119,-142.2 119,-81.2 8,-81.2"/>
<polygon fill="#f5f5f5" stroke="transparent" points="8.5,-118.7 8.5,-141.7 119.5,-141.7 119.5,-118.7 8.5,-118.7"/>
<polygon fill="none" stroke="#000000" points="8.5,-118.7 8.5,-141.7 119.5,-141.7 119.5,-118.7 8.5,-118.7"/>
<text text-anchor="start" x="13.5" y="-127.3" font-family="Helvetica,sans-Serif" font-weight="bold" font-size="11.00" fill="#000000">auth_user</text>
<text text-anchor="start" x="85.0219" y="-126.8" font-family="Helvetica,sans-Serif" font-size="11.00" fill="#000000">[table]</text>
<polygon fill="none" stroke="#000000" points="8.5,-99.7 8.5,-118.7 119.5,-118.7 119.5,-99.7 8.5,-99.7"/>
<text text-anchor="start" x="11.5" y="-105.8" font-family="Helvetica,sans-Serif" font-size="11.00" fill="#000000">...</text>
<polygon fill="#ffffff" stroke="transparent" points="8.5,-80.7 8.5,-99.7 119.5,-99.7 119.5,-80.7 8.5,-80.7"/>
<polygon fill="none" stroke="#000000" points="8.5,-80.7 8.5,-99.7 119.5,-99.7 119.5,-80.7 8.5,-80.7"/>
<polygon fill="#ffffff" stroke="transparent" points="9.5,-81.7 9.5,-98.7 43.5,-98.7 43.5,-81.7 9.5,-81.7"/>
<text text-anchor="start" x="11.5" y="-86.8" font-family="Helvetica,sans-Serif" font-size="11.00" fill="#000000"> &#160;</text>
<polygon fill="#ffffff" stroke="transparent" points="43.5,-81.7 43.5,-98.7 76.5,-98.7 76.5,-81.7 43.5,-81.7"/>
<text text-anchor="start" x="56.9431" y="-86.8" font-family="Helvetica,sans-Serif" font-size="11.00" fill="#000000"> &#160;</text>
<polygon fill="#ffffff" stroke="transparent" points="76.5,-81.7 76.5,-98.7 118.5,-98.7 118.5,-81.7 76.5,-81.7"/>
<text text-anchor="start" x="100.9053" y="-86.8" font-family="Helvetica,sans-Serif" font-size="11.00" fill="#000000">5 &gt;</text>
<polygon fill="#000000" stroke="#000000" points="43.5,-81.7 43.5,-98.7 43.5,-98.7 43.5,-81.7 43.5,-81.7"/>
<polygon fill="#000000" stroke="#000000" points="76.5,-81.7 76.5,-98.7 76.5,-98.7 76.5,-81.7 76.5,-81.7"/>
</a>
</g>
</g>
<!-- showcase_ownerprofile&#45;&gt;auth_user -->
<g id="edge3" class="edge">
<title>showcase_ownerprofile:w&#45;&gt;auth_user:e</title>
<path fill="none" stroke="#000000" d="M157.7573,-108.7C144.1063,-108.7 137.1944,-108.7 119.5,-108.7"/>
<polygon fill="#000000" stroke="#000000" points="167.7,-104.7 167.7,-112.7 166.1,-112.7 166.1,-104.7 167.7,-104.7"/>
<polyline fill="none" stroke="#000000" points="168.5,-108.7 164.5,-108.7 "/>
<ellipse fill="none" stroke="#000000" cx="161.3" cy="-108.7001" rx="3.2" ry="3.2"/>
</g>
</g>
</svg>
