<?xml version="1.0" encoding="UTF-8" standalone="no"?>
<!DOCTYPE svg PUBLIC "-//W3C//DTD SVG 1.1//EN"
 "http://www.w3.org/Graphics/SVG/1.1/DTD/svg11.dtd">
<!-- Generated by graphviz version 2.40.1 (20161225.0304)
 -->
<!-- Title: oneDegreeRelationshipsDiagram Pages: 1 -->
<svg width="676pt" height="315pt"
 viewBox="0.00 0.00 676.00 314.70" xmlns="http://www.w3.org/2000/svg" xmlns:xlink="http://www.w3.org/1999/xlink">
<g id="graph0" class="graph" transform="scale(1 1) rotate(0) translate(4 310.7)">
<title>oneDegreeRelationshipsDiagram</title>
<polygon fill="#ffffff" stroke="transparent" points="-4,4 -4,-310.7 672,-310.7 672,4 -4,4"/>
<text text-anchor="middle" x="72.4936" y="-7.3" font-family="Helvetica,sans-Serif" font-size="11.00" fill="#000000">Generated by SchemaSpy</text>
<!-- showcase_dog -->
<g id="node1" class="node">
<title>showcase_dog</title>
<g id="a_node1"><a xlink:href="../../tables/showcase_dog.html" xlink:title="showcase_dog" target="_top">
<polygon fill="#ffffff" stroke="transparent" points="508,-175.7 508,-302.7 660,-302.7 660,-175.7 508,-175.7"/>
<polygon fill="#f5f5f5" stroke="transparent" points="508,-279.2 508,-302.2 660,-302.2 660,-279.2 508,-279.2"/>
<polygon fill="none" stroke="#000000" points="508,-279.2 508,-302.2 660,-302.2 660,-279.2 508,-279.2"/>
<text text-anchor="start" x="513" y="-287.8" font-family="Helvetica,sans-Serif" font-weight="bold" font-size="11.00" fill="#000000">showcase_dog</text>
<text text-anchor="start" x="625.0437" y="-287.3" font-family="Helvetica,sans-Serif" font-size="11.00" fill="#000000">[table]</text>
<polygon fill="none" stroke="#000000" points="508,-257.2 508,-279.2 660,-279.2 660,-257.2 508,-257.2"/>
<image xlink:href="../../images/primaryKeys.png" width="11px" height="12px" preserveAspectRatio="xMinYMin meet" x="513" y="-274.2"/>
<text text-anchor="start" x="528" y="-264.3" font-family="Helvetica,sans-Serif" font-size="11.00" fill="#000000">id</text>
<polygon fill="#ffffff" stroke="transparent" points="508,-235.2 508,-257.2 660,-257.2 660,-235.2 508,-235.2"/>
<polygon fill="none" stroke="#000000" points="508,-235.2 508,-257.2 660,-257.2 660,-235.2 508,-235.2"/>
<image xlink:href="../../images/foreignKeys.png" width="11px" height="12px" preserveAspectRatio="xMinYMin meet" x="513" y="-252.2"/>
<text text-anchor="start" x="528" y="-242.3" font-family="Helvetica,sans-Serif" font-size="11.00" fill="#000000">breed_code</text>
<polygon fill="#ffffff" stroke="transparent" points="508,-213.2 508,-235.2 660,-235.2 660,-213.2 508,-213.2"/>
<polygon fill="none" stroke="#000000" points="508,-213.2 508,-235.2 660,-235.2 660,-213.2 508,-213.2"/>
<image xlink:href="../../images/foreignKeys.png" width="11px" height="12px" preserveAspectRatio="xMinYMin meet" x="513" y="-230.2"/>
<text text-anchor="start" x="528" y="-220.3" font-family="Helvetica,sans-Serif" font-size="11.00" fill="#000000">owner_id</text>
<polygon fill="none" stroke="#000000" points="508,-194.2 508,-213.2 660,-213.2 660,-194.2 508,-194.2"/>
<text text-anchor="start" x="511" y="-200.3" font-family="Helvetica,sans-Serif" font-size="11.00" fill="#000000">...</text>
<polygon fill="#ffffff" stroke="transparent" points="508,-175.2 508,-194.2 660,-194.2 660,-175.2 508,-175.2"/>
<polygon fill="none" stroke="#000000" points="508,-175.2 508,-194.2 660,-194.2 660,-175.2 508,-175.2"/>
<polygon fill="#ffffff" stroke="transparent" points="509,-176.2 509,-193.2 559,-193.2 559,-176.2 509,-176.2"/>
<text text-anchor="start" x="511" y="-181.3" font-family="Helvetica,sans-Serif" font-size="11.00" fill="#000000">&lt; 2</text>
<polygon fill="#ffffff" stroke="transparent" points="559,-176.2 559,-193.2 619,-193.2 619,-176.2 559,-176.2"/>
<text text-anchor="start" x="575.5553" y="-181.3" font-family="Helvetica,sans-Serif" font-size="11.00" fill="#000000">1 row</text>
<polygon fill="#ffffff" stroke="transparent" points="619,-176.2 619,-193.2 659,-193.2 659,-176.2 619,-176.2"/>
<text text-anchor="start" x="650.8862" y="-181.3" font-family="Helvetica,sans-Serif" font-size="11.00" fill="#000000"> &#160;</text>
<polygon fill="#000000" stroke="#000000" points="559,-176.2 559,-193.2 559,-193.2 559,-176.2 559,-176.2"/>
<polygon fill="#000000" stroke="#000000" points="619,-176.2 619,-193.2 619,-193.2 619,-176.2 619,-176.2"/>
</a>
</g>
</g>
<!-- showcase_ownerprofile -->
<g id="node2" class="node">
<title>showcase_ownerprofile</title>
<g id="a_node2"><a xlink:href="../../tables/showcase_ownerprofile.html" xlink:title="showcase_ownerprofile" target="_top">
<polygon fill="#ffffff" stroke="transparent" points="170,-38.2 170,-260.2 459,-260.2 459,-38.2 170,-38.2"/>
<polygon fill="#f5f5f5" stroke="transparent" points="172.5,-235.2 172.5,-258.2 457.5,-258.2 457.5,-235.2 172.5,-235.2"/>
<polygon fill="none" stroke="#000000" points="172.5,-235.2 172.5,-258.2 457.5,-258.2 457.5,-235.2 172.5,-235.2"/>
<text text-anchor="start" x="177.5" y="-243.8" font-family="Helvetica,sans-Serif" font-weight="bold" font-size="11.00" fill="#000000">showcase_ownerprofile</text>
<text text-anchor="start" x="422.5437" y="-243.3" font-family="Helvetica,sans-Serif" font-size="11.00" fill="#000000">[table]</text>
<polygon fill="none" stroke="#000000" points="172.5,-213.2 172.5,-235.2 363.5,-235.2 363.5,-213.2 172.5,-213.2"/>
<image xlink:href="../../images/primaryKeys.png" width="11px" height="12px" preserveAspectRatio="xMinYMin meet" x="177.5" y="-230.2"/>
<text text-anchor="start" x="192.5" y="-220.3" font-family="Helvetica,sans-Serif" font-size="11.00" fill="#000000">id</text>
<polygon fill="none" stroke="#000000" points="363.5,-213.2 363.5,-235.2 457.5,-235.2 457.5,-213.2 363.5,-213.2"/>
<text text-anchor="start" x="366.4758" y="-220.9" font-family="Helvetica,sans-Serif" font-size="11.00" fill="#000000">uuid[2147483647]</text>
<polygon fill="none" stroke="#000000" points="172.5,-191.2 172.5,-213.2 363.5,-213.2 363.5,-191.2 172.5,-191.2"/>
<text text-anchor="start" x="192.5" y="-198.3" font-family="Helvetica,sans-Serif" font-size="11.00" fill="#000000">nickname</text>
<polygon fill="none" stroke="#000000" points="363.5,-191.2 363.5,-213.2 457.5,-213.2 457.5,-191.2 363.5,-191.2"/>
<text text-anchor="start" x="366.5" y="-198.9" font-family="Helvetica,sans-Serif" font-size="11.00" fill="#000000">varchar[64]</text>
<polygon fill="none" stroke="#000000" points="172.5,-169.2 172.5,-191.2 363.5,-191.2 363.5,-169.2 172.5,-169.2"/>
<text text-anchor="start" x="192.5" y="-176.3" font-family="Helvetica,sans-Serif" font-size="11.00" fill="#000000">profile_image_key</text>
<polygon fill="none" stroke="#000000" points="363.5,-169.2 363.5,-191.2 457.5,-191.2 457.5,-169.2 363.5,-169.2"/>
<text text-anchor="start" x="366.5" y="-176.9" font-family="Helvetica,sans-Serif" font-size="11.00" fill="#000000">varchar[512]</text>
<polygon fill="none" stroke="#000000" points="172.5,-147.2 172.5,-169.2 363.5,-169.2 363.5,-147.2 172.5,-147.2"/>
<text text-anchor="start" x="192.5" y="-154.3" font-family="Helvetica,sans-Serif" font-size="11.00" fill="#000000">created_at</text>
<polygon fill="none" stroke="#000000" points="363.5,-147.2 363.5,-169.2 457.5,-169.2 457.5,-147.2 363.5,-147.2"/>
<text text-anchor="start" x="366.5" y="-154.9" font-family="Helvetica,sans-Serif" font-size="11.00" fill="#000000">timestamptz[35,6]</text>
<polygon fill="#ffffff" stroke="transparent" points="172.5,-125.2 172.5,-147.2 363.5,-147.2 363.5,-125.2 172.5,-125.2"/>
<polygon fill="none" stroke="#000000" points="172.5,-125.2 172.5,-147.2 363.5,-147.2 363.5,-125.2 172.5,-125.2"/>
<image xlink:href="../../images/foreignKeys.png" width="11px" height="12px" preserveAspectRatio="xMinYMin meet" x="177.5" y="-142.2"/>
<text text-anchor="start" x="192.5" y="-132.3" font-family="Helvetica,sans-Serif" font-size="11.00" fill="#000000">user_id</text>
<polygon fill="none" stroke="#000000" points="363.5,-125.2 363.5,-147.2 457.5,-147.2 457.5,-125.2 363.5,-125.2"/>
<text text-anchor="start" x="366.5" y="-132.9" font-family="Helvetica,sans-Serif" font-size="11.00" fill="#000000">int4[10]</text>
<polygon fill="none" stroke="#000000" points="172.5,-103.2 172.5,-125.2 363.5,-125.2 363.5,-103.2 172.5,-103.2"/>
<text text-anchor="start" x="192.5" y="-110.3" font-family="Helvetica,sans-Serif" font-size="11.00" fill="#000000">pii_email_ciphertext</text>
<polygon fill="none" stroke="#000000" points="363.5,-103.2 363.5,-125.2 457.5,-125.2 457.5,-103.2 363.5,-103.2"/>
<text text-anchor="start" x="366.5" y="-110.9" font-family="Helvetica,sans-Serif" font-size="11.00" fill="#000000">text[2147483647]</text>
<polygon fill="#ffffff" stroke="transparent" points="172.5,-81.2 172.5,-103.2 363.5,-103.2 363.5,-81.2 172.5,-81.2"/>
<polygon fill="none" stroke="#000000" points="172.5,-81.2 172.5,-103.2 363.5,-103.2 363.5,-81.2 172.5,-81.2"/>
<text text-anchor="start" x="192.5" y="-88.3" font-family="Helvetica,sans-Serif" font-size="11.00" fill="#000000">handle</text>
<polygon fill="none" stroke="#000000" points="363.5,-81.2 363.5,-103.2 457.5,-103.2 457.5,-81.2 363.5,-81.2"/>
<text text-anchor="start" x="366.5" y="-88.9" font-family="Helvetica,sans-Serif" font-size="11.00" fill="#000000">varchar[30]</text>
<polygon fill="none" stroke="#000000" points="172.5,-59.2 172.5,-81.2 363.5,-81.2 363.5,-59.2 172.5,-59.2"/>
<text text-anchor="start" x="192.5" y="-66.3" font-family="Helvetica,sans-Serif" font-size="11.00" fill="#000000">full_name</text>
<polygon fill="none" stroke="#000000" points="363.5,-59.2 363.5,-81.2 457.5,-81.2 457.5,-59.2 363.5,-59.2"/>
<text text-anchor="start" x="366.5" y="-66.9" font-family="Helvetica,sans-Serif" font-size="11.00" fill="#000000">text[2147483647]</text>
<polygon fill="#ffffff" stroke="transparent" points="172.5,-40.2 172.5,-59.2 457.5,-59.2 457.5,-40.2 172.5,-40.2"/>
<polygon fill="none" stroke="#000000" points="172.5,-40.2 172.5,-59.2 457.5,-59.2 457.5,-40.2 172.5,-40.2"/>
<polygon fill="#ffffff" stroke="transparent" points="173.5,-41.2 173.5,-58.2 264.5,-58.2 264.5,-41.2 173.5,-41.2"/>
<text text-anchor="start" x="175.5" y="-46.3" font-family="Helvetica,sans-Serif" font-size="11.00" fill="#000000">&lt; 1</text>
<polygon fill="#ffffff" stroke="transparent" points="264.5,-41.2 264.5,-58.2 366.5,-58.2 366.5,-41.2 264.5,-41.2"/>
<text text-anchor="start" x="302.0553" y="-46.3" font-family="Helvetica,sans-Serif" font-size="11.00" fill="#000000">1 row</text>
<polygon fill="#ffffff" stroke="transparent" points="366.5,-41.2 366.5,-58.2 456.5,-58.2 456.5,-41.2 366.5,-41.2"/>
<text text-anchor="start" x="438.9053" y="-46.3" font-family="Helvetica,sans-Serif" font-size="11.00" fill="#000000">1 &gt;</text>
<polygon fill="#000000" stroke="#000000" points="264.5,-41.2 264.5,-58.2 264.5,-58.2 264.5,-41.2 264.5,-41.2"/>
<polygon fill="#000000" stroke="#000000" points="366.5,-41.2 366.5,-58.2 366.5,-58.2 366.5,-41.2 366.5,-41.2"/>
<polygon fill="none" stroke="#000000" stroke-width="2" points="171,-39.2 171,-259.2 458,-259.2 458,-39.2 171,-39.2"/>
</a>
</g>
</g>
<!-- showcase_dog&#45;&gt;showcase_ownerprofile -->
<g id="edge1" class="edge">
<title>showcase_dog:w&#45;&gt;showcase_ownerprofile:e</title>
<path fill="none" stroke="#000000" d="M493.4203,-224.2C481.5435,-224.2 474.158,-224.2 457.5,-224.2"/>
<polygon fill="#000000" stroke="#000000" points="500,-224.2001 508,-227.8 504,-224.2 508,-224.2 508,-224.2 508,-224.2 504,-224.2 508,-220.6 500,-224.2001 500,-224.2001"/>
<ellipse fill="none" stroke="#000000" cx="496.8" cy="-224.2001" rx="3.2" ry="3.2"/>
</g>
<!-- auth_user -->
<g id="node3" class="node">
<title>auth_user</title>
<g id="a_node3"><a xlink:href="../../tables/auth_user.html" xlink:title="auth_user" target="_top">
<polygon fill="#ffffff" stroke="transparent" points="8,-65.7 8,-170.7 121,-170.7 121,-65.7 8,-65.7"/>
<polygon fill="#f5f5f5" stroke="transparent" points="8.5,-147.2 8.5,-170.2 121.5,-170.2 121.5,-147.2 8.5,-147.2"/>
<polygon fill="none" stroke="#000000" points="8.5,-147.2 8.5,-170.2 121.5,-170.2 121.5,-147.2 8.5,-147.2"/>
<text text-anchor="start" x="13.5" y="-155.8" font-family="Helvetica,sans-Serif" font-weight="bold" font-size="11.00" fill="#000000">auth_user</text>
<text text-anchor="start" x="86.5437" y="-155.3" font-family="Helvetica,sans-Serif" font-size="11.00" fill="#000000">[table]</text>
<polygon fill="none" stroke="#000000" points="8.5,-125.2 8.5,-147.2 121.5,-147.2 121.5,-125.2 8.5,-125.2"/>
<image xlink:href="../../images/primaryKeys.png" width="11px" height="12px" preserveAspectRatio="xMinYMin meet" x="13.5" y="-142.2"/>
<text text-anchor="start" x="28.5" y="-132.3" font-family="Helvetica,sans-Serif" font-size="11.00" fill="#000000">id</text>
<polygon fill="#ffffff" stroke="transparent" points="8.5,-103.2 8.5,-125.2 121.5,-125.2 121.5,-103.2 8.5,-103.2"/>
<polygon fill="none" stroke="#000000" points="8.5,-103.2 8.5,-125.2 121.5,-125.2 121.5,-103.2 8.5,-103.2"/>
<text text-anchor="start" x="28.5" y="-110.3" font-family="Helvetica,sans-Serif" font-size="11.00" fill="#000000">username</text>
<polygon fill="none" stroke="#000000" points="8.5,-84.2 8.5,-103.2 121.5,-103.2 121.5,-84.2 8.5,-84.2"/>
<text text-anchor="start" x="11.5" y="-90.3" font-family="Helvetica,sans-Serif" font-size="11.00" fill="#000000">...</text>
<polygon fill="#ffffff" stroke="transparent" points="8.5,-65.2 8.5,-84.2 121.5,-84.2 121.5,-65.2 8.5,-65.2"/>
<polygon fill="none" stroke="#000000" points="8.5,-65.2 8.5,-84.2 121.5,-84.2 121.5,-65.2 8.5,-65.2"/>
<polygon fill="#ffffff" stroke="transparent" points="9.5,-66.2 9.5,-83.2 43.5,-83.2 43.5,-66.2 9.5,-66.2"/>
<text text-anchor="start" x="11.5" y="-71.3" font-family="Helvetica,sans-Serif" font-size="11.00" fill="#000000"> &#160;</text>
<polygon fill="#ffffff" stroke="transparent" points="43.5,-66.2 43.5,-83.2 77.5,-83.2 77.5,-66.2 43.5,-66.2"/>
<text text-anchor="start" x="57.4431" y="-71.3" font-family="Helvetica,sans-Serif" font-size="11.00" fill="#000000"> &#160;</text>
<polygon fill="#ffffff" stroke="transparent" points="77.5,-66.2 77.5,-83.2 120.5,-83.2 120.5,-66.2 77.5,-66.2"/>
<text text-anchor="start" x="102.9053" y="-71.3" font-family="Helvetica,sans-Serif" font-size="11.00" fill="#000000">5 &gt;</text>
<polygon fill="#000000" stroke="#000000" points="43.5,-66.2 43.5,-83.2 43.5,-83.2 43.5,-66.2 43.5,-66.2"/>
<polygon fill="#000000" stroke="#000000" points="77.5,-66.2 77.5,-83.2 77.5,-83.2 77.5,-66.2 77.5,-66.2"/>
</a>
</g>
</g>
<!-- showcase_ownerprofile&#45;&gt;auth_user -->
<g id="edge2" class="edge">
<title>showcase_ownerprofile:w&#45;&gt;auth_user:e</title>
<path fill="none" stroke="#000000" d="M161.7307,-136.2C147.248,-136.2 140.0938,-136.2 121.5,-136.2"/>
<polygon fill="#000000" stroke="#000000" points="171.7,-132.2 171.7,-140.2 170.1,-140.2 170.1,-132.2 171.7,-132.2"/>
<polyline fill="none" stroke="#000000" points="172.5,-136.2 168.5,-136.2 "/>
<ellipse fill="none" stroke="#000000" cx="165.3" cy="-136.2001" rx="3.2" ry="3.2"/>
</g>
</g>
</svg>
