<?xml version="1.0" encoding="UTF-8" standalone="no"?>
<!DOCTYPE svg PUBLIC "-//W3C//DTD SVG 1.1//EN"
 "http://www.w3.org/Graphics/SVG/1.1/DTD/svg11.dtd">
<!-- Generated by graphviz version 2.40.1 (20161225.0304)
 -->
<!-- Title: twoDegreesRelationshipsDiagram Pages: 1 -->
<svg width="437pt" height="245pt"
 viewBox="0.00 0.00 437.00 244.70" xmlns="http://www.w3.org/2000/svg" xmlns:xlink="http://www.w3.org/1999/xlink">
<g id="graph0" class="graph" transform="scale(1 1) rotate(0) translate(4 240.7)">
<title>twoDegreesRelationshipsDiagram</title>
<polygon fill="#ffffff" stroke="transparent" points="-4,4 -4,-240.7 433,-240.7 433,4 -4,4"/>
<text text-anchor="middle" x="72.4936" y="-7.3" font-family="Helvetica,sans-Serif" font-size="11.00" fill="#000000">Generated by SchemaSpy</text>
<!-- showcase_dog -->
<g id="node1" class="node">
<title>showcase_dog</title>
<g id="a_node1"><a xlink:href="../../tables/showcase_dog.html" xlink:title="showcase_dog" target="_top">
<polygon fill="#ffffff" stroke="transparent" points="269,-71.2 269,-198.2 421,-198.2 421,-71.2 269,-71.2"/>
<polygon fill="#f5f5f5" stroke="transparent" points="269,-174.7 269,-197.7 421,-197.7 421,-174.7 269,-174.7"/>
<polygon fill="none" stroke="#000000" points="269,-174.7 269,-197.7 421,-197.7 421,-174.7 269,-174.7"/>
<text text-anchor="start" x="274" y="-183.3" font-family="Helvetica,sans-Serif" font-weight="bold" font-size="11.00" fill="#000000">showcase_dog</text>
<text text-anchor="start" x="386.0437" y="-182.8" font-family="Helvetica,sans-Serif" font-size="11.00" fill="#000000">[table]</text>
<polygon fill="none" stroke="#000000" points="269,-152.7 269,-174.7 421,-174.7 421,-152.7 269,-152.7"/>
<image xlink:href="../../images/primaryKeys.png" width="11px" height="12px" preserveAspectRatio="xMinYMin meet" x="274" y="-169.7"/>
<text text-anchor="start" x="289" y="-159.8" font-family="Helvetica,sans-Serif" font-size="11.00" fill="#000000">id</text>
<polygon fill="#ffffff" stroke="transparent" points="269,-130.7 269,-152.7 421,-152.7 421,-130.7 269,-130.7"/>
<polygon fill="none" stroke="#000000" points="269,-130.7 269,-152.7 421,-152.7 421,-130.7 269,-130.7"/>
<image xlink:href="../../images/foreignKeys.png" width="11px" height="12px" preserveAspectRatio="xMinYMin meet" x="274" y="-147.7"/>
<text text-anchor="start" x="289" y="-137.8" font-family="Helvetica,sans-Serif" font-size="11.00" fill="#000000">breed_code</text>
<polygon fill="#ffffff" stroke="transparent" points="269,-108.7 269,-130.7 421,-130.7 421,-108.7 269,-108.7"/>
<polygon fill="none" stroke="#000000" points="269,-108.7 269,-130.7 421,-130.7 421,-108.7 269,-108.7"/>
<image xlink:href="../../images/foreignKeys.png" width="11px" height="12px" preserveAspectRatio="xMinYMin meet" x="274" y="-125.7"/>
<text text-anchor="start" x="289" y="-115.8" font-family="Helvetica,sans-Serif" font-size="11.00" fill="#000000">owner_id</text>
<polygon fill="none" stroke="#000000" points="269,-89.7 269,-108.7 421,-108.7 421,-89.7 269,-89.7"/>
<text text-anchor="start" x="272" y="-95.8" font-family="Helvetica,sans-Serif" font-size="11.00" fill="#000000">...</text>
<polygon fill="#ffffff" stroke="transparent" points="269,-70.7 269,-89.7 421,-89.7 421,-70.7 269,-70.7"/>
<polygon fill="none" stroke="#000000" points="269,-70.7 269,-89.7 421,-89.7 421,-70.7 269,-70.7"/>
<polygon fill="#ffffff" stroke="transparent" points="270,-71.7 270,-88.7 320,-88.7 320,-71.7 270,-71.7"/>
<text text-anchor="start" x="272" y="-76.8" font-family="Helvetica,sans-Serif" font-size="11.00" fill="#000000">&lt; 2</text>
<polygon fill="#ffffff" stroke="transparent" points="320,-71.7 320,-88.7 380,-88.7 380,-71.7 320,-71.7"/>
<text text-anchor="start" x="336.5553" y="-76.8" font-family="Helvetica,sans-Serif" font-size="11.00" fill="#000000">1 row</text>
<polygon fill="#ffffff" stroke="transparent" points="380,-71.7 380,-88.7 420,-88.7 420,-71.7 380,-71.7"/>
<text text-anchor="start" x="411.8862" y="-76.8" font-family="Helvetica,sans-Serif" font-size="11.00" fill="#000000"> &#160;</text>
<polygon fill="#000000" stroke="#000000" points="320,-71.7 320,-88.7 320,-88.7 320,-71.7 320,-71.7"/>
<polygon fill="#000000" stroke="#000000" points="380,-71.7 380,-88.7 380,-88.7 380,-71.7 380,-71.7"/>
</a>
</g>
</g>
<!-- showcase_breed -->
<g id="node2" class="node">
<title>showcase_breed</title>
<g id="a_node2"><a xlink:href="../../tables/showcase_breed.html" xlink:title="showcase_breed" target="_top">
<polygon fill="#ffffff" stroke="transparent" points="8,-120.7 8,-232.7 220,-232.7 220,-120.7 8,-120.7"/>
<polygon fill="#f5f5f5" stroke="transparent" points="10,-207.7 10,-230.7 218,-230.7 218,-207.7 10,-207.7"/>
<polygon fill="none" stroke="#000000" points="10,-207.7 10,-230.7 218,-230.7 218,-207.7 10,-207.7"/>
<text text-anchor="start" x="15" y="-216.3" font-family="Helvetica,sans-Serif" font-weight="bold" font-size="11.00" fill="#000000">showcase_breed</text>
<text text-anchor="start" x="183.0437" y="-215.8" font-family="Helvetica,sans-Serif" font-size="11.00" fill="#000000">[table]</text>
<polygon fill="none" stroke="#000000" points="10,-185.7 10,-207.7 151,-207.7 151,-185.7 10,-185.7"/>
<image xlink:href="../../images/primaryKeys.png" width="11px" height="12px" preserveAspectRatio="xMinYMin meet" x="15" y="-202.7"/>
<text text-anchor="start" x="30" y="-192.8" font-family="Helvetica,sans-Serif" font-size="11.00" fill="#000000">code</text>
<polygon fill="none" stroke="#000000" points="151,-185.7 151,-207.7 218,-207.7 218,-185.7 151,-185.7"/>
<text text-anchor="start" x="154" y="-193.4" font-family="Helvetica,sans-Serif" font-size="11.00" fill="#000000">int4[10]</text>
<polygon fill="none" stroke="#000000" points="10,-163.7 10,-185.7 151,-185.7 151,-163.7 10,-163.7"/>
<text text-anchor="start" x="30" y="-170.8" font-family="Helvetica,sans-Serif" font-size="11.00" fill="#000000">name</text>
<polygon fill="none" stroke="#000000" points="151,-163.7 151,-185.7 218,-185.7 218,-163.7 151,-163.7"/>
<text text-anchor="start" x="153.9365" y="-171.4" font-family="Helvetica,sans-Serif" font-size="11.00" fill="#000000">varchar[255]</text>
<polygon fill="none" stroke="#000000" points="10,-141.7 10,-163.7 151,-163.7 151,-141.7 10,-141.7"/>
<text text-anchor="start" x="30" y="-148.8" font-family="Helvetica,sans-Serif" font-size="11.00" fill="#000000">sort_order</text>
<polygon fill="none" stroke="#000000" points="151,-141.7 151,-163.7 218,-163.7 218,-141.7 151,-141.7"/>
<text text-anchor="start" x="154" y="-149.4" font-family="Helvetica,sans-Serif" font-size="11.00" fill="#000000">int4[10]</text>
<polygon fill="#ffffff" stroke="transparent" points="10,-122.7 10,-141.7 218,-141.7 218,-122.7 10,-122.7"/>
<polygon fill="none" stroke="#000000" points="10,-122.7 10,-141.7 218,-141.7 218,-122.7 10,-122.7"/>
<polygon fill="#ffffff" stroke="transparent" points="11,-123.7 11,-140.7 72,-140.7 72,-123.7 11,-123.7"/>
<text text-anchor="start" x="13" y="-128.8" font-family="Helvetica,sans-Serif" font-size="11.00" fill="#000000">&lt; 0</text>
<polygon fill="#ffffff" stroke="transparent" points="72,-123.7 72,-140.7 156,-140.7 156,-123.7 72,-123.7"/>
<text text-anchor="start" x="94.7478" y="-128.8" font-family="Helvetica,sans-Serif" font-size="11.00" fill="#000000">40 rows</text>
<polygon fill="#ffffff" stroke="transparent" points="156,-123.7 156,-140.7 217,-140.7 217,-123.7 156,-123.7"/>
<text text-anchor="start" x="199.4053" y="-128.8" font-family="Helvetica,sans-Serif" font-size="11.00" fill="#000000">1 &gt;</text>
<polygon fill="#000000" stroke="#000000" points="72,-123.7 72,-140.7 72,-140.7 72,-123.7 72,-123.7"/>
<polygon fill="#000000" stroke="#000000" points="156,-123.7 156,-140.7 156,-140.7 156,-123.7 156,-123.7"/>
<polygon fill="none" stroke="#000000" stroke-width="2" points="9,-121.7 9,-231.7 219,-231.7 219,-121.7 9,-121.7"/>
</a>
</g>
</g>
<!-- showcase_dog&#45;&gt;showcase_breed -->
<g id="edge1" class="edge">
<title>showcase_dog:w&#45;&gt;showcase_breed:e</title>
<path fill="none" stroke="#000000" d="M255.2081,-146.3893C239.7137,-159.6898 245.3462,-196.7 218,-196.7"/>
<polygon fill="#000000" stroke="#000000" points="261.4258,-144.2753 270.1589,-145.1084 265.2129,-142.9876 269,-141.7 269,-141.7 269,-141.7 265.2129,-142.9876 267.8411,-138.2916 261.4258,-144.2753 261.4258,-144.2753"/>
<ellipse fill="none" stroke="#000000" cx="258.3961" cy="-145.3054" rx="3.2" ry="3.2"/>
</g>
<!-- showcase_ownerprofile -->
<g id="node3" class="node">
<title>showcase_ownerprofile</title>
<g id="a_node3"><a xlink:href="../../tables/showcase_ownerprofile.html" xlink:title="showcase_ownerprofile" target="_top">
<polygon fill="#ffffff" stroke="transparent" points="9.5,-38.2 9.5,-99.2 218.5,-99.2 218.5,-38.2 9.5,-38.2"/>
<polygon fill="#f5f5f5" stroke="transparent" points="10,-75.7 10,-98.7 219,-98.7 219,-75.7 10,-75.7"/>
<polygon fill="none" stroke="#000000" points="10,-75.7 10,-98.7 219,-98.7 219,-75.7 10,-75.7"/>
<text text-anchor="start" x="15" y="-84.3" font-family="Helvetica,sans-Serif" font-weight="bold" font-size="11.00" fill="#000000">showcase_ownerprofile</text>
<text text-anchor="start" x="184.5219" y="-83.8" font-family="Helvetica,sans-Serif" font-size="11.00" fill="#000000">[table]</text>
<polygon fill="none" stroke="#000000" points="10,-56.7 10,-75.7 219,-75.7 219,-56.7 10,-56.7"/>
<text text-anchor="start" x="13" y="-62.8" font-family="Helvetica,sans-Serif" font-size="11.00" fill="#000000">...</text>
<polygon fill="#ffffff" stroke="transparent" points="10,-37.7 10,-56.7 219,-56.7 219,-37.7 10,-37.7"/>
<polygon fill="none" stroke="#000000" points="10,-37.7 10,-56.7 219,-56.7 219,-37.7 10,-37.7"/>
<polygon fill="#ffffff" stroke="transparent" points="11,-38.7 11,-55.7 77,-55.7 77,-38.7 11,-38.7"/>
<text text-anchor="start" x="13" y="-43.8" font-family="Helvetica,sans-Serif" font-size="11.00" fill="#000000">&lt; 1</text>
<polygon fill="#ffffff" stroke="transparent" points="77,-38.7 77,-55.7 153,-55.7 153,-38.7 77,-38.7"/>
<text text-anchor="start" x="101.5553" y="-43.8" font-family="Helvetica,sans-Serif" font-size="11.00" fill="#000000">1 row</text>
<polygon fill="#ffffff" stroke="transparent" points="153,-38.7 153,-55.7 218,-55.7 218,-38.7 153,-38.7"/>
<text text-anchor="start" x="200.4053" y="-43.8" font-family="Helvetica,sans-Serif" font-size="11.00" fill="#000000">1 &gt;</text>
<polygon fill="#000000" stroke="#000000" points="77,-38.7 77,-55.7 77,-55.7 77,-38.7 77,-38.7"/>
<polygon fill="#000000" stroke="#000000" points="153,-38.7 153,-55.7 153,-55.7 153,-38.7 153,-38.7"/>
</a>
</g>
</g>
<!-- showcase_dog&#45;&gt;showcase_ownerprofile -->
<g id="edge2" class="edge">
<title>showcase_dog:w&#45;&gt;showcase_ownerprofile:e</title>
<path fill="none" stroke="#000000" d="M255.0428,-114.7166C240.3811,-101.3484 245.5754,-65.7 219,-65.7"/>
<polygon fill="#000000" stroke="#000000" points="261.4658,-117.0099 267.7895,-123.0904 265.2329,-118.3549 269,-119.7 269,-119.7 269,-119.7 265.2329,-118.3549 270.2105,-116.3096 261.4658,-117.0099 261.4658,-117.0099"/>
<ellipse fill="none" stroke="#000000" cx="258.4522" cy="-115.9339" rx="3.2" ry="3.2"/>
</g>
</g>
</svg>
