<?xml version="1.0" encoding="UTF-8" standalone="no"?>
<!DOCTYPE svg PUBLIC "-//W3C//DTD SVG 1.1//EN"
 "http://www.w3.org/Graphics/SVG/1.1/DTD/svg11.dtd">
<!-- Generated by graphviz version 2.40.1 (20161225.0304)
 -->
<!-- Title: oneDegreeRelationshipsDiagram Pages: 1 -->
<svg width="532pt" height="418pt"
 viewBox="0.00 0.00 532.00 417.70" xmlns="http://www.w3.org/2000/svg" xmlns:xlink="http://www.w3.org/1999/xlink">
<g id="graph0" class="graph" transform="scale(1 1) rotate(0) translate(4 413.7)">
<title>oneDegreeRelationshipsDiagram</title>
<polygon fill="#ffffff" stroke="transparent" points="-4,4 -4,-413.7 528,-413.7 528,4 -4,4"/>
<text text-anchor="middle" x="72.4936" y="-7.3" font-family="Helvetica,sans-Serif" font-size="11.00" fill="#000000">Generated by SchemaSpy</text>
<!-- showcase_dog -->
<g id="node1" class="node">
<title>showcase_dog</title>
<g id="a_node1"><a xlink:href="../../tables/showcase_dog.html" xlink:title="showcase_dog" target="_top">
<polygon fill="#ffffff" stroke="transparent" points="266,-139.7 266,-405.7 516,-405.7 516,-139.7 266,-139.7"/>
<polygon fill="#f5f5f5" stroke="transparent" points="268,-380.7 268,-403.7 514,-403.7 514,-380.7 268,-380.7"/>
<polygon fill="none" stroke="#000000" points="268,-380.7 268,-403.7 514,-403.7 514,-380.7 268,-380.7"/>
<text text-anchor="start" x="273" y="-389.3" font-family="Helvetica,sans-Serif" font-weight="bold" font-size="11.00" fill="#000000">showcase_dog</text>
<text text-anchor="start" x="479.0437" y="-388.8" font-family="Helvetica,sans-Serif" font-size="11.00" fill="#000000">[table]</text>
<polygon fill="none" stroke="#000000" points="268,-358.7 268,-380.7 420,-380.7 420,-358.7 268,-358.7"/>
<image xlink:href="../../images/primaryKeys.png" width="11px" height="12px" preserveAspectRatio="xMinYMin meet" x="273" y="-375.7"/>
<text text-anchor="start" x="288" y="-365.8" font-family="Helvetica,sans-Serif" font-size="11.00" fill="#000000">id</text>
<polygon fill="none" stroke="#000000" points="420,-358.7 420,-380.7 514,-380.7 514,-358.7 420,-358.7"/>
<text text-anchor="start" x="422.9758" y="-366.4" font-family="Helvetica,sans-Serif" font-size="11.00" fill="#000000">uuid[2147483647]</text>
<polygon fill="none" stroke="#000000" points="268,-336.7 268,-358.7 420,-358.7 420,-336.7 268,-336.7"/>
<text text-anchor="start" x="288" y="-343.8" font-family="Helvetica,sans-Serif" font-size="11.00" fill="#000000">name</text>
<polygon fill="none" stroke="#000000" points="420,-336.7 420,-358.7 514,-358.7 514,-336.7 420,-336.7"/>
<text text-anchor="start" x="423" y="-344.4" font-family="Helvetica,sans-Serif" font-size="11.00" fill="#000000">varchar[128]</text>
<polygon fill="none" stroke="#000000" points="268,-314.7 268,-336.7 420,-336.7 420,-314.7 268,-314.7"/>
<text text-anchor="start" x="288" y="-321.8" font-family="Helvetica,sans-Serif" font-size="11.00" fill="#000000">birth_date</text>
<polygon fill="none" stroke="#000000" points="420,-314.7 420,-336.7 514,-336.7 514,-314.7 420,-314.7"/>
<text text-anchor="start" x="423" y="-322.4" font-family="Helvetica,sans-Serif" font-size="11.00" fill="#000000">date[13]</text>
<polygon fill="none" stroke="#000000" points="268,-292.7 268,-314.7 420,-314.7 420,-292.7 268,-292.7"/>
<text text-anchor="start" x="288" y="-299.8" font-family="Helvetica,sans-Serif" font-size="11.00" fill="#000000">weight</text>
<polygon fill="none" stroke="#000000" points="420,-292.7 420,-314.7 514,-314.7 514,-292.7 420,-292.7"/>
<text text-anchor="start" x="423" y="-300.4" font-family="Helvetica,sans-Serif" font-size="11.00" fill="#000000">float8[17,17]</text>
<polygon fill="none" stroke="#000000" points="268,-270.7 268,-292.7 420,-292.7 420,-270.7 268,-270.7"/>
<text text-anchor="start" x="288" y="-277.8" font-family="Helvetica,sans-Serif" font-size="11.00" fill="#000000">color</text>
<polygon fill="none" stroke="#000000" points="420,-270.7 420,-292.7 514,-292.7 514,-270.7 420,-270.7"/>
<text text-anchor="start" x="423" y="-278.4" font-family="Helvetica,sans-Serif" font-size="11.00" fill="#000000">varchar[64]</text>
<polygon fill="none" stroke="#000000" points="268,-248.7 268,-270.7 420,-270.7 420,-248.7 268,-248.7"/>
<text text-anchor="start" x="288" y="-255.8" font-family="Helvetica,sans-Serif" font-size="11.00" fill="#000000">gender</text>
<polygon fill="none" stroke="#000000" points="420,-248.7 420,-270.7 514,-270.7 514,-248.7 420,-248.7"/>
<text text-anchor="start" x="423" y="-256.4" font-family="Helvetica,sans-Serif" font-size="11.00" fill="#000000">varchar[32]</text>
<polygon fill="none" stroke="#000000" points="268,-226.7 268,-248.7 420,-248.7 420,-226.7 268,-226.7"/>
<text text-anchor="start" x="288" y="-233.8" font-family="Helvetica,sans-Serif" font-size="11.00" fill="#000000">profile_image_key</text>
<polygon fill="none" stroke="#000000" points="420,-226.7 420,-248.7 514,-248.7 514,-226.7 420,-226.7"/>
<text text-anchor="start" x="423" y="-234.4" font-family="Helvetica,sans-Serif" font-size="11.00" fill="#000000">varchar[512]</text>
<polygon fill="none" stroke="#000000" points="268,-204.7 268,-226.7 420,-226.7 420,-204.7 268,-204.7"/>
<text text-anchor="start" x="288" y="-211.8" font-family="Helvetica,sans-Serif" font-size="11.00" fill="#000000">created_at</text>
<polygon fill="none" stroke="#000000" points="420,-204.7 420,-226.7 514,-226.7 514,-204.7 420,-204.7"/>
<text text-anchor="start" x="423" y="-212.4" font-family="Helvetica,sans-Serif" font-size="11.00" fill="#000000">timestamptz[35,6]</text>
<polygon fill="#ffffff" stroke="transparent" points="268,-182.7 268,-204.7 420,-204.7 420,-182.7 268,-182.7"/>
<polygon fill="none" stroke="#000000" points="268,-182.7 268,-204.7 420,-204.7 420,-182.7 268,-182.7"/>
<image xlink:href="../../images/foreignKeys.png" width="11px" height="12px" preserveAspectRatio="xMinYMin meet" x="273" y="-199.7"/>
<text text-anchor="start" x="288" y="-189.8" font-family="Helvetica,sans-Serif" font-size="11.00" fill="#000000">breed_code</text>
<polygon fill="none" stroke="#000000" points="420,-182.7 420,-204.7 514,-204.7 514,-182.7 420,-182.7"/>
<text text-anchor="start" x="423" y="-190.4" font-family="Helvetica,sans-Serif" font-size="11.00" fill="#000000">int4[10]</text>
<polygon fill="#ffffff" stroke="transparent" points="268,-160.7 268,-182.7 420,-182.7 420,-160.7 268,-160.7"/>
<polygon fill="none" stroke="#000000" points="268,-160.7 268,-182.7 420,-182.7 420,-160.7 268,-160.7"/>
<image xlink:href="../../images/foreignKeys.png" width="11px" height="12px" preserveAspectRatio="xMinYMin meet" x="273" y="-177.7"/>
<text text-anchor="start" x="288" y="-167.8" font-family="Helvetica,sans-Serif" font-size="11.00" fill="#000000">owner_id</text>
<polygon fill="none" stroke="#000000" points="420,-160.7 420,-182.7 514,-182.7 514,-160.7 420,-160.7"/>
<text text-anchor="start" x="422.9758" y="-168.4" font-family="Helvetica,sans-Serif" font-size="11.00" fill="#000000">uuid[2147483647]</text>
<polygon fill="#ffffff" stroke="transparent" points="268,-141.7 268,-160.7 514,-160.7 514,-141.7 268,-141.7"/>
<polygon fill="none" stroke="#000000" points="268,-141.7 268,-160.7 514,-160.7 514,-141.7 268,-141.7"/>
<polygon fill="#ffffff" stroke="transparent" points="269,-142.7 269,-159.7 347,-159.7 347,-142.7 269,-142.7"/>
<text text-anchor="start" x="271" y="-147.8" font-family="Helvetica,sans-Serif" font-size="11.00" fill="#000000">&lt; 2</text>
<polygon fill="#ffffff" stroke="transparent" points="347,-142.7 347,-159.7 436,-159.7 436,-142.7 347,-142.7"/>
<text text-anchor="start" x="378.0553" y="-147.8" font-family="Helvetica,sans-Serif" font-size="11.00" fill="#000000">1 row</text>
<polygon fill="#ffffff" stroke="transparent" points="436,-142.7 436,-159.7 513,-159.7 513,-142.7 436,-142.7"/>
<text text-anchor="start" x="495.4053" y="-147.8" font-family="Helvetica,sans-Serif" font-size="11.00" fill="#000000">0 &gt;</text>
<polygon fill="#000000" stroke="#000000" points="347,-142.7 347,-159.7 347,-159.7 347,-142.7 347,-142.7"/>
<polygon fill="#000000" stroke="#000000" points="436,-142.7 436,-159.7 436,-159.7 436,-142.7 436,-142.7"/>
<polygon fill="none" stroke="#000000" stroke-width="2" points="267,-140.7 267,-404.7 515,-404.7 515,-140.7 267,-140.7"/>
</a>
</g>
</g>
<!-- showcase_breed -->
<g id="node2" class="node">
<title>showcase_breed</title>
<g id="a_node2"><a xlink:href="../../tables/showcase_breed.html" xlink:title="showcase_breed" target="_top">
<polygon fill="#ffffff" stroke="transparent" points="33,-186.2 33,-269.2 192,-269.2 192,-186.2 33,-186.2"/>
<polygon fill="#f5f5f5" stroke="transparent" points="33.5,-245.7 33.5,-268.7 192.5,-268.7 192.5,-245.7 33.5,-245.7"/>
<polygon fill="none" stroke="#000000" points="33.5,-245.7 33.5,-268.7 192.5,-268.7 192.5,-245.7 33.5,-245.7"/>
<text text-anchor="start" x="38.5" y="-254.3" font-family="Helvetica,sans-Serif" font-weight="bold" font-size="11.00" fill="#000000">showcase_breed</text>
<text text-anchor="start" x="158.0219" y="-253.8" font-family="Helvetica,sans-Serif" font-size="11.00" fill="#000000">[table]</text>
<polygon fill="none" stroke="#000000" points="33.5,-223.7 33.5,-245.7 192.5,-245.7 192.5,-223.7 33.5,-223.7"/>
<image xlink:href="../../images/primaryKeys.png" width="11px" height="12px" preserveAspectRatio="xMinYMin meet" x="38.5" y="-240.7"/>
<text text-anchor="start" x="62.5" y="-230.8" font-family="Helvetica,sans-Serif" font-size="11.00" fill="#000000">code</text>
<polygon fill="none" stroke="#000000" points="33.5,-204.7 33.5,-223.7 192.5,-223.7 192.5,-204.7 33.5,-204.7"/>
<text text-anchor="start" x="36.5" y="-210.8" font-family="Helvetica,sans-Serif" font-size="11.00" fill="#000000">...</text>
<polygon fill="#ffffff" stroke="transparent" points="33.5,-185.7 33.5,-204.7 192.5,-204.7 192.5,-185.7 33.5,-185.7"/>
<polygon fill="none" stroke="#000000" points="33.5,-185.7 33.5,-204.7 192.5,-204.7 192.5,-185.7 33.5,-185.7"/>
<polygon fill="#ffffff" stroke="transparent" points="34.5,-186.7 34.5,-203.7 73.5,-203.7 73.5,-186.7 34.5,-186.7"/>
<text text-anchor="start" x="36.5" y="-191.8" font-family="Helvetica,sans-Serif" font-size="11.00" fill="#000000"> &#160;</text>
<polygon fill="#ffffff" stroke="transparent" points="73.5,-186.7 73.5,-203.7 144.5,-203.7 144.5,-186.7 73.5,-186.7"/>
<text text-anchor="start" x="89.7478" y="-191.8" font-family="Helvetica,sans-Serif" font-size="11.00" fill="#000000">40 rows</text>
<polygon fill="#ffffff" stroke="transparent" points="144.5,-186.7 144.5,-203.7 191.5,-203.7 191.5,-186.7 144.5,-186.7"/>
<text text-anchor="start" x="173.9053" y="-191.8" font-family="Helvetica,sans-Serif" font-size="11.00" fill="#000000">1 &gt;</text>
<polygon fill="#000000" stroke="#000000" points="73.5,-186.7 73.5,-203.7 73.5,-203.7 73.5,-186.7 73.5,-186.7"/>
<polygon fill="#000000" stroke="#000000" points="144.5,-186.7 144.5,-203.7 144.5,-203.7 144.5,-186.7 144.5,-186.7"/>
</a>
</g>
</g>
<!-- showcase_dog&#45;&gt;showcase_breed -->
<g id="edge1" class="edge">
<title>showcase_dog:w&#45;&gt;showcase_breed:e</title>
<path fill="none" stroke="#000000" d="M253.6551,-196.0218C229.2511,-204.6951 225.1653,-234.7 192.5,-234.7"/>
<polygon fill="#000000" stroke="#000000" points="260.1028,-194.9783 268.5752,-197.2538 264.0514,-194.3391 268,-193.7 268,-193.7 268,-193.7 264.0514,-194.3391 267.4248,-190.1462 260.1028,-194.9783 260.1028,-194.9783"/>
<ellipse fill="none" stroke="#000000" cx="256.9439" cy="-195.4896" rx="3.2" ry="3.2"/>
</g>
<!-- showcase_ownerprofile -->
<g id="node3" class="node">
<title>showcase_ownerprofile</title>
<g id="a_node3"><a xlink:href="../../tables/showcase_ownerprofile.html" xlink:title="showcase_ownerprofile" target="_top">
<polygon fill="#ffffff" stroke="transparent" points="8,-38.2 8,-165.2 217,-165.2 217,-38.2 8,-38.2"/>
<polygon fill="#f5f5f5" stroke="transparent" points="8.5,-141.7 8.5,-164.7 217.5,-164.7 217.5,-141.7 8.5,-141.7"/>
<polygon fill="none" stroke="#000000" points="8.5,-141.7 8.5,-164.7 217.5,-164.7 217.5,-141.7 8.5,-141.7"/>
<text text-anchor="start" x="13.5" y="-150.3" font-family="Helvetica,sans-Serif" font-weight="bold" font-size="11.00" fill="#000000">showcase_ownerprofile</text>
<text text-anchor="start" x="183.0219" y="-149.8" font-family="Helvetica,sans-Serif" font-size="11.00" fill="#000000">[table]</text>
<polygon fill="none" stroke="#000000" points="8.5,-119.7 8.5,-141.7 217.5,-141.7 217.5,-119.7 8.5,-119.7"/>
<image xlink:href="../../images/primaryKeys.png" width="11px" height="12px" preserveAspectRatio="xMinYMin meet" x="13.5" y="-136.7"/>
<text text-anchor="start" x="37.5" y="-126.8" font-family="Helvetica,sans-Serif" font-size="11.00" fill="#000000">id</text>
<polygon fill="#ffffff" stroke="transparent" points="8.5,-97.7 8.5,-119.7 217.5,-119.7 217.5,-97.7 8.5,-97.7"/>
<polygon fill="none" stroke="#000000" points="8.5,-97.7 8.5,-119.7 217.5,-119.7 217.5,-97.7 8.5,-97.7"/>
<image xlink:href="../../images/foreignKeys.png" width="11px" height="12px" preserveAspectRatio="xMinYMin meet" x="13.5" y="-114.7"/>
<text text-anchor="start" x="37.5" y="-104.8" font-family="Helvetica,sans-Serif" font-size="11.00" fill="#000000">user_id</text>
<polygon fill="#ffffff" stroke="transparent" points="8.5,-75.7 8.5,-97.7 217.5,-97.7 217.5,-75.7 8.5,-75.7"/>
<polygon fill="none" stroke="#000000" points="8.5,-75.7 8.5,-97.7 217.5,-97.7 217.5,-75.7 8.5,-75.7"/>
<text text-anchor="start" x="37.5" y="-82.8" font-family="Helvetica,sans-Serif" font-size="11.00" fill="#000000">handle</text>
<polygon fill="none" stroke="#000000" points="8.5,-56.7 8.5,-75.7 217.5,-75.7 217.5,-56.7 8.5,-56.7"/>
<text text-anchor="start" x="11.5" y="-62.8" font-family="Helvetica,sans-Serif" font-size="11.00" fill="#000000">...</text>
<polygon fill="#ffffff" stroke="transparent" points="8.5,-37.7 8.5,-56.7 217.5,-56.7 217.5,-37.7 8.5,-37.7"/>
<polygon fill="none" stroke="#000000" points="8.5,-37.7 8.5,-56.7 217.5,-56.7 217.5,-37.7 8.5,-37.7"/>
<polygon fill="#ffffff" stroke="transparent" points="9.5,-38.7 9.5,-55.7 75.5,-55.7 75.5,-38.7 9.5,-38.7"/>
<text text-anchor="start" x="11.5" y="-43.8" font-family="Helvetica,sans-Serif" font-size="11.00" fill="#000000">&lt; 1</text>
<polygon fill="#ffffff" stroke="transparent" points="75.5,-38.7 75.5,-55.7 151.5,-55.7 151.5,-38.7 75.5,-38.7"/>
<text text-anchor="start" x="100.0553" y="-43.8" font-family="Helvetica,sans-Serif" font-size="11.00" fill="#000000">1 row</text>
<polygon fill="#ffffff" stroke="transparent" points="151.5,-38.7 151.5,-55.7 216.5,-55.7 216.5,-38.7 151.5,-38.7"/>
<text text-anchor="start" x="198.9053" y="-43.8" font-family="Helvetica,sans-Serif" font-size="11.00" fill="#000000">1 &gt;</text>
<polygon fill="#000000" stroke="#000000" points="75.5,-38.7 75.5,-55.7 75.5,-55.7 75.5,-38.7 75.5,-38.7"/>
<polygon fill="#000000" stroke="#000000" points="151.5,-38.7 151.5,-55.7 151.5,-55.7 151.5,-38.7 151.5,-38.7"/>
</a>
</g>
</g>
<!-- showcase_dog&#45;&gt;showcase_ownerprofile -->
<g id="edge2" class="edge">
<title>showcase_dog:w&#45;&gt;showcase_ownerprofile:e</title>
<path fill="none" stroke="#000000" d="M254.2601,-167.3123C240.5688,-156.7354 240.5379,-130.7 217.5,-130.7"/>
<polygon fill="#000000" stroke="#000000" points="260.3792,-169.2663 266.9048,-175.1294 264.1896,-170.4832 268,-171.7 268,-171.7 268,-171.7 264.1896,-170.4832 269.0952,-168.2706 260.3792,-169.2663 260.3792,-169.2663"/>
<ellipse fill="none" stroke="#000000" cx="257.3308" cy="-168.2928" rx="3.2" ry="3.2"/>
</g>
</g>
</svg>
