<?xml version="1.0" encoding="UTF-8" standalone="no"?>
<!DOCTYPE svg PUBLIC "-//W3C//DTD SVG 1.1//EN"
 "http://www.w3.org/Graphics/SVG/1.1/DTD/svg11.dtd">
<!-- Generated by graphviz version 2.40.1 (20161225.0304)
 -->
<!-- Title: oneDegreeRelationshipsDiagram Pages: 1 -->
<svg width="437pt" height="183pt"
 viewBox="0.00 0.00 437.00 182.70" xmlns="http://www.w3.org/2000/svg" xmlns:xlink="http://www.w3.org/1999/xlink">
<g id="graph0" class="graph" transform="scale(1 1) rotate(0) translate(4 178.7)">
<title>oneDegreeRelationshipsDiagram</title>
<polygon fill="#ffffff" stroke="transparent" points="-4,4 -4,-178.7 433,-178.7 433,4 -4,4"/>
<text text-anchor="middle" x="72.4936" y="-7.3" font-family="Helvetica,sans-Serif" font-size="11.00" fill="#000000">Generated by SchemaSpy</text>
<!-- showcase_dog -->
<g id="node1" class="node">
<title>showcase_dog</title>
<g id="a_node1"><a xlink:href="../../tables/showcase_dog.html" xlink:title="showcase_dog" target="_top">
<polygon fill="#ffffff" stroke="transparent" points="269,-43.7 269,-170.7 421,-170.7 421,-43.7 269,-43.7"/>
<polygon fill="#f5f5f5" stroke="transparent" points="269,-147.2 269,-170.2 421,-170.2 421,-147.2 269,-147.2"/>
<polygon fill="none" stroke="#000000" points="269,-147.2 269,-170.2 421,-170.2 421,-147.2 269,-147.2"/>
<text text-anchor="start" x="274" y="-155.8" font-family="Helvetica,sans-Serif" font-weight="bold" font-size="11.00" fill="#000000">showcase_dog</text>
<text text-anchor="start" x="386.0437" y="-155.3" font-family="Helvetica,sans-Serif" font-size="11.00" fill="#000000">[table]</text>
<polygon fill="none" stroke="#000000" points="269,-125.2 269,-147.2 421,-147.2 421,-125.2 269,-125.2"/>
<image xlink:href="../../images/primaryKeys.png" width="11px" height="12px" preserveAspectRatio="xMinYMin meet" x="274" y="-142.2"/>
<text text-anchor="start" x="289" y="-132.3" font-family="Helvetica,sans-Serif" font-size="11.00" fill="#000000">id</text>
<polygon fill="#ffffff" stroke="transparent" points="269,-103.2 269,-125.2 421,-125.2 421,-103.2 269,-103.2"/>
<polygon fill="none" stroke="#000000" points="269,-103.2 269,-125.2 421,-125.2 421,-103.2 269,-103.2"/>
<image xlink:href="../../images/foreignKeys.png" width="11px" height="12px" preserveAspectRatio="xMinYMin meet" x="274" y="-120.2"/>
<text text-anchor="start" x="289" y="-110.3" font-family="Helvetica,sans-Serif" font-size="11.00" fill="#000000">breed_code</text>
<polygon fill="#ffffff" stroke="transparent" points="269,-81.2 269,-103.2 421,-103.2 421,-81.2 269,-81.2"/>
<polygon fill="none" stroke="#000000" points="269,-81.2 269,-103.2 421,-103.2 421,-81.2 269,-81.2"/>
<image xlink:href="../../images/foreignKeys.png" width="11px" height="12px" preserveAspectRatio="xMinYMin meet" x="274" y="-98.2"/>
<text text-anchor="start" x="289" y="-88.3" font-family="Helvetica,sans-Serif" font-size="11.00" fill="#000000">owner_id</text>
<polygon fill="none" stroke="#000000" points="269,-62.2 269,-81.2 421,-81.2 421,-62.2 269,-62.2"/>
<text text-anchor="start" x="272" y="-68.3" font-family="Helvetica,sans-Serif" font-size="11.00" fill="#000000">...</text>
<polygon fill="#ffffff" stroke="transparent" points="269,-43.2 269,-62.2 421,-62.2 421,-43.2 269,-43.2"/>
<polygon fill="none" stroke="#000000" points="269,-43.2 269,-62.2 421,-62.2 421,-43.2 269,-43.2"/>
<polygon fill="#ffffff" stroke="transparent" points="270,-44.2 270,-61.2 320,-61.2 320,-44.2 270,-44.2"/>
<text text-anchor="start" x="272" y="-49.3" font-family="Helvetica,sans-Serif" font-size="11.00" fill="#000000">&lt; 2</text>
<polygon fill="#ffffff" stroke="transparent" points="320,-44.2 320,-61.2 380,-61.2 380,-44.2 320,-44.2"/>
<text text-anchor="start" x="336.5553" y="-49.3" font-family="Helvetica,sans-Serif" font-size="11.00" fill="#000000">1 row</text>
<polygon fill="#ffffff" stroke="transparent" points="380,-44.2 380,-61.2 420,-61.2 420,-44.2 380,-44.2"/>
<text text-anchor="start" x="411.8862" y="-49.3" font-family="Helvetica,sans-Serif" font-size="11.00" fill="#000000"> &#160;</text>
<polygon fill="#000000" stroke="#000000" points="320,-44.2 320,-61.2 320,-61.2 320,-44.2 320,-44.2"/>
<polygon fill="#000000" stroke="#000000" points="380,-44.2 380,-61.2 380,-61.2 380,-44.2 380,-44.2"/>
</a>
</g>
</g>
<!-- showcase_breed -->
<g id="node2" class="node">
<title>showcase_breed</title>
<g id="a_node2"><a xlink:href="../../tables/showcase_breed.html" xlink:title="showcase_breed" target="_top">
<polygon fill="#ffffff" stroke="transparent" points="8,-38.2 8,-150.2 220,-150.2 220,-38.2 8,-38.2"/>
<polygon fill="#f5f5f5" stroke="transparent" points="10,-125.2 10,-148.2 218,-148.2 218,-125.2 10,-125.2"/>
<polygon fill="none" stroke="#000000" points="10,-125.2 10,-148.2 218,-148.2 218,-125.2 10,-125.2"/>
<text text-anchor="start" x="15" y="-133.8" font-family="Helvetica,sans-Serif" font-weight="bold" font-size="11.00" fill="#000000">showcase_breed</text>
<text text-anchor="start" x="183.0437" y="-133.3" font-family="Helvetica,sans-Serif" font-size="11.00" fill="#000000">[table]</text>
<polygon fill="none" stroke="#000000" points="10,-103.2 10,-125.2 151,-125.2 151,-103.2 10,-103.2"/>
<image xlink:href="../../images/primaryKeys.png" width="11px" height="12px" preserveAspectRatio="xMinYMin meet" x="15" y="-120.2"/>
<text text-anchor="start" x="30" y="-110.3" font-family="Helvetica,sans-Serif" font-size="11.00" fill="#000000">code</text>
<polygon fill="none" stroke="#000000" points="151,-103.2 151,-125.2 218,-125.2 218,-103.2 151,-103.2"/>
<text text-anchor="start" x="154" y="-110.9" font-family="Helvetica,sans-Serif" font-size="11.00" fill="#000000">int4[10]</text>
<polygon fill="none" stroke="#000000" points="10,-81.2 10,-103.2 151,-103.2 151,-81.2 10,-81.2"/>
<text text-anchor="start" x="30" y="-88.3" font-family="Helvetica,sans-Serif" font-size="11.00" fill="#000000">name</text>
<polygon fill="none" stroke="#000000" points="151,-81.2 151,-103.2 218,-103.2 218,-81.2 151,-81.2"/>
<text text-anchor="start" x="153.9365" y="-88.9" font-family="Helvetica,sans-Serif" font-size="11.00" fill="#000000">varchar[255]</text>
<polygon fill="none" stroke="#000000" points="10,-59.2 10,-81.2 151,-81.2 151,-59.2 10,-59.2"/>
<text text-anchor="start" x="30" y="-66.3" font-family="Helvetica,sans-Serif" font-size="11.00" fill="#000000">sort_order</text>
<polygon fill="none" stroke="#000000" points="151,-59.2 151,-81.2 218,-81.2 218,-59.2 151,-59.2"/>
<text text-anchor="start" x="154" y="-66.9" font-family="Helvetica,sans-Serif" font-size="11.00" fill="#000000">int4[10]</text>
<polygon fill="#ffffff" stroke="transparent" points="10,-40.2 10,-59.2 218,-59.2 218,-40.2 10,-40.2"/>
<polygon fill="none" stroke="#000000" points="10,-40.2 10,-59.2 218,-59.2 218,-40.2 10,-40.2"/>
<polygon fill="#ffffff" stroke="transparent" points="11,-41.2 11,-58.2 72,-58.2 72,-41.2 11,-41.2"/>
<text text-anchor="start" x="13" y="-46.3" font-family="Helvetica,sans-Serif" font-size="11.00" fill="#000000">&lt; 0</text>
<polygon fill="#ffffff" stroke="transparent" points="72,-41.2 72,-58.2 156,-58.2 156,-41.2 72,-41.2"/>
<text text-anchor="start" x="94.7478" y="-46.3" font-family="Helvetica,sans-Serif" font-size="11.00" fill="#000000">40 rows</text>
<polygon fill="#ffffff" stroke="transparent" points="156,-41.2 156,-58.2 217,-58.2 217,-41.2 156,-41.2"/>
<text text-anchor="start" x="199.4053" y="-46.3" font-family="Helvetica,sans-Serif" font-size="11.00" fill="#000000">1 &gt;</text>
<polygon fill="#000000" stroke="#000000" points="72,-41.2 72,-58.2 72,-58.2 72,-41.2 72,-41.2"/>
<polygon fill="#000000" stroke="#000000" points="156,-41.2 156,-58.2 156,-58.2 156,-41.2 156,-41.2"/>
<polygon fill="none" stroke="#000000" stroke-width="2" points="9,-39.2 9,-149.2 219,-149.2 219,-39.2 9,-39.2"/>
</a>
</g>
</g>
<!-- showcase_dog&#45;&gt;showcase_breed -->
<g id="edge1" class="edge">
<title>showcase_dog:w&#45;&gt;showcase_breed:e</title>
<path fill="none" stroke="#000000" d="M254.276,-114.2C242.2815,-114.2 234.8229,-114.2 218,-114.2"/>
<polygon fill="#000000" stroke="#000000" points="261,-114.2001 269,-117.8 265,-114.2 269,-114.2 269,-114.2 269,-114.2 265,-114.2 269,-110.6 261,-114.2001 261,-114.2001"/>
<ellipse fill="none" stroke="#000000" cx="257.8" cy="-114.2001" rx="3.2" ry="3.2"/>
</g>
</g>
</svg>
