<?xml version="1.0" encoding="UTF-8" standalone="no"?>
<!DOCTYPE svg PUBLIC "-//W3C//DTD SVG 1.1//EN"
 "http://www.w3.org/Graphics/SVG/1.1/DTD/svg11.dtd">
<!-- Generated by graphviz version 2.40.1 (20161225.0304)
 -->
<!-- Title: twoDegreesRelationshipsDiagram Pages: 1 -->
<svg width="876pt" height="557pt"
 viewBox="0.00 0.00 876.00 556.70" xmlns="http://www.w3.org/2000/svg" xmlns:xlink="http://www.w3.org/1999/xlink">
<g id="graph0" class="graph" transform="scale(1 1) rotate(0) translate(4 552.7)">
<title>twoDegreesRelationshipsDiagram</title>
<polygon fill="#ffffff" stroke="transparent" points="-4,4 -4,-552.7 872,-552.7 872,4 -4,4"/>
<text text-anchor="middle" x="72.4936" y="-7.3" font-family="Helvetica,sans-Serif" font-size="11.00" fill="#000000">Generated by SchemaSpy</text>
<!-- auth_user_groups -->
<g id="node1" class="node">
<title>auth_user_groups</title>
<g id="a_node1"><a xlink:href="../../tables/auth_user_groups.html" xlink:title="auth_user_groups" target="_top">
<polygon fill="#ffffff" stroke="transparent" points="268,-483.7 268,-544.7 436,-544.7 436,-483.7 268,-483.7"/>
<polygon fill="#f5f5f5" stroke="transparent" points="268,-521.2 268,-544.2 436,-544.2 436,-521.2 268,-521.2"/>
<polygon fill="none" stroke="#000000" points="268,-521.2 268,-544.2 436,-544.2 436,-521.2 268,-521.2"/>
<text text-anchor="start" x="273" y="-529.8" font-family="Helvetica,sans-Serif" font-weight="bold" font-size="11.00" fill="#000000">auth_user_groups</text>
<text text-anchor="start" x="401.5219" y="-529.3" font-family="Helvetica,sans-Serif" font-size="11.00" fill="#000000">[table]</text>
<polygon fill="none" stroke="#000000" points="268,-502.2 268,-521.2 436,-521.2 436,-502.2 268,-502.2"/>
<text text-anchor="start" x="271" y="-508.3" font-family="Helvetica,sans-Serif" font-size="11.00" fill="#000000">...</text>
<polygon fill="#ffffff" stroke="transparent" points="268,-483.2 268,-502.2 436,-502.2 436,-483.2 268,-483.2"/>
<polygon fill="none" stroke="#000000" points="268,-483.2 268,-502.2 436,-502.2 436,-483.2 268,-483.2"/>
<polygon fill="#ffffff" stroke="transparent" points="269,-484.2 269,-501.2 331,-501.2 331,-484.2 269,-484.2"/>
<text text-anchor="start" x="271" y="-489.3" font-family="Helvetica,sans-Serif" font-size="11.00" fill="#000000">&lt; 2</text>
<polygon fill="#ffffff" stroke="transparent" points="331,-484.2 331,-501.2 383,-501.2 383,-484.2 331,-484.2"/>
<text text-anchor="start" x="353.9431" y="-489.3" font-family="Helvetica,sans-Serif" font-size="11.00" fill="#000000"> &#160;</text>
<polygon fill="#ffffff" stroke="transparent" points="383,-484.2 383,-501.2 435,-501.2 435,-484.2 383,-484.2"/>
<text text-anchor="start" x="426.8862" y="-489.3" font-family="Helvetica,sans-Serif" font-size="11.00" fill="#000000"> &#160;</text>
<polygon fill="#000000" stroke="#000000" points="331,-484.2 331,-501.2 331,-501.2 331,-484.2 331,-484.2"/>
<polygon fill="#000000" stroke="#000000" points="383,-484.2 383,-501.2 383,-501.2 383,-484.2 383,-484.2"/>
</a>
</g>
</g>
<!-- auth_user -->
<g id="node2" class="node">
<title>auth_user</title>
<g id="a_node2"><a xlink:href="../../tables/auth_user.html" xlink:title="auth_user" target="_top">
<polygon fill="#ffffff" stroke="transparent" points="8,-276.7 8,-381.7 121,-381.7 121,-276.7 8,-276.7"/>
<polygon fill="#f5f5f5" stroke="transparent" points="8.5,-358.2 8.5,-381.2 121.5,-381.2 121.5,-358.2 8.5,-358.2"/>
<polygon fill="none" stroke="#000000" points="8.5,-358.2 8.5,-381.2 121.5,-381.2 121.5,-358.2 8.5,-358.2"/>
<text text-anchor="start" x="13.5" y="-366.8" font-family="Helvetica,sans-Serif" font-weight="bold" font-size="11.00" fill="#000000">auth_user</text>
<text text-anchor="start" x="86.5437" y="-366.3" font-family="Helvetica,sans-Serif" font-size="11.00" fill="#000000">[table]</text>
<polygon fill="none" stroke="#000000" points="8.5,-336.2 8.5,-358.2 121.5,-358.2 121.5,-336.2 8.5,-336.2"/>
<image xlink:href="../../images/primaryKeys.png" width="11px" height="12px" preserveAspectRatio="xMinYMin meet" x="13.5" y="-353.2"/>
<text text-anchor="start" x="28.5" y="-343.3" font-family="Helvetica,sans-Serif" font-size="11.00" fill="#000000">id</text>
<polygon fill="#ffffff" stroke="transparent" points="8.5,-314.2 8.5,-336.2 121.5,-336.2 121.5,-314.2 8.5,-314.2"/>
<polygon fill="none" stroke="#000000" points="8.5,-314.2 8.5,-336.2 121.5,-336.2 121.5,-314.2 8.5,-314.2"/>
<text text-anchor="start" x="28.5" y="-321.3" font-family="Helvetica,sans-Serif" font-size="11.00" fill="#000000">username</text>
<polygon fill="none" stroke="#000000" points="8.5,-295.2 8.5,-314.2 121.5,-314.2 121.5,-295.2 8.5,-295.2"/>
<text text-anchor="start" x="11.5" y="-301.3" font-family="Helvetica,sans-Serif" font-size="11.00" fill="#000000">...</text>
<polygon fill="#ffffff" stroke="transparent" points="8.5,-276.2 8.5,-295.2 121.5,-295.2 121.5,-276.2 8.5,-276.2"/>
<polygon fill="none" stroke="#000000" points="8.5,-276.2 8.5,-295.2 121.5,-295.2 121.5,-276.2 8.5,-276.2"/>
<polygon fill="#ffffff" stroke="transparent" points="9.5,-277.2 9.5,-294.2 43.5,-294.2 43.5,-277.2 9.5,-277.2"/>
<text text-anchor="start" x="11.5" y="-282.3" font-family="Helvetica,sans-Serif" font-size="11.00" fill="#000000"> &#160;</text>
<polygon fill="#ffffff" stroke="transparent" points="43.5,-277.2 43.5,-294.2 77.5,-294.2 77.5,-277.2 43.5,-277.2"/>
<text text-anchor="start" x="57.4431" y="-282.3" font-family="Helvetica,sans-Serif" font-size="11.00" fill="#000000"> &#160;</text>
<polygon fill="#ffffff" stroke="transparent" points="77.5,-277.2 77.5,-294.2 120.5,-294.2 120.5,-277.2 77.5,-277.2"/>
<text text-anchor="start" x="102.9053" y="-282.3" font-family="Helvetica,sans-Serif" font-size="11.00" fill="#000000">5 &gt;</text>
<polygon fill="#000000" stroke="#000000" points="43.5,-277.2 43.5,-294.2 43.5,-294.2 43.5,-277.2 43.5,-277.2"/>
<polygon fill="#000000" stroke="#000000" points="77.5,-277.2 77.5,-294.2 77.5,-294.2 77.5,-277.2 77.5,-277.2"/>
</a>
</g>
</g>
<!-- auth_user_groups&#45;&gt;auth_user -->
<g id="edge1" class="edge">
<title>auth_user_groups:w&#45;&gt;auth_user:e</title>
<path fill="none" stroke="#000000" d="M253.3396,-511.0994C213.4267,-510.4163 193.1939,-505.4478 162,-473.2 121.1033,-430.9216 180.3218,-347.2 121.5,-347.2"/>
<polygon fill="#000000" stroke="#000000" points="260.0002,-511.145 267.9753,-514.7999 264.0001,-511.1725 268,-511.2 268,-511.2 268,-511.2 264.0001,-511.1725 268.0247,-507.6001 260.0002,-511.145 260.0002,-511.145"/>
<ellipse fill="none" stroke="#000000" cx="256.8003" cy="-511.1231" rx="3.2" ry="3.2"/>
</g>
<!-- auth_user_user_permissions -->
<g id="node3" class="node">
<title>auth_user_user_permissions</title>
<g id="a_node3"><a xlink:href="../../tables/auth_user_user_permissions.html" xlink:title="auth_user_user_permissions" target="_top">
<polygon fill="#ffffff" stroke="transparent" points="230,-401.7 230,-462.7 474,-462.7 474,-401.7 230,-401.7"/>
<polygon fill="#f5f5f5" stroke="transparent" points="230,-439.2 230,-462.2 474,-462.2 474,-439.2 230,-439.2"/>
<polygon fill="none" stroke="#000000" points="230,-439.2 230,-462.2 474,-462.2 474,-439.2 230,-439.2"/>
<text text-anchor="start" x="235" y="-447.8" font-family="Helvetica,sans-Serif" font-weight="bold" font-size="11.00" fill="#000000">auth_user_user_permissions</text>
<text text-anchor="start" x="439.5219" y="-447.3" font-family="Helvetica,sans-Serif" font-size="11.00" fill="#000000">[table]</text>
<polygon fill="none" stroke="#000000" points="230,-420.2 230,-439.2 474,-439.2 474,-420.2 230,-420.2"/>
<text text-anchor="start" x="233" y="-426.3" font-family="Helvetica,sans-Serif" font-size="11.00" fill="#000000">...</text>
<polygon fill="#ffffff" stroke="transparent" points="230,-401.2 230,-420.2 474,-420.2 474,-401.2 230,-401.2"/>
<polygon fill="none" stroke="#000000" points="230,-401.2 230,-420.2 474,-420.2 474,-401.2 230,-401.2"/>
<polygon fill="#ffffff" stroke="transparent" points="231,-402.2 231,-419.2 318,-419.2 318,-402.2 231,-402.2"/>
<text text-anchor="start" x="233" y="-407.3" font-family="Helvetica,sans-Serif" font-size="11.00" fill="#000000">&lt; 2</text>
<polygon fill="#ffffff" stroke="transparent" points="318,-402.2 318,-419.2 396,-419.2 396,-402.2 318,-402.2"/>
<text text-anchor="start" x="353.9431" y="-407.3" font-family="Helvetica,sans-Serif" font-size="11.00" fill="#000000"> &#160;</text>
<polygon fill="#ffffff" stroke="transparent" points="396,-402.2 396,-419.2 473,-419.2 473,-402.2 396,-402.2"/>
<text text-anchor="start" x="464.8862" y="-407.3" font-family="Helvetica,sans-Serif" font-size="11.00" fill="#000000"> &#160;</text>
<polygon fill="#000000" stroke="#000000" points="318,-402.2 318,-419.2 318,-419.2 318,-402.2 318,-402.2"/>
<polygon fill="#000000" stroke="#000000" points="396,-402.2 396,-419.2 396,-419.2 396,-402.2 396,-402.2"/>
</a>
</g>
</g>
<!-- auth_user_user_permissions&#45;&gt;auth_user -->
<g id="edge2" class="edge">
<title>auth_user_user_permissions:w&#45;&gt;auth_user:e</title>
<path fill="none" stroke="#000000" d="M215.3495,-427.9743C192.854,-423.7732 184.8232,-409.2148 162,-391.2 141.1374,-374.7328 148.0786,-347.2 121.5,-347.2"/>
<polygon fill="#000000" stroke="#000000" points="222.0278,-428.533 229.6999,-432.7875 226.0139,-428.8665 230,-429.2 230,-429.2 230,-429.2 226.0139,-428.8665 230.3001,-425.6125 222.0278,-428.533 222.0278,-428.533"/>
<ellipse fill="none" stroke="#000000" cx="218.839" cy="-428.2662" rx="3.2" ry="3.2"/>
</g>
<!-- django_admin_log -->
<g id="node4" class="node">
<title>django_admin_log</title>
<g id="a_node4"><a xlink:href="../../tables/django_admin_log.html" xlink:title="django_admin_log" target="_top">
<polygon fill="#ffffff" stroke="transparent" points="267,-319.7 267,-380.7 437,-380.7 437,-319.7 267,-319.7"/>
<polygon fill="#f5f5f5" stroke="transparent" points="267,-357.2 267,-380.2 437,-380.2 437,-357.2 267,-357.2"/>
<polygon fill="none" stroke="#000000" points="267,-357.2 267,-380.2 437,-380.2 437,-357.2 267,-357.2"/>
<text text-anchor="start" x="272" y="-365.8" font-family="Helvetica,sans-Serif" font-weight="bold" font-size="11.00" fill="#000000">django_admin_log</text>
<text text-anchor="start" x="402.5219" y="-365.3" font-family="Helvetica,sans-Serif" font-size="11.00" fill="#000000">[table]</text>
<polygon fill="none" stroke="#000000" points="267,-338.2 267,-357.2 437,-357.2 437,-338.2 267,-338.2"/>
<text text-anchor="start" x="270" y="-344.3" font-family="Helvetica,sans-Serif" font-size="11.00" fill="#000000">...</text>
<polygon fill="#ffffff" stroke="transparent" points="267,-319.2 267,-338.2 437,-338.2 437,-319.2 267,-319.2"/>
<polygon fill="none" stroke="#000000" points="267,-319.2 267,-338.2 437,-338.2 437,-319.2 267,-319.2"/>
<polygon fill="#ffffff" stroke="transparent" points="268,-320.2 268,-337.2 330,-337.2 330,-320.2 268,-320.2"/>
<text text-anchor="start" x="270" y="-325.3" font-family="Helvetica,sans-Serif" font-size="11.00" fill="#000000">&lt; 2</text>
<polygon fill="#ffffff" stroke="transparent" points="330,-320.2 330,-337.2 383,-337.2 383,-320.2 330,-320.2"/>
<text text-anchor="start" x="353.4431" y="-325.3" font-family="Helvetica,sans-Serif" font-size="11.00" fill="#000000"> &#160;</text>
<polygon fill="#ffffff" stroke="transparent" points="383,-320.2 383,-337.2 436,-337.2 436,-320.2 383,-320.2"/>
<text text-anchor="start" x="427.8862" y="-325.3" font-family="Helvetica,sans-Serif" font-size="11.00" fill="#000000"> &#160;</text>
<polygon fill="#000000" stroke="#000000" points="330,-320.2 330,-337.2 330,-337.2 330,-320.2 330,-320.2"/>
<polygon fill="#000000" stroke="#000000" points="383,-320.2 383,-337.2 383,-337.2 383,-320.2 383,-320.2"/>
</a>
</g>
</g>
<!-- django_admin_log&#45;&gt;auth_user -->
<g id="edge3" class="edge">
<title>django_admin_log:w&#45;&gt;auth_user:e</title>
<path fill="none" stroke="#000000" d="M252.3481,-347.2C199.4331,-347.2 180.9883,-347.2 121.5,-347.2"/>
<polygon fill="#000000" stroke="#000000" points="259,-347.2001 267,-350.8 263,-347.2 267,-347.2 267,-347.2 267,-347.2 263,-347.2 267,-343.6 259,-347.2001 259,-347.2001"/>
<ellipse fill="none" stroke="#000000" cx="255.8" cy="-347.2001" rx="3.2" ry="3.2"/>
</g>
<!-- showcase_ownerprofile -->
<g id="node5" class="node">
<title>showcase_ownerprofile</title>
<g id="a_node5"><a xlink:href="../../tables/showcase_ownerprofile.html" xlink:title="showcase_ownerprofile" target="_top">
<polygon fill="#ffffff" stroke="transparent" points="247.5,-237.7 247.5,-298.7 456.5,-298.7 456.5,-237.7 247.5,-237.7"/>
<polygon fill="#f5f5f5" stroke="transparent" points="248,-275.2 248,-298.2 457,-298.2 457,-275.2 248,-275.2"/>
<polygon fill="none" stroke="#000000" points="248,-275.2 248,-298.2 457,-298.2 457,-275.2 248,-275.2"/>
<text text-anchor="start" x="253" y="-283.8" font-family="Helvetica,sans-Serif" font-weight="bold" font-size="11.00" fill="#000000">showcase_ownerprofile</text>
<text text-anchor="start" x="422.5219" y="-283.3" font-family="Helvetica,sans-Serif" font-size="11.00" fill="#000000">[table]</text>
<polygon fill="none" stroke="#000000" points="248,-256.2 248,-275.2 457,-275.2 457,-256.2 248,-256.2"/>
<text text-anchor="start" x="251" y="-262.3" font-family="Helvetica,sans-Serif" font-size="11.00" fill="#000000">...</text>
<polygon fill="#ffffff" stroke="transparent" points="248,-237.2 248,-256.2 457,-256.2 457,-237.2 248,-237.2"/>
<polygon fill="none" stroke="#000000" points="248,-237.2 248,-256.2 457,-256.2 457,-237.2 248,-237.2"/>
<polygon fill="#ffffff" stroke="transparent" points="249,-238.2 249,-255.2 315,-255.2 315,-238.2 249,-238.2"/>
<text text-anchor="start" x="251" y="-243.3" font-family="Helvetica,sans-Serif" font-size="11.00" fill="#000000">&lt; 1</text>
<polygon fill="#ffffff" stroke="transparent" points="315,-238.2 315,-255.2 391,-255.2 391,-238.2 315,-238.2"/>
<text text-anchor="start" x="339.5553" y="-243.3" font-family="Helvetica,sans-Serif" font-size="11.00" fill="#000000">1 row</text>
<polygon fill="#ffffff" stroke="transparent" points="391,-238.2 391,-255.2 456,-255.2 456,-238.2 391,-238.2"/>
<text text-anchor="start" x="438.4053" y="-243.3" font-family="Helvetica,sans-Serif" font-size="11.00" fill="#000000">1 &gt;</text>
<polygon fill="#000000" stroke="#000000" points="315,-238.2 315,-255.2 315,-255.2 315,-238.2 315,-238.2"/>
<polygon fill="#000000" stroke="#000000" points="391,-238.2 391,-255.2 391,-255.2 391,-238.2 391,-238.2"/>
</a>
</g>
</g>
<!-- showcase_ownerprofile&#45;&gt;auth_user -->
<g id="edge4" class="edge">
<title>showcase_ownerprofile:w&#45;&gt;auth_user:e</title>
<path fill="none" stroke="#000000" d="M237.2299,-265.6571C203.4172,-268.71 193.9568,-286.7106 162,-309.2 141.8147,-323.4053 146.1827,-347.2 121.5,-347.2"/>
<polygon fill="#000000" stroke="#000000" points="247.0311,-261.2375 247.3704,-269.2303 245.7718,-269.2982 245.4325,-261.3054 247.0311,-261.2375"/>
<polyline fill="none" stroke="#000000" points="248,-265.2 244.0036,-265.3696 "/>
<ellipse fill="none" stroke="#000000" cx="240.8065" cy="-265.5054" rx="3.2" ry="3.2"/>
</g>
<!-- token_blacklist_blacklistedtoken -->
<g id="node6" class="node">
<title>token_blacklist_blacklistedtoken</title>
<g id="a_node6"><a xlink:href="../../tables/token_blacklist_blacklistedtoken.html" xlink:title="token_blacklist_blacklistedtoken" target="_top">
<polygon fill="#ffffff" stroke="transparent" points="583,-131.7 583,-236.7 860,-236.7 860,-131.7 583,-131.7"/>
<polygon fill="#f5f5f5" stroke="transparent" points="583.5,-213.2 583.5,-236.2 860.5,-236.2 860.5,-213.2 583.5,-213.2"/>
<polygon fill="none" stroke="#000000" points="583.5,-213.2 583.5,-236.2 860.5,-236.2 860.5,-213.2 583.5,-213.2"/>
<text text-anchor="start" x="588.5" y="-221.8" font-family="Helvetica,sans-Serif" font-weight="bold" font-size="11.00" fill="#000000">token_blacklist_blacklistedtoken</text>
<text text-anchor="start" x="826.0219" y="-221.3" font-family="Helvetica,sans-Serif" font-size="11.00" fill="#000000">[table]</text>
<polygon fill="none" stroke="#000000" points="583.5,-191.2 583.5,-213.2 860.5,-213.2 860.5,-191.2 583.5,-191.2"/>
<image xlink:href="../../images/primaryKeys.png" width="11px" height="12px" preserveAspectRatio="xMinYMin meet" x="588.5" y="-208.2"/>
<text text-anchor="start" x="612.5" y="-198.3" font-family="Helvetica,sans-Serif" font-size="11.00" fill="#000000">id</text>
<polygon fill="#ffffff" stroke="transparent" points="583.5,-169.2 583.5,-191.2 860.5,-191.2 860.5,-169.2 583.5,-169.2"/>
<polygon fill="none" stroke="#000000" points="583.5,-169.2 583.5,-191.2 860.5,-191.2 860.5,-169.2 583.5,-169.2"/>
<image xlink:href="../../images/foreignKeys.png" width="11px" height="12px" preserveAspectRatio="xMinYMin meet" x="588.5" y="-186.2"/>
<text text-anchor="start" x="612.5" y="-176.3" font-family="Helvetica,sans-Serif" font-size="11.00" fill="#000000">token_id</text>
<polygon fill="none" stroke="#000000" points="583.5,-150.2 583.5,-169.2 860.5,-169.2 860.5,-150.2 583.5,-150.2"/>
<text text-anchor="start" x="586.5" y="-156.3" font-family="Helvetica,sans-Serif" font-size="11.00" fill="#000000">...</text>
<polygon fill="#ffffff" stroke="transparent" points="583.5,-131.2 583.5,-150.2 860.5,-150.2 860.5,-131.2 583.5,-131.2"/>
<polygon fill="none" stroke="#000000" points="583.5,-131.2 583.5,-150.2 860.5,-150.2 860.5,-131.2 583.5,-131.2"/>
<polygon fill="#ffffff" stroke="transparent" points="584.5,-132.2 584.5,-149.2 682.5,-149.2 682.5,-132.2 584.5,-132.2"/>
<text text-anchor="start" x="586.5" y="-137.3" font-family="Helvetica,sans-Serif" font-size="11.00" fill="#000000">&lt; 1</text>
<polygon fill="#ffffff" stroke="transparent" points="682.5,-132.2 682.5,-149.2 771.5,-149.2 771.5,-132.2 682.5,-132.2"/>
<text text-anchor="start" x="723.9431" y="-137.3" font-family="Helvetica,sans-Serif" font-size="11.00" fill="#000000"> &#160;</text>
<polygon fill="#ffffff" stroke="transparent" points="771.5,-132.2 771.5,-149.2 859.5,-149.2 859.5,-132.2 771.5,-132.2"/>
<text text-anchor="start" x="851.3862" y="-137.3" font-family="Helvetica,sans-Serif" font-size="11.00" fill="#000000"> &#160;</text>
<polygon fill="#000000" stroke="#000000" points="682.5,-132.2 682.5,-149.2 682.5,-149.2 682.5,-132.2 682.5,-132.2"/>
<polygon fill="#000000" stroke="#000000" points="771.5,-132.2 771.5,-149.2 771.5,-149.2 771.5,-132.2 771.5,-132.2"/>
</a>
</g>
</g>
<!-- token_blacklist_outstandingtoken -->
<g id="node7" class="node">
<title>token_blacklist_outstandingtoken</title>
<g id="a_node7"><a xlink:href="../../tables/token_blacklist_outstandingtoken.html" xlink:title="token_blacklist_outstandingtoken" target="_top">
<polygon fill="#ffffff" stroke="transparent" points="170,-38.2 170,-216.2 534,-216.2 534,-38.2 170,-38.2"/>
<polygon fill="#f5f5f5" stroke="transparent" points="172,-191.2 172,-214.2 532,-214.2 532,-191.2 172,-191.2"/>
<polygon fill="none" stroke="#000000" points="172,-191.2 172,-214.2 532,-214.2 532,-191.2 172,-191.2"/>
<text text-anchor="start" x="177" y="-199.8" font-family="Helvetica,sans-Serif" font-weight="bold" font-size="11.00" fill="#000000">token_blacklist_outstandingtoken</text>
<text text-anchor="start" x="497.0437" y="-199.3" font-family="Helvetica,sans-Serif" font-size="11.00" fill="#000000">[table]</text>
<polygon fill="none" stroke="#000000" points="172,-169.2 172,-191.2 440,-191.2 440,-169.2 172,-169.2"/>
<image xlink:href="../../images/primaryKeys.png" width="11px" height="12px" preserveAspectRatio="xMinYMin meet" x="177" y="-186.2"/>
<text text-anchor="start" x="192" y="-176.3" font-family="Helvetica,sans-Serif" font-size="11.00" fill="#000000">id</text>
<polygon fill="none" stroke="#000000" points="440,-169.2 440,-191.2 532,-191.2 532,-169.2 440,-169.2"/>
<text text-anchor="start" x="443" y="-176.9" font-family="Helvetica,sans-Serif" font-size="11.00" fill="#000000">int8[19]</text>
<polygon fill="none" stroke="#000000" points="172,-147.2 172,-169.2 440,-169.2 440,-147.2 172,-147.2"/>
<text text-anchor="start" x="192" y="-154.3" font-family="Helvetica,sans-Serif" font-size="11.00" fill="#000000">token</text>
<polygon fill="none" stroke="#000000" points="440,-147.2 440,-169.2 532,-169.2 532,-147.2 440,-147.2"/>
<text text-anchor="start" x="443" y="-154.9" font-family="Helvetica,sans-Serif" font-size="11.00" fill="#000000">text[2147483647]</text>
<polygon fill="none" stroke="#000000" points="172,-125.2 172,-147.2 440,-147.2 440,-125.2 172,-125.2"/>
<text text-anchor="start" x="192" y="-132.3" font-family="Helvetica,sans-Serif" font-size="11.00" fill="#000000">created_at</text>
<polygon fill="none" stroke="#000000" points="440,-125.2 440,-147.2 532,-147.2 532,-125.2 440,-125.2"/>
<text text-anchor="start" x="442.6023" y="-132.9" font-family="Helvetica,sans-Serif" font-size="11.00" fill="#000000">timestamptz[35,6]</text>
<polygon fill="none" stroke="#000000" points="172,-103.2 172,-125.2 440,-125.2 440,-103.2 172,-103.2"/>
<text text-anchor="start" x="192" y="-110.3" font-family="Helvetica,sans-Serif" font-size="11.00" fill="#000000">expires_at</text>
<polygon fill="none" stroke="#000000" points="440,-103.2 440,-125.2 532,-125.2 532,-103.2 440,-103.2"/>
<text text-anchor="start" x="442.6023" y="-110.9" font-family="Helvetica,sans-Serif" font-size="11.00" fill="#000000">timestamptz[35,6]</text>
<polygon fill="#ffffff" stroke="transparent" points="172,-81.2 172,-103.2 440,-103.2 440,-81.2 172,-81.2"/>
<polygon fill="none" stroke="#000000" points="172,-81.2 172,-103.2 440,-103.2 440,-81.2 172,-81.2"/>
<image xlink:href="../../images/foreignKeys.png" width="11px" height="12px" preserveAspectRatio="xMinYMin meet" x="177" y="-98.2"/>
<text text-anchor="start" x="192" y="-88.3" font-family="Helvetica,sans-Serif" font-size="11.00" fill="#000000">user_id</text>
<polygon fill="none" stroke="#000000" points="440,-81.2 440,-103.2 532,-103.2 532,-81.2 440,-81.2"/>
<text text-anchor="start" x="443" y="-88.9" font-family="Helvetica,sans-Serif" font-size="11.00" fill="#000000">int4[10]</text>
<polygon fill="#ffffff" stroke="transparent" points="172,-59.2 172,-81.2 440,-81.2 440,-59.2 172,-59.2"/>
<polygon fill="none" stroke="#000000" points="172,-59.2 172,-81.2 440,-81.2 440,-59.2 172,-59.2"/>
<text text-anchor="start" x="192" y="-66.3" font-family="Helvetica,sans-Serif" font-size="11.00" fill="#000000">jti</text>
<polygon fill="none" stroke="#000000" points="440,-59.2 440,-81.2 532,-81.2 532,-59.2 440,-59.2"/>
<text text-anchor="start" x="443" y="-66.9" font-family="Helvetica,sans-Serif" font-size="11.00" fill="#000000">varchar[255]</text>
<polygon fill="#ffffff" stroke="transparent" points="172,-40.2 172,-59.2 532,-59.2 532,-40.2 172,-40.2"/>
<polygon fill="none" stroke="#000000" points="172,-40.2 172,-59.2 532,-59.2 532,-40.2 172,-40.2"/>
<polygon fill="#ffffff" stroke="transparent" points="173,-41.2 173,-58.2 296,-58.2 296,-41.2 173,-41.2"/>
<text text-anchor="start" x="175" y="-46.3" font-family="Helvetica,sans-Serif" font-size="11.00" fill="#000000">&lt; 1</text>
<polygon fill="#ffffff" stroke="transparent" points="296,-41.2 296,-58.2 409,-58.2 409,-41.2 296,-41.2"/>
<text text-anchor="start" x="349.4431" y="-46.3" font-family="Helvetica,sans-Serif" font-size="11.00" fill="#000000"> &#160;</text>
<polygon fill="#ffffff" stroke="transparent" points="409,-41.2 409,-58.2 531,-58.2 531,-41.2 409,-41.2"/>
<text text-anchor="start" x="513.4053" y="-46.3" font-family="Helvetica,sans-Serif" font-size="11.00" fill="#000000">1 &gt;</text>
<polygon fill="#000000" stroke="#000000" points="296,-41.2 296,-58.2 296,-58.2 296,-41.2 296,-41.2"/>
<polygon fill="#000000" stroke="#000000" points="409,-41.2 409,-58.2 409,-58.2 409,-41.2 409,-41.2"/>
<polygon fill="none" stroke="#000000" stroke-width="2" points="171,-39.2 171,-215.2 533,-215.2 533,-39.2 171,-39.2"/>
</a>
</g>
</g>
<!-- token_blacklist_blacklistedtoken&#45;&gt;token_blacklist_outstandingtoken -->
<g id="edge5" class="edge">
<title>token_blacklist_blacklistedtoken:w&#45;&gt;token_blacklist_outstandingtoken:e</title>
<path fill="none" stroke="#000000" d="M573.045,-180.2C558.137,-180.2 550.9549,-180.2 532,-180.2"/>
<polygon fill="#000000" stroke="#000000" points="582.7,-176.2 582.7,-184.2 581.1,-184.2 581.1,-176.2 582.7,-176.2"/>
<polyline fill="none" stroke="#000000" points="583.5,-180.2 579.5,-180.2 "/>
<ellipse fill="none" stroke="#000000" cx="576.3" cy="-180.2001" rx="3.2" ry="3.2"/>
</g>
<!-- token_blacklist_outstandingtoken&#45;&gt;auth_user -->
<g id="edge6" class="edge">
<title>token_blacklist_outstandingtoken:w&#45;&gt;auth_user:e</title>
<path fill="none" stroke="#000000" d="M157.6438,-93.8284C72.7433,-115.5459 231.6187,-347.2 121.5,-347.2"/>
<polygon fill="#000000" stroke="#000000" points="164.051,-93.1017 172.4058,-95.7771 168.0255,-92.6508 172,-92.2 172,-92.2 172,-92.2 168.0255,-92.6508 171.5942,-88.6229 164.051,-93.1017 164.051,-93.1017"/>
<ellipse fill="none" stroke="#000000" cx="160.8714" cy="-93.4624" rx="3.2" ry="3.2"/>
</g>
</g>
</svg>
