<?xml version="1.0" encoding="UTF-8" standalone="no"?>
<!DOCTYPE svg PUBLIC "-//W3C//DTD SVG 1.1//EN"
 "http://www.w3.org/Graphics/SVG/1.1/DTD/svg11.dtd">
<!-- Generated by graphviz version 2.40.1 (20161225.0304)
 -->
<!-- Title: twoDegreesRelationshipsDiagram Pages: 1 -->
<svg width="874pt" height="223pt"
 viewBox="0.00 0.00 874.00 222.70" xmlns="http://www.w3.org/2000/svg" xmlns:xlink="http://www.w3.org/1999/xlink">
<g id="graph0" class="graph" transform="scale(1 1) rotate(0) translate(4 218.7)">
<title>twoDegreesRelationshipsDiagram</title>
<polygon fill="#ffffff" stroke="transparent" points="-4,4 -4,-218.7 870,-218.7 870,4 -4,4"/>
<text text-anchor="middle" x="72.4936" y="-7.3" font-family="Helvetica,sans-Serif" font-size="11.00" fill="#000000">Generated by SchemaSpy</text>
<!-- token_blacklist_blacklistedtoken -->
<g id="node1" class="node">
<title>token_blacklist_blacklistedtoken</title>
<g id="a_node1"><a xlink:href="../../tables/token_blacklist_blacklistedtoken.html" xlink:title="token_blacklist_blacklistedtoken" target="_top">
<polygon fill="#ffffff" stroke="transparent" points="503,-98.7 503,-210.7 858,-210.7 858,-98.7 503,-98.7"/>
<polygon fill="#f5f5f5" stroke="transparent" points="505.5,-185.7 505.5,-208.7 856.5,-208.7 856.5,-185.7 505.5,-185.7"/>
<polygon fill="none" stroke="#000000" points="505.5,-185.7 505.5,-208.7 856.5,-208.7 856.5,-185.7 505.5,-185.7"/>
<text text-anchor="start" x="510.5" y="-194.3" font-family="Helvetica,sans-Serif" font-weight="bold" font-size="11.00" fill="#000000">token_blacklist_blacklistedtoken</text>
<text text-anchor="start" x="821.5437" y="-193.8" font-family="Helvetica,sans-Serif" font-size="11.00" fill="#000000">[table]</text>
<polygon fill="none" stroke="#000000" points="505.5,-163.7 505.5,-185.7 764.5,-185.7 764.5,-163.7 505.5,-163.7"/>
<image xlink:href="../../images/primaryKeys.png" width="11px" height="12px" preserveAspectRatio="xMinYMin meet" x="510.5" y="-180.7"/>
<text text-anchor="start" x="525.5" y="-170.8" font-family="Helvetica,sans-Serif" font-size="11.00" fill="#000000">id</text>
<polygon fill="none" stroke="#000000" points="764.5,-163.7 764.5,-185.7 856.5,-185.7 856.5,-163.7 764.5,-163.7"/>
<text text-anchor="start" x="767.5" y="-171.4" font-family="Helvetica,sans-Serif" font-size="11.00" fill="#000000">int8[19]</text>
<polygon fill="none" stroke="#000000" points="505.5,-141.7 505.5,-163.7 764.5,-163.7 764.5,-141.7 505.5,-141.7"/>
<text text-anchor="start" x="525.5" y="-148.8" font-family="Helvetica,sans-Serif" font-size="11.00" fill="#000000">blacklisted_at</text>
<polygon fill="none" stroke="#000000" points="764.5,-141.7 764.5,-163.7 856.5,-163.7 856.5,-141.7 764.5,-141.7"/>
<text text-anchor="start" x="767.1023" y="-149.4" font-family="Helvetica,sans-Serif" font-size="11.00" fill="#000000">timestamptz[35,6]</text>
<polygon fill="#ffffff" stroke="transparent" points="505.5,-119.7 505.5,-141.7 764.5,-141.7 764.5,-119.7 505.5,-119.7"/>
<polygon fill="none" stroke="#000000" points="505.5,-119.7 505.5,-141.7 764.5,-141.7 764.5,-119.7 505.5,-119.7"/>
<image xlink:href="../../images/foreignKeys.png" width="11px" height="12px" preserveAspectRatio="xMinYMin meet" x="510.5" y="-136.7"/>
<text text-anchor="start" x="525.5" y="-126.8" font-family="Helvetica,sans-Serif" font-size="11.00" fill="#000000">token_id</text>
<polygon fill="none" stroke="#000000" points="764.5,-119.7 764.5,-141.7 856.5,-141.7 856.5,-119.7 764.5,-119.7"/>
<text text-anchor="start" x="767.5" y="-127.4" font-family="Helvetica,sans-Serif" font-size="11.00" fill="#000000">int8[19]</text>
<polygon fill="#ffffff" stroke="transparent" points="505.5,-100.7 505.5,-119.7 856.5,-119.7 856.5,-100.7 505.5,-100.7"/>
<polygon fill="none" stroke="#000000" points="505.5,-100.7 505.5,-119.7 856.5,-119.7 856.5,-100.7 505.5,-100.7"/>
<polygon fill="#ffffff" stroke="transparent" points="506.5,-101.7 506.5,-118.7 626.5,-118.7 626.5,-101.7 506.5,-101.7"/>
<text text-anchor="start" x="508.5" y="-106.8" font-family="Helvetica,sans-Serif" font-size="11.00" fill="#000000">&lt; 1</text>
<polygon fill="#ffffff" stroke="transparent" points="626.5,-101.7 626.5,-118.7 736.5,-118.7 736.5,-101.7 626.5,-101.7"/>
<text text-anchor="start" x="678.4431" y="-106.8" font-family="Helvetica,sans-Serif" font-size="11.00" fill="#000000"> &#160;</text>
<polygon fill="#ffffff" stroke="transparent" points="736.5,-101.7 736.5,-118.7 855.5,-118.7 855.5,-101.7 736.5,-101.7"/>
<text text-anchor="start" x="837.9053" y="-106.8" font-family="Helvetica,sans-Serif" font-size="11.00" fill="#000000">0 &gt;</text>
<polygon fill="#000000" stroke="#000000" points="626.5,-101.7 626.5,-118.7 626.5,-118.7 626.5,-101.7 626.5,-101.7"/>
<polygon fill="#000000" stroke="#000000" points="736.5,-101.7 736.5,-118.7 736.5,-118.7 736.5,-101.7 736.5,-101.7"/>
<polygon fill="none" stroke="#000000" stroke-width="2" points="504,-99.7 504,-209.7 857,-209.7 857,-99.7 504,-99.7"/>
</a>
</g>
</g>
<!-- token_blacklist_outstandingtoken -->
<g id="node2" class="node">
<title>token_blacklist_outstandingtoken</title>
<g id="a_node2"><a xlink:href="../../tables/token_blacklist_outstandingtoken.html" xlink:title="token_blacklist_outstandingtoken" target="_top">
<polygon fill="#ffffff" stroke="transparent" points="168,-38.2 168,-165.2 454,-165.2 454,-38.2 168,-38.2"/>
<polygon fill="#f5f5f5" stroke="transparent" points="168,-141.7 168,-164.7 454,-164.7 454,-141.7 168,-141.7"/>
<polygon fill="none" stroke="#000000" points="168,-141.7 168,-164.7 454,-164.7 454,-141.7 168,-141.7"/>
<text text-anchor="start" x="173" y="-150.3" font-family="Helvetica,sans-Serif" font-weight="bold" font-size="11.00" fill="#000000">token_blacklist_outstandingtoken</text>
<text text-anchor="start" x="419.5219" y="-149.8" font-family="Helvetica,sans-Serif" font-size="11.00" fill="#000000">[table]</text>
<polygon fill="none" stroke="#000000" points="168,-119.7 168,-141.7 454,-141.7 454,-119.7 168,-119.7"/>
<image xlink:href="../../images/primaryKeys.png" width="11px" height="12px" preserveAspectRatio="xMinYMin meet" x="173" y="-136.7"/>
<text text-anchor="start" x="197" y="-126.8" font-family="Helvetica,sans-Serif" font-size="11.00" fill="#000000">id</text>
<polygon fill="#ffffff" stroke="transparent" points="168,-97.7 168,-119.7 454,-119.7 454,-97.7 168,-97.7"/>
<polygon fill="none" stroke="#000000" points="168,-97.7 168,-119.7 454,-119.7 454,-97.7 168,-97.7"/>
<image xlink:href="../../images/foreignKeys.png" width="11px" height="12px" preserveAspectRatio="xMinYMin meet" x="173" y="-114.7"/>
<text text-anchor="start" x="197" y="-104.8" font-family="Helvetica,sans-Serif" font-size="11.00" fill="#000000">user_id</text>
<polygon fill="#ffffff" stroke="transparent" points="168,-75.7 168,-97.7 454,-97.7 454,-75.7 168,-75.7"/>
<polygon fill="none" stroke="#000000" points="168,-75.7 168,-97.7 454,-97.7 454,-75.7 168,-75.7"/>
<text text-anchor="start" x="197" y="-82.8" font-family="Helvetica,sans-Serif" font-size="11.00" fill="#000000">jti</text>
<polygon fill="none" stroke="#000000" points="168,-56.7 168,-75.7 454,-75.7 454,-56.7 168,-56.7"/>
<text text-anchor="start" x="171" y="-62.8" font-family="Helvetica,sans-Serif" font-size="11.00" fill="#000000">...</text>
<polygon fill="#ffffff" stroke="transparent" points="168,-37.7 168,-56.7 454,-56.7 454,-37.7 168,-37.7"/>
<polygon fill="none" stroke="#000000" points="168,-37.7 168,-56.7 454,-56.7 454,-37.7 168,-37.7"/>
<polygon fill="#ffffff" stroke="transparent" points="169,-38.7 169,-55.7 267,-55.7 267,-38.7 169,-38.7"/>
<text text-anchor="start" x="171" y="-43.8" font-family="Helvetica,sans-Serif" font-size="11.00" fill="#000000">&lt; 1</text>
<polygon fill="#ffffff" stroke="transparent" points="267,-38.7 267,-55.7 356,-55.7 356,-38.7 267,-38.7"/>
<text text-anchor="start" x="308.4431" y="-43.8" font-family="Helvetica,sans-Serif" font-size="11.00" fill="#000000"> &#160;</text>
<polygon fill="#ffffff" stroke="transparent" points="356,-38.7 356,-55.7 453,-55.7 453,-38.7 356,-38.7"/>
<text text-anchor="start" x="435.4053" y="-43.8" font-family="Helvetica,sans-Serif" font-size="11.00" fill="#000000">1 &gt;</text>
<polygon fill="#000000" stroke="#000000" points="267,-38.7 267,-55.7 267,-55.7 267,-38.7 267,-38.7"/>
<polygon fill="#000000" stroke="#000000" points="356,-38.7 356,-55.7 356,-55.7 356,-38.7 356,-38.7"/>
</a>
</g>
</g>
<!-- token_blacklist_blacklistedtoken&#45;&gt;token_blacklist_outstandingtoken -->
<g id="edge1" class="edge">
<title>token_blacklist_blacklistedtoken:w&#45;&gt;token_blacklist_outstandingtoken:e</title>
<path fill="none" stroke="#000000" d="M495.045,-130.7C480.137,-130.7 472.9549,-130.7 454,-130.7"/>
<polygon fill="#000000" stroke="#000000" points="504.7,-126.7 504.7,-134.7 503.1,-134.7 503.1,-126.7 504.7,-126.7"/>
<polyline fill="none" stroke="#000000" points="505.5,-130.7 501.5,-130.7 "/>
<ellipse fill="none" stroke="#000000" cx="498.3" cy="-130.7001" rx="3.2" ry="3.2"/>
</g>
<!-- auth_user -->
<g id="node3" class="node">
<title>auth_user</title>
<g id="a_node3"><a xlink:href="../../tables/auth_user.html" xlink:title="auth_user" target="_top">
<polygon fill="#ffffff" stroke="transparent" points="8,-81.2 8,-142.2 119,-142.2 119,-81.2 8,-81.2"/>
<polygon fill="#f5f5f5" stroke="transparent" points="8.5,-118.7 8.5,-141.7 119.5,-141.7 119.5,-118.7 8.5,-118.7"/>
<polygon fill="none" stroke="#000000" points="8.5,-118.7 8.5,-141.7 119.5,-141.7 119.5,-118.7 8.5,-118.7"/>
<text text-anchor="start" x="13.5" y="-127.3" font-family="Helvetica,sans-Serif" font-weight="bold" font-size="11.00" fill="#000000">auth_user</text>
<text text-anchor="start" x="85.0219" y="-126.8" font-family="Helvetica,sans-Serif" font-size="11.00" fill="#000000">[table]</text>
<polygon fill="none" stroke="#000000" points="8.5,-99.7 8.5,-118.7 119.5,-118.7 119.5,-99.7 8.5,-99.7"/>
<text text-anchor="start" x="11.5" y="-105.8" font-family="Helvetica,sans-Serif" font-size="11.00" fill="#000000">...</text>
<polygon fill="#ffffff" stroke="transparent" points="8.5,-80.7 8.5,-99.7 119.5,-99.7 119.5,-80.7 8.5,-80.7"/>
<polygon fill="none" stroke="#000000" points="8.5,-80.7 8.5,-99.7 119.5,-99.7 119.5,-80.7 8.5,-80.7"/>
<polygon fill="#ffffff" stroke="transparent" points="9.5,-81.7 9.5,-98.7 43.5,-98.7 43.5,-81.7 9.5,-81.7"/>
<text text-anchor="start" x="11.5" y="-86.8" font-family="Helvetica,sans-Serif" font-size="11.00" fill="#000000"> &#160;</text>
<polygon fill="#ffffff" stroke="transparent" points="43.5,-81.7 43.5,-98.7 76.5,-98.7 76.5,-81.7 43.5,-81.7"/>
<text text-anchor="start" x="56.9431" y="-86.8" font-family="Helvetica,sans-Serif" font-size="11.00" fill="#000000"> &#160;</text>
<polygon fill="#ffffff" stroke="transparent" points="76.5,-81.7 76.5,-98.7 118.5,-98.7 118.5,-81.7 76.5,-81.7"/>
<text text-anchor="start" x="100.9053" y="-86.8" font-family="Helvetica,sans-Serif" font-size="11.00" fill="#000000">5 &gt;</text>
<polygon fill="#000000" stroke="#000000" points="43.5,-81.7 43.5,-98.7 43.5,-98.7 43.5,-81.7 43.5,-81.7"/>
<polygon fill="#000000" stroke="#000000" points="76.5,-81.7 76.5,-98.7 76.5,-98.7 76.5,-81.7 76.5,-81.7"/>
</a>
</g>
</g>
<!-- token_blacklist_outstandingtoken&#45;&gt;auth_user -->
<g id="edge2" class="edge">
<title>token_blacklist_outstandingtoken:w&#45;&gt;auth_user:e</title>
<path fill="none" stroke="#000000" d="M153.2829,-108.7C142.2886,-108.7 135.1615,-108.7 119.5,-108.7"/>
<polygon fill="#000000" stroke="#000000" points="160,-108.7001 168,-112.3 164,-108.7 168,-108.7 168,-108.7 168,-108.7 164,-108.7 168,-105.1 160,-108.7001 160,-108.7001"/>
<ellipse fill="none" stroke="#000000" cx="156.8" cy="-108.7001" rx="3.2" ry="3.2"/>
</g>
</g>
</svg>
