<?xml version="1.0" encoding="UTF-8" standalone="no"?>
<!DOCTYPE svg PUBLIC "-//W3C//DTD SVG 1.1//EN"
 "http://www.w3.org/Graphics/SVG/1.1/DTD/svg11.dtd">
<!-- Generated by graphviz version 2.40.1 (20161225.0304)
 -->
<!-- Title: oneDegreeRelationshipsDiagram Pages: 1 -->
<svg width="714pt" height="223pt"
 viewBox="0.00 0.00 714.00 222.70" xmlns="http://www.w3.org/2000/svg" xmlns:xlink="http://www.w3.org/1999/xlink">
<g id="graph0" class="graph" transform="scale(1 1) rotate(0) translate(4 218.7)">
<title>oneDegreeRelationshipsDiagram</title>
<polygon fill="#ffffff" stroke="transparent" points="-4,4 -4,-218.7 710,-218.7 710,4 -4,4"/>
<text text-anchor="middle" x="72.4936" y="-7.3" font-family="Helvetica,sans-Serif" font-size="11.00" fill="#000000">Generated by SchemaSpy</text>
<!-- token_blacklist_blacklistedtoken -->
<g id="node1" class="node">
<title>token_blacklist_blacklistedtoken</title>
<g id="a_node1"><a xlink:href="../../tables/token_blacklist_blacklistedtoken.html" xlink:title="token_blacklist_blacklistedtoken" target="_top">
<polygon fill="#ffffff" stroke="transparent" points="343,-98.7 343,-210.7 698,-210.7 698,-98.7 343,-98.7"/>
<polygon fill="#f5f5f5" stroke="transparent" points="345.5,-185.7 345.5,-208.7 696.5,-208.7 696.5,-185.7 345.5,-185.7"/>
<polygon fill="none" stroke="#000000" points="345.5,-185.7 345.5,-208.7 696.5,-208.7 696.5,-185.7 345.5,-185.7"/>
<text text-anchor="start" x="350.5" y="-194.3" font-family="Helvetica,sans-Serif" font-weight="bold" font-size="11.00" fill="#000000">token_blacklist_blacklistedtoken</text>
<text text-anchor="start" x="661.5437" y="-193.8" font-family="Helvetica,sans-Serif" font-size="11.00" fill="#000000">[table]</text>
<polygon fill="none" stroke="#000000" points="345.5,-163.7 345.5,-185.7 604.5,-185.7 604.5,-163.7 345.5,-163.7"/>
<image xlink:href="../../images/primaryKeys.png" width="11px" height="12px" preserveAspectRatio="xMinYMin meet" x="350.5" y="-180.7"/>
<text text-anchor="start" x="365.5" y="-170.8" font-family="Helvetica,sans-Serif" font-size="11.00" fill="#000000">id</text>
<polygon fill="none" stroke="#000000" points="604.5,-163.7 604.5,-185.7 696.5,-185.7 696.5,-163.7 604.5,-163.7"/>
<text text-anchor="start" x="607.5" y="-171.4" font-family="Helvetica,sans-Serif" font-size="11.00" fill="#000000">int8[19]</text>
<polygon fill="none" stroke="#000000" points="345.5,-141.7 345.5,-163.7 604.5,-163.7 604.5,-141.7 345.5,-141.7"/>
<text text-anchor="start" x="365.5" y="-148.8" font-family="Helvetica,sans-Serif" font-size="11.00" fill="#000000">blacklisted_at</text>
<polygon fill="none" stroke="#000000" points="604.5,-141.7 604.5,-163.7 696.5,-163.7 696.5,-141.7 604.5,-141.7"/>
<text text-anchor="start" x="607.1023" y="-149.4" font-family="Helvetica,sans-Serif" font-size="11.00" fill="#000000">timestamptz[35,6]</text>
<polygon fill="#ffffff" stroke="transparent" points="345.5,-119.7 345.5,-141.7 604.5,-141.7 604.5,-119.7 345.5,-119.7"/>
<polygon fill="none" stroke="#000000" points="345.5,-119.7 345.5,-141.7 604.5,-141.7 604.5,-119.7 345.5,-119.7"/>
<image xlink:href="../../images/foreignKeys.png" width="11px" height="12px" preserveAspectRatio="xMinYMin meet" x="350.5" y="-136.7"/>
<text text-anchor="start" x="365.5" y="-126.8" font-family="Helvetica,sans-Serif" font-size="11.00" fill="#000000">token_id</text>
<polygon fill="none" stroke="#000000" points="604.5,-119.7 604.5,-141.7 696.5,-141.7 696.5,-119.7 604.5,-119.7"/>
<text text-anchor="start" x="607.5" y="-127.4" font-family="Helvetica,sans-Serif" font-size="11.00" fill="#000000">int8[19]</text>
<polygon fill="#ffffff" stroke="transparent" points="345.5,-100.7 345.5,-119.7 696.5,-119.7 696.5,-100.7 345.5,-100.7"/>
<polygon fill="none" stroke="#000000" points="345.5,-100.7 345.5,-119.7 696.5,-119.7 696.5,-100.7 345.5,-100.7"/>
<polygon fill="#ffffff" stroke="transparent" points="346.5,-101.7 346.5,-118.7 466.5,-118.7 466.5,-101.7 346.5,-101.7"/>
<text text-anchor="start" x="348.5" y="-106.8" font-family="Helvetica,sans-Serif" font-size="11.00" fill="#000000">&lt; 1</text>
<polygon fill="#ffffff" stroke="transparent" points="466.5,-101.7 466.5,-118.7 576.5,-118.7 576.5,-101.7 466.5,-101.7"/>
<text text-anchor="start" x="518.4431" y="-106.8" font-family="Helvetica,sans-Serif" font-size="11.00" fill="#000000"> &#160;</text>
<polygon fill="#ffffff" stroke="transparent" points="576.5,-101.7 576.5,-118.7 695.5,-118.7 695.5,-101.7 576.5,-101.7"/>
<text text-anchor="start" x="677.9053" y="-106.8" font-family="Helvetica,sans-Serif" font-size="11.00" fill="#000000">0 &gt;</text>
<polygon fill="#000000" stroke="#000000" points="466.5,-101.7 466.5,-118.7 466.5,-118.7 466.5,-101.7 466.5,-101.7"/>
<polygon fill="#000000" stroke="#000000" points="576.5,-101.7 576.5,-118.7 576.5,-118.7 576.5,-101.7 576.5,-101.7"/>
<polygon fill="none" stroke="#000000" stroke-width="2" points="344,-99.7 344,-209.7 697,-209.7 697,-99.7 344,-99.7"/>
</a>
</g>
</g>
<!-- token_blacklist_outstandingtoken -->
<g id="node2" class="node">
<title>token_blacklist_outstandingtoken</title>
<g id="a_node2"><a xlink:href="../../tables/token_blacklist_outstandingtoken.html" xlink:title="token_blacklist_outstandingtoken" target="_top">
<polygon fill="#ffffff" stroke="transparent" points="8,-38.2 8,-165.2 294,-165.2 294,-38.2 8,-38.2"/>
<polygon fill="#f5f5f5" stroke="transparent" points="8,-141.7 8,-164.7 294,-164.7 294,-141.7 8,-141.7"/>
<polygon fill="none" stroke="#000000" points="8,-141.7 8,-164.7 294,-164.7 294,-141.7 8,-141.7"/>
<text text-anchor="start" x="13" y="-150.3" font-family="Helvetica,sans-Serif" font-weight="bold" font-size="11.00" fill="#000000">token_blacklist_outstandingtoken</text>
<text text-anchor="start" x="259.5219" y="-149.8" font-family="Helvetica,sans-Serif" font-size="11.00" fill="#000000">[table]</text>
<polygon fill="none" stroke="#000000" points="8,-119.7 8,-141.7 294,-141.7 294,-119.7 8,-119.7"/>
<image xlink:href="../../images/primaryKeys.png" width="11px" height="12px" preserveAspectRatio="xMinYMin meet" x="13" y="-136.7"/>
<text text-anchor="start" x="37" y="-126.8" font-family="Helvetica,sans-Serif" font-size="11.00" fill="#000000">id</text>
<polygon fill="#ffffff" stroke="transparent" points="8,-97.7 8,-119.7 294,-119.7 294,-97.7 8,-97.7"/>
<polygon fill="none" stroke="#000000" points="8,-97.7 8,-119.7 294,-119.7 294,-97.7 8,-97.7"/>
<image xlink:href="../../images/foreignKeys.png" width="11px" height="12px" preserveAspectRatio="xMinYMin meet" x="13" y="-114.7"/>
<text text-anchor="start" x="37" y="-104.8" font-family="Helvetica,sans-Serif" font-size="11.00" fill="#000000">user_id</text>
<polygon fill="#ffffff" stroke="transparent" points="8,-75.7 8,-97.7 294,-97.7 294,-75.7 8,-75.7"/>
<polygon fill="none" stroke="#000000" points="8,-75.7 8,-97.7 294,-97.7 294,-75.7 8,-75.7"/>
<text text-anchor="start" x="37" y="-82.8" font-family="Helvetica,sans-Serif" font-size="11.00" fill="#000000">jti</text>
<polygon fill="none" stroke="#000000" points="8,-56.7 8,-75.7 294,-75.7 294,-56.7 8,-56.7"/>
<text text-anchor="start" x="11" y="-62.8" font-family="Helvetica,sans-Serif" font-size="11.00" fill="#000000">...</text>
<polygon fill="#ffffff" stroke="transparent" points="8,-37.7 8,-56.7 294,-56.7 294,-37.7 8,-37.7"/>
<polygon fill="none" stroke="#000000" points="8,-37.7 8,-56.7 294,-56.7 294,-37.7 8,-37.7"/>
<polygon fill="#ffffff" stroke="transparent" points="9,-38.7 9,-55.7 107,-55.7 107,-38.7 9,-38.7"/>
<text text-anchor="start" x="11" y="-43.8" font-family="Helvetica,sans-Serif" font-size="11.00" fill="#000000">&lt; 1</text>
<polygon fill="#ffffff" stroke="transparent" points="107,-38.7 107,-55.7 196,-55.7 196,-38.7 107,-38.7"/>
<text text-anchor="start" x="148.4431" y="-43.8" font-family="Helvetica,sans-Serif" font-size="11.00" fill="#000000"> &#160;</text>
<polygon fill="#ffffff" stroke="transparent" points="196,-38.7 196,-55.7 293,-55.7 293,-38.7 196,-38.7"/>
<text text-anchor="start" x="275.4053" y="-43.8" font-family="Helvetica,sans-Serif" font-size="11.00" fill="#000000">1 &gt;</text>
<polygon fill="#000000" stroke="#000000" points="107,-38.7 107,-55.7 107,-55.7 107,-38.7 107,-38.7"/>
<polygon fill="#000000" stroke="#000000" points="196,-38.7 196,-55.7 196,-55.7 196,-38.7 196,-38.7"/>
</a>
</g>
</g>
<!-- token_blacklist_blacklistedtoken&#45;&gt;token_blacklist_outstandingtoken -->
<g id="edge1" class="edge">
<title>token_blacklist_blacklistedtoken:w&#45;&gt;token_blacklist_outstandingtoken:e</title>
<path fill="none" stroke="#000000" d="M335.045,-130.7C320.137,-130.7 312.9549,-130.7 294,-130.7"/>
<polygon fill="#000000" stroke="#000000" points="344.7,-126.7 344.7,-134.7 343.1,-134.7 343.1,-126.7 344.7,-126.7"/>
<polyline fill="none" stroke="#000000" points="345.5,-130.7 341.5,-130.7 "/>
<ellipse fill="none" stroke="#000000" cx="338.3" cy="-130.7001" rx="3.2" ry="3.2"/>
</g>
</g>
</svg>
