<?xml version="1.0" encoding="UTF-8" standalone="no"?>
<!DOCTYPE svg PUBLIC "-//W3C//DTD SVG 1.1//EN"
 "http://www.w3.org/Graphics/SVG/1.1/DTD/svg11.dtd">
<!-- Generated by graphviz version 2.40.1 (20161225.0304)
 -->
<!-- Title: oneDegreeRelationshipsDiagram Pages: 1 -->
<svg width="876pt" height="265pt"
 viewBox="0.00 0.00 876.00 265.20" xmlns="http://www.w3.org/2000/svg" xmlns:xlink="http://www.w3.org/1999/xlink">
<g id="graph0" class="graph" transform="scale(1 1) rotate(0) translate(4 261.2)">
<title>oneDegreeRelationshipsDiagram</title>
<polygon fill="#ffffff" stroke="transparent" points="-4,4 -4,-261.2 872,-261.2 872,4 -4,4"/>
<text text-anchor="middle" x="72.4936" y="-7.3" font-family="Helvetica,sans-Serif" font-size="11.00" fill="#000000">Generated by SchemaSpy</text>
<!-- token_blacklist_blacklistedtoken -->
<g id="node1" class="node">
<title>token_blacklist_blacklistedtoken</title>
<g id="a_node1"><a xlink:href="../../tables/token_blacklist_blacklistedtoken.html" xlink:title="token_blacklist_blacklistedtoken" target="_top">
<polygon fill="#ffffff" stroke="transparent" points="583,-148.2 583,-253.2 860,-253.2 860,-148.2 583,-148.2"/>
<polygon fill="#f5f5f5" stroke="transparent" points="583.5,-229.7 583.5,-252.7 860.5,-252.7 860.5,-229.7 583.5,-229.7"/>
<polygon fill="none" stroke="#000000" points="583.5,-229.7 583.5,-252.7 860.5,-252.7 860.5,-229.7 583.5,-229.7"/>
<text text-anchor="start" x="588.5" y="-238.3" font-family="Helvetica,sans-Serif" font-weight="bold" font-size="11.00" fill="#000000">token_blacklist_blacklistedtoken</text>
<text text-anchor="start" x="826.0219" y="-237.8" font-family="Helvetica,sans-Serif" font-size="11.00" fill="#000000">[table]</text>
<polygon fill="none" stroke="#000000" points="583.5,-207.7 583.5,-229.7 860.5,-229.7 860.5,-207.7 583.5,-207.7"/>
<image xlink:href="../../images/primaryKeys.png" width="11px" height="12px" preserveAspectRatio="xMinYMin meet" x="588.5" y="-224.7"/>
<text text-anchor="start" x="612.5" y="-214.8" font-family="Helvetica,sans-Serif" font-size="11.00" fill="#000000">id</text>
<polygon fill="#ffffff" stroke="transparent" points="583.5,-185.7 583.5,-207.7 860.5,-207.7 860.5,-185.7 583.5,-185.7"/>
<polygon fill="none" stroke="#000000" points="583.5,-185.7 583.5,-207.7 860.5,-207.7 860.5,-185.7 583.5,-185.7"/>
<image xlink:href="../../images/foreignKeys.png" width="11px" height="12px" preserveAspectRatio="xMinYMin meet" x="588.5" y="-202.7"/>
<text text-anchor="start" x="612.5" y="-192.8" font-family="Helvetica,sans-Serif" font-size="11.00" fill="#000000">token_id</text>
<polygon fill="none" stroke="#000000" points="583.5,-166.7 583.5,-185.7 860.5,-185.7 860.5,-166.7 583.5,-166.7"/>
<text text-anchor="start" x="586.5" y="-172.8" font-family="Helvetica,sans-Serif" font-size="11.00" fill="#000000">...</text>
<polygon fill="#ffffff" stroke="transparent" points="583.5,-147.7 583.5,-166.7 860.5,-166.7 860.5,-147.7 583.5,-147.7"/>
<polygon fill="none" stroke="#000000" points="583.5,-147.7 583.5,-166.7 860.5,-166.7 860.5,-147.7 583.5,-147.7"/>
<polygon fill="#ffffff" stroke="transparent" points="584.5,-148.7 584.5,-165.7 682.5,-165.7 682.5,-148.7 584.5,-148.7"/>
<text text-anchor="start" x="586.5" y="-153.8" font-family="Helvetica,sans-Serif" font-size="11.00" fill="#000000">&lt; 1</text>
<polygon fill="#ffffff" stroke="transparent" points="682.5,-148.7 682.5,-165.7 771.5,-165.7 771.5,-148.7 682.5,-148.7"/>
<text text-anchor="start" x="723.9431" y="-153.8" font-family="Helvetica,sans-Serif" font-size="11.00" fill="#000000"> &#160;</text>
<polygon fill="#ffffff" stroke="transparent" points="771.5,-148.7 771.5,-165.7 859.5,-165.7 859.5,-148.7 771.5,-148.7"/>
<text text-anchor="start" x="851.3862" y="-153.8" font-family="Helvetica,sans-Serif" font-size="11.00" fill="#000000"> &#160;</text>
<polygon fill="#000000" stroke="#000000" points="682.5,-148.7 682.5,-165.7 682.5,-165.7 682.5,-148.7 682.5,-148.7"/>
<polygon fill="#000000" stroke="#000000" points="771.5,-148.7 771.5,-165.7 771.5,-165.7 771.5,-148.7 771.5,-148.7"/>
</a>
</g>
</g>
<!-- token_blacklist_outstandingtoken -->
<g id="node2" class="node">
<title>token_blacklist_outstandingtoken</title>
<g id="a_node2"><a xlink:href="../../tables/token_blacklist_outstandingtoken.html" xlink:title="token_blacklist_outstandingtoken" target="_top">
<polygon fill="#ffffff" stroke="transparent" points="170,-54.7 170,-232.7 534,-232.7 534,-54.7 170,-54.7"/>
<polygon fill="#f5f5f5" stroke="transparent" points="172,-207.7 172,-230.7 532,-230.7 532,-207.7 172,-207.7"/>
<polygon fill="none" stroke="#000000" points="172,-207.7 172,-230.7 532,-230.7 532,-207.7 172,-207.7"/>
<text text-anchor="start" x="177" y="-216.3" font-family="Helvetica,sans-Serif" font-weight="bold" font-size="11.00" fill="#000000">token_blacklist_outstandingtoken</text>
<text text-anchor="start" x="497.0437" y="-215.8" font-family="Helvetica,sans-Serif" font-size="11.00" fill="#000000">[table]</text>
<polygon fill="none" stroke="#000000" points="172,-185.7 172,-207.7 440,-207.7 440,-185.7 172,-185.7"/>
<image xlink:href="../../images/primaryKeys.png" width="11px" height="12px" preserveAspectRatio="xMinYMin meet" x="177" y="-202.7"/>
<text text-anchor="start" x="192" y="-192.8" font-family="Helvetica,sans-Serif" font-size="11.00" fill="#000000">id</text>
<polygon fill="none" stroke="#000000" points="440,-185.7 440,-207.7 532,-207.7 532,-185.7 440,-185.7"/>
<text text-anchor="start" x="443" y="-193.4" font-family="Helvetica,sans-Serif" font-size="11.00" fill="#000000">int8[19]</text>
<polygon fill="none" stroke="#000000" points="172,-163.7 172,-185.7 440,-185.7 440,-163.7 172,-163.7"/>
<text text-anchor="start" x="192" y="-170.8" font-family="Helvetica,sans-Serif" font-size="11.00" fill="#000000">token</text>
<polygon fill="none" stroke="#000000" points="440,-163.7 440,-185.7 532,-185.7 532,-163.7 440,-163.7"/>
<text text-anchor="start" x="443" y="-171.4" font-family="Helvetica,sans-Serif" font-size="11.00" fill="#000000">text[2147483647]</text>
<polygon fill="none" stroke="#000000" points="172,-141.7 172,-163.7 440,-163.7 440,-141.7 172,-141.7"/>
<text text-anchor="start" x="192" y="-148.8" font-family="Helvetica,sans-Serif" font-size="11.00" fill="#000000">created_at</text>
<polygon fill="none" stroke="#000000" points="440,-141.7 440,-163.7 532,-163.7 532,-141.7 440,-141.7"/>
<text text-anchor="start" x="442.6023" y="-149.4" font-family="Helvetica,sans-Serif" font-size="11.00" fill="#000000">timestamptz[35,6]</text>
<polygon fill="none" stroke="#000000" points="172,-119.7 172,-141.7 440,-141.7 440,-119.7 172,-119.7"/>
<text text-anchor="start" x="192" y="-126.8" font-family="Helvetica,sans-Serif" font-size="11.00" fill="#000000">expires_at</text>
<polygon fill="none" stroke="#000000" points="440,-119.7 440,-141.7 532,-141.7 532,-119.7 440,-119.7"/>
<text text-anchor="start" x="442.6023" y="-127.4" font-family="Helvetica,sans-Serif" font-size="11.00" fill="#000000">timestamptz[35,6]</text>
<polygon fill="#ffffff" stroke="transparent" points="172,-97.7 172,-119.7 440,-119.7 440,-97.7 172,-97.7"/>
<polygon fill="none" stroke="#000000" points="172,-97.7 172,-119.7 440,-119.7 440,-97.7 172,-97.7"/>
<image xlink:href="../../images/foreignKeys.png" width="11px" height="12px" preserveAspectRatio="xMinYMin meet" x="177" y="-114.7"/>
<text text-anchor="start" x="192" y="-104.8" font-family="Helvetica,sans-Serif" font-size="11.00" fill="#000000">user_id</text>
<polygon fill="none" stroke="#000000" points="440,-97.7 440,-119.7 532,-119.7 532,-97.7 440,-97.7"/>
<text text-anchor="start" x="443" y="-105.4" font-family="Helvetica,sans-Serif" font-size="11.00" fill="#000000">int4[10]</text>
<polygon fill="#ffffff" stroke="transparent" points="172,-75.7 172,-97.7 440,-97.7 440,-75.7 172,-75.7"/>
<polygon fill="none" stroke="#000000" points="172,-75.7 172,-97.7 440,-97.7 440,-75.7 172,-75.7"/>
<text text-anchor="start" x="192" y="-82.8" font-family="Helvetica,sans-Serif" font-size="11.00" fill="#000000">jti</text>
<polygon fill="none" stroke="#000000" points="440,-75.7 440,-97.7 532,-97.7 532,-75.7 440,-75.7"/>
<text text-anchor="start" x="443" y="-83.4" font-family="Helvetica,sans-Serif" font-size="11.00" fill="#000000">varchar[255]</text>
<polygon fill="#ffffff" stroke="transparent" points="172,-56.7 172,-75.7 532,-75.7 532,-56.7 172,-56.7"/>
<polygon fill="none" stroke="#000000" points="172,-56.7 172,-75.7 532,-75.7 532,-56.7 172,-56.7"/>
<polygon fill="#ffffff" stroke="transparent" points="173,-57.7 173,-74.7 296,-74.7 296,-57.7 173,-57.7"/>
<text text-anchor="start" x="175" y="-62.8" font-family="Helvetica,sans-Serif" font-size="11.00" fill="#000000">&lt; 1</text>
<polygon fill="#ffffff" stroke="transparent" points="296,-57.7 296,-74.7 409,-74.7 409,-57.7 296,-57.7"/>
<text text-anchor="start" x="349.4431" y="-62.8" font-family="Helvetica,sans-Serif" font-size="11.00" fill="#000000"> &#160;</text>
<polygon fill="#ffffff" stroke="transparent" points="409,-57.7 409,-74.7 531,-74.7 531,-57.7 409,-57.7"/>
<text text-anchor="start" x="513.4053" y="-62.8" font-family="Helvetica,sans-Serif" font-size="11.00" fill="#000000">1 &gt;</text>
<polygon fill="#000000" stroke="#000000" points="296,-57.7 296,-74.7 296,-74.7 296,-57.7 296,-57.7"/>
<polygon fill="#000000" stroke="#000000" points="409,-57.7 409,-74.7 409,-74.7 409,-57.7 409,-57.7"/>
<polygon fill="none" stroke="#000000" stroke-width="2" points="171,-55.7 171,-231.7 533,-231.7 533,-55.7 171,-55.7"/>
</a>
</g>
</g>
<!-- token_blacklist_blacklistedtoken&#45;&gt;token_blacklist_outstandingtoken -->
<g id="edge1" class="edge">
<title>token_blacklist_blacklistedtoken:w&#45;&gt;token_blacklist_outstandingtoken:e</title>
<path fill="none" stroke="#000000" d="M573.045,-196.7C558.137,-196.7 550.9549,-196.7 532,-196.7"/>
<polygon fill="#000000" stroke="#000000" points="582.7,-192.7 582.7,-200.7 581.1,-200.7 581.1,-192.7 582.7,-192.7"/>
<polyline fill="none" stroke="#000000" points="583.5,-196.7 579.5,-196.7 "/>
<ellipse fill="none" stroke="#000000" cx="576.3" cy="-196.7001" rx="3.2" ry="3.2"/>
</g>
<!-- auth_user -->
<g id="node3" class="node">
<title>auth_user</title>
<g id="a_node3"><a xlink:href="../../tables/auth_user.html" xlink:title="auth_user" target="_top">
<polygon fill="#ffffff" stroke="transparent" points="8,-38.2 8,-143.2 121,-143.2 121,-38.2 8,-38.2"/>
<polygon fill="#f5f5f5" stroke="transparent" points="8.5,-119.7 8.5,-142.7 121.5,-142.7 121.5,-119.7 8.5,-119.7"/>
<polygon fill="none" stroke="#000000" points="8.5,-119.7 8.5,-142.7 121.5,-142.7 121.5,-119.7 8.5,-119.7"/>
<text text-anchor="start" x="13.5" y="-128.3" font-family="Helvetica,sans-Serif" font-weight="bold" font-size="11.00" fill="#000000">auth_user</text>
<text text-anchor="start" x="86.5437" y="-127.8" font-family="Helvetica,sans-Serif" font-size="11.00" fill="#000000">[table]</text>
<polygon fill="none" stroke="#000000" points="8.5,-97.7 8.5,-119.7 121.5,-119.7 121.5,-97.7 8.5,-97.7"/>
<image xlink:href="../../images/primaryKeys.png" width="11px" height="12px" preserveAspectRatio="xMinYMin meet" x="13.5" y="-114.7"/>
<text text-anchor="start" x="28.5" y="-104.8" font-family="Helvetica,sans-Serif" font-size="11.00" fill="#000000">id</text>
<polygon fill="#ffffff" stroke="transparent" points="8.5,-75.7 8.5,-97.7 121.5,-97.7 121.5,-75.7 8.5,-75.7"/>
<polygon fill="none" stroke="#000000" points="8.5,-75.7 8.5,-97.7 121.5,-97.7 121.5,-75.7 8.5,-75.7"/>
<text text-anchor="start" x="28.5" y="-82.8" font-family="Helvetica,sans-Serif" font-size="11.00" fill="#000000">username</text>
<polygon fill="none" stroke="#000000" points="8.5,-56.7 8.5,-75.7 121.5,-75.7 121.5,-56.7 8.5,-56.7"/>
<text text-anchor="start" x="11.5" y="-62.8" font-family="Helvetica,sans-Serif" font-size="11.00" fill="#000000">...</text>
<polygon fill="#ffffff" stroke="transparent" points="8.5,-37.7 8.5,-56.7 121.5,-56.7 121.5,-37.7 8.5,-37.7"/>
<polygon fill="none" stroke="#000000" points="8.5,-37.7 8.5,-56.7 121.5,-56.7 121.5,-37.7 8.5,-37.7"/>
<polygon fill="#ffffff" stroke="transparent" points="9.5,-38.7 9.5,-55.7 43.5,-55.7 43.5,-38.7 9.5,-38.7"/>
<text text-anchor="start" x="11.5" y="-43.8" font-family="Helvetica,sans-Serif" font-size="11.00" fill="#000000"> &#160;</text>
<polygon fill="#ffffff" stroke="transparent" points="43.5,-38.7 43.5,-55.7 77.5,-55.7 77.5,-38.7 43.5,-38.7"/>
<text text-anchor="start" x="57.4431" y="-43.8" font-family="Helvetica,sans-Serif" font-size="11.00" fill="#000000"> &#160;</text>
<polygon fill="#ffffff" stroke="transparent" points="77.5,-38.7 77.5,-55.7 120.5,-55.7 120.5,-38.7 77.5,-38.7"/>
<text text-anchor="start" x="102.9053" y="-43.8" font-family="Helvetica,sans-Serif" font-size="11.00" fill="#000000">5 &gt;</text>
<polygon fill="#000000" stroke="#000000" points="43.5,-38.7 43.5,-55.7 43.5,-55.7 43.5,-38.7 43.5,-38.7"/>
<polygon fill="#000000" stroke="#000000" points="77.5,-38.7 77.5,-55.7 77.5,-55.7 77.5,-38.7 77.5,-38.7"/>
</a>
</g>
</g>
<!-- token_blacklist_outstandingtoken&#45;&gt;auth_user -->
<g id="edge2" class="edge">
<title>token_blacklist_outstandingtoken:w&#45;&gt;auth_user:e</title>
<path fill="none" stroke="#000000" d="M157.4203,-108.7C145.5435,-108.7 138.158,-108.7 121.5,-108.7"/>
<polygon fill="#000000" stroke="#000000" points="164,-108.7001 172,-112.3 168,-108.7 172,-108.7 172,-108.7 172,-108.7 168,-108.7 172,-105.1 164,-108.7001 164,-108.7001"/>
<ellipse fill="none" stroke="#000000" cx="160.8" cy="-108.7001" rx="3.2" ry="3.2"/>
</g>
</g>
</svg>
